G75*
G70*
%OFA0B0*%
%FSLAX24Y24*%
%IPPOS*%
%LPD*%
%AMOC8*
5,1,8,0,0,1.08239X$1,22.5*
%
%ADD10C,0.0000*%
%ADD11C,0.0010*%
D10*
X000297Y019628D02*
X000299Y019673D01*
X000304Y019718D01*
X000314Y019762D01*
X000326Y019805D01*
X000343Y019847D01*
X000363Y019887D01*
X000386Y019926D01*
X000412Y019962D01*
X000441Y019996D01*
X000473Y020028D01*
X000507Y020057D01*
X000543Y020083D01*
X000582Y020106D01*
X000622Y020126D01*
X000664Y020143D01*
X000707Y020155D01*
X000751Y020165D01*
X000796Y020170D01*
X000841Y020172D01*
X000297Y019628D02*
X000297Y001232D01*
X000296Y001177D01*
X000300Y001121D01*
X000308Y001066D01*
X000319Y001012D01*
X000335Y000959D01*
X000354Y000907D01*
X000377Y000856D01*
X000403Y000808D01*
X000433Y000761D01*
X000466Y000716D01*
X000502Y000674D01*
X000541Y000635D01*
X000583Y000598D01*
X000627Y000565D01*
X000673Y000535D01*
X000722Y000508D01*
X000772Y000485D01*
X000824Y000465D01*
X000877Y000449D01*
X000932Y000437D01*
X000986Y000429D01*
X001042Y000425D01*
X001041Y000425D02*
X018944Y000425D01*
X018943Y000425D02*
X019001Y000428D01*
X019058Y000436D01*
X019114Y000448D01*
X019170Y000463D01*
X019224Y000481D01*
X019277Y000503D01*
X019329Y000529D01*
X019379Y000558D01*
X019427Y000590D01*
X019472Y000625D01*
X019515Y000663D01*
X019556Y000704D01*
X019594Y000748D01*
X019629Y000793D01*
X019661Y000841D01*
X019689Y000891D01*
X019715Y000943D01*
X019736Y000996D01*
X019755Y001051D01*
X019770Y001107D01*
X019781Y001163D01*
X019788Y001220D01*
X019792Y001278D01*
X019791Y001335D01*
X019792Y001335D02*
X019792Y019447D01*
X019790Y019499D01*
X019785Y019550D01*
X019775Y019601D01*
X019763Y019651D01*
X019746Y019700D01*
X019726Y019748D01*
X019703Y019794D01*
X019677Y019839D01*
X019647Y019881D01*
X019615Y019922D01*
X019580Y019960D01*
X019542Y019995D01*
X019501Y020027D01*
X019459Y020057D01*
X019414Y020083D01*
X019368Y020106D01*
X019320Y020126D01*
X019271Y020143D01*
X019221Y020155D01*
X019170Y020165D01*
X019119Y020170D01*
X019067Y020172D01*
X000841Y020172D01*
X010437Y001010D02*
X010439Y001049D01*
X010445Y001088D01*
X010455Y001126D01*
X010468Y001163D01*
X010485Y001198D01*
X010505Y001232D01*
X010529Y001263D01*
X010556Y001292D01*
X010585Y001318D01*
X010617Y001341D01*
X010651Y001361D01*
X010687Y001377D01*
X010724Y001389D01*
X010763Y001398D01*
X010802Y001403D01*
X010841Y001404D01*
X010880Y001401D01*
X010919Y001394D01*
X010956Y001383D01*
X010993Y001369D01*
X011028Y001351D01*
X011061Y001330D01*
X011092Y001305D01*
X011120Y001278D01*
X011145Y001248D01*
X011167Y001215D01*
X011186Y001181D01*
X011201Y001145D01*
X011213Y001107D01*
X011221Y001069D01*
X011225Y001030D01*
X011225Y000990D01*
X011221Y000951D01*
X011213Y000913D01*
X011201Y000875D01*
X011186Y000839D01*
X011167Y000805D01*
X011145Y000772D01*
X011120Y000742D01*
X011092Y000715D01*
X011061Y000690D01*
X011028Y000669D01*
X010993Y000651D01*
X010956Y000637D01*
X010919Y000626D01*
X010880Y000619D01*
X010841Y000616D01*
X010802Y000617D01*
X010763Y000622D01*
X010724Y000631D01*
X010687Y000643D01*
X010651Y000659D01*
X010617Y000679D01*
X010585Y000702D01*
X010556Y000728D01*
X010529Y000757D01*
X010505Y000788D01*
X010485Y000822D01*
X010468Y000857D01*
X010455Y000894D01*
X010445Y000932D01*
X010439Y000971D01*
X010437Y001010D01*
X000778Y019392D02*
X000780Y019431D01*
X000786Y019470D01*
X000796Y019508D01*
X000809Y019545D01*
X000826Y019580D01*
X000846Y019614D01*
X000870Y019645D01*
X000897Y019674D01*
X000926Y019700D01*
X000958Y019723D01*
X000992Y019743D01*
X001028Y019759D01*
X001065Y019771D01*
X001104Y019780D01*
X001143Y019785D01*
X001182Y019786D01*
X001221Y019783D01*
X001260Y019776D01*
X001297Y019765D01*
X001334Y019751D01*
X001369Y019733D01*
X001402Y019712D01*
X001433Y019687D01*
X001461Y019660D01*
X001486Y019630D01*
X001508Y019597D01*
X001527Y019563D01*
X001542Y019527D01*
X001554Y019489D01*
X001562Y019451D01*
X001566Y019412D01*
X001566Y019372D01*
X001562Y019333D01*
X001554Y019295D01*
X001542Y019257D01*
X001527Y019221D01*
X001508Y019187D01*
X001486Y019154D01*
X001461Y019124D01*
X001433Y019097D01*
X001402Y019072D01*
X001369Y019051D01*
X001334Y019033D01*
X001297Y019019D01*
X001260Y019008D01*
X001221Y019001D01*
X001182Y018998D01*
X001143Y018999D01*
X001104Y019004D01*
X001065Y019013D01*
X001028Y019025D01*
X000992Y019041D01*
X000958Y019061D01*
X000926Y019084D01*
X000897Y019110D01*
X000870Y019139D01*
X000846Y019170D01*
X000826Y019204D01*
X000809Y019239D01*
X000796Y019276D01*
X000786Y019314D01*
X000780Y019353D01*
X000778Y019392D01*
X009528Y016392D02*
X009530Y016431D01*
X009536Y016470D01*
X009546Y016508D01*
X009559Y016545D01*
X009576Y016580D01*
X009596Y016614D01*
X009620Y016645D01*
X009647Y016674D01*
X009676Y016700D01*
X009708Y016723D01*
X009742Y016743D01*
X009778Y016759D01*
X009815Y016771D01*
X009854Y016780D01*
X009893Y016785D01*
X009932Y016786D01*
X009971Y016783D01*
X010010Y016776D01*
X010047Y016765D01*
X010084Y016751D01*
X010119Y016733D01*
X010152Y016712D01*
X010183Y016687D01*
X010211Y016660D01*
X010236Y016630D01*
X010258Y016597D01*
X010277Y016563D01*
X010292Y016527D01*
X010304Y016489D01*
X010312Y016451D01*
X010316Y016412D01*
X010316Y016372D01*
X010312Y016333D01*
X010304Y016295D01*
X010292Y016257D01*
X010277Y016221D01*
X010258Y016187D01*
X010236Y016154D01*
X010211Y016124D01*
X010183Y016097D01*
X010152Y016072D01*
X010119Y016051D01*
X010084Y016033D01*
X010047Y016019D01*
X010010Y016008D01*
X009971Y016001D01*
X009932Y015998D01*
X009893Y015999D01*
X009854Y016004D01*
X009815Y016013D01*
X009778Y016025D01*
X009742Y016041D01*
X009708Y016061D01*
X009676Y016084D01*
X009647Y016110D01*
X009620Y016139D01*
X009596Y016170D01*
X009576Y016204D01*
X009559Y016239D01*
X009546Y016276D01*
X009536Y016314D01*
X009530Y016353D01*
X009528Y016392D01*
X000403Y006017D02*
X000405Y006056D01*
X000411Y006095D01*
X000421Y006133D01*
X000434Y006170D01*
X000451Y006205D01*
X000471Y006239D01*
X000495Y006270D01*
X000522Y006299D01*
X000551Y006325D01*
X000583Y006348D01*
X000617Y006368D01*
X000653Y006384D01*
X000690Y006396D01*
X000729Y006405D01*
X000768Y006410D01*
X000807Y006411D01*
X000846Y006408D01*
X000885Y006401D01*
X000922Y006390D01*
X000959Y006376D01*
X000994Y006358D01*
X001027Y006337D01*
X001058Y006312D01*
X001086Y006285D01*
X001111Y006255D01*
X001133Y006222D01*
X001152Y006188D01*
X001167Y006152D01*
X001179Y006114D01*
X001187Y006076D01*
X001191Y006037D01*
X001191Y005997D01*
X001187Y005958D01*
X001179Y005920D01*
X001167Y005882D01*
X001152Y005846D01*
X001133Y005812D01*
X001111Y005779D01*
X001086Y005749D01*
X001058Y005722D01*
X001027Y005697D01*
X000994Y005676D01*
X000959Y005658D01*
X000922Y005644D01*
X000885Y005633D01*
X000846Y005626D01*
X000807Y005623D01*
X000768Y005624D01*
X000729Y005629D01*
X000690Y005638D01*
X000653Y005650D01*
X000617Y005666D01*
X000583Y005686D01*
X000551Y005709D01*
X000522Y005735D01*
X000495Y005764D01*
X000471Y005795D01*
X000451Y005829D01*
X000434Y005864D01*
X000421Y005901D01*
X000411Y005939D01*
X000405Y005978D01*
X000403Y006017D01*
X013528Y011580D02*
X013530Y011619D01*
X013536Y011658D01*
X013546Y011696D01*
X013559Y011733D01*
X013576Y011768D01*
X013596Y011802D01*
X013620Y011833D01*
X013647Y011862D01*
X013676Y011888D01*
X013708Y011911D01*
X013742Y011931D01*
X013778Y011947D01*
X013815Y011959D01*
X013854Y011968D01*
X013893Y011973D01*
X013932Y011974D01*
X013971Y011971D01*
X014010Y011964D01*
X014047Y011953D01*
X014084Y011939D01*
X014119Y011921D01*
X014152Y011900D01*
X014183Y011875D01*
X014211Y011848D01*
X014236Y011818D01*
X014258Y011785D01*
X014277Y011751D01*
X014292Y011715D01*
X014304Y011677D01*
X014312Y011639D01*
X014316Y011600D01*
X014316Y011560D01*
X014312Y011521D01*
X014304Y011483D01*
X014292Y011445D01*
X014277Y011409D01*
X014258Y011375D01*
X014236Y011342D01*
X014211Y011312D01*
X014183Y011285D01*
X014152Y011260D01*
X014119Y011239D01*
X014084Y011221D01*
X014047Y011207D01*
X014010Y011196D01*
X013971Y011189D01*
X013932Y011186D01*
X013893Y011187D01*
X013854Y011192D01*
X013815Y011201D01*
X013778Y011213D01*
X013742Y011229D01*
X013708Y011249D01*
X013676Y011272D01*
X013647Y011298D01*
X013620Y011327D01*
X013596Y011358D01*
X013576Y011392D01*
X013559Y011427D01*
X013546Y011464D01*
X013536Y011502D01*
X013530Y011541D01*
X013528Y011580D01*
X016903Y011580D02*
X016905Y011619D01*
X016911Y011658D01*
X016921Y011696D01*
X016934Y011733D01*
X016951Y011768D01*
X016971Y011802D01*
X016995Y011833D01*
X017022Y011862D01*
X017051Y011888D01*
X017083Y011911D01*
X017117Y011931D01*
X017153Y011947D01*
X017190Y011959D01*
X017229Y011968D01*
X017268Y011973D01*
X017307Y011974D01*
X017346Y011971D01*
X017385Y011964D01*
X017422Y011953D01*
X017459Y011939D01*
X017494Y011921D01*
X017527Y011900D01*
X017558Y011875D01*
X017586Y011848D01*
X017611Y011818D01*
X017633Y011785D01*
X017652Y011751D01*
X017667Y011715D01*
X017679Y011677D01*
X017687Y011639D01*
X017691Y011600D01*
X017691Y011560D01*
X017687Y011521D01*
X017679Y011483D01*
X017667Y011445D01*
X017652Y011409D01*
X017633Y011375D01*
X017611Y011342D01*
X017586Y011312D01*
X017558Y011285D01*
X017527Y011260D01*
X017494Y011239D01*
X017459Y011221D01*
X017422Y011207D01*
X017385Y011196D01*
X017346Y011189D01*
X017307Y011186D01*
X017268Y011187D01*
X017229Y011192D01*
X017190Y011201D01*
X017153Y011213D01*
X017117Y011229D01*
X017083Y011249D01*
X017051Y011272D01*
X017022Y011298D01*
X016995Y011327D01*
X016971Y011358D01*
X016951Y011392D01*
X016934Y011427D01*
X016921Y011464D01*
X016911Y011502D01*
X016905Y011541D01*
X016903Y011580D01*
X013340Y018080D02*
X013342Y018119D01*
X013348Y018158D01*
X013358Y018196D01*
X013371Y018233D01*
X013388Y018268D01*
X013408Y018302D01*
X013432Y018333D01*
X013459Y018362D01*
X013488Y018388D01*
X013520Y018411D01*
X013554Y018431D01*
X013590Y018447D01*
X013627Y018459D01*
X013666Y018468D01*
X013705Y018473D01*
X013744Y018474D01*
X013783Y018471D01*
X013822Y018464D01*
X013859Y018453D01*
X013896Y018439D01*
X013931Y018421D01*
X013964Y018400D01*
X013995Y018375D01*
X014023Y018348D01*
X014048Y018318D01*
X014070Y018285D01*
X014089Y018251D01*
X014104Y018215D01*
X014116Y018177D01*
X014124Y018139D01*
X014128Y018100D01*
X014128Y018060D01*
X014124Y018021D01*
X014116Y017983D01*
X014104Y017945D01*
X014089Y017909D01*
X014070Y017875D01*
X014048Y017842D01*
X014023Y017812D01*
X013995Y017785D01*
X013964Y017760D01*
X013931Y017739D01*
X013896Y017721D01*
X013859Y017707D01*
X013822Y017696D01*
X013783Y017689D01*
X013744Y017686D01*
X013705Y017687D01*
X013666Y017692D01*
X013627Y017701D01*
X013590Y017713D01*
X013554Y017729D01*
X013520Y017749D01*
X013488Y017772D01*
X013459Y017798D01*
X013432Y017827D01*
X013408Y017858D01*
X013388Y017892D01*
X013371Y017927D01*
X013358Y017964D01*
X013348Y018002D01*
X013342Y018041D01*
X013340Y018080D01*
X016840Y015580D02*
X016842Y015619D01*
X016848Y015658D01*
X016858Y015696D01*
X016871Y015733D01*
X016888Y015768D01*
X016908Y015802D01*
X016932Y015833D01*
X016959Y015862D01*
X016988Y015888D01*
X017020Y015911D01*
X017054Y015931D01*
X017090Y015947D01*
X017127Y015959D01*
X017166Y015968D01*
X017205Y015973D01*
X017244Y015974D01*
X017283Y015971D01*
X017322Y015964D01*
X017359Y015953D01*
X017396Y015939D01*
X017431Y015921D01*
X017464Y015900D01*
X017495Y015875D01*
X017523Y015848D01*
X017548Y015818D01*
X017570Y015785D01*
X017589Y015751D01*
X017604Y015715D01*
X017616Y015677D01*
X017624Y015639D01*
X017628Y015600D01*
X017628Y015560D01*
X017624Y015521D01*
X017616Y015483D01*
X017604Y015445D01*
X017589Y015409D01*
X017570Y015375D01*
X017548Y015342D01*
X017523Y015312D01*
X017495Y015285D01*
X017464Y015260D01*
X017431Y015239D01*
X017396Y015221D01*
X017359Y015207D01*
X017322Y015196D01*
X017283Y015189D01*
X017244Y015186D01*
X017205Y015187D01*
X017166Y015192D01*
X017127Y015201D01*
X017090Y015213D01*
X017054Y015229D01*
X017020Y015249D01*
X016988Y015272D01*
X016959Y015298D01*
X016932Y015327D01*
X016908Y015358D01*
X016888Y015392D01*
X016871Y015427D01*
X016858Y015464D01*
X016848Y015502D01*
X016842Y015541D01*
X016840Y015580D01*
X011854Y010017D02*
X011856Y010067D01*
X011862Y010117D01*
X011872Y010166D01*
X011886Y010214D01*
X011903Y010261D01*
X011924Y010306D01*
X011949Y010350D01*
X011977Y010391D01*
X012009Y010430D01*
X012043Y010467D01*
X012080Y010501D01*
X012120Y010531D01*
X012162Y010558D01*
X012206Y010582D01*
X012252Y010603D01*
X012299Y010619D01*
X012347Y010632D01*
X012397Y010641D01*
X012446Y010646D01*
X012497Y010647D01*
X012547Y010644D01*
X012596Y010637D01*
X012645Y010626D01*
X012693Y010611D01*
X012739Y010593D01*
X012784Y010571D01*
X012827Y010545D01*
X012868Y010516D01*
X012907Y010484D01*
X012943Y010449D01*
X012975Y010411D01*
X013005Y010371D01*
X013032Y010328D01*
X013055Y010284D01*
X013074Y010238D01*
X013090Y010190D01*
X013102Y010141D01*
X013110Y010092D01*
X013114Y010042D01*
X013114Y009992D01*
X013110Y009942D01*
X013102Y009893D01*
X013090Y009844D01*
X013074Y009796D01*
X013055Y009750D01*
X013032Y009706D01*
X013005Y009663D01*
X012975Y009623D01*
X012943Y009585D01*
X012907Y009550D01*
X012868Y009518D01*
X012827Y009489D01*
X012784Y009463D01*
X012739Y009441D01*
X012693Y009423D01*
X012645Y009408D01*
X012596Y009397D01*
X012547Y009390D01*
X012497Y009387D01*
X012446Y009388D01*
X012397Y009393D01*
X012347Y009402D01*
X012299Y009415D01*
X012252Y009431D01*
X012206Y009452D01*
X012162Y009476D01*
X012120Y009503D01*
X012080Y009533D01*
X012043Y009567D01*
X012009Y009604D01*
X011977Y009643D01*
X011949Y009684D01*
X011924Y009728D01*
X011903Y009773D01*
X011886Y009820D01*
X011872Y009868D01*
X011862Y009917D01*
X011856Y009967D01*
X011854Y010017D01*
X018167Y010017D02*
X018169Y010067D01*
X018175Y010117D01*
X018185Y010166D01*
X018199Y010214D01*
X018216Y010261D01*
X018237Y010306D01*
X018262Y010350D01*
X018290Y010391D01*
X018322Y010430D01*
X018356Y010467D01*
X018393Y010501D01*
X018433Y010531D01*
X018475Y010558D01*
X018519Y010582D01*
X018565Y010603D01*
X018612Y010619D01*
X018660Y010632D01*
X018710Y010641D01*
X018759Y010646D01*
X018810Y010647D01*
X018860Y010644D01*
X018909Y010637D01*
X018958Y010626D01*
X019006Y010611D01*
X019052Y010593D01*
X019097Y010571D01*
X019140Y010545D01*
X019181Y010516D01*
X019220Y010484D01*
X019256Y010449D01*
X019288Y010411D01*
X019318Y010371D01*
X019345Y010328D01*
X019368Y010284D01*
X019387Y010238D01*
X019403Y010190D01*
X019415Y010141D01*
X019423Y010092D01*
X019427Y010042D01*
X019427Y009992D01*
X019423Y009942D01*
X019415Y009893D01*
X019403Y009844D01*
X019387Y009796D01*
X019368Y009750D01*
X019345Y009706D01*
X019318Y009663D01*
X019288Y009623D01*
X019256Y009585D01*
X019220Y009550D01*
X019181Y009518D01*
X019140Y009489D01*
X019097Y009463D01*
X019052Y009441D01*
X019006Y009423D01*
X018958Y009408D01*
X018909Y009397D01*
X018860Y009390D01*
X018810Y009387D01*
X018759Y009388D01*
X018710Y009393D01*
X018660Y009402D01*
X018612Y009415D01*
X018565Y009431D01*
X018519Y009452D01*
X018475Y009476D01*
X018433Y009503D01*
X018393Y009533D01*
X018356Y009567D01*
X018322Y009604D01*
X018290Y009643D01*
X018262Y009684D01*
X018237Y009728D01*
X018216Y009773D01*
X018199Y009820D01*
X018185Y009868D01*
X018175Y009917D01*
X018169Y009967D01*
X018167Y010017D01*
X018229Y005267D02*
X018231Y005317D01*
X018237Y005367D01*
X018247Y005416D01*
X018261Y005464D01*
X018278Y005511D01*
X018299Y005556D01*
X018324Y005600D01*
X018352Y005641D01*
X018384Y005680D01*
X018418Y005717D01*
X018455Y005751D01*
X018495Y005781D01*
X018537Y005808D01*
X018581Y005832D01*
X018627Y005853D01*
X018674Y005869D01*
X018722Y005882D01*
X018772Y005891D01*
X018821Y005896D01*
X018872Y005897D01*
X018922Y005894D01*
X018971Y005887D01*
X019020Y005876D01*
X019068Y005861D01*
X019114Y005843D01*
X019159Y005821D01*
X019202Y005795D01*
X019243Y005766D01*
X019282Y005734D01*
X019318Y005699D01*
X019350Y005661D01*
X019380Y005621D01*
X019407Y005578D01*
X019430Y005534D01*
X019449Y005488D01*
X019465Y005440D01*
X019477Y005391D01*
X019485Y005342D01*
X019489Y005292D01*
X019489Y005242D01*
X019485Y005192D01*
X019477Y005143D01*
X019465Y005094D01*
X019449Y005046D01*
X019430Y005000D01*
X019407Y004956D01*
X019380Y004913D01*
X019350Y004873D01*
X019318Y004835D01*
X019282Y004800D01*
X019243Y004768D01*
X019202Y004739D01*
X019159Y004713D01*
X019114Y004691D01*
X019068Y004673D01*
X019020Y004658D01*
X018971Y004647D01*
X018922Y004640D01*
X018872Y004637D01*
X018821Y004638D01*
X018772Y004643D01*
X018722Y004652D01*
X018674Y004665D01*
X018627Y004681D01*
X018581Y004702D01*
X018537Y004726D01*
X018495Y004753D01*
X018455Y004783D01*
X018418Y004817D01*
X018384Y004854D01*
X018352Y004893D01*
X018324Y004934D01*
X018299Y004978D01*
X018278Y005023D01*
X018261Y005070D01*
X018247Y005118D01*
X018237Y005167D01*
X018231Y005217D01*
X018229Y005267D01*
D11*
X010431Y001010D02*
X010831Y001010D01*
X011231Y001410D01*
X011231Y000610D01*
X010831Y001010D01*
X000772Y019392D02*
X001172Y019392D01*
X001572Y019792D01*
X001572Y018992D01*
X001172Y019392D01*
X009522Y016392D02*
X009922Y016392D01*
X010322Y016792D01*
X010322Y015992D01*
X009922Y016392D01*
X000397Y006017D02*
X000797Y006017D01*
X001197Y006417D01*
X001197Y005617D01*
X000797Y006017D01*
X013522Y011580D02*
X013922Y011580D01*
X014322Y011980D01*
X014322Y011180D01*
X013922Y011580D01*
X016897Y011580D02*
X017297Y011580D01*
X017697Y011980D01*
X017697Y011180D01*
X017297Y011580D01*
X013334Y018080D02*
X013734Y018080D01*
X014134Y018480D01*
X014134Y017680D01*
X013734Y018080D01*
X016834Y015580D02*
X017234Y015580D01*
X017634Y015980D01*
X017634Y015180D01*
X017234Y015580D01*
X012884Y010017D02*
X012084Y010017D01*
X012484Y009617D02*
X012484Y010417D01*
X012094Y010017D02*
X012096Y010056D01*
X012102Y010094D01*
X012111Y010132D01*
X012125Y010168D01*
X012141Y010204D01*
X012162Y010237D01*
X012185Y010268D01*
X012212Y010296D01*
X012241Y010322D01*
X012272Y010345D01*
X012306Y010364D01*
X012342Y010380D01*
X012378Y010392D01*
X012416Y010401D01*
X012455Y010406D01*
X012494Y010407D01*
X012532Y010404D01*
X012571Y010397D01*
X012608Y010387D01*
X012644Y010372D01*
X012679Y010355D01*
X012712Y010334D01*
X012742Y010309D01*
X012770Y010282D01*
X012795Y010252D01*
X012817Y010220D01*
X012835Y010186D01*
X012850Y010150D01*
X012862Y010113D01*
X012870Y010075D01*
X012874Y010036D01*
X012874Y009998D01*
X012870Y009959D01*
X012862Y009921D01*
X012850Y009884D01*
X012835Y009848D01*
X012817Y009814D01*
X012795Y009782D01*
X012770Y009752D01*
X012742Y009725D01*
X012712Y009700D01*
X012679Y009679D01*
X012644Y009662D01*
X012608Y009647D01*
X012571Y009637D01*
X012532Y009630D01*
X012494Y009627D01*
X012455Y009628D01*
X012416Y009633D01*
X012378Y009642D01*
X012342Y009654D01*
X012306Y009670D01*
X012272Y009689D01*
X012241Y009712D01*
X012212Y009738D01*
X012185Y009766D01*
X012162Y009797D01*
X012141Y009830D01*
X012125Y009866D01*
X012111Y009902D01*
X012102Y009940D01*
X012096Y009978D01*
X012094Y010017D01*
X012289Y010017D02*
X012291Y010045D01*
X012297Y010072D01*
X012307Y010098D01*
X012320Y010122D01*
X012337Y010145D01*
X012356Y010164D01*
X012379Y010181D01*
X012403Y010194D01*
X012429Y010204D01*
X012456Y010210D01*
X012484Y010212D01*
X012512Y010210D01*
X012539Y010204D01*
X012565Y010194D01*
X012589Y010181D01*
X012612Y010164D01*
X012631Y010145D01*
X012648Y010122D01*
X012661Y010098D01*
X012671Y010072D01*
X012677Y010045D01*
X012679Y010017D01*
X012677Y009989D01*
X012671Y009962D01*
X012661Y009936D01*
X012648Y009912D01*
X012631Y009889D01*
X012612Y009870D01*
X012589Y009853D01*
X012565Y009840D01*
X012539Y009830D01*
X012512Y009824D01*
X012484Y009822D01*
X012456Y009824D01*
X012429Y009830D01*
X012403Y009840D01*
X012379Y009853D01*
X012356Y009870D01*
X012337Y009889D01*
X012320Y009912D01*
X012307Y009936D01*
X012297Y009962D01*
X012291Y009989D01*
X012289Y010017D01*
X018397Y010017D02*
X019197Y010017D01*
X018797Y009617D02*
X018797Y010417D01*
X018407Y010017D02*
X018409Y010056D01*
X018415Y010094D01*
X018424Y010132D01*
X018438Y010168D01*
X018454Y010204D01*
X018475Y010237D01*
X018498Y010268D01*
X018525Y010296D01*
X018554Y010322D01*
X018585Y010345D01*
X018619Y010364D01*
X018655Y010380D01*
X018691Y010392D01*
X018729Y010401D01*
X018768Y010406D01*
X018807Y010407D01*
X018845Y010404D01*
X018884Y010397D01*
X018921Y010387D01*
X018957Y010372D01*
X018992Y010355D01*
X019025Y010334D01*
X019055Y010309D01*
X019083Y010282D01*
X019108Y010252D01*
X019130Y010220D01*
X019148Y010186D01*
X019163Y010150D01*
X019175Y010113D01*
X019183Y010075D01*
X019187Y010036D01*
X019187Y009998D01*
X019183Y009959D01*
X019175Y009921D01*
X019163Y009884D01*
X019148Y009848D01*
X019130Y009814D01*
X019108Y009782D01*
X019083Y009752D01*
X019055Y009725D01*
X019025Y009700D01*
X018992Y009679D01*
X018957Y009662D01*
X018921Y009647D01*
X018884Y009637D01*
X018845Y009630D01*
X018807Y009627D01*
X018768Y009628D01*
X018729Y009633D01*
X018691Y009642D01*
X018655Y009654D01*
X018619Y009670D01*
X018585Y009689D01*
X018554Y009712D01*
X018525Y009738D01*
X018498Y009766D01*
X018475Y009797D01*
X018454Y009830D01*
X018438Y009866D01*
X018424Y009902D01*
X018415Y009940D01*
X018409Y009978D01*
X018407Y010017D01*
X018602Y010017D02*
X018604Y010045D01*
X018610Y010072D01*
X018620Y010098D01*
X018633Y010122D01*
X018650Y010145D01*
X018669Y010164D01*
X018692Y010181D01*
X018716Y010194D01*
X018742Y010204D01*
X018769Y010210D01*
X018797Y010212D01*
X018825Y010210D01*
X018852Y010204D01*
X018878Y010194D01*
X018902Y010181D01*
X018925Y010164D01*
X018944Y010145D01*
X018961Y010122D01*
X018974Y010098D01*
X018984Y010072D01*
X018990Y010045D01*
X018992Y010017D01*
X018990Y009989D01*
X018984Y009962D01*
X018974Y009936D01*
X018961Y009912D01*
X018944Y009889D01*
X018925Y009870D01*
X018902Y009853D01*
X018878Y009840D01*
X018852Y009830D01*
X018825Y009824D01*
X018797Y009822D01*
X018769Y009824D01*
X018742Y009830D01*
X018716Y009840D01*
X018692Y009853D01*
X018669Y009870D01*
X018650Y009889D01*
X018633Y009912D01*
X018620Y009936D01*
X018610Y009962D01*
X018604Y009989D01*
X018602Y010017D01*
X018459Y005267D02*
X019259Y005267D01*
X018859Y004867D02*
X018859Y005667D01*
X018469Y005267D02*
X018471Y005306D01*
X018477Y005344D01*
X018486Y005382D01*
X018500Y005418D01*
X018516Y005454D01*
X018537Y005487D01*
X018560Y005518D01*
X018587Y005546D01*
X018616Y005572D01*
X018647Y005595D01*
X018681Y005614D01*
X018717Y005630D01*
X018753Y005642D01*
X018791Y005651D01*
X018830Y005656D01*
X018869Y005657D01*
X018907Y005654D01*
X018946Y005647D01*
X018983Y005637D01*
X019019Y005622D01*
X019054Y005605D01*
X019087Y005584D01*
X019117Y005559D01*
X019145Y005532D01*
X019170Y005502D01*
X019192Y005470D01*
X019210Y005436D01*
X019225Y005400D01*
X019237Y005363D01*
X019245Y005325D01*
X019249Y005286D01*
X019249Y005248D01*
X019245Y005209D01*
X019237Y005171D01*
X019225Y005134D01*
X019210Y005098D01*
X019192Y005064D01*
X019170Y005032D01*
X019145Y005002D01*
X019117Y004975D01*
X019087Y004950D01*
X019054Y004929D01*
X019019Y004912D01*
X018983Y004897D01*
X018946Y004887D01*
X018907Y004880D01*
X018869Y004877D01*
X018830Y004878D01*
X018791Y004883D01*
X018753Y004892D01*
X018717Y004904D01*
X018681Y004920D01*
X018647Y004939D01*
X018616Y004962D01*
X018587Y004988D01*
X018560Y005016D01*
X018537Y005047D01*
X018516Y005080D01*
X018500Y005116D01*
X018486Y005152D01*
X018477Y005190D01*
X018471Y005228D01*
X018469Y005267D01*
X018664Y005267D02*
X018666Y005295D01*
X018672Y005322D01*
X018682Y005348D01*
X018695Y005372D01*
X018712Y005395D01*
X018731Y005414D01*
X018754Y005431D01*
X018778Y005444D01*
X018804Y005454D01*
X018831Y005460D01*
X018859Y005462D01*
X018887Y005460D01*
X018914Y005454D01*
X018940Y005444D01*
X018964Y005431D01*
X018987Y005414D01*
X019006Y005395D01*
X019023Y005372D01*
X019036Y005348D01*
X019046Y005322D01*
X019052Y005295D01*
X019054Y005267D01*
X019052Y005239D01*
X019046Y005212D01*
X019036Y005186D01*
X019023Y005162D01*
X019006Y005139D01*
X018987Y005120D01*
X018964Y005103D01*
X018940Y005090D01*
X018914Y005080D01*
X018887Y005074D01*
X018859Y005072D01*
X018831Y005074D01*
X018804Y005080D01*
X018778Y005090D01*
X018754Y005103D01*
X018731Y005120D01*
X018712Y005139D01*
X018695Y005162D01*
X018682Y005186D01*
X018672Y005212D01*
X018666Y005239D01*
X018664Y005267D01*
X004532Y019767D02*
X004534Y019806D01*
X004540Y019844D01*
X004549Y019882D01*
X004563Y019918D01*
X004579Y019954D01*
X004600Y019987D01*
X004623Y020018D01*
X004650Y020046D01*
X004679Y020072D01*
X004710Y020095D01*
X004744Y020114D01*
X004780Y020130D01*
X004816Y020142D01*
X004854Y020151D01*
X004893Y020156D01*
X004932Y020157D01*
X004970Y020154D01*
X005009Y020147D01*
X005046Y020137D01*
X005082Y020122D01*
X005117Y020105D01*
X005150Y020084D01*
X005180Y020059D01*
X005208Y020032D01*
X005233Y020002D01*
X005255Y019970D01*
X005273Y019936D01*
X005288Y019900D01*
X005300Y019863D01*
X005308Y019825D01*
X005312Y019786D01*
X005312Y019748D01*
X005308Y019709D01*
X005300Y019671D01*
X005288Y019634D01*
X005273Y019598D01*
X005255Y019564D01*
X005233Y019532D01*
X005208Y019502D01*
X005180Y019475D01*
X005150Y019450D01*
X005117Y019429D01*
X005082Y019412D01*
X005046Y019397D01*
X005009Y019387D01*
X004970Y019380D01*
X004932Y019377D01*
X004893Y019378D01*
X004854Y019383D01*
X004816Y019392D01*
X004780Y019404D01*
X004744Y019420D01*
X004710Y019439D01*
X004679Y019462D01*
X004650Y019488D01*
X004623Y019516D01*
X004600Y019547D01*
X004579Y019580D01*
X004563Y019616D01*
X004549Y019652D01*
X004540Y019690D01*
X004534Y019728D01*
X004532Y019767D01*
X004522Y019367D02*
X005322Y020167D01*
X004532Y018767D02*
X004534Y018806D01*
X004540Y018844D01*
X004549Y018882D01*
X004563Y018918D01*
X004579Y018954D01*
X004600Y018987D01*
X004623Y019018D01*
X004650Y019046D01*
X004679Y019072D01*
X004710Y019095D01*
X004744Y019114D01*
X004780Y019130D01*
X004816Y019142D01*
X004854Y019151D01*
X004893Y019156D01*
X004932Y019157D01*
X004970Y019154D01*
X005009Y019147D01*
X005046Y019137D01*
X005082Y019122D01*
X005117Y019105D01*
X005150Y019084D01*
X005180Y019059D01*
X005208Y019032D01*
X005233Y019002D01*
X005255Y018970D01*
X005273Y018936D01*
X005288Y018900D01*
X005300Y018863D01*
X005308Y018825D01*
X005312Y018786D01*
X005312Y018748D01*
X005308Y018709D01*
X005300Y018671D01*
X005288Y018634D01*
X005273Y018598D01*
X005255Y018564D01*
X005233Y018532D01*
X005208Y018502D01*
X005180Y018475D01*
X005150Y018450D01*
X005117Y018429D01*
X005082Y018412D01*
X005046Y018397D01*
X005009Y018387D01*
X004970Y018380D01*
X004932Y018377D01*
X004893Y018378D01*
X004854Y018383D01*
X004816Y018392D01*
X004780Y018404D01*
X004744Y018420D01*
X004710Y018439D01*
X004679Y018462D01*
X004650Y018488D01*
X004623Y018516D01*
X004600Y018547D01*
X004579Y018580D01*
X004563Y018616D01*
X004549Y018652D01*
X004540Y018690D01*
X004534Y018728D01*
X004532Y018767D01*
X004522Y018367D02*
X005322Y019167D01*
X004532Y017767D02*
X004534Y017806D01*
X004540Y017844D01*
X004549Y017882D01*
X004563Y017918D01*
X004579Y017954D01*
X004600Y017987D01*
X004623Y018018D01*
X004650Y018046D01*
X004679Y018072D01*
X004710Y018095D01*
X004744Y018114D01*
X004780Y018130D01*
X004816Y018142D01*
X004854Y018151D01*
X004893Y018156D01*
X004932Y018157D01*
X004970Y018154D01*
X005009Y018147D01*
X005046Y018137D01*
X005082Y018122D01*
X005117Y018105D01*
X005150Y018084D01*
X005180Y018059D01*
X005208Y018032D01*
X005233Y018002D01*
X005255Y017970D01*
X005273Y017936D01*
X005288Y017900D01*
X005300Y017863D01*
X005308Y017825D01*
X005312Y017786D01*
X005312Y017748D01*
X005308Y017709D01*
X005300Y017671D01*
X005288Y017634D01*
X005273Y017598D01*
X005255Y017564D01*
X005233Y017532D01*
X005208Y017502D01*
X005180Y017475D01*
X005150Y017450D01*
X005117Y017429D01*
X005082Y017412D01*
X005046Y017397D01*
X005009Y017387D01*
X004970Y017380D01*
X004932Y017377D01*
X004893Y017378D01*
X004854Y017383D01*
X004816Y017392D01*
X004780Y017404D01*
X004744Y017420D01*
X004710Y017439D01*
X004679Y017462D01*
X004650Y017488D01*
X004623Y017516D01*
X004600Y017547D01*
X004579Y017580D01*
X004563Y017616D01*
X004549Y017652D01*
X004540Y017690D01*
X004534Y017728D01*
X004532Y017767D01*
X004522Y017367D02*
X005322Y018167D01*
X004532Y016767D02*
X004534Y016806D01*
X004540Y016844D01*
X004549Y016882D01*
X004563Y016918D01*
X004579Y016954D01*
X004600Y016987D01*
X004623Y017018D01*
X004650Y017046D01*
X004679Y017072D01*
X004710Y017095D01*
X004744Y017114D01*
X004780Y017130D01*
X004816Y017142D01*
X004854Y017151D01*
X004893Y017156D01*
X004932Y017157D01*
X004970Y017154D01*
X005009Y017147D01*
X005046Y017137D01*
X005082Y017122D01*
X005117Y017105D01*
X005150Y017084D01*
X005180Y017059D01*
X005208Y017032D01*
X005233Y017002D01*
X005255Y016970D01*
X005273Y016936D01*
X005288Y016900D01*
X005300Y016863D01*
X005308Y016825D01*
X005312Y016786D01*
X005312Y016748D01*
X005308Y016709D01*
X005300Y016671D01*
X005288Y016634D01*
X005273Y016598D01*
X005255Y016564D01*
X005233Y016532D01*
X005208Y016502D01*
X005180Y016475D01*
X005150Y016450D01*
X005117Y016429D01*
X005082Y016412D01*
X005046Y016397D01*
X005009Y016387D01*
X004970Y016380D01*
X004932Y016377D01*
X004893Y016378D01*
X004854Y016383D01*
X004816Y016392D01*
X004780Y016404D01*
X004744Y016420D01*
X004710Y016439D01*
X004679Y016462D01*
X004650Y016488D01*
X004623Y016516D01*
X004600Y016547D01*
X004579Y016580D01*
X004563Y016616D01*
X004549Y016652D01*
X004540Y016690D01*
X004534Y016728D01*
X004532Y016767D01*
X004522Y016367D02*
X005322Y017167D01*
X004532Y015767D02*
X004534Y015806D01*
X004540Y015844D01*
X004549Y015882D01*
X004563Y015918D01*
X004579Y015954D01*
X004600Y015987D01*
X004623Y016018D01*
X004650Y016046D01*
X004679Y016072D01*
X004710Y016095D01*
X004744Y016114D01*
X004780Y016130D01*
X004816Y016142D01*
X004854Y016151D01*
X004893Y016156D01*
X004932Y016157D01*
X004970Y016154D01*
X005009Y016147D01*
X005046Y016137D01*
X005082Y016122D01*
X005117Y016105D01*
X005150Y016084D01*
X005180Y016059D01*
X005208Y016032D01*
X005233Y016002D01*
X005255Y015970D01*
X005273Y015936D01*
X005288Y015900D01*
X005300Y015863D01*
X005308Y015825D01*
X005312Y015786D01*
X005312Y015748D01*
X005308Y015709D01*
X005300Y015671D01*
X005288Y015634D01*
X005273Y015598D01*
X005255Y015564D01*
X005233Y015532D01*
X005208Y015502D01*
X005180Y015475D01*
X005150Y015450D01*
X005117Y015429D01*
X005082Y015412D01*
X005046Y015397D01*
X005009Y015387D01*
X004970Y015380D01*
X004932Y015377D01*
X004893Y015378D01*
X004854Y015383D01*
X004816Y015392D01*
X004780Y015404D01*
X004744Y015420D01*
X004710Y015439D01*
X004679Y015462D01*
X004650Y015488D01*
X004623Y015516D01*
X004600Y015547D01*
X004579Y015580D01*
X004563Y015616D01*
X004549Y015652D01*
X004540Y015690D01*
X004534Y015728D01*
X004532Y015767D01*
X004522Y015367D02*
X005322Y016167D01*
X004532Y014767D02*
X004534Y014806D01*
X004540Y014844D01*
X004549Y014882D01*
X004563Y014918D01*
X004579Y014954D01*
X004600Y014987D01*
X004623Y015018D01*
X004650Y015046D01*
X004679Y015072D01*
X004710Y015095D01*
X004744Y015114D01*
X004780Y015130D01*
X004816Y015142D01*
X004854Y015151D01*
X004893Y015156D01*
X004932Y015157D01*
X004970Y015154D01*
X005009Y015147D01*
X005046Y015137D01*
X005082Y015122D01*
X005117Y015105D01*
X005150Y015084D01*
X005180Y015059D01*
X005208Y015032D01*
X005233Y015002D01*
X005255Y014970D01*
X005273Y014936D01*
X005288Y014900D01*
X005300Y014863D01*
X005308Y014825D01*
X005312Y014786D01*
X005312Y014748D01*
X005308Y014709D01*
X005300Y014671D01*
X005288Y014634D01*
X005273Y014598D01*
X005255Y014564D01*
X005233Y014532D01*
X005208Y014502D01*
X005180Y014475D01*
X005150Y014450D01*
X005117Y014429D01*
X005082Y014412D01*
X005046Y014397D01*
X005009Y014387D01*
X004970Y014380D01*
X004932Y014377D01*
X004893Y014378D01*
X004854Y014383D01*
X004816Y014392D01*
X004780Y014404D01*
X004744Y014420D01*
X004710Y014439D01*
X004679Y014462D01*
X004650Y014488D01*
X004623Y014516D01*
X004600Y014547D01*
X004579Y014580D01*
X004563Y014616D01*
X004549Y014652D01*
X004540Y014690D01*
X004534Y014728D01*
X004532Y014767D01*
X004522Y014367D02*
X005322Y015167D01*
X004532Y013767D02*
X004534Y013806D01*
X004540Y013844D01*
X004549Y013882D01*
X004563Y013918D01*
X004579Y013954D01*
X004600Y013987D01*
X004623Y014018D01*
X004650Y014046D01*
X004679Y014072D01*
X004710Y014095D01*
X004744Y014114D01*
X004780Y014130D01*
X004816Y014142D01*
X004854Y014151D01*
X004893Y014156D01*
X004932Y014157D01*
X004970Y014154D01*
X005009Y014147D01*
X005046Y014137D01*
X005082Y014122D01*
X005117Y014105D01*
X005150Y014084D01*
X005180Y014059D01*
X005208Y014032D01*
X005233Y014002D01*
X005255Y013970D01*
X005273Y013936D01*
X005288Y013900D01*
X005300Y013863D01*
X005308Y013825D01*
X005312Y013786D01*
X005312Y013748D01*
X005308Y013709D01*
X005300Y013671D01*
X005288Y013634D01*
X005273Y013598D01*
X005255Y013564D01*
X005233Y013532D01*
X005208Y013502D01*
X005180Y013475D01*
X005150Y013450D01*
X005117Y013429D01*
X005082Y013412D01*
X005046Y013397D01*
X005009Y013387D01*
X004970Y013380D01*
X004932Y013377D01*
X004893Y013378D01*
X004854Y013383D01*
X004816Y013392D01*
X004780Y013404D01*
X004744Y013420D01*
X004710Y013439D01*
X004679Y013462D01*
X004650Y013488D01*
X004623Y013516D01*
X004600Y013547D01*
X004579Y013580D01*
X004563Y013616D01*
X004549Y013652D01*
X004540Y013690D01*
X004534Y013728D01*
X004532Y013767D01*
X004522Y013367D02*
X005322Y014167D01*
X004532Y012767D02*
X004534Y012806D01*
X004540Y012844D01*
X004549Y012882D01*
X004563Y012918D01*
X004579Y012954D01*
X004600Y012987D01*
X004623Y013018D01*
X004650Y013046D01*
X004679Y013072D01*
X004710Y013095D01*
X004744Y013114D01*
X004780Y013130D01*
X004816Y013142D01*
X004854Y013151D01*
X004893Y013156D01*
X004932Y013157D01*
X004970Y013154D01*
X005009Y013147D01*
X005046Y013137D01*
X005082Y013122D01*
X005117Y013105D01*
X005150Y013084D01*
X005180Y013059D01*
X005208Y013032D01*
X005233Y013002D01*
X005255Y012970D01*
X005273Y012936D01*
X005288Y012900D01*
X005300Y012863D01*
X005308Y012825D01*
X005312Y012786D01*
X005312Y012748D01*
X005308Y012709D01*
X005300Y012671D01*
X005288Y012634D01*
X005273Y012598D01*
X005255Y012564D01*
X005233Y012532D01*
X005208Y012502D01*
X005180Y012475D01*
X005150Y012450D01*
X005117Y012429D01*
X005082Y012412D01*
X005046Y012397D01*
X005009Y012387D01*
X004970Y012380D01*
X004932Y012377D01*
X004893Y012378D01*
X004854Y012383D01*
X004816Y012392D01*
X004780Y012404D01*
X004744Y012420D01*
X004710Y012439D01*
X004679Y012462D01*
X004650Y012488D01*
X004623Y012516D01*
X004600Y012547D01*
X004579Y012580D01*
X004563Y012616D01*
X004549Y012652D01*
X004540Y012690D01*
X004534Y012728D01*
X004532Y012767D01*
X004522Y012367D02*
X005322Y013167D01*
X004532Y011767D02*
X004534Y011806D01*
X004540Y011844D01*
X004549Y011882D01*
X004563Y011918D01*
X004579Y011954D01*
X004600Y011987D01*
X004623Y012018D01*
X004650Y012046D01*
X004679Y012072D01*
X004710Y012095D01*
X004744Y012114D01*
X004780Y012130D01*
X004816Y012142D01*
X004854Y012151D01*
X004893Y012156D01*
X004932Y012157D01*
X004970Y012154D01*
X005009Y012147D01*
X005046Y012137D01*
X005082Y012122D01*
X005117Y012105D01*
X005150Y012084D01*
X005180Y012059D01*
X005208Y012032D01*
X005233Y012002D01*
X005255Y011970D01*
X005273Y011936D01*
X005288Y011900D01*
X005300Y011863D01*
X005308Y011825D01*
X005312Y011786D01*
X005312Y011748D01*
X005308Y011709D01*
X005300Y011671D01*
X005288Y011634D01*
X005273Y011598D01*
X005255Y011564D01*
X005233Y011532D01*
X005208Y011502D01*
X005180Y011475D01*
X005150Y011450D01*
X005117Y011429D01*
X005082Y011412D01*
X005046Y011397D01*
X005009Y011387D01*
X004970Y011380D01*
X004932Y011377D01*
X004893Y011378D01*
X004854Y011383D01*
X004816Y011392D01*
X004780Y011404D01*
X004744Y011420D01*
X004710Y011439D01*
X004679Y011462D01*
X004650Y011488D01*
X004623Y011516D01*
X004600Y011547D01*
X004579Y011580D01*
X004563Y011616D01*
X004549Y011652D01*
X004540Y011690D01*
X004534Y011728D01*
X004532Y011767D01*
X004522Y011367D02*
X005322Y012167D01*
X004532Y010767D02*
X004534Y010806D01*
X004540Y010844D01*
X004549Y010882D01*
X004563Y010918D01*
X004579Y010954D01*
X004600Y010987D01*
X004623Y011018D01*
X004650Y011046D01*
X004679Y011072D01*
X004710Y011095D01*
X004744Y011114D01*
X004780Y011130D01*
X004816Y011142D01*
X004854Y011151D01*
X004893Y011156D01*
X004932Y011157D01*
X004970Y011154D01*
X005009Y011147D01*
X005046Y011137D01*
X005082Y011122D01*
X005117Y011105D01*
X005150Y011084D01*
X005180Y011059D01*
X005208Y011032D01*
X005233Y011002D01*
X005255Y010970D01*
X005273Y010936D01*
X005288Y010900D01*
X005300Y010863D01*
X005308Y010825D01*
X005312Y010786D01*
X005312Y010748D01*
X005308Y010709D01*
X005300Y010671D01*
X005288Y010634D01*
X005273Y010598D01*
X005255Y010564D01*
X005233Y010532D01*
X005208Y010502D01*
X005180Y010475D01*
X005150Y010450D01*
X005117Y010429D01*
X005082Y010412D01*
X005046Y010397D01*
X005009Y010387D01*
X004970Y010380D01*
X004932Y010377D01*
X004893Y010378D01*
X004854Y010383D01*
X004816Y010392D01*
X004780Y010404D01*
X004744Y010420D01*
X004710Y010439D01*
X004679Y010462D01*
X004650Y010488D01*
X004623Y010516D01*
X004600Y010547D01*
X004579Y010580D01*
X004563Y010616D01*
X004549Y010652D01*
X004540Y010690D01*
X004534Y010728D01*
X004532Y010767D01*
X004522Y010367D02*
X005322Y011167D01*
X004532Y009767D02*
X004534Y009806D01*
X004540Y009844D01*
X004549Y009882D01*
X004563Y009918D01*
X004579Y009954D01*
X004600Y009987D01*
X004623Y010018D01*
X004650Y010046D01*
X004679Y010072D01*
X004710Y010095D01*
X004744Y010114D01*
X004780Y010130D01*
X004816Y010142D01*
X004854Y010151D01*
X004893Y010156D01*
X004932Y010157D01*
X004970Y010154D01*
X005009Y010147D01*
X005046Y010137D01*
X005082Y010122D01*
X005117Y010105D01*
X005150Y010084D01*
X005180Y010059D01*
X005208Y010032D01*
X005233Y010002D01*
X005255Y009970D01*
X005273Y009936D01*
X005288Y009900D01*
X005300Y009863D01*
X005308Y009825D01*
X005312Y009786D01*
X005312Y009748D01*
X005308Y009709D01*
X005300Y009671D01*
X005288Y009634D01*
X005273Y009598D01*
X005255Y009564D01*
X005233Y009532D01*
X005208Y009502D01*
X005180Y009475D01*
X005150Y009450D01*
X005117Y009429D01*
X005082Y009412D01*
X005046Y009397D01*
X005009Y009387D01*
X004970Y009380D01*
X004932Y009377D01*
X004893Y009378D01*
X004854Y009383D01*
X004816Y009392D01*
X004780Y009404D01*
X004744Y009420D01*
X004710Y009439D01*
X004679Y009462D01*
X004650Y009488D01*
X004623Y009516D01*
X004600Y009547D01*
X004579Y009580D01*
X004563Y009616D01*
X004549Y009652D01*
X004540Y009690D01*
X004534Y009728D01*
X004532Y009767D01*
X004522Y009367D02*
X005322Y010167D01*
X004532Y008767D02*
X004534Y008806D01*
X004540Y008844D01*
X004549Y008882D01*
X004563Y008918D01*
X004579Y008954D01*
X004600Y008987D01*
X004623Y009018D01*
X004650Y009046D01*
X004679Y009072D01*
X004710Y009095D01*
X004744Y009114D01*
X004780Y009130D01*
X004816Y009142D01*
X004854Y009151D01*
X004893Y009156D01*
X004932Y009157D01*
X004970Y009154D01*
X005009Y009147D01*
X005046Y009137D01*
X005082Y009122D01*
X005117Y009105D01*
X005150Y009084D01*
X005180Y009059D01*
X005208Y009032D01*
X005233Y009002D01*
X005255Y008970D01*
X005273Y008936D01*
X005288Y008900D01*
X005300Y008863D01*
X005308Y008825D01*
X005312Y008786D01*
X005312Y008748D01*
X005308Y008709D01*
X005300Y008671D01*
X005288Y008634D01*
X005273Y008598D01*
X005255Y008564D01*
X005233Y008532D01*
X005208Y008502D01*
X005180Y008475D01*
X005150Y008450D01*
X005117Y008429D01*
X005082Y008412D01*
X005046Y008397D01*
X005009Y008387D01*
X004970Y008380D01*
X004932Y008377D01*
X004893Y008378D01*
X004854Y008383D01*
X004816Y008392D01*
X004780Y008404D01*
X004744Y008420D01*
X004710Y008439D01*
X004679Y008462D01*
X004650Y008488D01*
X004623Y008516D01*
X004600Y008547D01*
X004579Y008580D01*
X004563Y008616D01*
X004549Y008652D01*
X004540Y008690D01*
X004534Y008728D01*
X004532Y008767D01*
X004522Y008367D02*
X005322Y009167D01*
X004532Y007767D02*
X004534Y007806D01*
X004540Y007844D01*
X004549Y007882D01*
X004563Y007918D01*
X004579Y007954D01*
X004600Y007987D01*
X004623Y008018D01*
X004650Y008046D01*
X004679Y008072D01*
X004710Y008095D01*
X004744Y008114D01*
X004780Y008130D01*
X004816Y008142D01*
X004854Y008151D01*
X004893Y008156D01*
X004932Y008157D01*
X004970Y008154D01*
X005009Y008147D01*
X005046Y008137D01*
X005082Y008122D01*
X005117Y008105D01*
X005150Y008084D01*
X005180Y008059D01*
X005208Y008032D01*
X005233Y008002D01*
X005255Y007970D01*
X005273Y007936D01*
X005288Y007900D01*
X005300Y007863D01*
X005308Y007825D01*
X005312Y007786D01*
X005312Y007748D01*
X005308Y007709D01*
X005300Y007671D01*
X005288Y007634D01*
X005273Y007598D01*
X005255Y007564D01*
X005233Y007532D01*
X005208Y007502D01*
X005180Y007475D01*
X005150Y007450D01*
X005117Y007429D01*
X005082Y007412D01*
X005046Y007397D01*
X005009Y007387D01*
X004970Y007380D01*
X004932Y007377D01*
X004893Y007378D01*
X004854Y007383D01*
X004816Y007392D01*
X004780Y007404D01*
X004744Y007420D01*
X004710Y007439D01*
X004679Y007462D01*
X004650Y007488D01*
X004623Y007516D01*
X004600Y007547D01*
X004579Y007580D01*
X004563Y007616D01*
X004549Y007652D01*
X004540Y007690D01*
X004534Y007728D01*
X004532Y007767D01*
X004522Y007367D02*
X005322Y008167D01*
X004532Y006767D02*
X004534Y006806D01*
X004540Y006844D01*
X004549Y006882D01*
X004563Y006918D01*
X004579Y006954D01*
X004600Y006987D01*
X004623Y007018D01*
X004650Y007046D01*
X004679Y007072D01*
X004710Y007095D01*
X004744Y007114D01*
X004780Y007130D01*
X004816Y007142D01*
X004854Y007151D01*
X004893Y007156D01*
X004932Y007157D01*
X004970Y007154D01*
X005009Y007147D01*
X005046Y007137D01*
X005082Y007122D01*
X005117Y007105D01*
X005150Y007084D01*
X005180Y007059D01*
X005208Y007032D01*
X005233Y007002D01*
X005255Y006970D01*
X005273Y006936D01*
X005288Y006900D01*
X005300Y006863D01*
X005308Y006825D01*
X005312Y006786D01*
X005312Y006748D01*
X005308Y006709D01*
X005300Y006671D01*
X005288Y006634D01*
X005273Y006598D01*
X005255Y006564D01*
X005233Y006532D01*
X005208Y006502D01*
X005180Y006475D01*
X005150Y006450D01*
X005117Y006429D01*
X005082Y006412D01*
X005046Y006397D01*
X005009Y006387D01*
X004970Y006380D01*
X004932Y006377D01*
X004893Y006378D01*
X004854Y006383D01*
X004816Y006392D01*
X004780Y006404D01*
X004744Y006420D01*
X004710Y006439D01*
X004679Y006462D01*
X004650Y006488D01*
X004623Y006516D01*
X004600Y006547D01*
X004579Y006580D01*
X004563Y006616D01*
X004549Y006652D01*
X004540Y006690D01*
X004534Y006728D01*
X004532Y006767D01*
X004522Y006367D02*
X005322Y007167D01*
X007532Y006767D02*
X007534Y006806D01*
X007540Y006844D01*
X007549Y006882D01*
X007563Y006918D01*
X007579Y006954D01*
X007600Y006987D01*
X007623Y007018D01*
X007650Y007046D01*
X007679Y007072D01*
X007710Y007095D01*
X007744Y007114D01*
X007780Y007130D01*
X007816Y007142D01*
X007854Y007151D01*
X007893Y007156D01*
X007932Y007157D01*
X007970Y007154D01*
X008009Y007147D01*
X008046Y007137D01*
X008082Y007122D01*
X008117Y007105D01*
X008150Y007084D01*
X008180Y007059D01*
X008208Y007032D01*
X008233Y007002D01*
X008255Y006970D01*
X008273Y006936D01*
X008288Y006900D01*
X008300Y006863D01*
X008308Y006825D01*
X008312Y006786D01*
X008312Y006748D01*
X008308Y006709D01*
X008300Y006671D01*
X008288Y006634D01*
X008273Y006598D01*
X008255Y006564D01*
X008233Y006532D01*
X008208Y006502D01*
X008180Y006475D01*
X008150Y006450D01*
X008117Y006429D01*
X008082Y006412D01*
X008046Y006397D01*
X008009Y006387D01*
X007970Y006380D01*
X007932Y006377D01*
X007893Y006378D01*
X007854Y006383D01*
X007816Y006392D01*
X007780Y006404D01*
X007744Y006420D01*
X007710Y006439D01*
X007679Y006462D01*
X007650Y006488D01*
X007623Y006516D01*
X007600Y006547D01*
X007579Y006580D01*
X007563Y006616D01*
X007549Y006652D01*
X007540Y006690D01*
X007534Y006728D01*
X007532Y006767D01*
X007522Y006367D02*
X008322Y007167D01*
X007532Y007767D02*
X007534Y007806D01*
X007540Y007844D01*
X007549Y007882D01*
X007563Y007918D01*
X007579Y007954D01*
X007600Y007987D01*
X007623Y008018D01*
X007650Y008046D01*
X007679Y008072D01*
X007710Y008095D01*
X007744Y008114D01*
X007780Y008130D01*
X007816Y008142D01*
X007854Y008151D01*
X007893Y008156D01*
X007932Y008157D01*
X007970Y008154D01*
X008009Y008147D01*
X008046Y008137D01*
X008082Y008122D01*
X008117Y008105D01*
X008150Y008084D01*
X008180Y008059D01*
X008208Y008032D01*
X008233Y008002D01*
X008255Y007970D01*
X008273Y007936D01*
X008288Y007900D01*
X008300Y007863D01*
X008308Y007825D01*
X008312Y007786D01*
X008312Y007748D01*
X008308Y007709D01*
X008300Y007671D01*
X008288Y007634D01*
X008273Y007598D01*
X008255Y007564D01*
X008233Y007532D01*
X008208Y007502D01*
X008180Y007475D01*
X008150Y007450D01*
X008117Y007429D01*
X008082Y007412D01*
X008046Y007397D01*
X008009Y007387D01*
X007970Y007380D01*
X007932Y007377D01*
X007893Y007378D01*
X007854Y007383D01*
X007816Y007392D01*
X007780Y007404D01*
X007744Y007420D01*
X007710Y007439D01*
X007679Y007462D01*
X007650Y007488D01*
X007623Y007516D01*
X007600Y007547D01*
X007579Y007580D01*
X007563Y007616D01*
X007549Y007652D01*
X007540Y007690D01*
X007534Y007728D01*
X007532Y007767D01*
X007522Y007367D02*
X008322Y008167D01*
X007532Y008767D02*
X007534Y008806D01*
X007540Y008844D01*
X007549Y008882D01*
X007563Y008918D01*
X007579Y008954D01*
X007600Y008987D01*
X007623Y009018D01*
X007650Y009046D01*
X007679Y009072D01*
X007710Y009095D01*
X007744Y009114D01*
X007780Y009130D01*
X007816Y009142D01*
X007854Y009151D01*
X007893Y009156D01*
X007932Y009157D01*
X007970Y009154D01*
X008009Y009147D01*
X008046Y009137D01*
X008082Y009122D01*
X008117Y009105D01*
X008150Y009084D01*
X008180Y009059D01*
X008208Y009032D01*
X008233Y009002D01*
X008255Y008970D01*
X008273Y008936D01*
X008288Y008900D01*
X008300Y008863D01*
X008308Y008825D01*
X008312Y008786D01*
X008312Y008748D01*
X008308Y008709D01*
X008300Y008671D01*
X008288Y008634D01*
X008273Y008598D01*
X008255Y008564D01*
X008233Y008532D01*
X008208Y008502D01*
X008180Y008475D01*
X008150Y008450D01*
X008117Y008429D01*
X008082Y008412D01*
X008046Y008397D01*
X008009Y008387D01*
X007970Y008380D01*
X007932Y008377D01*
X007893Y008378D01*
X007854Y008383D01*
X007816Y008392D01*
X007780Y008404D01*
X007744Y008420D01*
X007710Y008439D01*
X007679Y008462D01*
X007650Y008488D01*
X007623Y008516D01*
X007600Y008547D01*
X007579Y008580D01*
X007563Y008616D01*
X007549Y008652D01*
X007540Y008690D01*
X007534Y008728D01*
X007532Y008767D01*
X007522Y008367D02*
X008322Y009167D01*
X007532Y009767D02*
X007534Y009806D01*
X007540Y009844D01*
X007549Y009882D01*
X007563Y009918D01*
X007579Y009954D01*
X007600Y009987D01*
X007623Y010018D01*
X007650Y010046D01*
X007679Y010072D01*
X007710Y010095D01*
X007744Y010114D01*
X007780Y010130D01*
X007816Y010142D01*
X007854Y010151D01*
X007893Y010156D01*
X007932Y010157D01*
X007970Y010154D01*
X008009Y010147D01*
X008046Y010137D01*
X008082Y010122D01*
X008117Y010105D01*
X008150Y010084D01*
X008180Y010059D01*
X008208Y010032D01*
X008233Y010002D01*
X008255Y009970D01*
X008273Y009936D01*
X008288Y009900D01*
X008300Y009863D01*
X008308Y009825D01*
X008312Y009786D01*
X008312Y009748D01*
X008308Y009709D01*
X008300Y009671D01*
X008288Y009634D01*
X008273Y009598D01*
X008255Y009564D01*
X008233Y009532D01*
X008208Y009502D01*
X008180Y009475D01*
X008150Y009450D01*
X008117Y009429D01*
X008082Y009412D01*
X008046Y009397D01*
X008009Y009387D01*
X007970Y009380D01*
X007932Y009377D01*
X007893Y009378D01*
X007854Y009383D01*
X007816Y009392D01*
X007780Y009404D01*
X007744Y009420D01*
X007710Y009439D01*
X007679Y009462D01*
X007650Y009488D01*
X007623Y009516D01*
X007600Y009547D01*
X007579Y009580D01*
X007563Y009616D01*
X007549Y009652D01*
X007540Y009690D01*
X007534Y009728D01*
X007532Y009767D01*
X007522Y009367D02*
X008322Y010167D01*
X007532Y010767D02*
X007534Y010806D01*
X007540Y010844D01*
X007549Y010882D01*
X007563Y010918D01*
X007579Y010954D01*
X007600Y010987D01*
X007623Y011018D01*
X007650Y011046D01*
X007679Y011072D01*
X007710Y011095D01*
X007744Y011114D01*
X007780Y011130D01*
X007816Y011142D01*
X007854Y011151D01*
X007893Y011156D01*
X007932Y011157D01*
X007970Y011154D01*
X008009Y011147D01*
X008046Y011137D01*
X008082Y011122D01*
X008117Y011105D01*
X008150Y011084D01*
X008180Y011059D01*
X008208Y011032D01*
X008233Y011002D01*
X008255Y010970D01*
X008273Y010936D01*
X008288Y010900D01*
X008300Y010863D01*
X008308Y010825D01*
X008312Y010786D01*
X008312Y010748D01*
X008308Y010709D01*
X008300Y010671D01*
X008288Y010634D01*
X008273Y010598D01*
X008255Y010564D01*
X008233Y010532D01*
X008208Y010502D01*
X008180Y010475D01*
X008150Y010450D01*
X008117Y010429D01*
X008082Y010412D01*
X008046Y010397D01*
X008009Y010387D01*
X007970Y010380D01*
X007932Y010377D01*
X007893Y010378D01*
X007854Y010383D01*
X007816Y010392D01*
X007780Y010404D01*
X007744Y010420D01*
X007710Y010439D01*
X007679Y010462D01*
X007650Y010488D01*
X007623Y010516D01*
X007600Y010547D01*
X007579Y010580D01*
X007563Y010616D01*
X007549Y010652D01*
X007540Y010690D01*
X007534Y010728D01*
X007532Y010767D01*
X007522Y010367D02*
X008322Y011167D01*
X007532Y011767D02*
X007534Y011806D01*
X007540Y011844D01*
X007549Y011882D01*
X007563Y011918D01*
X007579Y011954D01*
X007600Y011987D01*
X007623Y012018D01*
X007650Y012046D01*
X007679Y012072D01*
X007710Y012095D01*
X007744Y012114D01*
X007780Y012130D01*
X007816Y012142D01*
X007854Y012151D01*
X007893Y012156D01*
X007932Y012157D01*
X007970Y012154D01*
X008009Y012147D01*
X008046Y012137D01*
X008082Y012122D01*
X008117Y012105D01*
X008150Y012084D01*
X008180Y012059D01*
X008208Y012032D01*
X008233Y012002D01*
X008255Y011970D01*
X008273Y011936D01*
X008288Y011900D01*
X008300Y011863D01*
X008308Y011825D01*
X008312Y011786D01*
X008312Y011748D01*
X008308Y011709D01*
X008300Y011671D01*
X008288Y011634D01*
X008273Y011598D01*
X008255Y011564D01*
X008233Y011532D01*
X008208Y011502D01*
X008180Y011475D01*
X008150Y011450D01*
X008117Y011429D01*
X008082Y011412D01*
X008046Y011397D01*
X008009Y011387D01*
X007970Y011380D01*
X007932Y011377D01*
X007893Y011378D01*
X007854Y011383D01*
X007816Y011392D01*
X007780Y011404D01*
X007744Y011420D01*
X007710Y011439D01*
X007679Y011462D01*
X007650Y011488D01*
X007623Y011516D01*
X007600Y011547D01*
X007579Y011580D01*
X007563Y011616D01*
X007549Y011652D01*
X007540Y011690D01*
X007534Y011728D01*
X007532Y011767D01*
X007522Y011367D02*
X008322Y012167D01*
X007532Y012767D02*
X007534Y012806D01*
X007540Y012844D01*
X007549Y012882D01*
X007563Y012918D01*
X007579Y012954D01*
X007600Y012987D01*
X007623Y013018D01*
X007650Y013046D01*
X007679Y013072D01*
X007710Y013095D01*
X007744Y013114D01*
X007780Y013130D01*
X007816Y013142D01*
X007854Y013151D01*
X007893Y013156D01*
X007932Y013157D01*
X007970Y013154D01*
X008009Y013147D01*
X008046Y013137D01*
X008082Y013122D01*
X008117Y013105D01*
X008150Y013084D01*
X008180Y013059D01*
X008208Y013032D01*
X008233Y013002D01*
X008255Y012970D01*
X008273Y012936D01*
X008288Y012900D01*
X008300Y012863D01*
X008308Y012825D01*
X008312Y012786D01*
X008312Y012748D01*
X008308Y012709D01*
X008300Y012671D01*
X008288Y012634D01*
X008273Y012598D01*
X008255Y012564D01*
X008233Y012532D01*
X008208Y012502D01*
X008180Y012475D01*
X008150Y012450D01*
X008117Y012429D01*
X008082Y012412D01*
X008046Y012397D01*
X008009Y012387D01*
X007970Y012380D01*
X007932Y012377D01*
X007893Y012378D01*
X007854Y012383D01*
X007816Y012392D01*
X007780Y012404D01*
X007744Y012420D01*
X007710Y012439D01*
X007679Y012462D01*
X007650Y012488D01*
X007623Y012516D01*
X007600Y012547D01*
X007579Y012580D01*
X007563Y012616D01*
X007549Y012652D01*
X007540Y012690D01*
X007534Y012728D01*
X007532Y012767D01*
X007522Y012367D02*
X008322Y013167D01*
X007532Y013767D02*
X007534Y013806D01*
X007540Y013844D01*
X007549Y013882D01*
X007563Y013918D01*
X007579Y013954D01*
X007600Y013987D01*
X007623Y014018D01*
X007650Y014046D01*
X007679Y014072D01*
X007710Y014095D01*
X007744Y014114D01*
X007780Y014130D01*
X007816Y014142D01*
X007854Y014151D01*
X007893Y014156D01*
X007932Y014157D01*
X007970Y014154D01*
X008009Y014147D01*
X008046Y014137D01*
X008082Y014122D01*
X008117Y014105D01*
X008150Y014084D01*
X008180Y014059D01*
X008208Y014032D01*
X008233Y014002D01*
X008255Y013970D01*
X008273Y013936D01*
X008288Y013900D01*
X008300Y013863D01*
X008308Y013825D01*
X008312Y013786D01*
X008312Y013748D01*
X008308Y013709D01*
X008300Y013671D01*
X008288Y013634D01*
X008273Y013598D01*
X008255Y013564D01*
X008233Y013532D01*
X008208Y013502D01*
X008180Y013475D01*
X008150Y013450D01*
X008117Y013429D01*
X008082Y013412D01*
X008046Y013397D01*
X008009Y013387D01*
X007970Y013380D01*
X007932Y013377D01*
X007893Y013378D01*
X007854Y013383D01*
X007816Y013392D01*
X007780Y013404D01*
X007744Y013420D01*
X007710Y013439D01*
X007679Y013462D01*
X007650Y013488D01*
X007623Y013516D01*
X007600Y013547D01*
X007579Y013580D01*
X007563Y013616D01*
X007549Y013652D01*
X007540Y013690D01*
X007534Y013728D01*
X007532Y013767D01*
X007522Y013367D02*
X008322Y014167D01*
X007532Y014767D02*
X007534Y014806D01*
X007540Y014844D01*
X007549Y014882D01*
X007563Y014918D01*
X007579Y014954D01*
X007600Y014987D01*
X007623Y015018D01*
X007650Y015046D01*
X007679Y015072D01*
X007710Y015095D01*
X007744Y015114D01*
X007780Y015130D01*
X007816Y015142D01*
X007854Y015151D01*
X007893Y015156D01*
X007932Y015157D01*
X007970Y015154D01*
X008009Y015147D01*
X008046Y015137D01*
X008082Y015122D01*
X008117Y015105D01*
X008150Y015084D01*
X008180Y015059D01*
X008208Y015032D01*
X008233Y015002D01*
X008255Y014970D01*
X008273Y014936D01*
X008288Y014900D01*
X008300Y014863D01*
X008308Y014825D01*
X008312Y014786D01*
X008312Y014748D01*
X008308Y014709D01*
X008300Y014671D01*
X008288Y014634D01*
X008273Y014598D01*
X008255Y014564D01*
X008233Y014532D01*
X008208Y014502D01*
X008180Y014475D01*
X008150Y014450D01*
X008117Y014429D01*
X008082Y014412D01*
X008046Y014397D01*
X008009Y014387D01*
X007970Y014380D01*
X007932Y014377D01*
X007893Y014378D01*
X007854Y014383D01*
X007816Y014392D01*
X007780Y014404D01*
X007744Y014420D01*
X007710Y014439D01*
X007679Y014462D01*
X007650Y014488D01*
X007623Y014516D01*
X007600Y014547D01*
X007579Y014580D01*
X007563Y014616D01*
X007549Y014652D01*
X007540Y014690D01*
X007534Y014728D01*
X007532Y014767D01*
X007522Y014367D02*
X008322Y015167D01*
X007532Y015767D02*
X007534Y015806D01*
X007540Y015844D01*
X007549Y015882D01*
X007563Y015918D01*
X007579Y015954D01*
X007600Y015987D01*
X007623Y016018D01*
X007650Y016046D01*
X007679Y016072D01*
X007710Y016095D01*
X007744Y016114D01*
X007780Y016130D01*
X007816Y016142D01*
X007854Y016151D01*
X007893Y016156D01*
X007932Y016157D01*
X007970Y016154D01*
X008009Y016147D01*
X008046Y016137D01*
X008082Y016122D01*
X008117Y016105D01*
X008150Y016084D01*
X008180Y016059D01*
X008208Y016032D01*
X008233Y016002D01*
X008255Y015970D01*
X008273Y015936D01*
X008288Y015900D01*
X008300Y015863D01*
X008308Y015825D01*
X008312Y015786D01*
X008312Y015748D01*
X008308Y015709D01*
X008300Y015671D01*
X008288Y015634D01*
X008273Y015598D01*
X008255Y015564D01*
X008233Y015532D01*
X008208Y015502D01*
X008180Y015475D01*
X008150Y015450D01*
X008117Y015429D01*
X008082Y015412D01*
X008046Y015397D01*
X008009Y015387D01*
X007970Y015380D01*
X007932Y015377D01*
X007893Y015378D01*
X007854Y015383D01*
X007816Y015392D01*
X007780Y015404D01*
X007744Y015420D01*
X007710Y015439D01*
X007679Y015462D01*
X007650Y015488D01*
X007623Y015516D01*
X007600Y015547D01*
X007579Y015580D01*
X007563Y015616D01*
X007549Y015652D01*
X007540Y015690D01*
X007534Y015728D01*
X007532Y015767D01*
X007522Y015367D02*
X008322Y016167D01*
X007532Y016767D02*
X007534Y016806D01*
X007540Y016844D01*
X007549Y016882D01*
X007563Y016918D01*
X007579Y016954D01*
X007600Y016987D01*
X007623Y017018D01*
X007650Y017046D01*
X007679Y017072D01*
X007710Y017095D01*
X007744Y017114D01*
X007780Y017130D01*
X007816Y017142D01*
X007854Y017151D01*
X007893Y017156D01*
X007932Y017157D01*
X007970Y017154D01*
X008009Y017147D01*
X008046Y017137D01*
X008082Y017122D01*
X008117Y017105D01*
X008150Y017084D01*
X008180Y017059D01*
X008208Y017032D01*
X008233Y017002D01*
X008255Y016970D01*
X008273Y016936D01*
X008288Y016900D01*
X008300Y016863D01*
X008308Y016825D01*
X008312Y016786D01*
X008312Y016748D01*
X008308Y016709D01*
X008300Y016671D01*
X008288Y016634D01*
X008273Y016598D01*
X008255Y016564D01*
X008233Y016532D01*
X008208Y016502D01*
X008180Y016475D01*
X008150Y016450D01*
X008117Y016429D01*
X008082Y016412D01*
X008046Y016397D01*
X008009Y016387D01*
X007970Y016380D01*
X007932Y016377D01*
X007893Y016378D01*
X007854Y016383D01*
X007816Y016392D01*
X007780Y016404D01*
X007744Y016420D01*
X007710Y016439D01*
X007679Y016462D01*
X007650Y016488D01*
X007623Y016516D01*
X007600Y016547D01*
X007579Y016580D01*
X007563Y016616D01*
X007549Y016652D01*
X007540Y016690D01*
X007534Y016728D01*
X007532Y016767D01*
X007522Y016367D02*
X008322Y017167D01*
X007532Y017767D02*
X007534Y017806D01*
X007540Y017844D01*
X007549Y017882D01*
X007563Y017918D01*
X007579Y017954D01*
X007600Y017987D01*
X007623Y018018D01*
X007650Y018046D01*
X007679Y018072D01*
X007710Y018095D01*
X007744Y018114D01*
X007780Y018130D01*
X007816Y018142D01*
X007854Y018151D01*
X007893Y018156D01*
X007932Y018157D01*
X007970Y018154D01*
X008009Y018147D01*
X008046Y018137D01*
X008082Y018122D01*
X008117Y018105D01*
X008150Y018084D01*
X008180Y018059D01*
X008208Y018032D01*
X008233Y018002D01*
X008255Y017970D01*
X008273Y017936D01*
X008288Y017900D01*
X008300Y017863D01*
X008308Y017825D01*
X008312Y017786D01*
X008312Y017748D01*
X008308Y017709D01*
X008300Y017671D01*
X008288Y017634D01*
X008273Y017598D01*
X008255Y017564D01*
X008233Y017532D01*
X008208Y017502D01*
X008180Y017475D01*
X008150Y017450D01*
X008117Y017429D01*
X008082Y017412D01*
X008046Y017397D01*
X008009Y017387D01*
X007970Y017380D01*
X007932Y017377D01*
X007893Y017378D01*
X007854Y017383D01*
X007816Y017392D01*
X007780Y017404D01*
X007744Y017420D01*
X007710Y017439D01*
X007679Y017462D01*
X007650Y017488D01*
X007623Y017516D01*
X007600Y017547D01*
X007579Y017580D01*
X007563Y017616D01*
X007549Y017652D01*
X007540Y017690D01*
X007534Y017728D01*
X007532Y017767D01*
X007522Y017367D02*
X008322Y018167D01*
X007532Y018767D02*
X007534Y018806D01*
X007540Y018844D01*
X007549Y018882D01*
X007563Y018918D01*
X007579Y018954D01*
X007600Y018987D01*
X007623Y019018D01*
X007650Y019046D01*
X007679Y019072D01*
X007710Y019095D01*
X007744Y019114D01*
X007780Y019130D01*
X007816Y019142D01*
X007854Y019151D01*
X007893Y019156D01*
X007932Y019157D01*
X007970Y019154D01*
X008009Y019147D01*
X008046Y019137D01*
X008082Y019122D01*
X008117Y019105D01*
X008150Y019084D01*
X008180Y019059D01*
X008208Y019032D01*
X008233Y019002D01*
X008255Y018970D01*
X008273Y018936D01*
X008288Y018900D01*
X008300Y018863D01*
X008308Y018825D01*
X008312Y018786D01*
X008312Y018748D01*
X008308Y018709D01*
X008300Y018671D01*
X008288Y018634D01*
X008273Y018598D01*
X008255Y018564D01*
X008233Y018532D01*
X008208Y018502D01*
X008180Y018475D01*
X008150Y018450D01*
X008117Y018429D01*
X008082Y018412D01*
X008046Y018397D01*
X008009Y018387D01*
X007970Y018380D01*
X007932Y018377D01*
X007893Y018378D01*
X007854Y018383D01*
X007816Y018392D01*
X007780Y018404D01*
X007744Y018420D01*
X007710Y018439D01*
X007679Y018462D01*
X007650Y018488D01*
X007623Y018516D01*
X007600Y018547D01*
X007579Y018580D01*
X007563Y018616D01*
X007549Y018652D01*
X007540Y018690D01*
X007534Y018728D01*
X007532Y018767D01*
X007522Y018367D02*
X008322Y019167D01*
X007532Y019767D02*
X007534Y019806D01*
X007540Y019844D01*
X007549Y019882D01*
X007563Y019918D01*
X007579Y019954D01*
X007600Y019987D01*
X007623Y020018D01*
X007650Y020046D01*
X007679Y020072D01*
X007710Y020095D01*
X007744Y020114D01*
X007780Y020130D01*
X007816Y020142D01*
X007854Y020151D01*
X007893Y020156D01*
X007932Y020157D01*
X007970Y020154D01*
X008009Y020147D01*
X008046Y020137D01*
X008082Y020122D01*
X008117Y020105D01*
X008150Y020084D01*
X008180Y020059D01*
X008208Y020032D01*
X008233Y020002D01*
X008255Y019970D01*
X008273Y019936D01*
X008288Y019900D01*
X008300Y019863D01*
X008308Y019825D01*
X008312Y019786D01*
X008312Y019748D01*
X008308Y019709D01*
X008300Y019671D01*
X008288Y019634D01*
X008273Y019598D01*
X008255Y019564D01*
X008233Y019532D01*
X008208Y019502D01*
X008180Y019475D01*
X008150Y019450D01*
X008117Y019429D01*
X008082Y019412D01*
X008046Y019397D01*
X008009Y019387D01*
X007970Y019380D01*
X007932Y019377D01*
X007893Y019378D01*
X007854Y019383D01*
X007816Y019392D01*
X007780Y019404D01*
X007744Y019420D01*
X007710Y019439D01*
X007679Y019462D01*
X007650Y019488D01*
X007623Y019516D01*
X007600Y019547D01*
X007579Y019580D01*
X007563Y019616D01*
X007549Y019652D01*
X007540Y019690D01*
X007534Y019728D01*
X007532Y019767D01*
X007522Y019367D02*
X008322Y020167D01*
X002782Y006642D02*
X002784Y006681D01*
X002790Y006719D01*
X002799Y006757D01*
X002813Y006793D01*
X002829Y006829D01*
X002850Y006862D01*
X002873Y006893D01*
X002900Y006921D01*
X002929Y006947D01*
X002960Y006970D01*
X002994Y006989D01*
X003030Y007005D01*
X003066Y007017D01*
X003104Y007026D01*
X003143Y007031D01*
X003182Y007032D01*
X003220Y007029D01*
X003259Y007022D01*
X003296Y007012D01*
X003332Y006997D01*
X003367Y006980D01*
X003400Y006959D01*
X003430Y006934D01*
X003458Y006907D01*
X003483Y006877D01*
X003505Y006845D01*
X003523Y006811D01*
X003538Y006775D01*
X003550Y006738D01*
X003558Y006700D01*
X003562Y006661D01*
X003562Y006623D01*
X003558Y006584D01*
X003550Y006546D01*
X003538Y006509D01*
X003523Y006473D01*
X003505Y006439D01*
X003483Y006407D01*
X003458Y006377D01*
X003430Y006350D01*
X003400Y006325D01*
X003367Y006304D01*
X003332Y006287D01*
X003296Y006272D01*
X003259Y006262D01*
X003220Y006255D01*
X003182Y006252D01*
X003143Y006253D01*
X003104Y006258D01*
X003066Y006267D01*
X003030Y006279D01*
X002994Y006295D01*
X002960Y006314D01*
X002929Y006337D01*
X002900Y006363D01*
X002873Y006391D01*
X002850Y006422D01*
X002829Y006455D01*
X002813Y006491D01*
X002799Y006527D01*
X002790Y006565D01*
X002784Y006603D01*
X002782Y006642D01*
X002772Y006242D02*
X003572Y007042D01*
X002782Y007642D02*
X002784Y007681D01*
X002790Y007719D01*
X002799Y007757D01*
X002813Y007793D01*
X002829Y007829D01*
X002850Y007862D01*
X002873Y007893D01*
X002900Y007921D01*
X002929Y007947D01*
X002960Y007970D01*
X002994Y007989D01*
X003030Y008005D01*
X003066Y008017D01*
X003104Y008026D01*
X003143Y008031D01*
X003182Y008032D01*
X003220Y008029D01*
X003259Y008022D01*
X003296Y008012D01*
X003332Y007997D01*
X003367Y007980D01*
X003400Y007959D01*
X003430Y007934D01*
X003458Y007907D01*
X003483Y007877D01*
X003505Y007845D01*
X003523Y007811D01*
X003538Y007775D01*
X003550Y007738D01*
X003558Y007700D01*
X003562Y007661D01*
X003562Y007623D01*
X003558Y007584D01*
X003550Y007546D01*
X003538Y007509D01*
X003523Y007473D01*
X003505Y007439D01*
X003483Y007407D01*
X003458Y007377D01*
X003430Y007350D01*
X003400Y007325D01*
X003367Y007304D01*
X003332Y007287D01*
X003296Y007272D01*
X003259Y007262D01*
X003220Y007255D01*
X003182Y007252D01*
X003143Y007253D01*
X003104Y007258D01*
X003066Y007267D01*
X003030Y007279D01*
X002994Y007295D01*
X002960Y007314D01*
X002929Y007337D01*
X002900Y007363D01*
X002873Y007391D01*
X002850Y007422D01*
X002829Y007455D01*
X002813Y007491D01*
X002799Y007527D01*
X002790Y007565D01*
X002784Y007603D01*
X002782Y007642D01*
X002772Y007242D02*
X003572Y008042D01*
X002782Y008642D02*
X002784Y008681D01*
X002790Y008719D01*
X002799Y008757D01*
X002813Y008793D01*
X002829Y008829D01*
X002850Y008862D01*
X002873Y008893D01*
X002900Y008921D01*
X002929Y008947D01*
X002960Y008970D01*
X002994Y008989D01*
X003030Y009005D01*
X003066Y009017D01*
X003104Y009026D01*
X003143Y009031D01*
X003182Y009032D01*
X003220Y009029D01*
X003259Y009022D01*
X003296Y009012D01*
X003332Y008997D01*
X003367Y008980D01*
X003400Y008959D01*
X003430Y008934D01*
X003458Y008907D01*
X003483Y008877D01*
X003505Y008845D01*
X003523Y008811D01*
X003538Y008775D01*
X003550Y008738D01*
X003558Y008700D01*
X003562Y008661D01*
X003562Y008623D01*
X003558Y008584D01*
X003550Y008546D01*
X003538Y008509D01*
X003523Y008473D01*
X003505Y008439D01*
X003483Y008407D01*
X003458Y008377D01*
X003430Y008350D01*
X003400Y008325D01*
X003367Y008304D01*
X003332Y008287D01*
X003296Y008272D01*
X003259Y008262D01*
X003220Y008255D01*
X003182Y008252D01*
X003143Y008253D01*
X003104Y008258D01*
X003066Y008267D01*
X003030Y008279D01*
X002994Y008295D01*
X002960Y008314D01*
X002929Y008337D01*
X002900Y008363D01*
X002873Y008391D01*
X002850Y008422D01*
X002829Y008455D01*
X002813Y008491D01*
X002799Y008527D01*
X002790Y008565D01*
X002784Y008603D01*
X002782Y008642D01*
X002772Y008242D02*
X003572Y009042D01*
X000532Y004517D02*
X000534Y004556D01*
X000540Y004594D01*
X000549Y004632D01*
X000563Y004668D01*
X000579Y004704D01*
X000600Y004737D01*
X000623Y004768D01*
X000650Y004796D01*
X000679Y004822D01*
X000710Y004845D01*
X000744Y004864D01*
X000780Y004880D01*
X000816Y004892D01*
X000854Y004901D01*
X000893Y004906D01*
X000932Y004907D01*
X000970Y004904D01*
X001009Y004897D01*
X001046Y004887D01*
X001082Y004872D01*
X001117Y004855D01*
X001150Y004834D01*
X001180Y004809D01*
X001208Y004782D01*
X001233Y004752D01*
X001255Y004720D01*
X001273Y004686D01*
X001288Y004650D01*
X001300Y004613D01*
X001308Y004575D01*
X001312Y004536D01*
X001312Y004498D01*
X001308Y004459D01*
X001300Y004421D01*
X001288Y004384D01*
X001273Y004348D01*
X001255Y004314D01*
X001233Y004282D01*
X001208Y004252D01*
X001180Y004225D01*
X001150Y004200D01*
X001117Y004179D01*
X001082Y004162D01*
X001046Y004147D01*
X001009Y004137D01*
X000970Y004130D01*
X000932Y004127D01*
X000893Y004128D01*
X000854Y004133D01*
X000816Y004142D01*
X000780Y004154D01*
X000744Y004170D01*
X000710Y004189D01*
X000679Y004212D01*
X000650Y004238D01*
X000623Y004266D01*
X000600Y004297D01*
X000579Y004330D01*
X000563Y004366D01*
X000549Y004402D01*
X000540Y004440D01*
X000534Y004478D01*
X000532Y004517D01*
X000522Y004117D02*
X001322Y004917D01*
X000532Y003517D02*
X000534Y003556D01*
X000540Y003594D01*
X000549Y003632D01*
X000563Y003668D01*
X000579Y003704D01*
X000600Y003737D01*
X000623Y003768D01*
X000650Y003796D01*
X000679Y003822D01*
X000710Y003845D01*
X000744Y003864D01*
X000780Y003880D01*
X000816Y003892D01*
X000854Y003901D01*
X000893Y003906D01*
X000932Y003907D01*
X000970Y003904D01*
X001009Y003897D01*
X001046Y003887D01*
X001082Y003872D01*
X001117Y003855D01*
X001150Y003834D01*
X001180Y003809D01*
X001208Y003782D01*
X001233Y003752D01*
X001255Y003720D01*
X001273Y003686D01*
X001288Y003650D01*
X001300Y003613D01*
X001308Y003575D01*
X001312Y003536D01*
X001312Y003498D01*
X001308Y003459D01*
X001300Y003421D01*
X001288Y003384D01*
X001273Y003348D01*
X001255Y003314D01*
X001233Y003282D01*
X001208Y003252D01*
X001180Y003225D01*
X001150Y003200D01*
X001117Y003179D01*
X001082Y003162D01*
X001046Y003147D01*
X001009Y003137D01*
X000970Y003130D01*
X000932Y003127D01*
X000893Y003128D01*
X000854Y003133D01*
X000816Y003142D01*
X000780Y003154D01*
X000744Y003170D01*
X000710Y003189D01*
X000679Y003212D01*
X000650Y003238D01*
X000623Y003266D01*
X000600Y003297D01*
X000579Y003330D01*
X000563Y003366D01*
X000549Y003402D01*
X000540Y003440D01*
X000534Y003478D01*
X000532Y003517D01*
X000522Y003117D02*
X001322Y003917D01*
X003532Y003517D02*
X003534Y003556D01*
X003540Y003594D01*
X003549Y003632D01*
X003563Y003668D01*
X003579Y003704D01*
X003600Y003737D01*
X003623Y003768D01*
X003650Y003796D01*
X003679Y003822D01*
X003710Y003845D01*
X003744Y003864D01*
X003780Y003880D01*
X003816Y003892D01*
X003854Y003901D01*
X003893Y003906D01*
X003932Y003907D01*
X003970Y003904D01*
X004009Y003897D01*
X004046Y003887D01*
X004082Y003872D01*
X004117Y003855D01*
X004150Y003834D01*
X004180Y003809D01*
X004208Y003782D01*
X004233Y003752D01*
X004255Y003720D01*
X004273Y003686D01*
X004288Y003650D01*
X004300Y003613D01*
X004308Y003575D01*
X004312Y003536D01*
X004312Y003498D01*
X004308Y003459D01*
X004300Y003421D01*
X004288Y003384D01*
X004273Y003348D01*
X004255Y003314D01*
X004233Y003282D01*
X004208Y003252D01*
X004180Y003225D01*
X004150Y003200D01*
X004117Y003179D01*
X004082Y003162D01*
X004046Y003147D01*
X004009Y003137D01*
X003970Y003130D01*
X003932Y003127D01*
X003893Y003128D01*
X003854Y003133D01*
X003816Y003142D01*
X003780Y003154D01*
X003744Y003170D01*
X003710Y003189D01*
X003679Y003212D01*
X003650Y003238D01*
X003623Y003266D01*
X003600Y003297D01*
X003579Y003330D01*
X003563Y003366D01*
X003549Y003402D01*
X003540Y003440D01*
X003534Y003478D01*
X003532Y003517D01*
X003522Y003117D02*
X004322Y003917D01*
X003532Y004517D02*
X003534Y004556D01*
X003540Y004594D01*
X003549Y004632D01*
X003563Y004668D01*
X003579Y004704D01*
X003600Y004737D01*
X003623Y004768D01*
X003650Y004796D01*
X003679Y004822D01*
X003710Y004845D01*
X003744Y004864D01*
X003780Y004880D01*
X003816Y004892D01*
X003854Y004901D01*
X003893Y004906D01*
X003932Y004907D01*
X003970Y004904D01*
X004009Y004897D01*
X004046Y004887D01*
X004082Y004872D01*
X004117Y004855D01*
X004150Y004834D01*
X004180Y004809D01*
X004208Y004782D01*
X004233Y004752D01*
X004255Y004720D01*
X004273Y004686D01*
X004288Y004650D01*
X004300Y004613D01*
X004308Y004575D01*
X004312Y004536D01*
X004312Y004498D01*
X004308Y004459D01*
X004300Y004421D01*
X004288Y004384D01*
X004273Y004348D01*
X004255Y004314D01*
X004233Y004282D01*
X004208Y004252D01*
X004180Y004225D01*
X004150Y004200D01*
X004117Y004179D01*
X004082Y004162D01*
X004046Y004147D01*
X004009Y004137D01*
X003970Y004130D01*
X003932Y004127D01*
X003893Y004128D01*
X003854Y004133D01*
X003816Y004142D01*
X003780Y004154D01*
X003744Y004170D01*
X003710Y004189D01*
X003679Y004212D01*
X003650Y004238D01*
X003623Y004266D01*
X003600Y004297D01*
X003579Y004330D01*
X003563Y004366D01*
X003549Y004402D01*
X003540Y004440D01*
X003534Y004478D01*
X003532Y004517D01*
X003522Y004117D02*
X004322Y004917D01*
X000532Y002517D02*
X000534Y002556D01*
X000540Y002594D01*
X000549Y002632D01*
X000563Y002668D01*
X000579Y002704D01*
X000600Y002737D01*
X000623Y002768D01*
X000650Y002796D01*
X000679Y002822D01*
X000710Y002845D01*
X000744Y002864D01*
X000780Y002880D01*
X000816Y002892D01*
X000854Y002901D01*
X000893Y002906D01*
X000932Y002907D01*
X000970Y002904D01*
X001009Y002897D01*
X001046Y002887D01*
X001082Y002872D01*
X001117Y002855D01*
X001150Y002834D01*
X001180Y002809D01*
X001208Y002782D01*
X001233Y002752D01*
X001255Y002720D01*
X001273Y002686D01*
X001288Y002650D01*
X001300Y002613D01*
X001308Y002575D01*
X001312Y002536D01*
X001312Y002498D01*
X001308Y002459D01*
X001300Y002421D01*
X001288Y002384D01*
X001273Y002348D01*
X001255Y002314D01*
X001233Y002282D01*
X001208Y002252D01*
X001180Y002225D01*
X001150Y002200D01*
X001117Y002179D01*
X001082Y002162D01*
X001046Y002147D01*
X001009Y002137D01*
X000970Y002130D01*
X000932Y002127D01*
X000893Y002128D01*
X000854Y002133D01*
X000816Y002142D01*
X000780Y002154D01*
X000744Y002170D01*
X000710Y002189D01*
X000679Y002212D01*
X000650Y002238D01*
X000623Y002266D01*
X000600Y002297D01*
X000579Y002330D01*
X000563Y002366D01*
X000549Y002402D01*
X000540Y002440D01*
X000534Y002478D01*
X000532Y002517D01*
X000522Y002117D02*
X001322Y002917D01*
X000532Y001517D02*
X000534Y001556D01*
X000540Y001594D01*
X000549Y001632D01*
X000563Y001668D01*
X000579Y001704D01*
X000600Y001737D01*
X000623Y001768D01*
X000650Y001796D01*
X000679Y001822D01*
X000710Y001845D01*
X000744Y001864D01*
X000780Y001880D01*
X000816Y001892D01*
X000854Y001901D01*
X000893Y001906D01*
X000932Y001907D01*
X000970Y001904D01*
X001009Y001897D01*
X001046Y001887D01*
X001082Y001872D01*
X001117Y001855D01*
X001150Y001834D01*
X001180Y001809D01*
X001208Y001782D01*
X001233Y001752D01*
X001255Y001720D01*
X001273Y001686D01*
X001288Y001650D01*
X001300Y001613D01*
X001308Y001575D01*
X001312Y001536D01*
X001312Y001498D01*
X001308Y001459D01*
X001300Y001421D01*
X001288Y001384D01*
X001273Y001348D01*
X001255Y001314D01*
X001233Y001282D01*
X001208Y001252D01*
X001180Y001225D01*
X001150Y001200D01*
X001117Y001179D01*
X001082Y001162D01*
X001046Y001147D01*
X001009Y001137D01*
X000970Y001130D01*
X000932Y001127D01*
X000893Y001128D01*
X000854Y001133D01*
X000816Y001142D01*
X000780Y001154D01*
X000744Y001170D01*
X000710Y001189D01*
X000679Y001212D01*
X000650Y001238D01*
X000623Y001266D01*
X000600Y001297D01*
X000579Y001330D01*
X000563Y001366D01*
X000549Y001402D01*
X000540Y001440D01*
X000534Y001478D01*
X000532Y001517D01*
X000522Y001117D02*
X001322Y001917D01*
X003532Y002517D02*
X003534Y002556D01*
X003540Y002594D01*
X003549Y002632D01*
X003563Y002668D01*
X003579Y002704D01*
X003600Y002737D01*
X003623Y002768D01*
X003650Y002796D01*
X003679Y002822D01*
X003710Y002845D01*
X003744Y002864D01*
X003780Y002880D01*
X003816Y002892D01*
X003854Y002901D01*
X003893Y002906D01*
X003932Y002907D01*
X003970Y002904D01*
X004009Y002897D01*
X004046Y002887D01*
X004082Y002872D01*
X004117Y002855D01*
X004150Y002834D01*
X004180Y002809D01*
X004208Y002782D01*
X004233Y002752D01*
X004255Y002720D01*
X004273Y002686D01*
X004288Y002650D01*
X004300Y002613D01*
X004308Y002575D01*
X004312Y002536D01*
X004312Y002498D01*
X004308Y002459D01*
X004300Y002421D01*
X004288Y002384D01*
X004273Y002348D01*
X004255Y002314D01*
X004233Y002282D01*
X004208Y002252D01*
X004180Y002225D01*
X004150Y002200D01*
X004117Y002179D01*
X004082Y002162D01*
X004046Y002147D01*
X004009Y002137D01*
X003970Y002130D01*
X003932Y002127D01*
X003893Y002128D01*
X003854Y002133D01*
X003816Y002142D01*
X003780Y002154D01*
X003744Y002170D01*
X003710Y002189D01*
X003679Y002212D01*
X003650Y002238D01*
X003623Y002266D01*
X003600Y002297D01*
X003579Y002330D01*
X003563Y002366D01*
X003549Y002402D01*
X003540Y002440D01*
X003534Y002478D01*
X003532Y002517D01*
X003522Y002117D02*
X004322Y002917D01*
X003532Y001517D02*
X003534Y001556D01*
X003540Y001594D01*
X003549Y001632D01*
X003563Y001668D01*
X003579Y001704D01*
X003600Y001737D01*
X003623Y001768D01*
X003650Y001796D01*
X003679Y001822D01*
X003710Y001845D01*
X003744Y001864D01*
X003780Y001880D01*
X003816Y001892D01*
X003854Y001901D01*
X003893Y001906D01*
X003932Y001907D01*
X003970Y001904D01*
X004009Y001897D01*
X004046Y001887D01*
X004082Y001872D01*
X004117Y001855D01*
X004150Y001834D01*
X004180Y001809D01*
X004208Y001782D01*
X004233Y001752D01*
X004255Y001720D01*
X004273Y001686D01*
X004288Y001650D01*
X004300Y001613D01*
X004308Y001575D01*
X004312Y001536D01*
X004312Y001498D01*
X004308Y001459D01*
X004300Y001421D01*
X004288Y001384D01*
X004273Y001348D01*
X004255Y001314D01*
X004233Y001282D01*
X004208Y001252D01*
X004180Y001225D01*
X004150Y001200D01*
X004117Y001179D01*
X004082Y001162D01*
X004046Y001147D01*
X004009Y001137D01*
X003970Y001130D01*
X003932Y001127D01*
X003893Y001128D01*
X003854Y001133D01*
X003816Y001142D01*
X003780Y001154D01*
X003744Y001170D01*
X003710Y001189D01*
X003679Y001212D01*
X003650Y001238D01*
X003623Y001266D01*
X003600Y001297D01*
X003579Y001330D01*
X003563Y001366D01*
X003549Y001402D01*
X003540Y001440D01*
X003534Y001478D01*
X003532Y001517D01*
X003522Y001117D02*
X004322Y001917D01*
X008157Y001392D02*
X008159Y001431D01*
X008165Y001469D01*
X008174Y001507D01*
X008188Y001543D01*
X008204Y001579D01*
X008225Y001612D01*
X008248Y001643D01*
X008275Y001671D01*
X008304Y001697D01*
X008335Y001720D01*
X008369Y001739D01*
X008405Y001755D01*
X008441Y001767D01*
X008479Y001776D01*
X008518Y001781D01*
X008557Y001782D01*
X008595Y001779D01*
X008634Y001772D01*
X008671Y001762D01*
X008707Y001747D01*
X008742Y001730D01*
X008775Y001709D01*
X008805Y001684D01*
X008833Y001657D01*
X008858Y001627D01*
X008880Y001595D01*
X008898Y001561D01*
X008913Y001525D01*
X008925Y001488D01*
X008933Y001450D01*
X008937Y001411D01*
X008937Y001373D01*
X008933Y001334D01*
X008925Y001296D01*
X008913Y001259D01*
X008898Y001223D01*
X008880Y001189D01*
X008858Y001157D01*
X008833Y001127D01*
X008805Y001100D01*
X008775Y001075D01*
X008742Y001054D01*
X008707Y001037D01*
X008671Y001022D01*
X008634Y001012D01*
X008595Y001005D01*
X008557Y001002D01*
X008518Y001003D01*
X008479Y001008D01*
X008441Y001017D01*
X008405Y001029D01*
X008369Y001045D01*
X008335Y001064D01*
X008304Y001087D01*
X008275Y001113D01*
X008248Y001141D01*
X008225Y001172D01*
X008204Y001205D01*
X008188Y001241D01*
X008174Y001277D01*
X008165Y001315D01*
X008159Y001353D01*
X008157Y001392D01*
X008147Y000992D02*
X008947Y001792D01*
X007157Y001392D02*
X007159Y001431D01*
X007165Y001469D01*
X007174Y001507D01*
X007188Y001543D01*
X007204Y001579D01*
X007225Y001612D01*
X007248Y001643D01*
X007275Y001671D01*
X007304Y001697D01*
X007335Y001720D01*
X007369Y001739D01*
X007405Y001755D01*
X007441Y001767D01*
X007479Y001776D01*
X007518Y001781D01*
X007557Y001782D01*
X007595Y001779D01*
X007634Y001772D01*
X007671Y001762D01*
X007707Y001747D01*
X007742Y001730D01*
X007775Y001709D01*
X007805Y001684D01*
X007833Y001657D01*
X007858Y001627D01*
X007880Y001595D01*
X007898Y001561D01*
X007913Y001525D01*
X007925Y001488D01*
X007933Y001450D01*
X007937Y001411D01*
X007937Y001373D01*
X007933Y001334D01*
X007925Y001296D01*
X007913Y001259D01*
X007898Y001223D01*
X007880Y001189D01*
X007858Y001157D01*
X007833Y001127D01*
X007805Y001100D01*
X007775Y001075D01*
X007742Y001054D01*
X007707Y001037D01*
X007671Y001022D01*
X007634Y001012D01*
X007595Y001005D01*
X007557Y001002D01*
X007518Y001003D01*
X007479Y001008D01*
X007441Y001017D01*
X007405Y001029D01*
X007369Y001045D01*
X007335Y001064D01*
X007304Y001087D01*
X007275Y001113D01*
X007248Y001141D01*
X007225Y001172D01*
X007204Y001205D01*
X007188Y001241D01*
X007174Y001277D01*
X007165Y001315D01*
X007159Y001353D01*
X007157Y001392D01*
X007147Y000992D02*
X007947Y001792D01*
X006157Y001392D02*
X006159Y001431D01*
X006165Y001469D01*
X006174Y001507D01*
X006188Y001543D01*
X006204Y001579D01*
X006225Y001612D01*
X006248Y001643D01*
X006275Y001671D01*
X006304Y001697D01*
X006335Y001720D01*
X006369Y001739D01*
X006405Y001755D01*
X006441Y001767D01*
X006479Y001776D01*
X006518Y001781D01*
X006557Y001782D01*
X006595Y001779D01*
X006634Y001772D01*
X006671Y001762D01*
X006707Y001747D01*
X006742Y001730D01*
X006775Y001709D01*
X006805Y001684D01*
X006833Y001657D01*
X006858Y001627D01*
X006880Y001595D01*
X006898Y001561D01*
X006913Y001525D01*
X006925Y001488D01*
X006933Y001450D01*
X006937Y001411D01*
X006937Y001373D01*
X006933Y001334D01*
X006925Y001296D01*
X006913Y001259D01*
X006898Y001223D01*
X006880Y001189D01*
X006858Y001157D01*
X006833Y001127D01*
X006805Y001100D01*
X006775Y001075D01*
X006742Y001054D01*
X006707Y001037D01*
X006671Y001022D01*
X006634Y001012D01*
X006595Y001005D01*
X006557Y001002D01*
X006518Y001003D01*
X006479Y001008D01*
X006441Y001017D01*
X006405Y001029D01*
X006369Y001045D01*
X006335Y001064D01*
X006304Y001087D01*
X006275Y001113D01*
X006248Y001141D01*
X006225Y001172D01*
X006204Y001205D01*
X006188Y001241D01*
X006174Y001277D01*
X006165Y001315D01*
X006159Y001353D01*
X006157Y001392D01*
X006147Y000992D02*
X006947Y001792D01*
X005157Y001392D02*
X005159Y001431D01*
X005165Y001469D01*
X005174Y001507D01*
X005188Y001543D01*
X005204Y001579D01*
X005225Y001612D01*
X005248Y001643D01*
X005275Y001671D01*
X005304Y001697D01*
X005335Y001720D01*
X005369Y001739D01*
X005405Y001755D01*
X005441Y001767D01*
X005479Y001776D01*
X005518Y001781D01*
X005557Y001782D01*
X005595Y001779D01*
X005634Y001772D01*
X005671Y001762D01*
X005707Y001747D01*
X005742Y001730D01*
X005775Y001709D01*
X005805Y001684D01*
X005833Y001657D01*
X005858Y001627D01*
X005880Y001595D01*
X005898Y001561D01*
X005913Y001525D01*
X005925Y001488D01*
X005933Y001450D01*
X005937Y001411D01*
X005937Y001373D01*
X005933Y001334D01*
X005925Y001296D01*
X005913Y001259D01*
X005898Y001223D01*
X005880Y001189D01*
X005858Y001157D01*
X005833Y001127D01*
X005805Y001100D01*
X005775Y001075D01*
X005742Y001054D01*
X005707Y001037D01*
X005671Y001022D01*
X005634Y001012D01*
X005595Y001005D01*
X005557Y001002D01*
X005518Y001003D01*
X005479Y001008D01*
X005441Y001017D01*
X005405Y001029D01*
X005369Y001045D01*
X005335Y001064D01*
X005304Y001087D01*
X005275Y001113D01*
X005248Y001141D01*
X005225Y001172D01*
X005204Y001205D01*
X005188Y001241D01*
X005174Y001277D01*
X005165Y001315D01*
X005159Y001353D01*
X005157Y001392D01*
X005147Y000992D02*
X005947Y001792D01*
X002407Y018392D02*
X002409Y018431D01*
X002415Y018469D01*
X002424Y018507D01*
X002438Y018543D01*
X002454Y018579D01*
X002475Y018612D01*
X002498Y018643D01*
X002525Y018671D01*
X002554Y018697D01*
X002585Y018720D01*
X002619Y018739D01*
X002655Y018755D01*
X002691Y018767D01*
X002729Y018776D01*
X002768Y018781D01*
X002807Y018782D01*
X002845Y018779D01*
X002884Y018772D01*
X002921Y018762D01*
X002957Y018747D01*
X002992Y018730D01*
X003025Y018709D01*
X003055Y018684D01*
X003083Y018657D01*
X003108Y018627D01*
X003130Y018595D01*
X003148Y018561D01*
X003163Y018525D01*
X003175Y018488D01*
X003183Y018450D01*
X003187Y018411D01*
X003187Y018373D01*
X003183Y018334D01*
X003175Y018296D01*
X003163Y018259D01*
X003148Y018223D01*
X003130Y018189D01*
X003108Y018157D01*
X003083Y018127D01*
X003055Y018100D01*
X003025Y018075D01*
X002992Y018054D01*
X002957Y018037D01*
X002921Y018022D01*
X002884Y018012D01*
X002845Y018005D01*
X002807Y018002D01*
X002768Y018003D01*
X002729Y018008D01*
X002691Y018017D01*
X002655Y018029D01*
X002619Y018045D01*
X002585Y018064D01*
X002554Y018087D01*
X002525Y018113D01*
X002498Y018141D01*
X002475Y018172D01*
X002454Y018205D01*
X002438Y018241D01*
X002424Y018277D01*
X002415Y018315D01*
X002409Y018353D01*
X002407Y018392D01*
X002397Y017992D02*
X003197Y018792D01*
X002407Y017392D02*
X002409Y017431D01*
X002415Y017469D01*
X002424Y017507D01*
X002438Y017543D01*
X002454Y017579D01*
X002475Y017612D01*
X002498Y017643D01*
X002525Y017671D01*
X002554Y017697D01*
X002585Y017720D01*
X002619Y017739D01*
X002655Y017755D01*
X002691Y017767D01*
X002729Y017776D01*
X002768Y017781D01*
X002807Y017782D01*
X002845Y017779D01*
X002884Y017772D01*
X002921Y017762D01*
X002957Y017747D01*
X002992Y017730D01*
X003025Y017709D01*
X003055Y017684D01*
X003083Y017657D01*
X003108Y017627D01*
X003130Y017595D01*
X003148Y017561D01*
X003163Y017525D01*
X003175Y017488D01*
X003183Y017450D01*
X003187Y017411D01*
X003187Y017373D01*
X003183Y017334D01*
X003175Y017296D01*
X003163Y017259D01*
X003148Y017223D01*
X003130Y017189D01*
X003108Y017157D01*
X003083Y017127D01*
X003055Y017100D01*
X003025Y017075D01*
X002992Y017054D01*
X002957Y017037D01*
X002921Y017022D01*
X002884Y017012D01*
X002845Y017005D01*
X002807Y017002D01*
X002768Y017003D01*
X002729Y017008D01*
X002691Y017017D01*
X002655Y017029D01*
X002619Y017045D01*
X002585Y017064D01*
X002554Y017087D01*
X002525Y017113D01*
X002498Y017141D01*
X002475Y017172D01*
X002454Y017205D01*
X002438Y017241D01*
X002424Y017277D01*
X002415Y017315D01*
X002409Y017353D01*
X002407Y017392D01*
X002397Y016992D02*
X003197Y017792D01*
X002407Y016392D02*
X002409Y016431D01*
X002415Y016469D01*
X002424Y016507D01*
X002438Y016543D01*
X002454Y016579D01*
X002475Y016612D01*
X002498Y016643D01*
X002525Y016671D01*
X002554Y016697D01*
X002585Y016720D01*
X002619Y016739D01*
X002655Y016755D01*
X002691Y016767D01*
X002729Y016776D01*
X002768Y016781D01*
X002807Y016782D01*
X002845Y016779D01*
X002884Y016772D01*
X002921Y016762D01*
X002957Y016747D01*
X002992Y016730D01*
X003025Y016709D01*
X003055Y016684D01*
X003083Y016657D01*
X003108Y016627D01*
X003130Y016595D01*
X003148Y016561D01*
X003163Y016525D01*
X003175Y016488D01*
X003183Y016450D01*
X003187Y016411D01*
X003187Y016373D01*
X003183Y016334D01*
X003175Y016296D01*
X003163Y016259D01*
X003148Y016223D01*
X003130Y016189D01*
X003108Y016157D01*
X003083Y016127D01*
X003055Y016100D01*
X003025Y016075D01*
X002992Y016054D01*
X002957Y016037D01*
X002921Y016022D01*
X002884Y016012D01*
X002845Y016005D01*
X002807Y016002D01*
X002768Y016003D01*
X002729Y016008D01*
X002691Y016017D01*
X002655Y016029D01*
X002619Y016045D01*
X002585Y016064D01*
X002554Y016087D01*
X002525Y016113D01*
X002498Y016141D01*
X002475Y016172D01*
X002454Y016205D01*
X002438Y016241D01*
X002424Y016277D01*
X002415Y016315D01*
X002409Y016353D01*
X002407Y016392D01*
X002397Y015992D02*
X003197Y016792D01*
X002407Y015392D02*
X002409Y015431D01*
X002415Y015469D01*
X002424Y015507D01*
X002438Y015543D01*
X002454Y015579D01*
X002475Y015612D01*
X002498Y015643D01*
X002525Y015671D01*
X002554Y015697D01*
X002585Y015720D01*
X002619Y015739D01*
X002655Y015755D01*
X002691Y015767D01*
X002729Y015776D01*
X002768Y015781D01*
X002807Y015782D01*
X002845Y015779D01*
X002884Y015772D01*
X002921Y015762D01*
X002957Y015747D01*
X002992Y015730D01*
X003025Y015709D01*
X003055Y015684D01*
X003083Y015657D01*
X003108Y015627D01*
X003130Y015595D01*
X003148Y015561D01*
X003163Y015525D01*
X003175Y015488D01*
X003183Y015450D01*
X003187Y015411D01*
X003187Y015373D01*
X003183Y015334D01*
X003175Y015296D01*
X003163Y015259D01*
X003148Y015223D01*
X003130Y015189D01*
X003108Y015157D01*
X003083Y015127D01*
X003055Y015100D01*
X003025Y015075D01*
X002992Y015054D01*
X002957Y015037D01*
X002921Y015022D01*
X002884Y015012D01*
X002845Y015005D01*
X002807Y015002D01*
X002768Y015003D01*
X002729Y015008D01*
X002691Y015017D01*
X002655Y015029D01*
X002619Y015045D01*
X002585Y015064D01*
X002554Y015087D01*
X002525Y015113D01*
X002498Y015141D01*
X002475Y015172D01*
X002454Y015205D01*
X002438Y015241D01*
X002424Y015277D01*
X002415Y015315D01*
X002409Y015353D01*
X002407Y015392D01*
X002397Y014992D02*
X003197Y015792D01*
X003047Y013342D02*
X003047Y013742D01*
X003447Y013742D01*
X003447Y012942D01*
X002647Y012942D01*
X002647Y013742D01*
X003047Y013742D01*
X003047Y012403D02*
X003047Y012803D01*
X003447Y012803D01*
X003447Y012003D01*
X002647Y012003D01*
X002647Y012803D01*
X003047Y012803D01*
X003047Y011442D02*
X003047Y011842D01*
X003447Y011842D01*
X003447Y011042D01*
X002647Y011042D01*
X002647Y011842D01*
X003047Y011842D01*
X008642Y017112D02*
X008644Y017151D01*
X008650Y017189D01*
X008659Y017227D01*
X008673Y017263D01*
X008689Y017299D01*
X008710Y017332D01*
X008733Y017363D01*
X008760Y017391D01*
X008789Y017417D01*
X008820Y017440D01*
X008854Y017459D01*
X008890Y017475D01*
X008926Y017487D01*
X008964Y017496D01*
X009003Y017501D01*
X009042Y017502D01*
X009080Y017499D01*
X009119Y017492D01*
X009156Y017482D01*
X009192Y017467D01*
X009227Y017450D01*
X009260Y017429D01*
X009290Y017404D01*
X009318Y017377D01*
X009343Y017347D01*
X009365Y017315D01*
X009383Y017281D01*
X009398Y017245D01*
X009410Y017208D01*
X009418Y017170D01*
X009422Y017131D01*
X009422Y017093D01*
X009418Y017054D01*
X009410Y017016D01*
X009398Y016979D01*
X009383Y016943D01*
X009365Y016909D01*
X009343Y016877D01*
X009318Y016847D01*
X009290Y016820D01*
X009260Y016795D01*
X009227Y016774D01*
X009192Y016757D01*
X009156Y016742D01*
X009119Y016732D01*
X009080Y016725D01*
X009042Y016722D01*
X009003Y016723D01*
X008964Y016728D01*
X008926Y016737D01*
X008890Y016749D01*
X008854Y016765D01*
X008820Y016784D01*
X008789Y016807D01*
X008760Y016833D01*
X008733Y016861D01*
X008710Y016892D01*
X008689Y016925D01*
X008673Y016961D01*
X008659Y016997D01*
X008650Y017035D01*
X008644Y017073D01*
X008642Y017112D01*
X008632Y016712D02*
X009432Y017512D01*
X008642Y019672D02*
X008644Y019711D01*
X008650Y019749D01*
X008659Y019787D01*
X008673Y019823D01*
X008689Y019859D01*
X008710Y019892D01*
X008733Y019923D01*
X008760Y019951D01*
X008789Y019977D01*
X008820Y020000D01*
X008854Y020019D01*
X008890Y020035D01*
X008926Y020047D01*
X008964Y020056D01*
X009003Y020061D01*
X009042Y020062D01*
X009080Y020059D01*
X009119Y020052D01*
X009156Y020042D01*
X009192Y020027D01*
X009227Y020010D01*
X009260Y019989D01*
X009290Y019964D01*
X009318Y019937D01*
X009343Y019907D01*
X009365Y019875D01*
X009383Y019841D01*
X009398Y019805D01*
X009410Y019768D01*
X009418Y019730D01*
X009422Y019691D01*
X009422Y019653D01*
X009418Y019614D01*
X009410Y019576D01*
X009398Y019539D01*
X009383Y019503D01*
X009365Y019469D01*
X009343Y019437D01*
X009318Y019407D01*
X009290Y019380D01*
X009260Y019355D01*
X009227Y019334D01*
X009192Y019317D01*
X009156Y019302D01*
X009119Y019292D01*
X009080Y019285D01*
X009042Y019282D01*
X009003Y019283D01*
X008964Y019288D01*
X008926Y019297D01*
X008890Y019309D01*
X008854Y019325D01*
X008820Y019344D01*
X008789Y019367D01*
X008760Y019393D01*
X008733Y019421D01*
X008710Y019452D01*
X008689Y019485D01*
X008673Y019521D01*
X008659Y019557D01*
X008650Y019595D01*
X008644Y019633D01*
X008642Y019672D01*
X008632Y019272D02*
X009432Y020072D01*
X010422Y017112D02*
X010424Y017151D01*
X010430Y017189D01*
X010439Y017227D01*
X010453Y017263D01*
X010469Y017299D01*
X010490Y017332D01*
X010513Y017363D01*
X010540Y017391D01*
X010569Y017417D01*
X010600Y017440D01*
X010634Y017459D01*
X010670Y017475D01*
X010706Y017487D01*
X010744Y017496D01*
X010783Y017501D01*
X010822Y017502D01*
X010860Y017499D01*
X010899Y017492D01*
X010936Y017482D01*
X010972Y017467D01*
X011007Y017450D01*
X011040Y017429D01*
X011070Y017404D01*
X011098Y017377D01*
X011123Y017347D01*
X011145Y017315D01*
X011163Y017281D01*
X011178Y017245D01*
X011190Y017208D01*
X011198Y017170D01*
X011202Y017131D01*
X011202Y017093D01*
X011198Y017054D01*
X011190Y017016D01*
X011178Y016979D01*
X011163Y016943D01*
X011145Y016909D01*
X011123Y016877D01*
X011098Y016847D01*
X011070Y016820D01*
X011040Y016795D01*
X011007Y016774D01*
X010972Y016757D01*
X010936Y016742D01*
X010899Y016732D01*
X010860Y016725D01*
X010822Y016722D01*
X010783Y016723D01*
X010744Y016728D01*
X010706Y016737D01*
X010670Y016749D01*
X010634Y016765D01*
X010600Y016784D01*
X010569Y016807D01*
X010540Y016833D01*
X010513Y016861D01*
X010490Y016892D01*
X010469Y016925D01*
X010453Y016961D01*
X010439Y016997D01*
X010430Y017035D01*
X010424Y017073D01*
X010422Y017112D01*
X010412Y016712D02*
X011212Y017512D01*
X010422Y019672D02*
X010424Y019711D01*
X010430Y019749D01*
X010439Y019787D01*
X010453Y019823D01*
X010469Y019859D01*
X010490Y019892D01*
X010513Y019923D01*
X010540Y019951D01*
X010569Y019977D01*
X010600Y020000D01*
X010634Y020019D01*
X010670Y020035D01*
X010706Y020047D01*
X010744Y020056D01*
X010783Y020061D01*
X010822Y020062D01*
X010860Y020059D01*
X010899Y020052D01*
X010936Y020042D01*
X010972Y020027D01*
X011007Y020010D01*
X011040Y019989D01*
X011070Y019964D01*
X011098Y019937D01*
X011123Y019907D01*
X011145Y019875D01*
X011163Y019841D01*
X011178Y019805D01*
X011190Y019768D01*
X011198Y019730D01*
X011202Y019691D01*
X011202Y019653D01*
X011198Y019614D01*
X011190Y019576D01*
X011178Y019539D01*
X011163Y019503D01*
X011145Y019469D01*
X011123Y019437D01*
X011098Y019407D01*
X011070Y019380D01*
X011040Y019355D01*
X011007Y019334D01*
X010972Y019317D01*
X010936Y019302D01*
X010899Y019292D01*
X010860Y019285D01*
X010822Y019282D01*
X010783Y019283D01*
X010744Y019288D01*
X010706Y019297D01*
X010670Y019309D01*
X010634Y019325D01*
X010600Y019344D01*
X010569Y019367D01*
X010540Y019393D01*
X010513Y019421D01*
X010490Y019452D01*
X010469Y019485D01*
X010453Y019521D01*
X010439Y019557D01*
X010430Y019595D01*
X010424Y019633D01*
X010422Y019672D01*
X010412Y019272D02*
X011212Y020072D01*
X009032Y010517D02*
X009034Y010556D01*
X009040Y010594D01*
X009049Y010632D01*
X009063Y010668D01*
X009079Y010704D01*
X009100Y010737D01*
X009123Y010768D01*
X009150Y010796D01*
X009179Y010822D01*
X009210Y010845D01*
X009244Y010864D01*
X009280Y010880D01*
X009316Y010892D01*
X009354Y010901D01*
X009393Y010906D01*
X009432Y010907D01*
X009470Y010904D01*
X009509Y010897D01*
X009546Y010887D01*
X009582Y010872D01*
X009617Y010855D01*
X009650Y010834D01*
X009680Y010809D01*
X009708Y010782D01*
X009733Y010752D01*
X009755Y010720D01*
X009773Y010686D01*
X009788Y010650D01*
X009800Y010613D01*
X009808Y010575D01*
X009812Y010536D01*
X009812Y010498D01*
X009808Y010459D01*
X009800Y010421D01*
X009788Y010384D01*
X009773Y010348D01*
X009755Y010314D01*
X009733Y010282D01*
X009708Y010252D01*
X009680Y010225D01*
X009650Y010200D01*
X009617Y010179D01*
X009582Y010162D01*
X009546Y010147D01*
X009509Y010137D01*
X009470Y010130D01*
X009432Y010127D01*
X009393Y010128D01*
X009354Y010133D01*
X009316Y010142D01*
X009280Y010154D01*
X009244Y010170D01*
X009210Y010189D01*
X009179Y010212D01*
X009150Y010238D01*
X009123Y010266D01*
X009100Y010297D01*
X009079Y010330D01*
X009063Y010366D01*
X009049Y010402D01*
X009040Y010440D01*
X009034Y010478D01*
X009032Y010517D01*
X009022Y010117D02*
X009822Y010917D01*
X010032Y010517D02*
X010034Y010556D01*
X010040Y010594D01*
X010049Y010632D01*
X010063Y010668D01*
X010079Y010704D01*
X010100Y010737D01*
X010123Y010768D01*
X010150Y010796D01*
X010179Y010822D01*
X010210Y010845D01*
X010244Y010864D01*
X010280Y010880D01*
X010316Y010892D01*
X010354Y010901D01*
X010393Y010906D01*
X010432Y010907D01*
X010470Y010904D01*
X010509Y010897D01*
X010546Y010887D01*
X010582Y010872D01*
X010617Y010855D01*
X010650Y010834D01*
X010680Y010809D01*
X010708Y010782D01*
X010733Y010752D01*
X010755Y010720D01*
X010773Y010686D01*
X010788Y010650D01*
X010800Y010613D01*
X010808Y010575D01*
X010812Y010536D01*
X010812Y010498D01*
X010808Y010459D01*
X010800Y010421D01*
X010788Y010384D01*
X010773Y010348D01*
X010755Y010314D01*
X010733Y010282D01*
X010708Y010252D01*
X010680Y010225D01*
X010650Y010200D01*
X010617Y010179D01*
X010582Y010162D01*
X010546Y010147D01*
X010509Y010137D01*
X010470Y010130D01*
X010432Y010127D01*
X010393Y010128D01*
X010354Y010133D01*
X010316Y010142D01*
X010280Y010154D01*
X010244Y010170D01*
X010210Y010189D01*
X010179Y010212D01*
X010150Y010238D01*
X010123Y010266D01*
X010100Y010297D01*
X010079Y010330D01*
X010063Y010366D01*
X010049Y010402D01*
X010040Y010440D01*
X010034Y010478D01*
X010032Y010517D01*
X010022Y010117D02*
X010822Y010917D01*
X009032Y009517D02*
X009034Y009556D01*
X009040Y009594D01*
X009049Y009632D01*
X009063Y009668D01*
X009079Y009704D01*
X009100Y009737D01*
X009123Y009768D01*
X009150Y009796D01*
X009179Y009822D01*
X009210Y009845D01*
X009244Y009864D01*
X009280Y009880D01*
X009316Y009892D01*
X009354Y009901D01*
X009393Y009906D01*
X009432Y009907D01*
X009470Y009904D01*
X009509Y009897D01*
X009546Y009887D01*
X009582Y009872D01*
X009617Y009855D01*
X009650Y009834D01*
X009680Y009809D01*
X009708Y009782D01*
X009733Y009752D01*
X009755Y009720D01*
X009773Y009686D01*
X009788Y009650D01*
X009800Y009613D01*
X009808Y009575D01*
X009812Y009536D01*
X009812Y009498D01*
X009808Y009459D01*
X009800Y009421D01*
X009788Y009384D01*
X009773Y009348D01*
X009755Y009314D01*
X009733Y009282D01*
X009708Y009252D01*
X009680Y009225D01*
X009650Y009200D01*
X009617Y009179D01*
X009582Y009162D01*
X009546Y009147D01*
X009509Y009137D01*
X009470Y009130D01*
X009432Y009127D01*
X009393Y009128D01*
X009354Y009133D01*
X009316Y009142D01*
X009280Y009154D01*
X009244Y009170D01*
X009210Y009189D01*
X009179Y009212D01*
X009150Y009238D01*
X009123Y009266D01*
X009100Y009297D01*
X009079Y009330D01*
X009063Y009366D01*
X009049Y009402D01*
X009040Y009440D01*
X009034Y009478D01*
X009032Y009517D01*
X009022Y009117D02*
X009822Y009917D01*
X010032Y009517D02*
X010034Y009556D01*
X010040Y009594D01*
X010049Y009632D01*
X010063Y009668D01*
X010079Y009704D01*
X010100Y009737D01*
X010123Y009768D01*
X010150Y009796D01*
X010179Y009822D01*
X010210Y009845D01*
X010244Y009864D01*
X010280Y009880D01*
X010316Y009892D01*
X010354Y009901D01*
X010393Y009906D01*
X010432Y009907D01*
X010470Y009904D01*
X010509Y009897D01*
X010546Y009887D01*
X010582Y009872D01*
X010617Y009855D01*
X010650Y009834D01*
X010680Y009809D01*
X010708Y009782D01*
X010733Y009752D01*
X010755Y009720D01*
X010773Y009686D01*
X010788Y009650D01*
X010800Y009613D01*
X010808Y009575D01*
X010812Y009536D01*
X010812Y009498D01*
X010808Y009459D01*
X010800Y009421D01*
X010788Y009384D01*
X010773Y009348D01*
X010755Y009314D01*
X010733Y009282D01*
X010708Y009252D01*
X010680Y009225D01*
X010650Y009200D01*
X010617Y009179D01*
X010582Y009162D01*
X010546Y009147D01*
X010509Y009137D01*
X010470Y009130D01*
X010432Y009127D01*
X010393Y009128D01*
X010354Y009133D01*
X010316Y009142D01*
X010280Y009154D01*
X010244Y009170D01*
X010210Y009189D01*
X010179Y009212D01*
X010150Y009238D01*
X010123Y009266D01*
X010100Y009297D01*
X010079Y009330D01*
X010063Y009366D01*
X010049Y009402D01*
X010040Y009440D01*
X010034Y009478D01*
X010032Y009517D01*
X010022Y009117D02*
X010822Y009917D01*
X009032Y008517D02*
X009034Y008556D01*
X009040Y008594D01*
X009049Y008632D01*
X009063Y008668D01*
X009079Y008704D01*
X009100Y008737D01*
X009123Y008768D01*
X009150Y008796D01*
X009179Y008822D01*
X009210Y008845D01*
X009244Y008864D01*
X009280Y008880D01*
X009316Y008892D01*
X009354Y008901D01*
X009393Y008906D01*
X009432Y008907D01*
X009470Y008904D01*
X009509Y008897D01*
X009546Y008887D01*
X009582Y008872D01*
X009617Y008855D01*
X009650Y008834D01*
X009680Y008809D01*
X009708Y008782D01*
X009733Y008752D01*
X009755Y008720D01*
X009773Y008686D01*
X009788Y008650D01*
X009800Y008613D01*
X009808Y008575D01*
X009812Y008536D01*
X009812Y008498D01*
X009808Y008459D01*
X009800Y008421D01*
X009788Y008384D01*
X009773Y008348D01*
X009755Y008314D01*
X009733Y008282D01*
X009708Y008252D01*
X009680Y008225D01*
X009650Y008200D01*
X009617Y008179D01*
X009582Y008162D01*
X009546Y008147D01*
X009509Y008137D01*
X009470Y008130D01*
X009432Y008127D01*
X009393Y008128D01*
X009354Y008133D01*
X009316Y008142D01*
X009280Y008154D01*
X009244Y008170D01*
X009210Y008189D01*
X009179Y008212D01*
X009150Y008238D01*
X009123Y008266D01*
X009100Y008297D01*
X009079Y008330D01*
X009063Y008366D01*
X009049Y008402D01*
X009040Y008440D01*
X009034Y008478D01*
X009032Y008517D01*
X009022Y008117D02*
X009822Y008917D01*
X010032Y008517D02*
X010034Y008556D01*
X010040Y008594D01*
X010049Y008632D01*
X010063Y008668D01*
X010079Y008704D01*
X010100Y008737D01*
X010123Y008768D01*
X010150Y008796D01*
X010179Y008822D01*
X010210Y008845D01*
X010244Y008864D01*
X010280Y008880D01*
X010316Y008892D01*
X010354Y008901D01*
X010393Y008906D01*
X010432Y008907D01*
X010470Y008904D01*
X010509Y008897D01*
X010546Y008887D01*
X010582Y008872D01*
X010617Y008855D01*
X010650Y008834D01*
X010680Y008809D01*
X010708Y008782D01*
X010733Y008752D01*
X010755Y008720D01*
X010773Y008686D01*
X010788Y008650D01*
X010800Y008613D01*
X010808Y008575D01*
X010812Y008536D01*
X010812Y008498D01*
X010808Y008459D01*
X010800Y008421D01*
X010788Y008384D01*
X010773Y008348D01*
X010755Y008314D01*
X010733Y008282D01*
X010708Y008252D01*
X010680Y008225D01*
X010650Y008200D01*
X010617Y008179D01*
X010582Y008162D01*
X010546Y008147D01*
X010509Y008137D01*
X010470Y008130D01*
X010432Y008127D01*
X010393Y008128D01*
X010354Y008133D01*
X010316Y008142D01*
X010280Y008154D01*
X010244Y008170D01*
X010210Y008189D01*
X010179Y008212D01*
X010150Y008238D01*
X010123Y008266D01*
X010100Y008297D01*
X010079Y008330D01*
X010063Y008366D01*
X010049Y008402D01*
X010040Y008440D01*
X010034Y008478D01*
X010032Y008517D01*
X010022Y008117D02*
X010822Y008917D01*
X002407Y019517D02*
X002409Y019556D01*
X002415Y019594D01*
X002424Y019632D01*
X002438Y019668D01*
X002454Y019704D01*
X002475Y019737D01*
X002498Y019768D01*
X002525Y019796D01*
X002554Y019822D01*
X002585Y019845D01*
X002619Y019864D01*
X002655Y019880D01*
X002691Y019892D01*
X002729Y019901D01*
X002768Y019906D01*
X002807Y019907D01*
X002845Y019904D01*
X002884Y019897D01*
X002921Y019887D01*
X002957Y019872D01*
X002992Y019855D01*
X003025Y019834D01*
X003055Y019809D01*
X003083Y019782D01*
X003108Y019752D01*
X003130Y019720D01*
X003148Y019686D01*
X003163Y019650D01*
X003175Y019613D01*
X003183Y019575D01*
X003187Y019536D01*
X003187Y019498D01*
X003183Y019459D01*
X003175Y019421D01*
X003163Y019384D01*
X003148Y019348D01*
X003130Y019314D01*
X003108Y019282D01*
X003083Y019252D01*
X003055Y019225D01*
X003025Y019200D01*
X002992Y019179D01*
X002957Y019162D01*
X002921Y019147D01*
X002884Y019137D01*
X002845Y019130D01*
X002807Y019127D01*
X002768Y019128D01*
X002729Y019133D01*
X002691Y019142D01*
X002655Y019154D01*
X002619Y019170D01*
X002585Y019189D01*
X002554Y019212D01*
X002525Y019238D01*
X002498Y019266D01*
X002475Y019297D01*
X002454Y019330D01*
X002438Y019366D01*
X002424Y019402D01*
X002415Y019440D01*
X002409Y019478D01*
X002407Y019517D01*
X002397Y019117D02*
X003197Y019917D01*
X003407Y019517D02*
X003409Y019556D01*
X003415Y019594D01*
X003424Y019632D01*
X003438Y019668D01*
X003454Y019704D01*
X003475Y019737D01*
X003498Y019768D01*
X003525Y019796D01*
X003554Y019822D01*
X003585Y019845D01*
X003619Y019864D01*
X003655Y019880D01*
X003691Y019892D01*
X003729Y019901D01*
X003768Y019906D01*
X003807Y019907D01*
X003845Y019904D01*
X003884Y019897D01*
X003921Y019887D01*
X003957Y019872D01*
X003992Y019855D01*
X004025Y019834D01*
X004055Y019809D01*
X004083Y019782D01*
X004108Y019752D01*
X004130Y019720D01*
X004148Y019686D01*
X004163Y019650D01*
X004175Y019613D01*
X004183Y019575D01*
X004187Y019536D01*
X004187Y019498D01*
X004183Y019459D01*
X004175Y019421D01*
X004163Y019384D01*
X004148Y019348D01*
X004130Y019314D01*
X004108Y019282D01*
X004083Y019252D01*
X004055Y019225D01*
X004025Y019200D01*
X003992Y019179D01*
X003957Y019162D01*
X003921Y019147D01*
X003884Y019137D01*
X003845Y019130D01*
X003807Y019127D01*
X003768Y019128D01*
X003729Y019133D01*
X003691Y019142D01*
X003655Y019154D01*
X003619Y019170D01*
X003585Y019189D01*
X003554Y019212D01*
X003525Y019238D01*
X003498Y019266D01*
X003475Y019297D01*
X003454Y019330D01*
X003438Y019366D01*
X003424Y019402D01*
X003415Y019440D01*
X003409Y019478D01*
X003407Y019517D01*
X003397Y019117D02*
X004197Y019917D01*
X004657Y005517D02*
X004659Y005556D01*
X004665Y005594D01*
X004674Y005632D01*
X004688Y005668D01*
X004704Y005704D01*
X004725Y005737D01*
X004748Y005768D01*
X004775Y005796D01*
X004804Y005822D01*
X004835Y005845D01*
X004869Y005864D01*
X004905Y005880D01*
X004941Y005892D01*
X004979Y005901D01*
X005018Y005906D01*
X005057Y005907D01*
X005095Y005904D01*
X005134Y005897D01*
X005171Y005887D01*
X005207Y005872D01*
X005242Y005855D01*
X005275Y005834D01*
X005305Y005809D01*
X005333Y005782D01*
X005358Y005752D01*
X005380Y005720D01*
X005398Y005686D01*
X005413Y005650D01*
X005425Y005613D01*
X005433Y005575D01*
X005437Y005536D01*
X005437Y005498D01*
X005433Y005459D01*
X005425Y005421D01*
X005413Y005384D01*
X005398Y005348D01*
X005380Y005314D01*
X005358Y005282D01*
X005333Y005252D01*
X005305Y005225D01*
X005275Y005200D01*
X005242Y005179D01*
X005207Y005162D01*
X005171Y005147D01*
X005134Y005137D01*
X005095Y005130D01*
X005057Y005127D01*
X005018Y005128D01*
X004979Y005133D01*
X004941Y005142D01*
X004905Y005154D01*
X004869Y005170D01*
X004835Y005189D01*
X004804Y005212D01*
X004775Y005238D01*
X004748Y005266D01*
X004725Y005297D01*
X004704Y005330D01*
X004688Y005366D01*
X004674Y005402D01*
X004665Y005440D01*
X004659Y005478D01*
X004657Y005517D01*
X004647Y005117D02*
X005447Y005917D01*
X004657Y004517D02*
X004659Y004556D01*
X004665Y004594D01*
X004674Y004632D01*
X004688Y004668D01*
X004704Y004704D01*
X004725Y004737D01*
X004748Y004768D01*
X004775Y004796D01*
X004804Y004822D01*
X004835Y004845D01*
X004869Y004864D01*
X004905Y004880D01*
X004941Y004892D01*
X004979Y004901D01*
X005018Y004906D01*
X005057Y004907D01*
X005095Y004904D01*
X005134Y004897D01*
X005171Y004887D01*
X005207Y004872D01*
X005242Y004855D01*
X005275Y004834D01*
X005305Y004809D01*
X005333Y004782D01*
X005358Y004752D01*
X005380Y004720D01*
X005398Y004686D01*
X005413Y004650D01*
X005425Y004613D01*
X005433Y004575D01*
X005437Y004536D01*
X005437Y004498D01*
X005433Y004459D01*
X005425Y004421D01*
X005413Y004384D01*
X005398Y004348D01*
X005380Y004314D01*
X005358Y004282D01*
X005333Y004252D01*
X005305Y004225D01*
X005275Y004200D01*
X005242Y004179D01*
X005207Y004162D01*
X005171Y004147D01*
X005134Y004137D01*
X005095Y004130D01*
X005057Y004127D01*
X005018Y004128D01*
X004979Y004133D01*
X004941Y004142D01*
X004905Y004154D01*
X004869Y004170D01*
X004835Y004189D01*
X004804Y004212D01*
X004775Y004238D01*
X004748Y004266D01*
X004725Y004297D01*
X004704Y004330D01*
X004688Y004366D01*
X004674Y004402D01*
X004665Y004440D01*
X004659Y004478D01*
X004657Y004517D01*
X004647Y004117D02*
X005447Y004917D01*
X007657Y004517D02*
X007659Y004556D01*
X007665Y004594D01*
X007674Y004632D01*
X007688Y004668D01*
X007704Y004704D01*
X007725Y004737D01*
X007748Y004768D01*
X007775Y004796D01*
X007804Y004822D01*
X007835Y004845D01*
X007869Y004864D01*
X007905Y004880D01*
X007941Y004892D01*
X007979Y004901D01*
X008018Y004906D01*
X008057Y004907D01*
X008095Y004904D01*
X008134Y004897D01*
X008171Y004887D01*
X008207Y004872D01*
X008242Y004855D01*
X008275Y004834D01*
X008305Y004809D01*
X008333Y004782D01*
X008358Y004752D01*
X008380Y004720D01*
X008398Y004686D01*
X008413Y004650D01*
X008425Y004613D01*
X008433Y004575D01*
X008437Y004536D01*
X008437Y004498D01*
X008433Y004459D01*
X008425Y004421D01*
X008413Y004384D01*
X008398Y004348D01*
X008380Y004314D01*
X008358Y004282D01*
X008333Y004252D01*
X008305Y004225D01*
X008275Y004200D01*
X008242Y004179D01*
X008207Y004162D01*
X008171Y004147D01*
X008134Y004137D01*
X008095Y004130D01*
X008057Y004127D01*
X008018Y004128D01*
X007979Y004133D01*
X007941Y004142D01*
X007905Y004154D01*
X007869Y004170D01*
X007835Y004189D01*
X007804Y004212D01*
X007775Y004238D01*
X007748Y004266D01*
X007725Y004297D01*
X007704Y004330D01*
X007688Y004366D01*
X007674Y004402D01*
X007665Y004440D01*
X007659Y004478D01*
X007657Y004517D01*
X007647Y004117D02*
X008447Y004917D01*
X007657Y005517D02*
X007659Y005556D01*
X007665Y005594D01*
X007674Y005632D01*
X007688Y005668D01*
X007704Y005704D01*
X007725Y005737D01*
X007748Y005768D01*
X007775Y005796D01*
X007804Y005822D01*
X007835Y005845D01*
X007869Y005864D01*
X007905Y005880D01*
X007941Y005892D01*
X007979Y005901D01*
X008018Y005906D01*
X008057Y005907D01*
X008095Y005904D01*
X008134Y005897D01*
X008171Y005887D01*
X008207Y005872D01*
X008242Y005855D01*
X008275Y005834D01*
X008305Y005809D01*
X008333Y005782D01*
X008358Y005752D01*
X008380Y005720D01*
X008398Y005686D01*
X008413Y005650D01*
X008425Y005613D01*
X008433Y005575D01*
X008437Y005536D01*
X008437Y005498D01*
X008433Y005459D01*
X008425Y005421D01*
X008413Y005384D01*
X008398Y005348D01*
X008380Y005314D01*
X008358Y005282D01*
X008333Y005252D01*
X008305Y005225D01*
X008275Y005200D01*
X008242Y005179D01*
X008207Y005162D01*
X008171Y005147D01*
X008134Y005137D01*
X008095Y005130D01*
X008057Y005127D01*
X008018Y005128D01*
X007979Y005133D01*
X007941Y005142D01*
X007905Y005154D01*
X007869Y005170D01*
X007835Y005189D01*
X007804Y005212D01*
X007775Y005238D01*
X007748Y005266D01*
X007725Y005297D01*
X007704Y005330D01*
X007688Y005366D01*
X007674Y005402D01*
X007665Y005440D01*
X007659Y005478D01*
X007657Y005517D01*
X007647Y005117D02*
X008447Y005917D01*
X004657Y003517D02*
X004659Y003556D01*
X004665Y003594D01*
X004674Y003632D01*
X004688Y003668D01*
X004704Y003704D01*
X004725Y003737D01*
X004748Y003768D01*
X004775Y003796D01*
X004804Y003822D01*
X004835Y003845D01*
X004869Y003864D01*
X004905Y003880D01*
X004941Y003892D01*
X004979Y003901D01*
X005018Y003906D01*
X005057Y003907D01*
X005095Y003904D01*
X005134Y003897D01*
X005171Y003887D01*
X005207Y003872D01*
X005242Y003855D01*
X005275Y003834D01*
X005305Y003809D01*
X005333Y003782D01*
X005358Y003752D01*
X005380Y003720D01*
X005398Y003686D01*
X005413Y003650D01*
X005425Y003613D01*
X005433Y003575D01*
X005437Y003536D01*
X005437Y003498D01*
X005433Y003459D01*
X005425Y003421D01*
X005413Y003384D01*
X005398Y003348D01*
X005380Y003314D01*
X005358Y003282D01*
X005333Y003252D01*
X005305Y003225D01*
X005275Y003200D01*
X005242Y003179D01*
X005207Y003162D01*
X005171Y003147D01*
X005134Y003137D01*
X005095Y003130D01*
X005057Y003127D01*
X005018Y003128D01*
X004979Y003133D01*
X004941Y003142D01*
X004905Y003154D01*
X004869Y003170D01*
X004835Y003189D01*
X004804Y003212D01*
X004775Y003238D01*
X004748Y003266D01*
X004725Y003297D01*
X004704Y003330D01*
X004688Y003366D01*
X004674Y003402D01*
X004665Y003440D01*
X004659Y003478D01*
X004657Y003517D01*
X004647Y003117D02*
X005447Y003917D01*
X007657Y003517D02*
X007659Y003556D01*
X007665Y003594D01*
X007674Y003632D01*
X007688Y003668D01*
X007704Y003704D01*
X007725Y003737D01*
X007748Y003768D01*
X007775Y003796D01*
X007804Y003822D01*
X007835Y003845D01*
X007869Y003864D01*
X007905Y003880D01*
X007941Y003892D01*
X007979Y003901D01*
X008018Y003906D01*
X008057Y003907D01*
X008095Y003904D01*
X008134Y003897D01*
X008171Y003887D01*
X008207Y003872D01*
X008242Y003855D01*
X008275Y003834D01*
X008305Y003809D01*
X008333Y003782D01*
X008358Y003752D01*
X008380Y003720D01*
X008398Y003686D01*
X008413Y003650D01*
X008425Y003613D01*
X008433Y003575D01*
X008437Y003536D01*
X008437Y003498D01*
X008433Y003459D01*
X008425Y003421D01*
X008413Y003384D01*
X008398Y003348D01*
X008380Y003314D01*
X008358Y003282D01*
X008333Y003252D01*
X008305Y003225D01*
X008275Y003200D01*
X008242Y003179D01*
X008207Y003162D01*
X008171Y003147D01*
X008134Y003137D01*
X008095Y003130D01*
X008057Y003127D01*
X008018Y003128D01*
X007979Y003133D01*
X007941Y003142D01*
X007905Y003154D01*
X007869Y003170D01*
X007835Y003189D01*
X007804Y003212D01*
X007775Y003238D01*
X007748Y003266D01*
X007725Y003297D01*
X007704Y003330D01*
X007688Y003366D01*
X007674Y003402D01*
X007665Y003440D01*
X007659Y003478D01*
X007657Y003517D01*
X007647Y003117D02*
X008447Y003917D01*
X013782Y014642D02*
X013784Y014681D01*
X013790Y014719D01*
X013799Y014757D01*
X013813Y014793D01*
X013829Y014829D01*
X013850Y014862D01*
X013873Y014893D01*
X013900Y014921D01*
X013929Y014947D01*
X013960Y014970D01*
X013994Y014989D01*
X014030Y015005D01*
X014066Y015017D01*
X014104Y015026D01*
X014143Y015031D01*
X014182Y015032D01*
X014220Y015029D01*
X014259Y015022D01*
X014296Y015012D01*
X014332Y014997D01*
X014367Y014980D01*
X014400Y014959D01*
X014430Y014934D01*
X014458Y014907D01*
X014483Y014877D01*
X014505Y014845D01*
X014523Y014811D01*
X014538Y014775D01*
X014550Y014738D01*
X014558Y014700D01*
X014562Y014661D01*
X014562Y014623D01*
X014558Y014584D01*
X014550Y014546D01*
X014538Y014509D01*
X014523Y014473D01*
X014505Y014439D01*
X014483Y014407D01*
X014458Y014377D01*
X014430Y014350D01*
X014400Y014325D01*
X014367Y014304D01*
X014332Y014287D01*
X014296Y014272D01*
X014259Y014262D01*
X014220Y014255D01*
X014182Y014252D01*
X014143Y014253D01*
X014104Y014258D01*
X014066Y014267D01*
X014030Y014279D01*
X013994Y014295D01*
X013960Y014314D01*
X013929Y014337D01*
X013900Y014363D01*
X013873Y014391D01*
X013850Y014422D01*
X013829Y014455D01*
X013813Y014491D01*
X013799Y014527D01*
X013790Y014565D01*
X013784Y014603D01*
X013782Y014642D01*
X013772Y014242D02*
X014572Y015042D01*
X013782Y013642D02*
X013784Y013681D01*
X013790Y013719D01*
X013799Y013757D01*
X013813Y013793D01*
X013829Y013829D01*
X013850Y013862D01*
X013873Y013893D01*
X013900Y013921D01*
X013929Y013947D01*
X013960Y013970D01*
X013994Y013989D01*
X014030Y014005D01*
X014066Y014017D01*
X014104Y014026D01*
X014143Y014031D01*
X014182Y014032D01*
X014220Y014029D01*
X014259Y014022D01*
X014296Y014012D01*
X014332Y013997D01*
X014367Y013980D01*
X014400Y013959D01*
X014430Y013934D01*
X014458Y013907D01*
X014483Y013877D01*
X014505Y013845D01*
X014523Y013811D01*
X014538Y013775D01*
X014550Y013738D01*
X014558Y013700D01*
X014562Y013661D01*
X014562Y013623D01*
X014558Y013584D01*
X014550Y013546D01*
X014538Y013509D01*
X014523Y013473D01*
X014505Y013439D01*
X014483Y013407D01*
X014458Y013377D01*
X014430Y013350D01*
X014400Y013325D01*
X014367Y013304D01*
X014332Y013287D01*
X014296Y013272D01*
X014259Y013262D01*
X014220Y013255D01*
X014182Y013252D01*
X014143Y013253D01*
X014104Y013258D01*
X014066Y013267D01*
X014030Y013279D01*
X013994Y013295D01*
X013960Y013314D01*
X013929Y013337D01*
X013900Y013363D01*
X013873Y013391D01*
X013850Y013422D01*
X013829Y013455D01*
X013813Y013491D01*
X013799Y013527D01*
X013790Y013565D01*
X013784Y013603D01*
X013782Y013642D01*
X013772Y013242D02*
X014572Y014042D01*
X016782Y013642D02*
X016784Y013681D01*
X016790Y013719D01*
X016799Y013757D01*
X016813Y013793D01*
X016829Y013829D01*
X016850Y013862D01*
X016873Y013893D01*
X016900Y013921D01*
X016929Y013947D01*
X016960Y013970D01*
X016994Y013989D01*
X017030Y014005D01*
X017066Y014017D01*
X017104Y014026D01*
X017143Y014031D01*
X017182Y014032D01*
X017220Y014029D01*
X017259Y014022D01*
X017296Y014012D01*
X017332Y013997D01*
X017367Y013980D01*
X017400Y013959D01*
X017430Y013934D01*
X017458Y013907D01*
X017483Y013877D01*
X017505Y013845D01*
X017523Y013811D01*
X017538Y013775D01*
X017550Y013738D01*
X017558Y013700D01*
X017562Y013661D01*
X017562Y013623D01*
X017558Y013584D01*
X017550Y013546D01*
X017538Y013509D01*
X017523Y013473D01*
X017505Y013439D01*
X017483Y013407D01*
X017458Y013377D01*
X017430Y013350D01*
X017400Y013325D01*
X017367Y013304D01*
X017332Y013287D01*
X017296Y013272D01*
X017259Y013262D01*
X017220Y013255D01*
X017182Y013252D01*
X017143Y013253D01*
X017104Y013258D01*
X017066Y013267D01*
X017030Y013279D01*
X016994Y013295D01*
X016960Y013314D01*
X016929Y013337D01*
X016900Y013363D01*
X016873Y013391D01*
X016850Y013422D01*
X016829Y013455D01*
X016813Y013491D01*
X016799Y013527D01*
X016790Y013565D01*
X016784Y013603D01*
X016782Y013642D01*
X016772Y013242D02*
X017572Y014042D01*
X016782Y014642D02*
X016784Y014681D01*
X016790Y014719D01*
X016799Y014757D01*
X016813Y014793D01*
X016829Y014829D01*
X016850Y014862D01*
X016873Y014893D01*
X016900Y014921D01*
X016929Y014947D01*
X016960Y014970D01*
X016994Y014989D01*
X017030Y015005D01*
X017066Y015017D01*
X017104Y015026D01*
X017143Y015031D01*
X017182Y015032D01*
X017220Y015029D01*
X017259Y015022D01*
X017296Y015012D01*
X017332Y014997D01*
X017367Y014980D01*
X017400Y014959D01*
X017430Y014934D01*
X017458Y014907D01*
X017483Y014877D01*
X017505Y014845D01*
X017523Y014811D01*
X017538Y014775D01*
X017550Y014738D01*
X017558Y014700D01*
X017562Y014661D01*
X017562Y014623D01*
X017558Y014584D01*
X017550Y014546D01*
X017538Y014509D01*
X017523Y014473D01*
X017505Y014439D01*
X017483Y014407D01*
X017458Y014377D01*
X017430Y014350D01*
X017400Y014325D01*
X017367Y014304D01*
X017332Y014287D01*
X017296Y014272D01*
X017259Y014262D01*
X017220Y014255D01*
X017182Y014252D01*
X017143Y014253D01*
X017104Y014258D01*
X017066Y014267D01*
X017030Y014279D01*
X016994Y014295D01*
X016960Y014314D01*
X016929Y014337D01*
X016900Y014363D01*
X016873Y014391D01*
X016850Y014422D01*
X016829Y014455D01*
X016813Y014491D01*
X016799Y014527D01*
X016790Y014565D01*
X016784Y014603D01*
X016782Y014642D01*
X016772Y014242D02*
X017572Y015042D01*
X013782Y012642D02*
X013784Y012681D01*
X013790Y012719D01*
X013799Y012757D01*
X013813Y012793D01*
X013829Y012829D01*
X013850Y012862D01*
X013873Y012893D01*
X013900Y012921D01*
X013929Y012947D01*
X013960Y012970D01*
X013994Y012989D01*
X014030Y013005D01*
X014066Y013017D01*
X014104Y013026D01*
X014143Y013031D01*
X014182Y013032D01*
X014220Y013029D01*
X014259Y013022D01*
X014296Y013012D01*
X014332Y012997D01*
X014367Y012980D01*
X014400Y012959D01*
X014430Y012934D01*
X014458Y012907D01*
X014483Y012877D01*
X014505Y012845D01*
X014523Y012811D01*
X014538Y012775D01*
X014550Y012738D01*
X014558Y012700D01*
X014562Y012661D01*
X014562Y012623D01*
X014558Y012584D01*
X014550Y012546D01*
X014538Y012509D01*
X014523Y012473D01*
X014505Y012439D01*
X014483Y012407D01*
X014458Y012377D01*
X014430Y012350D01*
X014400Y012325D01*
X014367Y012304D01*
X014332Y012287D01*
X014296Y012272D01*
X014259Y012262D01*
X014220Y012255D01*
X014182Y012252D01*
X014143Y012253D01*
X014104Y012258D01*
X014066Y012267D01*
X014030Y012279D01*
X013994Y012295D01*
X013960Y012314D01*
X013929Y012337D01*
X013900Y012363D01*
X013873Y012391D01*
X013850Y012422D01*
X013829Y012455D01*
X013813Y012491D01*
X013799Y012527D01*
X013790Y012565D01*
X013784Y012603D01*
X013782Y012642D01*
X013772Y012242D02*
X014572Y013042D01*
X016782Y012642D02*
X016784Y012681D01*
X016790Y012719D01*
X016799Y012757D01*
X016813Y012793D01*
X016829Y012829D01*
X016850Y012862D01*
X016873Y012893D01*
X016900Y012921D01*
X016929Y012947D01*
X016960Y012970D01*
X016994Y012989D01*
X017030Y013005D01*
X017066Y013017D01*
X017104Y013026D01*
X017143Y013031D01*
X017182Y013032D01*
X017220Y013029D01*
X017259Y013022D01*
X017296Y013012D01*
X017332Y012997D01*
X017367Y012980D01*
X017400Y012959D01*
X017430Y012934D01*
X017458Y012907D01*
X017483Y012877D01*
X017505Y012845D01*
X017523Y012811D01*
X017538Y012775D01*
X017550Y012738D01*
X017558Y012700D01*
X017562Y012661D01*
X017562Y012623D01*
X017558Y012584D01*
X017550Y012546D01*
X017538Y012509D01*
X017523Y012473D01*
X017505Y012439D01*
X017483Y012407D01*
X017458Y012377D01*
X017430Y012350D01*
X017400Y012325D01*
X017367Y012304D01*
X017332Y012287D01*
X017296Y012272D01*
X017259Y012262D01*
X017220Y012255D01*
X017182Y012252D01*
X017143Y012253D01*
X017104Y012258D01*
X017066Y012267D01*
X017030Y012279D01*
X016994Y012295D01*
X016960Y012314D01*
X016929Y012337D01*
X016900Y012363D01*
X016873Y012391D01*
X016850Y012422D01*
X016829Y012455D01*
X016813Y012491D01*
X016799Y012527D01*
X016790Y012565D01*
X016784Y012603D01*
X016782Y012642D01*
X016772Y012242D02*
X017572Y013042D01*
X013532Y009642D02*
X013534Y009681D01*
X013540Y009719D01*
X013549Y009757D01*
X013563Y009793D01*
X013579Y009829D01*
X013600Y009862D01*
X013623Y009893D01*
X013650Y009921D01*
X013679Y009947D01*
X013710Y009970D01*
X013744Y009989D01*
X013780Y010005D01*
X013816Y010017D01*
X013854Y010026D01*
X013893Y010031D01*
X013932Y010032D01*
X013970Y010029D01*
X014009Y010022D01*
X014046Y010012D01*
X014082Y009997D01*
X014117Y009980D01*
X014150Y009959D01*
X014180Y009934D01*
X014208Y009907D01*
X014233Y009877D01*
X014255Y009845D01*
X014273Y009811D01*
X014288Y009775D01*
X014300Y009738D01*
X014308Y009700D01*
X014312Y009661D01*
X014312Y009623D01*
X014308Y009584D01*
X014300Y009546D01*
X014288Y009509D01*
X014273Y009473D01*
X014255Y009439D01*
X014233Y009407D01*
X014208Y009377D01*
X014180Y009350D01*
X014150Y009325D01*
X014117Y009304D01*
X014082Y009287D01*
X014046Y009272D01*
X014009Y009262D01*
X013970Y009255D01*
X013932Y009252D01*
X013893Y009253D01*
X013854Y009258D01*
X013816Y009267D01*
X013780Y009279D01*
X013744Y009295D01*
X013710Y009314D01*
X013679Y009337D01*
X013650Y009363D01*
X013623Y009391D01*
X013600Y009422D01*
X013579Y009455D01*
X013563Y009491D01*
X013549Y009527D01*
X013540Y009565D01*
X013534Y009603D01*
X013532Y009642D01*
X013522Y009242D02*
X014322Y010042D01*
X014532Y009642D02*
X014534Y009681D01*
X014540Y009719D01*
X014549Y009757D01*
X014563Y009793D01*
X014579Y009829D01*
X014600Y009862D01*
X014623Y009893D01*
X014650Y009921D01*
X014679Y009947D01*
X014710Y009970D01*
X014744Y009989D01*
X014780Y010005D01*
X014816Y010017D01*
X014854Y010026D01*
X014893Y010031D01*
X014932Y010032D01*
X014970Y010029D01*
X015009Y010022D01*
X015046Y010012D01*
X015082Y009997D01*
X015117Y009980D01*
X015150Y009959D01*
X015180Y009934D01*
X015208Y009907D01*
X015233Y009877D01*
X015255Y009845D01*
X015273Y009811D01*
X015288Y009775D01*
X015300Y009738D01*
X015308Y009700D01*
X015312Y009661D01*
X015312Y009623D01*
X015308Y009584D01*
X015300Y009546D01*
X015288Y009509D01*
X015273Y009473D01*
X015255Y009439D01*
X015233Y009407D01*
X015208Y009377D01*
X015180Y009350D01*
X015150Y009325D01*
X015117Y009304D01*
X015082Y009287D01*
X015046Y009272D01*
X015009Y009262D01*
X014970Y009255D01*
X014932Y009252D01*
X014893Y009253D01*
X014854Y009258D01*
X014816Y009267D01*
X014780Y009279D01*
X014744Y009295D01*
X014710Y009314D01*
X014679Y009337D01*
X014650Y009363D01*
X014623Y009391D01*
X014600Y009422D01*
X014579Y009455D01*
X014563Y009491D01*
X014549Y009527D01*
X014540Y009565D01*
X014534Y009603D01*
X014532Y009642D01*
X014522Y009242D02*
X015322Y010042D01*
X015532Y009642D02*
X015534Y009681D01*
X015540Y009719D01*
X015549Y009757D01*
X015563Y009793D01*
X015579Y009829D01*
X015600Y009862D01*
X015623Y009893D01*
X015650Y009921D01*
X015679Y009947D01*
X015710Y009970D01*
X015744Y009989D01*
X015780Y010005D01*
X015816Y010017D01*
X015854Y010026D01*
X015893Y010031D01*
X015932Y010032D01*
X015970Y010029D01*
X016009Y010022D01*
X016046Y010012D01*
X016082Y009997D01*
X016117Y009980D01*
X016150Y009959D01*
X016180Y009934D01*
X016208Y009907D01*
X016233Y009877D01*
X016255Y009845D01*
X016273Y009811D01*
X016288Y009775D01*
X016300Y009738D01*
X016308Y009700D01*
X016312Y009661D01*
X016312Y009623D01*
X016308Y009584D01*
X016300Y009546D01*
X016288Y009509D01*
X016273Y009473D01*
X016255Y009439D01*
X016233Y009407D01*
X016208Y009377D01*
X016180Y009350D01*
X016150Y009325D01*
X016117Y009304D01*
X016082Y009287D01*
X016046Y009272D01*
X016009Y009262D01*
X015970Y009255D01*
X015932Y009252D01*
X015893Y009253D01*
X015854Y009258D01*
X015816Y009267D01*
X015780Y009279D01*
X015744Y009295D01*
X015710Y009314D01*
X015679Y009337D01*
X015650Y009363D01*
X015623Y009391D01*
X015600Y009422D01*
X015579Y009455D01*
X015563Y009491D01*
X015549Y009527D01*
X015540Y009565D01*
X015534Y009603D01*
X015532Y009642D01*
X015522Y009242D02*
X016322Y010042D01*
X016532Y009642D02*
X016534Y009681D01*
X016540Y009719D01*
X016549Y009757D01*
X016563Y009793D01*
X016579Y009829D01*
X016600Y009862D01*
X016623Y009893D01*
X016650Y009921D01*
X016679Y009947D01*
X016710Y009970D01*
X016744Y009989D01*
X016780Y010005D01*
X016816Y010017D01*
X016854Y010026D01*
X016893Y010031D01*
X016932Y010032D01*
X016970Y010029D01*
X017009Y010022D01*
X017046Y010012D01*
X017082Y009997D01*
X017117Y009980D01*
X017150Y009959D01*
X017180Y009934D01*
X017208Y009907D01*
X017233Y009877D01*
X017255Y009845D01*
X017273Y009811D01*
X017288Y009775D01*
X017300Y009738D01*
X017308Y009700D01*
X017312Y009661D01*
X017312Y009623D01*
X017308Y009584D01*
X017300Y009546D01*
X017288Y009509D01*
X017273Y009473D01*
X017255Y009439D01*
X017233Y009407D01*
X017208Y009377D01*
X017180Y009350D01*
X017150Y009325D01*
X017117Y009304D01*
X017082Y009287D01*
X017046Y009272D01*
X017009Y009262D01*
X016970Y009255D01*
X016932Y009252D01*
X016893Y009253D01*
X016854Y009258D01*
X016816Y009267D01*
X016780Y009279D01*
X016744Y009295D01*
X016710Y009314D01*
X016679Y009337D01*
X016650Y009363D01*
X016623Y009391D01*
X016600Y009422D01*
X016579Y009455D01*
X016563Y009491D01*
X016549Y009527D01*
X016540Y009565D01*
X016534Y009603D01*
X016532Y009642D01*
X016522Y009242D02*
X017322Y010042D01*
X013157Y002017D02*
X013159Y002056D01*
X013165Y002094D01*
X013174Y002132D01*
X013188Y002168D01*
X013204Y002204D01*
X013225Y002237D01*
X013248Y002268D01*
X013275Y002296D01*
X013304Y002322D01*
X013335Y002345D01*
X013369Y002364D01*
X013405Y002380D01*
X013441Y002392D01*
X013479Y002401D01*
X013518Y002406D01*
X013557Y002407D01*
X013595Y002404D01*
X013634Y002397D01*
X013671Y002387D01*
X013707Y002372D01*
X013742Y002355D01*
X013775Y002334D01*
X013805Y002309D01*
X013833Y002282D01*
X013858Y002252D01*
X013880Y002220D01*
X013898Y002186D01*
X013913Y002150D01*
X013925Y002113D01*
X013933Y002075D01*
X013937Y002036D01*
X013937Y001998D01*
X013933Y001959D01*
X013925Y001921D01*
X013913Y001884D01*
X013898Y001848D01*
X013880Y001814D01*
X013858Y001782D01*
X013833Y001752D01*
X013805Y001725D01*
X013775Y001700D01*
X013742Y001679D01*
X013707Y001662D01*
X013671Y001647D01*
X013634Y001637D01*
X013595Y001630D01*
X013557Y001627D01*
X013518Y001628D01*
X013479Y001633D01*
X013441Y001642D01*
X013405Y001654D01*
X013369Y001670D01*
X013335Y001689D01*
X013304Y001712D01*
X013275Y001738D01*
X013248Y001766D01*
X013225Y001797D01*
X013204Y001830D01*
X013188Y001866D01*
X013174Y001902D01*
X013165Y001940D01*
X013159Y001978D01*
X013157Y002017D01*
X013147Y001617D02*
X013947Y002417D01*
X013157Y003017D02*
X013159Y003056D01*
X013165Y003094D01*
X013174Y003132D01*
X013188Y003168D01*
X013204Y003204D01*
X013225Y003237D01*
X013248Y003268D01*
X013275Y003296D01*
X013304Y003322D01*
X013335Y003345D01*
X013369Y003364D01*
X013405Y003380D01*
X013441Y003392D01*
X013479Y003401D01*
X013518Y003406D01*
X013557Y003407D01*
X013595Y003404D01*
X013634Y003397D01*
X013671Y003387D01*
X013707Y003372D01*
X013742Y003355D01*
X013775Y003334D01*
X013805Y003309D01*
X013833Y003282D01*
X013858Y003252D01*
X013880Y003220D01*
X013898Y003186D01*
X013913Y003150D01*
X013925Y003113D01*
X013933Y003075D01*
X013937Y003036D01*
X013937Y002998D01*
X013933Y002959D01*
X013925Y002921D01*
X013913Y002884D01*
X013898Y002848D01*
X013880Y002814D01*
X013858Y002782D01*
X013833Y002752D01*
X013805Y002725D01*
X013775Y002700D01*
X013742Y002679D01*
X013707Y002662D01*
X013671Y002647D01*
X013634Y002637D01*
X013595Y002630D01*
X013557Y002627D01*
X013518Y002628D01*
X013479Y002633D01*
X013441Y002642D01*
X013405Y002654D01*
X013369Y002670D01*
X013335Y002689D01*
X013304Y002712D01*
X013275Y002738D01*
X013248Y002766D01*
X013225Y002797D01*
X013204Y002830D01*
X013188Y002866D01*
X013174Y002902D01*
X013165Y002940D01*
X013159Y002978D01*
X013157Y003017D01*
X013147Y002617D02*
X013947Y003417D01*
X014157Y002017D02*
X014159Y002056D01*
X014165Y002094D01*
X014174Y002132D01*
X014188Y002168D01*
X014204Y002204D01*
X014225Y002237D01*
X014248Y002268D01*
X014275Y002296D01*
X014304Y002322D01*
X014335Y002345D01*
X014369Y002364D01*
X014405Y002380D01*
X014441Y002392D01*
X014479Y002401D01*
X014518Y002406D01*
X014557Y002407D01*
X014595Y002404D01*
X014634Y002397D01*
X014671Y002387D01*
X014707Y002372D01*
X014742Y002355D01*
X014775Y002334D01*
X014805Y002309D01*
X014833Y002282D01*
X014858Y002252D01*
X014880Y002220D01*
X014898Y002186D01*
X014913Y002150D01*
X014925Y002113D01*
X014933Y002075D01*
X014937Y002036D01*
X014937Y001998D01*
X014933Y001959D01*
X014925Y001921D01*
X014913Y001884D01*
X014898Y001848D01*
X014880Y001814D01*
X014858Y001782D01*
X014833Y001752D01*
X014805Y001725D01*
X014775Y001700D01*
X014742Y001679D01*
X014707Y001662D01*
X014671Y001647D01*
X014634Y001637D01*
X014595Y001630D01*
X014557Y001627D01*
X014518Y001628D01*
X014479Y001633D01*
X014441Y001642D01*
X014405Y001654D01*
X014369Y001670D01*
X014335Y001689D01*
X014304Y001712D01*
X014275Y001738D01*
X014248Y001766D01*
X014225Y001797D01*
X014204Y001830D01*
X014188Y001866D01*
X014174Y001902D01*
X014165Y001940D01*
X014159Y001978D01*
X014157Y002017D01*
X014147Y001617D02*
X014947Y002417D01*
X014157Y003017D02*
X014159Y003056D01*
X014165Y003094D01*
X014174Y003132D01*
X014188Y003168D01*
X014204Y003204D01*
X014225Y003237D01*
X014248Y003268D01*
X014275Y003296D01*
X014304Y003322D01*
X014335Y003345D01*
X014369Y003364D01*
X014405Y003380D01*
X014441Y003392D01*
X014479Y003401D01*
X014518Y003406D01*
X014557Y003407D01*
X014595Y003404D01*
X014634Y003397D01*
X014671Y003387D01*
X014707Y003372D01*
X014742Y003355D01*
X014775Y003334D01*
X014805Y003309D01*
X014833Y003282D01*
X014858Y003252D01*
X014880Y003220D01*
X014898Y003186D01*
X014913Y003150D01*
X014925Y003113D01*
X014933Y003075D01*
X014937Y003036D01*
X014937Y002998D01*
X014933Y002959D01*
X014925Y002921D01*
X014913Y002884D01*
X014898Y002848D01*
X014880Y002814D01*
X014858Y002782D01*
X014833Y002752D01*
X014805Y002725D01*
X014775Y002700D01*
X014742Y002679D01*
X014707Y002662D01*
X014671Y002647D01*
X014634Y002637D01*
X014595Y002630D01*
X014557Y002627D01*
X014518Y002628D01*
X014479Y002633D01*
X014441Y002642D01*
X014405Y002654D01*
X014369Y002670D01*
X014335Y002689D01*
X014304Y002712D01*
X014275Y002738D01*
X014248Y002766D01*
X014225Y002797D01*
X014204Y002830D01*
X014188Y002866D01*
X014174Y002902D01*
X014165Y002940D01*
X014159Y002978D01*
X014157Y003017D01*
X014147Y002617D02*
X014947Y003417D01*
X015157Y002017D02*
X015159Y002056D01*
X015165Y002094D01*
X015174Y002132D01*
X015188Y002168D01*
X015204Y002204D01*
X015225Y002237D01*
X015248Y002268D01*
X015275Y002296D01*
X015304Y002322D01*
X015335Y002345D01*
X015369Y002364D01*
X015405Y002380D01*
X015441Y002392D01*
X015479Y002401D01*
X015518Y002406D01*
X015557Y002407D01*
X015595Y002404D01*
X015634Y002397D01*
X015671Y002387D01*
X015707Y002372D01*
X015742Y002355D01*
X015775Y002334D01*
X015805Y002309D01*
X015833Y002282D01*
X015858Y002252D01*
X015880Y002220D01*
X015898Y002186D01*
X015913Y002150D01*
X015925Y002113D01*
X015933Y002075D01*
X015937Y002036D01*
X015937Y001998D01*
X015933Y001959D01*
X015925Y001921D01*
X015913Y001884D01*
X015898Y001848D01*
X015880Y001814D01*
X015858Y001782D01*
X015833Y001752D01*
X015805Y001725D01*
X015775Y001700D01*
X015742Y001679D01*
X015707Y001662D01*
X015671Y001647D01*
X015634Y001637D01*
X015595Y001630D01*
X015557Y001627D01*
X015518Y001628D01*
X015479Y001633D01*
X015441Y001642D01*
X015405Y001654D01*
X015369Y001670D01*
X015335Y001689D01*
X015304Y001712D01*
X015275Y001738D01*
X015248Y001766D01*
X015225Y001797D01*
X015204Y001830D01*
X015188Y001866D01*
X015174Y001902D01*
X015165Y001940D01*
X015159Y001978D01*
X015157Y002017D01*
X015147Y001617D02*
X015947Y002417D01*
X015157Y003017D02*
X015159Y003056D01*
X015165Y003094D01*
X015174Y003132D01*
X015188Y003168D01*
X015204Y003204D01*
X015225Y003237D01*
X015248Y003268D01*
X015275Y003296D01*
X015304Y003322D01*
X015335Y003345D01*
X015369Y003364D01*
X015405Y003380D01*
X015441Y003392D01*
X015479Y003401D01*
X015518Y003406D01*
X015557Y003407D01*
X015595Y003404D01*
X015634Y003397D01*
X015671Y003387D01*
X015707Y003372D01*
X015742Y003355D01*
X015775Y003334D01*
X015805Y003309D01*
X015833Y003282D01*
X015858Y003252D01*
X015880Y003220D01*
X015898Y003186D01*
X015913Y003150D01*
X015925Y003113D01*
X015933Y003075D01*
X015937Y003036D01*
X015937Y002998D01*
X015933Y002959D01*
X015925Y002921D01*
X015913Y002884D01*
X015898Y002848D01*
X015880Y002814D01*
X015858Y002782D01*
X015833Y002752D01*
X015805Y002725D01*
X015775Y002700D01*
X015742Y002679D01*
X015707Y002662D01*
X015671Y002647D01*
X015634Y002637D01*
X015595Y002630D01*
X015557Y002627D01*
X015518Y002628D01*
X015479Y002633D01*
X015441Y002642D01*
X015405Y002654D01*
X015369Y002670D01*
X015335Y002689D01*
X015304Y002712D01*
X015275Y002738D01*
X015248Y002766D01*
X015225Y002797D01*
X015204Y002830D01*
X015188Y002866D01*
X015174Y002902D01*
X015165Y002940D01*
X015159Y002978D01*
X015157Y003017D01*
X015147Y002617D02*
X015947Y003417D01*
X016157Y002017D02*
X016159Y002056D01*
X016165Y002094D01*
X016174Y002132D01*
X016188Y002168D01*
X016204Y002204D01*
X016225Y002237D01*
X016248Y002268D01*
X016275Y002296D01*
X016304Y002322D01*
X016335Y002345D01*
X016369Y002364D01*
X016405Y002380D01*
X016441Y002392D01*
X016479Y002401D01*
X016518Y002406D01*
X016557Y002407D01*
X016595Y002404D01*
X016634Y002397D01*
X016671Y002387D01*
X016707Y002372D01*
X016742Y002355D01*
X016775Y002334D01*
X016805Y002309D01*
X016833Y002282D01*
X016858Y002252D01*
X016880Y002220D01*
X016898Y002186D01*
X016913Y002150D01*
X016925Y002113D01*
X016933Y002075D01*
X016937Y002036D01*
X016937Y001998D01*
X016933Y001959D01*
X016925Y001921D01*
X016913Y001884D01*
X016898Y001848D01*
X016880Y001814D01*
X016858Y001782D01*
X016833Y001752D01*
X016805Y001725D01*
X016775Y001700D01*
X016742Y001679D01*
X016707Y001662D01*
X016671Y001647D01*
X016634Y001637D01*
X016595Y001630D01*
X016557Y001627D01*
X016518Y001628D01*
X016479Y001633D01*
X016441Y001642D01*
X016405Y001654D01*
X016369Y001670D01*
X016335Y001689D01*
X016304Y001712D01*
X016275Y001738D01*
X016248Y001766D01*
X016225Y001797D01*
X016204Y001830D01*
X016188Y001866D01*
X016174Y001902D01*
X016165Y001940D01*
X016159Y001978D01*
X016157Y002017D01*
X016147Y001617D02*
X016947Y002417D01*
X016157Y003017D02*
X016159Y003056D01*
X016165Y003094D01*
X016174Y003132D01*
X016188Y003168D01*
X016204Y003204D01*
X016225Y003237D01*
X016248Y003268D01*
X016275Y003296D01*
X016304Y003322D01*
X016335Y003345D01*
X016369Y003364D01*
X016405Y003380D01*
X016441Y003392D01*
X016479Y003401D01*
X016518Y003406D01*
X016557Y003407D01*
X016595Y003404D01*
X016634Y003397D01*
X016671Y003387D01*
X016707Y003372D01*
X016742Y003355D01*
X016775Y003334D01*
X016805Y003309D01*
X016833Y003282D01*
X016858Y003252D01*
X016880Y003220D01*
X016898Y003186D01*
X016913Y003150D01*
X016925Y003113D01*
X016933Y003075D01*
X016937Y003036D01*
X016937Y002998D01*
X016933Y002959D01*
X016925Y002921D01*
X016913Y002884D01*
X016898Y002848D01*
X016880Y002814D01*
X016858Y002782D01*
X016833Y002752D01*
X016805Y002725D01*
X016775Y002700D01*
X016742Y002679D01*
X016707Y002662D01*
X016671Y002647D01*
X016634Y002637D01*
X016595Y002630D01*
X016557Y002627D01*
X016518Y002628D01*
X016479Y002633D01*
X016441Y002642D01*
X016405Y002654D01*
X016369Y002670D01*
X016335Y002689D01*
X016304Y002712D01*
X016275Y002738D01*
X016248Y002766D01*
X016225Y002797D01*
X016204Y002830D01*
X016188Y002866D01*
X016174Y002902D01*
X016165Y002940D01*
X016159Y002978D01*
X016157Y003017D01*
X016147Y002617D02*
X016947Y003417D01*
X017157Y002017D02*
X017159Y002056D01*
X017165Y002094D01*
X017174Y002132D01*
X017188Y002168D01*
X017204Y002204D01*
X017225Y002237D01*
X017248Y002268D01*
X017275Y002296D01*
X017304Y002322D01*
X017335Y002345D01*
X017369Y002364D01*
X017405Y002380D01*
X017441Y002392D01*
X017479Y002401D01*
X017518Y002406D01*
X017557Y002407D01*
X017595Y002404D01*
X017634Y002397D01*
X017671Y002387D01*
X017707Y002372D01*
X017742Y002355D01*
X017775Y002334D01*
X017805Y002309D01*
X017833Y002282D01*
X017858Y002252D01*
X017880Y002220D01*
X017898Y002186D01*
X017913Y002150D01*
X017925Y002113D01*
X017933Y002075D01*
X017937Y002036D01*
X017937Y001998D01*
X017933Y001959D01*
X017925Y001921D01*
X017913Y001884D01*
X017898Y001848D01*
X017880Y001814D01*
X017858Y001782D01*
X017833Y001752D01*
X017805Y001725D01*
X017775Y001700D01*
X017742Y001679D01*
X017707Y001662D01*
X017671Y001647D01*
X017634Y001637D01*
X017595Y001630D01*
X017557Y001627D01*
X017518Y001628D01*
X017479Y001633D01*
X017441Y001642D01*
X017405Y001654D01*
X017369Y001670D01*
X017335Y001689D01*
X017304Y001712D01*
X017275Y001738D01*
X017248Y001766D01*
X017225Y001797D01*
X017204Y001830D01*
X017188Y001866D01*
X017174Y001902D01*
X017165Y001940D01*
X017159Y001978D01*
X017157Y002017D01*
X017147Y001617D02*
X017947Y002417D01*
X017157Y003017D02*
X017159Y003056D01*
X017165Y003094D01*
X017174Y003132D01*
X017188Y003168D01*
X017204Y003204D01*
X017225Y003237D01*
X017248Y003268D01*
X017275Y003296D01*
X017304Y003322D01*
X017335Y003345D01*
X017369Y003364D01*
X017405Y003380D01*
X017441Y003392D01*
X017479Y003401D01*
X017518Y003406D01*
X017557Y003407D01*
X017595Y003404D01*
X017634Y003397D01*
X017671Y003387D01*
X017707Y003372D01*
X017742Y003355D01*
X017775Y003334D01*
X017805Y003309D01*
X017833Y003282D01*
X017858Y003252D01*
X017880Y003220D01*
X017898Y003186D01*
X017913Y003150D01*
X017925Y003113D01*
X017933Y003075D01*
X017937Y003036D01*
X017937Y002998D01*
X017933Y002959D01*
X017925Y002921D01*
X017913Y002884D01*
X017898Y002848D01*
X017880Y002814D01*
X017858Y002782D01*
X017833Y002752D01*
X017805Y002725D01*
X017775Y002700D01*
X017742Y002679D01*
X017707Y002662D01*
X017671Y002647D01*
X017634Y002637D01*
X017595Y002630D01*
X017557Y002627D01*
X017518Y002628D01*
X017479Y002633D01*
X017441Y002642D01*
X017405Y002654D01*
X017369Y002670D01*
X017335Y002689D01*
X017304Y002712D01*
X017275Y002738D01*
X017248Y002766D01*
X017225Y002797D01*
X017204Y002830D01*
X017188Y002866D01*
X017174Y002902D01*
X017165Y002940D01*
X017159Y002978D01*
X017157Y003017D01*
X017147Y002617D02*
X017947Y003417D01*
X013532Y004892D02*
X013534Y004931D01*
X013540Y004969D01*
X013549Y005007D01*
X013563Y005043D01*
X013579Y005079D01*
X013600Y005112D01*
X013623Y005143D01*
X013650Y005171D01*
X013679Y005197D01*
X013710Y005220D01*
X013744Y005239D01*
X013780Y005255D01*
X013816Y005267D01*
X013854Y005276D01*
X013893Y005281D01*
X013932Y005282D01*
X013970Y005279D01*
X014009Y005272D01*
X014046Y005262D01*
X014082Y005247D01*
X014117Y005230D01*
X014150Y005209D01*
X014180Y005184D01*
X014208Y005157D01*
X014233Y005127D01*
X014255Y005095D01*
X014273Y005061D01*
X014288Y005025D01*
X014300Y004988D01*
X014308Y004950D01*
X014312Y004911D01*
X014312Y004873D01*
X014308Y004834D01*
X014300Y004796D01*
X014288Y004759D01*
X014273Y004723D01*
X014255Y004689D01*
X014233Y004657D01*
X014208Y004627D01*
X014180Y004600D01*
X014150Y004575D01*
X014117Y004554D01*
X014082Y004537D01*
X014046Y004522D01*
X014009Y004512D01*
X013970Y004505D01*
X013932Y004502D01*
X013893Y004503D01*
X013854Y004508D01*
X013816Y004517D01*
X013780Y004529D01*
X013744Y004545D01*
X013710Y004564D01*
X013679Y004587D01*
X013650Y004613D01*
X013623Y004641D01*
X013600Y004672D01*
X013579Y004705D01*
X013563Y004741D01*
X013549Y004777D01*
X013540Y004815D01*
X013534Y004853D01*
X013532Y004892D01*
X013522Y004492D02*
X014322Y005292D01*
X014532Y004892D02*
X014534Y004931D01*
X014540Y004969D01*
X014549Y005007D01*
X014563Y005043D01*
X014579Y005079D01*
X014600Y005112D01*
X014623Y005143D01*
X014650Y005171D01*
X014679Y005197D01*
X014710Y005220D01*
X014744Y005239D01*
X014780Y005255D01*
X014816Y005267D01*
X014854Y005276D01*
X014893Y005281D01*
X014932Y005282D01*
X014970Y005279D01*
X015009Y005272D01*
X015046Y005262D01*
X015082Y005247D01*
X015117Y005230D01*
X015150Y005209D01*
X015180Y005184D01*
X015208Y005157D01*
X015233Y005127D01*
X015255Y005095D01*
X015273Y005061D01*
X015288Y005025D01*
X015300Y004988D01*
X015308Y004950D01*
X015312Y004911D01*
X015312Y004873D01*
X015308Y004834D01*
X015300Y004796D01*
X015288Y004759D01*
X015273Y004723D01*
X015255Y004689D01*
X015233Y004657D01*
X015208Y004627D01*
X015180Y004600D01*
X015150Y004575D01*
X015117Y004554D01*
X015082Y004537D01*
X015046Y004522D01*
X015009Y004512D01*
X014970Y004505D01*
X014932Y004502D01*
X014893Y004503D01*
X014854Y004508D01*
X014816Y004517D01*
X014780Y004529D01*
X014744Y004545D01*
X014710Y004564D01*
X014679Y004587D01*
X014650Y004613D01*
X014623Y004641D01*
X014600Y004672D01*
X014579Y004705D01*
X014563Y004741D01*
X014549Y004777D01*
X014540Y004815D01*
X014534Y004853D01*
X014532Y004892D01*
X014522Y004492D02*
X015322Y005292D01*
X014532Y007892D02*
X014534Y007931D01*
X014540Y007969D01*
X014549Y008007D01*
X014563Y008043D01*
X014579Y008079D01*
X014600Y008112D01*
X014623Y008143D01*
X014650Y008171D01*
X014679Y008197D01*
X014710Y008220D01*
X014744Y008239D01*
X014780Y008255D01*
X014816Y008267D01*
X014854Y008276D01*
X014893Y008281D01*
X014932Y008282D01*
X014970Y008279D01*
X015009Y008272D01*
X015046Y008262D01*
X015082Y008247D01*
X015117Y008230D01*
X015150Y008209D01*
X015180Y008184D01*
X015208Y008157D01*
X015233Y008127D01*
X015255Y008095D01*
X015273Y008061D01*
X015288Y008025D01*
X015300Y007988D01*
X015308Y007950D01*
X015312Y007911D01*
X015312Y007873D01*
X015308Y007834D01*
X015300Y007796D01*
X015288Y007759D01*
X015273Y007723D01*
X015255Y007689D01*
X015233Y007657D01*
X015208Y007627D01*
X015180Y007600D01*
X015150Y007575D01*
X015117Y007554D01*
X015082Y007537D01*
X015046Y007522D01*
X015009Y007512D01*
X014970Y007505D01*
X014932Y007502D01*
X014893Y007503D01*
X014854Y007508D01*
X014816Y007517D01*
X014780Y007529D01*
X014744Y007545D01*
X014710Y007564D01*
X014679Y007587D01*
X014650Y007613D01*
X014623Y007641D01*
X014600Y007672D01*
X014579Y007705D01*
X014563Y007741D01*
X014549Y007777D01*
X014540Y007815D01*
X014534Y007853D01*
X014532Y007892D01*
X014522Y007492D02*
X015322Y008292D01*
X013532Y007892D02*
X013534Y007931D01*
X013540Y007969D01*
X013549Y008007D01*
X013563Y008043D01*
X013579Y008079D01*
X013600Y008112D01*
X013623Y008143D01*
X013650Y008171D01*
X013679Y008197D01*
X013710Y008220D01*
X013744Y008239D01*
X013780Y008255D01*
X013816Y008267D01*
X013854Y008276D01*
X013893Y008281D01*
X013932Y008282D01*
X013970Y008279D01*
X014009Y008272D01*
X014046Y008262D01*
X014082Y008247D01*
X014117Y008230D01*
X014150Y008209D01*
X014180Y008184D01*
X014208Y008157D01*
X014233Y008127D01*
X014255Y008095D01*
X014273Y008061D01*
X014288Y008025D01*
X014300Y007988D01*
X014308Y007950D01*
X014312Y007911D01*
X014312Y007873D01*
X014308Y007834D01*
X014300Y007796D01*
X014288Y007759D01*
X014273Y007723D01*
X014255Y007689D01*
X014233Y007657D01*
X014208Y007627D01*
X014180Y007600D01*
X014150Y007575D01*
X014117Y007554D01*
X014082Y007537D01*
X014046Y007522D01*
X014009Y007512D01*
X013970Y007505D01*
X013932Y007502D01*
X013893Y007503D01*
X013854Y007508D01*
X013816Y007517D01*
X013780Y007529D01*
X013744Y007545D01*
X013710Y007564D01*
X013679Y007587D01*
X013650Y007613D01*
X013623Y007641D01*
X013600Y007672D01*
X013579Y007705D01*
X013563Y007741D01*
X013549Y007777D01*
X013540Y007815D01*
X013534Y007853D01*
X013532Y007892D01*
X013522Y007492D02*
X014322Y008292D01*
X015532Y004892D02*
X015534Y004931D01*
X015540Y004969D01*
X015549Y005007D01*
X015563Y005043D01*
X015579Y005079D01*
X015600Y005112D01*
X015623Y005143D01*
X015650Y005171D01*
X015679Y005197D01*
X015710Y005220D01*
X015744Y005239D01*
X015780Y005255D01*
X015816Y005267D01*
X015854Y005276D01*
X015893Y005281D01*
X015932Y005282D01*
X015970Y005279D01*
X016009Y005272D01*
X016046Y005262D01*
X016082Y005247D01*
X016117Y005230D01*
X016150Y005209D01*
X016180Y005184D01*
X016208Y005157D01*
X016233Y005127D01*
X016255Y005095D01*
X016273Y005061D01*
X016288Y005025D01*
X016300Y004988D01*
X016308Y004950D01*
X016312Y004911D01*
X016312Y004873D01*
X016308Y004834D01*
X016300Y004796D01*
X016288Y004759D01*
X016273Y004723D01*
X016255Y004689D01*
X016233Y004657D01*
X016208Y004627D01*
X016180Y004600D01*
X016150Y004575D01*
X016117Y004554D01*
X016082Y004537D01*
X016046Y004522D01*
X016009Y004512D01*
X015970Y004505D01*
X015932Y004502D01*
X015893Y004503D01*
X015854Y004508D01*
X015816Y004517D01*
X015780Y004529D01*
X015744Y004545D01*
X015710Y004564D01*
X015679Y004587D01*
X015650Y004613D01*
X015623Y004641D01*
X015600Y004672D01*
X015579Y004705D01*
X015563Y004741D01*
X015549Y004777D01*
X015540Y004815D01*
X015534Y004853D01*
X015532Y004892D01*
X015522Y004492D02*
X016322Y005292D01*
X016532Y004892D02*
X016534Y004931D01*
X016540Y004969D01*
X016549Y005007D01*
X016563Y005043D01*
X016579Y005079D01*
X016600Y005112D01*
X016623Y005143D01*
X016650Y005171D01*
X016679Y005197D01*
X016710Y005220D01*
X016744Y005239D01*
X016780Y005255D01*
X016816Y005267D01*
X016854Y005276D01*
X016893Y005281D01*
X016932Y005282D01*
X016970Y005279D01*
X017009Y005272D01*
X017046Y005262D01*
X017082Y005247D01*
X017117Y005230D01*
X017150Y005209D01*
X017180Y005184D01*
X017208Y005157D01*
X017233Y005127D01*
X017255Y005095D01*
X017273Y005061D01*
X017288Y005025D01*
X017300Y004988D01*
X017308Y004950D01*
X017312Y004911D01*
X017312Y004873D01*
X017308Y004834D01*
X017300Y004796D01*
X017288Y004759D01*
X017273Y004723D01*
X017255Y004689D01*
X017233Y004657D01*
X017208Y004627D01*
X017180Y004600D01*
X017150Y004575D01*
X017117Y004554D01*
X017082Y004537D01*
X017046Y004522D01*
X017009Y004512D01*
X016970Y004505D01*
X016932Y004502D01*
X016893Y004503D01*
X016854Y004508D01*
X016816Y004517D01*
X016780Y004529D01*
X016744Y004545D01*
X016710Y004564D01*
X016679Y004587D01*
X016650Y004613D01*
X016623Y004641D01*
X016600Y004672D01*
X016579Y004705D01*
X016563Y004741D01*
X016549Y004777D01*
X016540Y004815D01*
X016534Y004853D01*
X016532Y004892D01*
X016522Y004492D02*
X017322Y005292D01*
X015532Y007892D02*
X015534Y007931D01*
X015540Y007969D01*
X015549Y008007D01*
X015563Y008043D01*
X015579Y008079D01*
X015600Y008112D01*
X015623Y008143D01*
X015650Y008171D01*
X015679Y008197D01*
X015710Y008220D01*
X015744Y008239D01*
X015780Y008255D01*
X015816Y008267D01*
X015854Y008276D01*
X015893Y008281D01*
X015932Y008282D01*
X015970Y008279D01*
X016009Y008272D01*
X016046Y008262D01*
X016082Y008247D01*
X016117Y008230D01*
X016150Y008209D01*
X016180Y008184D01*
X016208Y008157D01*
X016233Y008127D01*
X016255Y008095D01*
X016273Y008061D01*
X016288Y008025D01*
X016300Y007988D01*
X016308Y007950D01*
X016312Y007911D01*
X016312Y007873D01*
X016308Y007834D01*
X016300Y007796D01*
X016288Y007759D01*
X016273Y007723D01*
X016255Y007689D01*
X016233Y007657D01*
X016208Y007627D01*
X016180Y007600D01*
X016150Y007575D01*
X016117Y007554D01*
X016082Y007537D01*
X016046Y007522D01*
X016009Y007512D01*
X015970Y007505D01*
X015932Y007502D01*
X015893Y007503D01*
X015854Y007508D01*
X015816Y007517D01*
X015780Y007529D01*
X015744Y007545D01*
X015710Y007564D01*
X015679Y007587D01*
X015650Y007613D01*
X015623Y007641D01*
X015600Y007672D01*
X015579Y007705D01*
X015563Y007741D01*
X015549Y007777D01*
X015540Y007815D01*
X015534Y007853D01*
X015532Y007892D01*
X015522Y007492D02*
X016322Y008292D01*
X016532Y007892D02*
X016534Y007931D01*
X016540Y007969D01*
X016549Y008007D01*
X016563Y008043D01*
X016579Y008079D01*
X016600Y008112D01*
X016623Y008143D01*
X016650Y008171D01*
X016679Y008197D01*
X016710Y008220D01*
X016744Y008239D01*
X016780Y008255D01*
X016816Y008267D01*
X016854Y008276D01*
X016893Y008281D01*
X016932Y008282D01*
X016970Y008279D01*
X017009Y008272D01*
X017046Y008262D01*
X017082Y008247D01*
X017117Y008230D01*
X017150Y008209D01*
X017180Y008184D01*
X017208Y008157D01*
X017233Y008127D01*
X017255Y008095D01*
X017273Y008061D01*
X017288Y008025D01*
X017300Y007988D01*
X017308Y007950D01*
X017312Y007911D01*
X017312Y007873D01*
X017308Y007834D01*
X017300Y007796D01*
X017288Y007759D01*
X017273Y007723D01*
X017255Y007689D01*
X017233Y007657D01*
X017208Y007627D01*
X017180Y007600D01*
X017150Y007575D01*
X017117Y007554D01*
X017082Y007537D01*
X017046Y007522D01*
X017009Y007512D01*
X016970Y007505D01*
X016932Y007502D01*
X016893Y007503D01*
X016854Y007508D01*
X016816Y007517D01*
X016780Y007529D01*
X016744Y007545D01*
X016710Y007564D01*
X016679Y007587D01*
X016650Y007613D01*
X016623Y007641D01*
X016600Y007672D01*
X016579Y007705D01*
X016563Y007741D01*
X016549Y007777D01*
X016540Y007815D01*
X016534Y007853D01*
X016532Y007892D01*
X016522Y007492D02*
X017322Y008292D01*
X012032Y006817D02*
X012034Y006856D01*
X012040Y006894D01*
X012049Y006932D01*
X012063Y006968D01*
X012079Y007004D01*
X012100Y007037D01*
X012123Y007068D01*
X012150Y007096D01*
X012179Y007122D01*
X012210Y007145D01*
X012244Y007164D01*
X012280Y007180D01*
X012316Y007192D01*
X012354Y007201D01*
X012393Y007206D01*
X012432Y007207D01*
X012470Y007204D01*
X012509Y007197D01*
X012546Y007187D01*
X012582Y007172D01*
X012617Y007155D01*
X012650Y007134D01*
X012680Y007109D01*
X012708Y007082D01*
X012733Y007052D01*
X012755Y007020D01*
X012773Y006986D01*
X012788Y006950D01*
X012800Y006913D01*
X012808Y006875D01*
X012812Y006836D01*
X012812Y006798D01*
X012808Y006759D01*
X012800Y006721D01*
X012788Y006684D01*
X012773Y006648D01*
X012755Y006614D01*
X012733Y006582D01*
X012708Y006552D01*
X012680Y006525D01*
X012650Y006500D01*
X012617Y006479D01*
X012582Y006462D01*
X012546Y006447D01*
X012509Y006437D01*
X012470Y006430D01*
X012432Y006427D01*
X012393Y006428D01*
X012354Y006433D01*
X012316Y006442D01*
X012280Y006454D01*
X012244Y006470D01*
X012210Y006489D01*
X012179Y006512D01*
X012150Y006538D01*
X012123Y006566D01*
X012100Y006597D01*
X012079Y006630D01*
X012063Y006666D01*
X012049Y006702D01*
X012040Y006740D01*
X012034Y006778D01*
X012032Y006817D01*
X012022Y006417D02*
X012822Y007217D01*
X012032Y005717D02*
X012034Y005756D01*
X012040Y005794D01*
X012049Y005832D01*
X012063Y005868D01*
X012079Y005904D01*
X012100Y005937D01*
X012123Y005968D01*
X012150Y005996D01*
X012179Y006022D01*
X012210Y006045D01*
X012244Y006064D01*
X012280Y006080D01*
X012316Y006092D01*
X012354Y006101D01*
X012393Y006106D01*
X012432Y006107D01*
X012470Y006104D01*
X012509Y006097D01*
X012546Y006087D01*
X012582Y006072D01*
X012617Y006055D01*
X012650Y006034D01*
X012680Y006009D01*
X012708Y005982D01*
X012733Y005952D01*
X012755Y005920D01*
X012773Y005886D01*
X012788Y005850D01*
X012800Y005813D01*
X012808Y005775D01*
X012812Y005736D01*
X012812Y005698D01*
X012808Y005659D01*
X012800Y005621D01*
X012788Y005584D01*
X012773Y005548D01*
X012755Y005514D01*
X012733Y005482D01*
X012708Y005452D01*
X012680Y005425D01*
X012650Y005400D01*
X012617Y005379D01*
X012582Y005362D01*
X012546Y005347D01*
X012509Y005337D01*
X012470Y005330D01*
X012432Y005327D01*
X012393Y005328D01*
X012354Y005333D01*
X012316Y005342D01*
X012280Y005354D01*
X012244Y005370D01*
X012210Y005389D01*
X012179Y005412D01*
X012150Y005438D01*
X012123Y005466D01*
X012100Y005497D01*
X012079Y005530D01*
X012063Y005566D01*
X012049Y005602D01*
X012040Y005640D01*
X012034Y005678D01*
X012032Y005717D01*
X012022Y005317D02*
X012822Y006117D01*
X006697Y007117D02*
X005897Y007917D01*
X005897Y007117D02*
X006697Y007917D01*
X010647Y007917D02*
X011447Y007117D01*
X010647Y007117D02*
X011447Y007917D01*
X009897Y005792D02*
X010697Y004992D01*
X009897Y004992D02*
X010697Y005792D01*
X007197Y002117D02*
X006397Y002917D01*
X006397Y002117D02*
X007197Y002917D01*
X007822Y004617D02*
X007022Y005417D01*
X007022Y004617D02*
X007822Y005417D01*
X005897Y003917D02*
X006697Y003117D01*
X005897Y003117D02*
X006697Y003917D01*
X017447Y016367D02*
X016647Y017167D01*
X016647Y016367D02*
X017447Y017167D01*
M02*
