G75*
G70*
%OFA0B0*%
%FSLAX24Y24*%
%IPPOS*%
%LPD*%
%AMOC8*
5,1,8,0,0,1.08239X$1,22.5*
%
%ADD10C,0.0000*%
%ADD11R,0.0240X0.0870*%
%ADD12R,0.0472X0.0315*%
%ADD13R,0.0315X0.0472*%
%ADD14R,0.0787X0.0472*%
%ADD15R,0.0394X0.0551*%
D10*
X001041Y000425D02*
X018944Y000425D01*
X018943Y000425D02*
X019001Y000428D01*
X019058Y000436D01*
X019114Y000448D01*
X019170Y000463D01*
X019224Y000481D01*
X019277Y000503D01*
X019329Y000529D01*
X019379Y000558D01*
X019427Y000590D01*
X019472Y000625D01*
X019515Y000663D01*
X019556Y000704D01*
X019594Y000748D01*
X019629Y000793D01*
X019661Y000841D01*
X019689Y000891D01*
X019715Y000943D01*
X019736Y000996D01*
X019755Y001051D01*
X019770Y001107D01*
X019781Y001163D01*
X019788Y001220D01*
X019792Y001278D01*
X019791Y001335D01*
X019792Y001335D02*
X019792Y019447D01*
X019790Y019499D01*
X019785Y019550D01*
X019775Y019601D01*
X019763Y019651D01*
X019746Y019700D01*
X019726Y019748D01*
X019703Y019794D01*
X019677Y019839D01*
X019647Y019881D01*
X019615Y019922D01*
X019580Y019960D01*
X019542Y019995D01*
X019501Y020027D01*
X019459Y020057D01*
X019414Y020083D01*
X019368Y020106D01*
X019320Y020126D01*
X019271Y020143D01*
X019221Y020155D01*
X019170Y020165D01*
X019119Y020170D01*
X019067Y020172D01*
X000841Y020172D01*
X000796Y020170D01*
X000751Y020165D01*
X000707Y020155D01*
X000664Y020143D01*
X000622Y020126D01*
X000582Y020106D01*
X000543Y020083D01*
X000507Y020057D01*
X000473Y020028D01*
X000441Y019996D01*
X000412Y019962D01*
X000386Y019926D01*
X000363Y019887D01*
X000343Y019847D01*
X000326Y019805D01*
X000314Y019762D01*
X000304Y019718D01*
X000299Y019673D01*
X000297Y019628D01*
X000297Y001232D01*
X000296Y001177D01*
X000300Y001121D01*
X000308Y001066D01*
X000319Y001012D01*
X000335Y000959D01*
X000354Y000907D01*
X000377Y000856D01*
X000403Y000808D01*
X000433Y000761D01*
X000466Y000716D01*
X000502Y000674D01*
X000541Y000635D01*
X000583Y000598D01*
X000627Y000565D01*
X000673Y000535D01*
X000722Y000508D01*
X000772Y000485D01*
X000824Y000465D01*
X000877Y000449D01*
X000932Y000437D01*
X000986Y000429D01*
X001042Y000425D01*
X000403Y006017D02*
X000405Y006056D01*
X000411Y006095D01*
X000421Y006133D01*
X000434Y006170D01*
X000451Y006205D01*
X000471Y006239D01*
X000495Y006270D01*
X000522Y006299D01*
X000551Y006325D01*
X000583Y006348D01*
X000617Y006368D01*
X000653Y006384D01*
X000690Y006396D01*
X000729Y006405D01*
X000768Y006410D01*
X000807Y006411D01*
X000846Y006408D01*
X000885Y006401D01*
X000922Y006390D01*
X000959Y006376D01*
X000994Y006358D01*
X001027Y006337D01*
X001058Y006312D01*
X001086Y006285D01*
X001111Y006255D01*
X001133Y006222D01*
X001152Y006188D01*
X001167Y006152D01*
X001179Y006114D01*
X001187Y006076D01*
X001191Y006037D01*
X001191Y005997D01*
X001187Y005958D01*
X001179Y005920D01*
X001167Y005882D01*
X001152Y005846D01*
X001133Y005812D01*
X001111Y005779D01*
X001086Y005749D01*
X001058Y005722D01*
X001027Y005697D01*
X000994Y005676D01*
X000959Y005658D01*
X000922Y005644D01*
X000885Y005633D01*
X000846Y005626D01*
X000807Y005623D01*
X000768Y005624D01*
X000729Y005629D01*
X000690Y005638D01*
X000653Y005650D01*
X000617Y005666D01*
X000583Y005686D01*
X000551Y005709D01*
X000522Y005735D01*
X000495Y005764D01*
X000471Y005795D01*
X000451Y005829D01*
X000434Y005864D01*
X000421Y005901D01*
X000411Y005939D01*
X000405Y005978D01*
X000403Y006017D01*
X009528Y016392D02*
X009530Y016431D01*
X009536Y016470D01*
X009546Y016508D01*
X009559Y016545D01*
X009576Y016580D01*
X009596Y016614D01*
X009620Y016645D01*
X009647Y016674D01*
X009676Y016700D01*
X009708Y016723D01*
X009742Y016743D01*
X009778Y016759D01*
X009815Y016771D01*
X009854Y016780D01*
X009893Y016785D01*
X009932Y016786D01*
X009971Y016783D01*
X010010Y016776D01*
X010047Y016765D01*
X010084Y016751D01*
X010119Y016733D01*
X010152Y016712D01*
X010183Y016687D01*
X010211Y016660D01*
X010236Y016630D01*
X010258Y016597D01*
X010277Y016563D01*
X010292Y016527D01*
X010304Y016489D01*
X010312Y016451D01*
X010316Y016412D01*
X010316Y016372D01*
X010312Y016333D01*
X010304Y016295D01*
X010292Y016257D01*
X010277Y016221D01*
X010258Y016187D01*
X010236Y016154D01*
X010211Y016124D01*
X010183Y016097D01*
X010152Y016072D01*
X010119Y016051D01*
X010084Y016033D01*
X010047Y016019D01*
X010010Y016008D01*
X009971Y016001D01*
X009932Y015998D01*
X009893Y015999D01*
X009854Y016004D01*
X009815Y016013D01*
X009778Y016025D01*
X009742Y016041D01*
X009708Y016061D01*
X009676Y016084D01*
X009647Y016110D01*
X009620Y016139D01*
X009596Y016170D01*
X009576Y016204D01*
X009559Y016239D01*
X009546Y016276D01*
X009536Y016314D01*
X009530Y016353D01*
X009528Y016392D01*
X013340Y018080D02*
X013342Y018119D01*
X013348Y018158D01*
X013358Y018196D01*
X013371Y018233D01*
X013388Y018268D01*
X013408Y018302D01*
X013432Y018333D01*
X013459Y018362D01*
X013488Y018388D01*
X013520Y018411D01*
X013554Y018431D01*
X013590Y018447D01*
X013627Y018459D01*
X013666Y018468D01*
X013705Y018473D01*
X013744Y018474D01*
X013783Y018471D01*
X013822Y018464D01*
X013859Y018453D01*
X013896Y018439D01*
X013931Y018421D01*
X013964Y018400D01*
X013995Y018375D01*
X014023Y018348D01*
X014048Y018318D01*
X014070Y018285D01*
X014089Y018251D01*
X014104Y018215D01*
X014116Y018177D01*
X014124Y018139D01*
X014128Y018100D01*
X014128Y018060D01*
X014124Y018021D01*
X014116Y017983D01*
X014104Y017945D01*
X014089Y017909D01*
X014070Y017875D01*
X014048Y017842D01*
X014023Y017812D01*
X013995Y017785D01*
X013964Y017760D01*
X013931Y017739D01*
X013896Y017721D01*
X013859Y017707D01*
X013822Y017696D01*
X013783Y017689D01*
X013744Y017686D01*
X013705Y017687D01*
X013666Y017692D01*
X013627Y017701D01*
X013590Y017713D01*
X013554Y017729D01*
X013520Y017749D01*
X013488Y017772D01*
X013459Y017798D01*
X013432Y017827D01*
X013408Y017858D01*
X013388Y017892D01*
X013371Y017927D01*
X013358Y017964D01*
X013348Y018002D01*
X013342Y018041D01*
X013340Y018080D01*
X016840Y015580D02*
X016842Y015619D01*
X016848Y015658D01*
X016858Y015696D01*
X016871Y015733D01*
X016888Y015768D01*
X016908Y015802D01*
X016932Y015833D01*
X016959Y015862D01*
X016988Y015888D01*
X017020Y015911D01*
X017054Y015931D01*
X017090Y015947D01*
X017127Y015959D01*
X017166Y015968D01*
X017205Y015973D01*
X017244Y015974D01*
X017283Y015971D01*
X017322Y015964D01*
X017359Y015953D01*
X017396Y015939D01*
X017431Y015921D01*
X017464Y015900D01*
X017495Y015875D01*
X017523Y015848D01*
X017548Y015818D01*
X017570Y015785D01*
X017589Y015751D01*
X017604Y015715D01*
X017616Y015677D01*
X017624Y015639D01*
X017628Y015600D01*
X017628Y015560D01*
X017624Y015521D01*
X017616Y015483D01*
X017604Y015445D01*
X017589Y015409D01*
X017570Y015375D01*
X017548Y015342D01*
X017523Y015312D01*
X017495Y015285D01*
X017464Y015260D01*
X017431Y015239D01*
X017396Y015221D01*
X017359Y015207D01*
X017322Y015196D01*
X017283Y015189D01*
X017244Y015186D01*
X017205Y015187D01*
X017166Y015192D01*
X017127Y015201D01*
X017090Y015213D01*
X017054Y015229D01*
X017020Y015249D01*
X016988Y015272D01*
X016959Y015298D01*
X016932Y015327D01*
X016908Y015358D01*
X016888Y015392D01*
X016871Y015427D01*
X016858Y015464D01*
X016848Y015502D01*
X016842Y015541D01*
X016840Y015580D01*
X016903Y011580D02*
X016905Y011619D01*
X016911Y011658D01*
X016921Y011696D01*
X016934Y011733D01*
X016951Y011768D01*
X016971Y011802D01*
X016995Y011833D01*
X017022Y011862D01*
X017051Y011888D01*
X017083Y011911D01*
X017117Y011931D01*
X017153Y011947D01*
X017190Y011959D01*
X017229Y011968D01*
X017268Y011973D01*
X017307Y011974D01*
X017346Y011971D01*
X017385Y011964D01*
X017422Y011953D01*
X017459Y011939D01*
X017494Y011921D01*
X017527Y011900D01*
X017558Y011875D01*
X017586Y011848D01*
X017611Y011818D01*
X017633Y011785D01*
X017652Y011751D01*
X017667Y011715D01*
X017679Y011677D01*
X017687Y011639D01*
X017691Y011600D01*
X017691Y011560D01*
X017687Y011521D01*
X017679Y011483D01*
X017667Y011445D01*
X017652Y011409D01*
X017633Y011375D01*
X017611Y011342D01*
X017586Y011312D01*
X017558Y011285D01*
X017527Y011260D01*
X017494Y011239D01*
X017459Y011221D01*
X017422Y011207D01*
X017385Y011196D01*
X017346Y011189D01*
X017307Y011186D01*
X017268Y011187D01*
X017229Y011192D01*
X017190Y011201D01*
X017153Y011213D01*
X017117Y011229D01*
X017083Y011249D01*
X017051Y011272D01*
X017022Y011298D01*
X016995Y011327D01*
X016971Y011358D01*
X016951Y011392D01*
X016934Y011427D01*
X016921Y011464D01*
X016911Y011502D01*
X016905Y011541D01*
X016903Y011580D01*
X018167Y010017D02*
X018169Y010067D01*
X018175Y010117D01*
X018185Y010166D01*
X018199Y010214D01*
X018216Y010261D01*
X018237Y010306D01*
X018262Y010350D01*
X018290Y010391D01*
X018322Y010430D01*
X018356Y010467D01*
X018393Y010501D01*
X018433Y010531D01*
X018475Y010558D01*
X018519Y010582D01*
X018565Y010603D01*
X018612Y010619D01*
X018660Y010632D01*
X018710Y010641D01*
X018759Y010646D01*
X018810Y010647D01*
X018860Y010644D01*
X018909Y010637D01*
X018958Y010626D01*
X019006Y010611D01*
X019052Y010593D01*
X019097Y010571D01*
X019140Y010545D01*
X019181Y010516D01*
X019220Y010484D01*
X019256Y010449D01*
X019288Y010411D01*
X019318Y010371D01*
X019345Y010328D01*
X019368Y010284D01*
X019387Y010238D01*
X019403Y010190D01*
X019415Y010141D01*
X019423Y010092D01*
X019427Y010042D01*
X019427Y009992D01*
X019423Y009942D01*
X019415Y009893D01*
X019403Y009844D01*
X019387Y009796D01*
X019368Y009750D01*
X019345Y009706D01*
X019318Y009663D01*
X019288Y009623D01*
X019256Y009585D01*
X019220Y009550D01*
X019181Y009518D01*
X019140Y009489D01*
X019097Y009463D01*
X019052Y009441D01*
X019006Y009423D01*
X018958Y009408D01*
X018909Y009397D01*
X018860Y009390D01*
X018810Y009387D01*
X018759Y009388D01*
X018710Y009393D01*
X018660Y009402D01*
X018612Y009415D01*
X018565Y009431D01*
X018519Y009452D01*
X018475Y009476D01*
X018433Y009503D01*
X018393Y009533D01*
X018356Y009567D01*
X018322Y009604D01*
X018290Y009643D01*
X018262Y009684D01*
X018237Y009728D01*
X018216Y009773D01*
X018199Y009820D01*
X018185Y009868D01*
X018175Y009917D01*
X018169Y009967D01*
X018167Y010017D01*
X013528Y011580D02*
X013530Y011619D01*
X013536Y011658D01*
X013546Y011696D01*
X013559Y011733D01*
X013576Y011768D01*
X013596Y011802D01*
X013620Y011833D01*
X013647Y011862D01*
X013676Y011888D01*
X013708Y011911D01*
X013742Y011931D01*
X013778Y011947D01*
X013815Y011959D01*
X013854Y011968D01*
X013893Y011973D01*
X013932Y011974D01*
X013971Y011971D01*
X014010Y011964D01*
X014047Y011953D01*
X014084Y011939D01*
X014119Y011921D01*
X014152Y011900D01*
X014183Y011875D01*
X014211Y011848D01*
X014236Y011818D01*
X014258Y011785D01*
X014277Y011751D01*
X014292Y011715D01*
X014304Y011677D01*
X014312Y011639D01*
X014316Y011600D01*
X014316Y011560D01*
X014312Y011521D01*
X014304Y011483D01*
X014292Y011445D01*
X014277Y011409D01*
X014258Y011375D01*
X014236Y011342D01*
X014211Y011312D01*
X014183Y011285D01*
X014152Y011260D01*
X014119Y011239D01*
X014084Y011221D01*
X014047Y011207D01*
X014010Y011196D01*
X013971Y011189D01*
X013932Y011186D01*
X013893Y011187D01*
X013854Y011192D01*
X013815Y011201D01*
X013778Y011213D01*
X013742Y011229D01*
X013708Y011249D01*
X013676Y011272D01*
X013647Y011298D01*
X013620Y011327D01*
X013596Y011358D01*
X013576Y011392D01*
X013559Y011427D01*
X013546Y011464D01*
X013536Y011502D01*
X013530Y011541D01*
X013528Y011580D01*
X011854Y010017D02*
X011856Y010067D01*
X011862Y010117D01*
X011872Y010166D01*
X011886Y010214D01*
X011903Y010261D01*
X011924Y010306D01*
X011949Y010350D01*
X011977Y010391D01*
X012009Y010430D01*
X012043Y010467D01*
X012080Y010501D01*
X012120Y010531D01*
X012162Y010558D01*
X012206Y010582D01*
X012252Y010603D01*
X012299Y010619D01*
X012347Y010632D01*
X012397Y010641D01*
X012446Y010646D01*
X012497Y010647D01*
X012547Y010644D01*
X012596Y010637D01*
X012645Y010626D01*
X012693Y010611D01*
X012739Y010593D01*
X012784Y010571D01*
X012827Y010545D01*
X012868Y010516D01*
X012907Y010484D01*
X012943Y010449D01*
X012975Y010411D01*
X013005Y010371D01*
X013032Y010328D01*
X013055Y010284D01*
X013074Y010238D01*
X013090Y010190D01*
X013102Y010141D01*
X013110Y010092D01*
X013114Y010042D01*
X013114Y009992D01*
X013110Y009942D01*
X013102Y009893D01*
X013090Y009844D01*
X013074Y009796D01*
X013055Y009750D01*
X013032Y009706D01*
X013005Y009663D01*
X012975Y009623D01*
X012943Y009585D01*
X012907Y009550D01*
X012868Y009518D01*
X012827Y009489D01*
X012784Y009463D01*
X012739Y009441D01*
X012693Y009423D01*
X012645Y009408D01*
X012596Y009397D01*
X012547Y009390D01*
X012497Y009387D01*
X012446Y009388D01*
X012397Y009393D01*
X012347Y009402D01*
X012299Y009415D01*
X012252Y009431D01*
X012206Y009452D01*
X012162Y009476D01*
X012120Y009503D01*
X012080Y009533D01*
X012043Y009567D01*
X012009Y009604D01*
X011977Y009643D01*
X011949Y009684D01*
X011924Y009728D01*
X011903Y009773D01*
X011886Y009820D01*
X011872Y009868D01*
X011862Y009917D01*
X011856Y009967D01*
X011854Y010017D01*
X018229Y005267D02*
X018231Y005317D01*
X018237Y005367D01*
X018247Y005416D01*
X018261Y005464D01*
X018278Y005511D01*
X018299Y005556D01*
X018324Y005600D01*
X018352Y005641D01*
X018384Y005680D01*
X018418Y005717D01*
X018455Y005751D01*
X018495Y005781D01*
X018537Y005808D01*
X018581Y005832D01*
X018627Y005853D01*
X018674Y005869D01*
X018722Y005882D01*
X018772Y005891D01*
X018821Y005896D01*
X018872Y005897D01*
X018922Y005894D01*
X018971Y005887D01*
X019020Y005876D01*
X019068Y005861D01*
X019114Y005843D01*
X019159Y005821D01*
X019202Y005795D01*
X019243Y005766D01*
X019282Y005734D01*
X019318Y005699D01*
X019350Y005661D01*
X019380Y005621D01*
X019407Y005578D01*
X019430Y005534D01*
X019449Y005488D01*
X019465Y005440D01*
X019477Y005391D01*
X019485Y005342D01*
X019489Y005292D01*
X019489Y005242D01*
X019485Y005192D01*
X019477Y005143D01*
X019465Y005094D01*
X019449Y005046D01*
X019430Y005000D01*
X019407Y004956D01*
X019380Y004913D01*
X019350Y004873D01*
X019318Y004835D01*
X019282Y004800D01*
X019243Y004768D01*
X019202Y004739D01*
X019159Y004713D01*
X019114Y004691D01*
X019068Y004673D01*
X019020Y004658D01*
X018971Y004647D01*
X018922Y004640D01*
X018872Y004637D01*
X018821Y004638D01*
X018772Y004643D01*
X018722Y004652D01*
X018674Y004665D01*
X018627Y004681D01*
X018581Y004702D01*
X018537Y004726D01*
X018495Y004753D01*
X018455Y004783D01*
X018418Y004817D01*
X018384Y004854D01*
X018352Y004893D01*
X018324Y004934D01*
X018299Y004978D01*
X018278Y005023D01*
X018261Y005070D01*
X018247Y005118D01*
X018237Y005167D01*
X018231Y005217D01*
X018229Y005267D01*
X010437Y001010D02*
X010439Y001049D01*
X010445Y001088D01*
X010455Y001126D01*
X010468Y001163D01*
X010485Y001198D01*
X010505Y001232D01*
X010529Y001263D01*
X010556Y001292D01*
X010585Y001318D01*
X010617Y001341D01*
X010651Y001361D01*
X010687Y001377D01*
X010724Y001389D01*
X010763Y001398D01*
X010802Y001403D01*
X010841Y001404D01*
X010880Y001401D01*
X010919Y001394D01*
X010956Y001383D01*
X010993Y001369D01*
X011028Y001351D01*
X011061Y001330D01*
X011092Y001305D01*
X011120Y001278D01*
X011145Y001248D01*
X011167Y001215D01*
X011186Y001181D01*
X011201Y001145D01*
X011213Y001107D01*
X011221Y001069D01*
X011225Y001030D01*
X011225Y000990D01*
X011221Y000951D01*
X011213Y000913D01*
X011201Y000875D01*
X011186Y000839D01*
X011167Y000805D01*
X011145Y000772D01*
X011120Y000742D01*
X011092Y000715D01*
X011061Y000690D01*
X011028Y000669D01*
X010993Y000651D01*
X010956Y000637D01*
X010919Y000626D01*
X010880Y000619D01*
X010841Y000616D01*
X010802Y000617D01*
X010763Y000622D01*
X010724Y000631D01*
X010687Y000643D01*
X010651Y000659D01*
X010617Y000679D01*
X010585Y000702D01*
X010556Y000728D01*
X010529Y000757D01*
X010505Y000788D01*
X010485Y000822D01*
X010468Y000857D01*
X010455Y000894D01*
X010445Y000932D01*
X010439Y000971D01*
X010437Y001010D01*
X000778Y019392D02*
X000780Y019431D01*
X000786Y019470D01*
X000796Y019508D01*
X000809Y019545D01*
X000826Y019580D01*
X000846Y019614D01*
X000870Y019645D01*
X000897Y019674D01*
X000926Y019700D01*
X000958Y019723D01*
X000992Y019743D01*
X001028Y019759D01*
X001065Y019771D01*
X001104Y019780D01*
X001143Y019785D01*
X001182Y019786D01*
X001221Y019783D01*
X001260Y019776D01*
X001297Y019765D01*
X001334Y019751D01*
X001369Y019733D01*
X001402Y019712D01*
X001433Y019687D01*
X001461Y019660D01*
X001486Y019630D01*
X001508Y019597D01*
X001527Y019563D01*
X001542Y019527D01*
X001554Y019489D01*
X001562Y019451D01*
X001566Y019412D01*
X001566Y019372D01*
X001562Y019333D01*
X001554Y019295D01*
X001542Y019257D01*
X001527Y019221D01*
X001508Y019187D01*
X001486Y019154D01*
X001461Y019124D01*
X001433Y019097D01*
X001402Y019072D01*
X001369Y019051D01*
X001334Y019033D01*
X001297Y019019D01*
X001260Y019008D01*
X001221Y019001D01*
X001182Y018998D01*
X001143Y018999D01*
X001104Y019004D01*
X001065Y019013D01*
X001028Y019025D01*
X000992Y019041D01*
X000958Y019061D01*
X000926Y019084D01*
X000897Y019110D01*
X000870Y019139D01*
X000846Y019170D01*
X000826Y019204D01*
X000809Y019239D01*
X000796Y019276D01*
X000786Y019314D01*
X000780Y019353D01*
X000778Y019392D01*
D11*
X009172Y006422D03*
X009672Y006422D03*
X010172Y006422D03*
X010672Y006422D03*
X010672Y004362D03*
X010172Y004362D03*
X009672Y004362D03*
X009172Y004362D03*
D12*
X008922Y003621D03*
X008922Y002913D03*
X002047Y011413D03*
X002047Y012121D03*
X002047Y012663D03*
X002047Y013371D03*
X006547Y013663D03*
X006547Y014371D03*
D13*
X015067Y008830D03*
X015776Y008830D03*
X011026Y003517D03*
X010317Y003517D03*
X007401Y000767D03*
X006692Y000767D03*
D14*
X009734Y002012D03*
X009734Y003272D03*
X001297Y007637D03*
X001297Y008897D03*
D15*
X006190Y008651D03*
X006938Y008651D03*
X006564Y009517D03*
M02*
