%
M48
M72
T01C0.0236
T02C0.0276
T03C0.0320
T04C0.0400
T05C0.0787
T06C0.1260
%
T01
X8000Y13000
X12750Y13000
X12000Y10875
X8500Y8000
X9125Y10500
X8000Y9000
X18750Y22250
T02
X4750Y18825
X4750Y17886
X4750Y16925
T03
X6625Y25250
X6625Y24250
X6625Y23250
X6625Y22250
X6625Y21250
X6625Y20250
X6625Y19250
X6625Y18250
X6625Y17250
X6625Y16250
X6625Y15250
X6625Y14250
X6625Y13250
X6625Y12250
X9625Y12250
X9625Y13250
X9625Y14250
X9625Y15250
X9625Y16250
X9625Y17250
X9625Y18250
X9625Y19250
X9625Y20250
X9625Y21250
X9625Y22250
X9625Y23250
X9625Y24250
X9625Y25250
X2625Y10000
X2625Y9000
X5625Y9000
X5625Y10000
X2625Y8000
X2625Y7000
X5625Y8000
X5625Y7000
X6750Y11000
X6750Y10000
X9750Y10000
X9750Y11000
X6750Y9000
X9750Y9000
X15875Y20125
X15875Y19125
X18875Y19125
X18875Y20125
X15875Y18125
X18875Y18125
X15625Y10375
X16625Y10375
X16625Y13375
X15625Y13375
X17625Y10375
X18625Y10375
X17625Y13375
X18625Y13375
T04
X4875Y12125
X4875Y13125
X4875Y14125
X10250Y6875
X9250Y6875
X8250Y6875
X7250Y6875
X4500Y23875
X4500Y22875
X4500Y21875
X4500Y20875
X10735Y22595
X10735Y25155
X12515Y22595
X12515Y25155
X11125Y16000
X12125Y16000
X11125Y15000
X12125Y15000
X11125Y14000
X12125Y14000
X4500Y25000
X5500Y25000
X15625Y15125
X16625Y15125
X17625Y15125
X18625Y15125
X15250Y7500
X15250Y8500
X16250Y7500
X16250Y8500
X17250Y7500
X17250Y8500
X18250Y7500
X18250Y8500
X19250Y7500
X19250Y8500
X14125Y12300
X14125Y11200
T05
X12535Y6493
X2875Y24875
X11625Y21875
X2500Y11500
X15625Y17063
X19000Y17063
X15438Y23563
X18938Y21063
T06
X14188Y15500
X20500Y15500
X20563Y10750
M30
