G75*
G70*
%OFA0B0*%
%FSLAX24Y24*%
%IPPOS*%
%LPD*%
%AMOC8*
5,1,8,0,0,1.08239X$1,22.5*
%
%ADD10C,0.0000*%
%ADD11C,0.0010*%
D10*
X002000Y025110D02*
X002002Y025155D01*
X002007Y025200D01*
X002017Y025244D01*
X002029Y025287D01*
X002046Y025329D01*
X002066Y025369D01*
X002089Y025408D01*
X002115Y025444D01*
X002144Y025478D01*
X002176Y025510D01*
X002210Y025539D01*
X002246Y025565D01*
X002285Y025588D01*
X002325Y025608D01*
X002367Y025625D01*
X002410Y025637D01*
X002454Y025647D01*
X002499Y025652D01*
X002544Y025654D01*
X002000Y025110D02*
X002000Y006715D01*
X002000Y006714D02*
X001999Y006659D01*
X002003Y006603D01*
X002011Y006548D01*
X002022Y006494D01*
X002038Y006441D01*
X002057Y006389D01*
X002080Y006338D01*
X002106Y006290D01*
X002136Y006243D01*
X002169Y006198D01*
X002205Y006156D01*
X002244Y006117D01*
X002286Y006080D01*
X002330Y006047D01*
X002376Y006017D01*
X002425Y005990D01*
X002475Y005967D01*
X002527Y005947D01*
X002580Y005931D01*
X002635Y005919D01*
X002689Y005911D01*
X002745Y005907D01*
X020647Y005907D01*
X020647Y005908D02*
X020705Y005911D01*
X020762Y005919D01*
X020818Y005931D01*
X020874Y005946D01*
X020928Y005964D01*
X020981Y005986D01*
X021033Y006012D01*
X021083Y006041D01*
X021131Y006073D01*
X021176Y006108D01*
X021219Y006146D01*
X021260Y006187D01*
X021298Y006231D01*
X021333Y006276D01*
X021365Y006324D01*
X021393Y006374D01*
X021419Y006426D01*
X021440Y006479D01*
X021459Y006534D01*
X021474Y006590D01*
X021485Y006646D01*
X021492Y006703D01*
X021496Y006761D01*
X021495Y006818D01*
X021495Y024930D01*
X021493Y024982D01*
X021488Y025033D01*
X021478Y025084D01*
X021466Y025134D01*
X021449Y025183D01*
X021429Y025231D01*
X021406Y025277D01*
X021380Y025322D01*
X021350Y025364D01*
X021318Y025405D01*
X021283Y025443D01*
X021245Y025478D01*
X021204Y025510D01*
X021162Y025540D01*
X021117Y025566D01*
X021071Y025589D01*
X021023Y025609D01*
X020974Y025626D01*
X020924Y025638D01*
X020873Y025648D01*
X020822Y025653D01*
X020770Y025655D01*
X002544Y025655D01*
X012141Y006493D02*
X012143Y006532D01*
X012149Y006571D01*
X012159Y006609D01*
X012172Y006646D01*
X012189Y006681D01*
X012209Y006715D01*
X012233Y006746D01*
X012260Y006775D01*
X012289Y006801D01*
X012321Y006824D01*
X012355Y006844D01*
X012391Y006860D01*
X012428Y006872D01*
X012467Y006881D01*
X012506Y006886D01*
X012545Y006887D01*
X012584Y006884D01*
X012623Y006877D01*
X012660Y006866D01*
X012697Y006852D01*
X012732Y006834D01*
X012765Y006813D01*
X012796Y006788D01*
X012824Y006761D01*
X012849Y006731D01*
X012871Y006698D01*
X012890Y006664D01*
X012905Y006628D01*
X012917Y006590D01*
X012925Y006552D01*
X012929Y006513D01*
X012929Y006473D01*
X012925Y006434D01*
X012917Y006396D01*
X012905Y006358D01*
X012890Y006322D01*
X012871Y006288D01*
X012849Y006255D01*
X012824Y006225D01*
X012796Y006198D01*
X012765Y006173D01*
X012732Y006152D01*
X012697Y006134D01*
X012660Y006120D01*
X012623Y006109D01*
X012584Y006102D01*
X012545Y006099D01*
X012506Y006100D01*
X012467Y006105D01*
X012428Y006114D01*
X012391Y006126D01*
X012355Y006142D01*
X012321Y006162D01*
X012289Y006185D01*
X012260Y006211D01*
X012233Y006240D01*
X012209Y006271D01*
X012189Y006305D01*
X012172Y006340D01*
X012159Y006377D01*
X012149Y006415D01*
X012143Y006454D01*
X012141Y006493D01*
X002481Y024875D02*
X002483Y024914D01*
X002489Y024953D01*
X002499Y024991D01*
X002512Y025028D01*
X002529Y025063D01*
X002549Y025097D01*
X002573Y025128D01*
X002600Y025157D01*
X002629Y025183D01*
X002661Y025206D01*
X002695Y025226D01*
X002731Y025242D01*
X002768Y025254D01*
X002807Y025263D01*
X002846Y025268D01*
X002885Y025269D01*
X002924Y025266D01*
X002963Y025259D01*
X003000Y025248D01*
X003037Y025234D01*
X003072Y025216D01*
X003105Y025195D01*
X003136Y025170D01*
X003164Y025143D01*
X003189Y025113D01*
X003211Y025080D01*
X003230Y025046D01*
X003245Y025010D01*
X003257Y024972D01*
X003265Y024934D01*
X003269Y024895D01*
X003269Y024855D01*
X003265Y024816D01*
X003257Y024778D01*
X003245Y024740D01*
X003230Y024704D01*
X003211Y024670D01*
X003189Y024637D01*
X003164Y024607D01*
X003136Y024580D01*
X003105Y024555D01*
X003072Y024534D01*
X003037Y024516D01*
X003000Y024502D01*
X002963Y024491D01*
X002924Y024484D01*
X002885Y024481D01*
X002846Y024482D01*
X002807Y024487D01*
X002768Y024496D01*
X002731Y024508D01*
X002695Y024524D01*
X002661Y024544D01*
X002629Y024567D01*
X002600Y024593D01*
X002573Y024622D01*
X002549Y024653D01*
X002529Y024687D01*
X002512Y024722D01*
X002499Y024759D01*
X002489Y024797D01*
X002483Y024836D01*
X002481Y024875D01*
X011231Y021875D02*
X011233Y021914D01*
X011239Y021953D01*
X011249Y021991D01*
X011262Y022028D01*
X011279Y022063D01*
X011299Y022097D01*
X011323Y022128D01*
X011350Y022157D01*
X011379Y022183D01*
X011411Y022206D01*
X011445Y022226D01*
X011481Y022242D01*
X011518Y022254D01*
X011557Y022263D01*
X011596Y022268D01*
X011635Y022269D01*
X011674Y022266D01*
X011713Y022259D01*
X011750Y022248D01*
X011787Y022234D01*
X011822Y022216D01*
X011855Y022195D01*
X011886Y022170D01*
X011914Y022143D01*
X011939Y022113D01*
X011961Y022080D01*
X011980Y022046D01*
X011995Y022010D01*
X012007Y021972D01*
X012015Y021934D01*
X012019Y021895D01*
X012019Y021855D01*
X012015Y021816D01*
X012007Y021778D01*
X011995Y021740D01*
X011980Y021704D01*
X011961Y021670D01*
X011939Y021637D01*
X011914Y021607D01*
X011886Y021580D01*
X011855Y021555D01*
X011822Y021534D01*
X011787Y021516D01*
X011750Y021502D01*
X011713Y021491D01*
X011674Y021484D01*
X011635Y021481D01*
X011596Y021482D01*
X011557Y021487D01*
X011518Y021496D01*
X011481Y021508D01*
X011445Y021524D01*
X011411Y021544D01*
X011379Y021567D01*
X011350Y021593D01*
X011323Y021622D01*
X011299Y021653D01*
X011279Y021687D01*
X011262Y021722D01*
X011249Y021759D01*
X011239Y021797D01*
X011233Y021836D01*
X011231Y021875D01*
X002106Y011500D02*
X002108Y011539D01*
X002114Y011578D01*
X002124Y011616D01*
X002137Y011653D01*
X002154Y011688D01*
X002174Y011722D01*
X002198Y011753D01*
X002225Y011782D01*
X002254Y011808D01*
X002286Y011831D01*
X002320Y011851D01*
X002356Y011867D01*
X002393Y011879D01*
X002432Y011888D01*
X002471Y011893D01*
X002510Y011894D01*
X002549Y011891D01*
X002588Y011884D01*
X002625Y011873D01*
X002662Y011859D01*
X002697Y011841D01*
X002730Y011820D01*
X002761Y011795D01*
X002789Y011768D01*
X002814Y011738D01*
X002836Y011705D01*
X002855Y011671D01*
X002870Y011635D01*
X002882Y011597D01*
X002890Y011559D01*
X002894Y011520D01*
X002894Y011480D01*
X002890Y011441D01*
X002882Y011403D01*
X002870Y011365D01*
X002855Y011329D01*
X002836Y011295D01*
X002814Y011262D01*
X002789Y011232D01*
X002761Y011205D01*
X002730Y011180D01*
X002697Y011159D01*
X002662Y011141D01*
X002625Y011127D01*
X002588Y011116D01*
X002549Y011109D01*
X002510Y011106D01*
X002471Y011107D01*
X002432Y011112D01*
X002393Y011121D01*
X002356Y011133D01*
X002320Y011149D01*
X002286Y011169D01*
X002254Y011192D01*
X002225Y011218D01*
X002198Y011247D01*
X002174Y011278D01*
X002154Y011312D01*
X002137Y011347D01*
X002124Y011384D01*
X002114Y011422D01*
X002108Y011461D01*
X002106Y011500D01*
X015231Y017063D02*
X015233Y017102D01*
X015239Y017141D01*
X015249Y017179D01*
X015262Y017216D01*
X015279Y017251D01*
X015299Y017285D01*
X015323Y017316D01*
X015350Y017345D01*
X015379Y017371D01*
X015411Y017394D01*
X015445Y017414D01*
X015481Y017430D01*
X015518Y017442D01*
X015557Y017451D01*
X015596Y017456D01*
X015635Y017457D01*
X015674Y017454D01*
X015713Y017447D01*
X015750Y017436D01*
X015787Y017422D01*
X015822Y017404D01*
X015855Y017383D01*
X015886Y017358D01*
X015914Y017331D01*
X015939Y017301D01*
X015961Y017268D01*
X015980Y017234D01*
X015995Y017198D01*
X016007Y017160D01*
X016015Y017122D01*
X016019Y017083D01*
X016019Y017043D01*
X016015Y017004D01*
X016007Y016966D01*
X015995Y016928D01*
X015980Y016892D01*
X015961Y016858D01*
X015939Y016825D01*
X015914Y016795D01*
X015886Y016768D01*
X015855Y016743D01*
X015822Y016722D01*
X015787Y016704D01*
X015750Y016690D01*
X015713Y016679D01*
X015674Y016672D01*
X015635Y016669D01*
X015596Y016670D01*
X015557Y016675D01*
X015518Y016684D01*
X015481Y016696D01*
X015445Y016712D01*
X015411Y016732D01*
X015379Y016755D01*
X015350Y016781D01*
X015323Y016810D01*
X015299Y016841D01*
X015279Y016875D01*
X015262Y016910D01*
X015249Y016947D01*
X015239Y016985D01*
X015233Y017024D01*
X015231Y017063D01*
X018606Y017063D02*
X018608Y017102D01*
X018614Y017141D01*
X018624Y017179D01*
X018637Y017216D01*
X018654Y017251D01*
X018674Y017285D01*
X018698Y017316D01*
X018725Y017345D01*
X018754Y017371D01*
X018786Y017394D01*
X018820Y017414D01*
X018856Y017430D01*
X018893Y017442D01*
X018932Y017451D01*
X018971Y017456D01*
X019010Y017457D01*
X019049Y017454D01*
X019088Y017447D01*
X019125Y017436D01*
X019162Y017422D01*
X019197Y017404D01*
X019230Y017383D01*
X019261Y017358D01*
X019289Y017331D01*
X019314Y017301D01*
X019336Y017268D01*
X019355Y017234D01*
X019370Y017198D01*
X019382Y017160D01*
X019390Y017122D01*
X019394Y017083D01*
X019394Y017043D01*
X019390Y017004D01*
X019382Y016966D01*
X019370Y016928D01*
X019355Y016892D01*
X019336Y016858D01*
X019314Y016825D01*
X019289Y016795D01*
X019261Y016768D01*
X019230Y016743D01*
X019197Y016722D01*
X019162Y016704D01*
X019125Y016690D01*
X019088Y016679D01*
X019049Y016672D01*
X019010Y016669D01*
X018971Y016670D01*
X018932Y016675D01*
X018893Y016684D01*
X018856Y016696D01*
X018820Y016712D01*
X018786Y016732D01*
X018754Y016755D01*
X018725Y016781D01*
X018698Y016810D01*
X018674Y016841D01*
X018654Y016875D01*
X018637Y016910D01*
X018624Y016947D01*
X018614Y016985D01*
X018608Y017024D01*
X018606Y017063D01*
X015044Y023563D02*
X015046Y023602D01*
X015052Y023641D01*
X015062Y023679D01*
X015075Y023716D01*
X015092Y023751D01*
X015112Y023785D01*
X015136Y023816D01*
X015163Y023845D01*
X015192Y023871D01*
X015224Y023894D01*
X015258Y023914D01*
X015294Y023930D01*
X015331Y023942D01*
X015370Y023951D01*
X015409Y023956D01*
X015448Y023957D01*
X015487Y023954D01*
X015526Y023947D01*
X015563Y023936D01*
X015600Y023922D01*
X015635Y023904D01*
X015668Y023883D01*
X015699Y023858D01*
X015727Y023831D01*
X015752Y023801D01*
X015774Y023768D01*
X015793Y023734D01*
X015808Y023698D01*
X015820Y023660D01*
X015828Y023622D01*
X015832Y023583D01*
X015832Y023543D01*
X015828Y023504D01*
X015820Y023466D01*
X015808Y023428D01*
X015793Y023392D01*
X015774Y023358D01*
X015752Y023325D01*
X015727Y023295D01*
X015699Y023268D01*
X015668Y023243D01*
X015635Y023222D01*
X015600Y023204D01*
X015563Y023190D01*
X015526Y023179D01*
X015487Y023172D01*
X015448Y023169D01*
X015409Y023170D01*
X015370Y023175D01*
X015331Y023184D01*
X015294Y023196D01*
X015258Y023212D01*
X015224Y023232D01*
X015192Y023255D01*
X015163Y023281D01*
X015136Y023310D01*
X015112Y023341D01*
X015092Y023375D01*
X015075Y023410D01*
X015062Y023447D01*
X015052Y023485D01*
X015046Y023524D01*
X015044Y023563D01*
X018544Y021063D02*
X018546Y021102D01*
X018552Y021141D01*
X018562Y021179D01*
X018575Y021216D01*
X018592Y021251D01*
X018612Y021285D01*
X018636Y021316D01*
X018663Y021345D01*
X018692Y021371D01*
X018724Y021394D01*
X018758Y021414D01*
X018794Y021430D01*
X018831Y021442D01*
X018870Y021451D01*
X018909Y021456D01*
X018948Y021457D01*
X018987Y021454D01*
X019026Y021447D01*
X019063Y021436D01*
X019100Y021422D01*
X019135Y021404D01*
X019168Y021383D01*
X019199Y021358D01*
X019227Y021331D01*
X019252Y021301D01*
X019274Y021268D01*
X019293Y021234D01*
X019308Y021198D01*
X019320Y021160D01*
X019328Y021122D01*
X019332Y021083D01*
X019332Y021043D01*
X019328Y021004D01*
X019320Y020966D01*
X019308Y020928D01*
X019293Y020892D01*
X019274Y020858D01*
X019252Y020825D01*
X019227Y020795D01*
X019199Y020768D01*
X019168Y020743D01*
X019135Y020722D01*
X019100Y020704D01*
X019063Y020690D01*
X019026Y020679D01*
X018987Y020672D01*
X018948Y020669D01*
X018909Y020670D01*
X018870Y020675D01*
X018831Y020684D01*
X018794Y020696D01*
X018758Y020712D01*
X018724Y020732D01*
X018692Y020755D01*
X018663Y020781D01*
X018636Y020810D01*
X018612Y020841D01*
X018592Y020875D01*
X018575Y020910D01*
X018562Y020947D01*
X018552Y020985D01*
X018546Y021024D01*
X018544Y021063D01*
X013558Y015500D02*
X013560Y015550D01*
X013566Y015600D01*
X013576Y015649D01*
X013590Y015697D01*
X013607Y015744D01*
X013628Y015789D01*
X013653Y015833D01*
X013681Y015874D01*
X013713Y015913D01*
X013747Y015950D01*
X013784Y015984D01*
X013824Y016014D01*
X013866Y016041D01*
X013910Y016065D01*
X013956Y016086D01*
X014003Y016102D01*
X014051Y016115D01*
X014101Y016124D01*
X014150Y016129D01*
X014201Y016130D01*
X014251Y016127D01*
X014300Y016120D01*
X014349Y016109D01*
X014397Y016094D01*
X014443Y016076D01*
X014488Y016054D01*
X014531Y016028D01*
X014572Y015999D01*
X014611Y015967D01*
X014647Y015932D01*
X014679Y015894D01*
X014709Y015854D01*
X014736Y015811D01*
X014759Y015767D01*
X014778Y015721D01*
X014794Y015673D01*
X014806Y015624D01*
X014814Y015575D01*
X014818Y015525D01*
X014818Y015475D01*
X014814Y015425D01*
X014806Y015376D01*
X014794Y015327D01*
X014778Y015279D01*
X014759Y015233D01*
X014736Y015189D01*
X014709Y015146D01*
X014679Y015106D01*
X014647Y015068D01*
X014611Y015033D01*
X014572Y015001D01*
X014531Y014972D01*
X014488Y014946D01*
X014443Y014924D01*
X014397Y014906D01*
X014349Y014891D01*
X014300Y014880D01*
X014251Y014873D01*
X014201Y014870D01*
X014150Y014871D01*
X014101Y014876D01*
X014051Y014885D01*
X014003Y014898D01*
X013956Y014914D01*
X013910Y014935D01*
X013866Y014959D01*
X013824Y014986D01*
X013784Y015016D01*
X013747Y015050D01*
X013713Y015087D01*
X013681Y015126D01*
X013653Y015167D01*
X013628Y015211D01*
X013607Y015256D01*
X013590Y015303D01*
X013576Y015351D01*
X013566Y015400D01*
X013560Y015450D01*
X013558Y015500D01*
X019870Y015500D02*
X019872Y015550D01*
X019878Y015600D01*
X019888Y015649D01*
X019902Y015697D01*
X019919Y015744D01*
X019940Y015789D01*
X019965Y015833D01*
X019993Y015874D01*
X020025Y015913D01*
X020059Y015950D01*
X020096Y015984D01*
X020136Y016014D01*
X020178Y016041D01*
X020222Y016065D01*
X020268Y016086D01*
X020315Y016102D01*
X020363Y016115D01*
X020413Y016124D01*
X020462Y016129D01*
X020513Y016130D01*
X020563Y016127D01*
X020612Y016120D01*
X020661Y016109D01*
X020709Y016094D01*
X020755Y016076D01*
X020800Y016054D01*
X020843Y016028D01*
X020884Y015999D01*
X020923Y015967D01*
X020959Y015932D01*
X020991Y015894D01*
X021021Y015854D01*
X021048Y015811D01*
X021071Y015767D01*
X021090Y015721D01*
X021106Y015673D01*
X021118Y015624D01*
X021126Y015575D01*
X021130Y015525D01*
X021130Y015475D01*
X021126Y015425D01*
X021118Y015376D01*
X021106Y015327D01*
X021090Y015279D01*
X021071Y015233D01*
X021048Y015189D01*
X021021Y015146D01*
X020991Y015106D01*
X020959Y015068D01*
X020923Y015033D01*
X020884Y015001D01*
X020843Y014972D01*
X020800Y014946D01*
X020755Y014924D01*
X020709Y014906D01*
X020661Y014891D01*
X020612Y014880D01*
X020563Y014873D01*
X020513Y014870D01*
X020462Y014871D01*
X020413Y014876D01*
X020363Y014885D01*
X020315Y014898D01*
X020268Y014914D01*
X020222Y014935D01*
X020178Y014959D01*
X020136Y014986D01*
X020096Y015016D01*
X020059Y015050D01*
X020025Y015087D01*
X019993Y015126D01*
X019965Y015167D01*
X019940Y015211D01*
X019919Y015256D01*
X019902Y015303D01*
X019888Y015351D01*
X019878Y015400D01*
X019872Y015450D01*
X019870Y015500D01*
X019933Y010750D02*
X019935Y010800D01*
X019941Y010850D01*
X019951Y010899D01*
X019965Y010947D01*
X019982Y010994D01*
X020003Y011039D01*
X020028Y011083D01*
X020056Y011124D01*
X020088Y011163D01*
X020122Y011200D01*
X020159Y011234D01*
X020199Y011264D01*
X020241Y011291D01*
X020285Y011315D01*
X020331Y011336D01*
X020378Y011352D01*
X020426Y011365D01*
X020476Y011374D01*
X020525Y011379D01*
X020576Y011380D01*
X020626Y011377D01*
X020675Y011370D01*
X020724Y011359D01*
X020772Y011344D01*
X020818Y011326D01*
X020863Y011304D01*
X020906Y011278D01*
X020947Y011249D01*
X020986Y011217D01*
X021022Y011182D01*
X021054Y011144D01*
X021084Y011104D01*
X021111Y011061D01*
X021134Y011017D01*
X021153Y010971D01*
X021169Y010923D01*
X021181Y010874D01*
X021189Y010825D01*
X021193Y010775D01*
X021193Y010725D01*
X021189Y010675D01*
X021181Y010626D01*
X021169Y010577D01*
X021153Y010529D01*
X021134Y010483D01*
X021111Y010439D01*
X021084Y010396D01*
X021054Y010356D01*
X021022Y010318D01*
X020986Y010283D01*
X020947Y010251D01*
X020906Y010222D01*
X020863Y010196D01*
X020818Y010174D01*
X020772Y010156D01*
X020724Y010141D01*
X020675Y010130D01*
X020626Y010123D01*
X020576Y010120D01*
X020525Y010121D01*
X020476Y010126D01*
X020426Y010135D01*
X020378Y010148D01*
X020331Y010164D01*
X020285Y010185D01*
X020241Y010209D01*
X020199Y010236D01*
X020159Y010266D01*
X020122Y010300D01*
X020088Y010337D01*
X020056Y010376D01*
X020028Y010417D01*
X020003Y010461D01*
X019982Y010506D01*
X019965Y010553D01*
X019951Y010601D01*
X019941Y010650D01*
X019935Y010700D01*
X019933Y010750D01*
D11*
X012135Y006493D02*
X012535Y006493D01*
X012935Y006893D01*
X012935Y006093D01*
X012535Y006493D01*
X002475Y024875D02*
X002875Y024875D01*
X003275Y025275D01*
X003275Y024475D01*
X002875Y024875D01*
X011225Y021875D02*
X011625Y021875D01*
X012025Y022275D01*
X012025Y021475D01*
X011625Y021875D01*
X002100Y011500D02*
X002500Y011500D01*
X002900Y011900D01*
X002900Y011100D01*
X002500Y011500D01*
X015225Y017063D02*
X015625Y017063D01*
X016025Y017463D01*
X016025Y016663D01*
X015625Y017063D01*
X018600Y017063D02*
X019000Y017063D01*
X019400Y017463D01*
X019400Y016663D01*
X019000Y017063D01*
X015038Y023563D02*
X015438Y023563D01*
X015838Y023963D01*
X015838Y023163D01*
X015438Y023563D01*
X018538Y021063D02*
X018938Y021063D01*
X019338Y021463D01*
X019338Y020663D01*
X018938Y021063D01*
X014588Y015500D02*
X013788Y015500D01*
X014188Y015100D02*
X014188Y015900D01*
X013798Y015500D02*
X013800Y015539D01*
X013806Y015577D01*
X013815Y015615D01*
X013829Y015651D01*
X013845Y015687D01*
X013866Y015720D01*
X013889Y015751D01*
X013916Y015779D01*
X013945Y015805D01*
X013976Y015828D01*
X014010Y015847D01*
X014046Y015863D01*
X014082Y015875D01*
X014120Y015884D01*
X014159Y015889D01*
X014198Y015890D01*
X014236Y015887D01*
X014275Y015880D01*
X014312Y015870D01*
X014348Y015855D01*
X014383Y015838D01*
X014416Y015817D01*
X014446Y015792D01*
X014474Y015765D01*
X014499Y015735D01*
X014521Y015703D01*
X014539Y015669D01*
X014554Y015633D01*
X014566Y015596D01*
X014574Y015558D01*
X014578Y015519D01*
X014578Y015481D01*
X014574Y015442D01*
X014566Y015404D01*
X014554Y015367D01*
X014539Y015331D01*
X014521Y015297D01*
X014499Y015265D01*
X014474Y015235D01*
X014446Y015208D01*
X014416Y015183D01*
X014383Y015162D01*
X014348Y015145D01*
X014312Y015130D01*
X014275Y015120D01*
X014236Y015113D01*
X014198Y015110D01*
X014159Y015111D01*
X014120Y015116D01*
X014082Y015125D01*
X014046Y015137D01*
X014010Y015153D01*
X013976Y015172D01*
X013945Y015195D01*
X013916Y015221D01*
X013889Y015249D01*
X013866Y015280D01*
X013845Y015313D01*
X013829Y015349D01*
X013815Y015385D01*
X013806Y015423D01*
X013800Y015461D01*
X013798Y015500D01*
X013993Y015500D02*
X013995Y015528D01*
X014001Y015555D01*
X014011Y015581D01*
X014024Y015605D01*
X014041Y015628D01*
X014060Y015647D01*
X014083Y015664D01*
X014107Y015677D01*
X014133Y015687D01*
X014160Y015693D01*
X014188Y015695D01*
X014216Y015693D01*
X014243Y015687D01*
X014269Y015677D01*
X014293Y015664D01*
X014316Y015647D01*
X014335Y015628D01*
X014352Y015605D01*
X014365Y015581D01*
X014375Y015555D01*
X014381Y015528D01*
X014383Y015500D01*
X014381Y015472D01*
X014375Y015445D01*
X014365Y015419D01*
X014352Y015395D01*
X014335Y015372D01*
X014316Y015353D01*
X014293Y015336D01*
X014269Y015323D01*
X014243Y015313D01*
X014216Y015307D01*
X014188Y015305D01*
X014160Y015307D01*
X014133Y015313D01*
X014107Y015323D01*
X014083Y015336D01*
X014060Y015353D01*
X014041Y015372D01*
X014024Y015395D01*
X014011Y015419D01*
X014001Y015445D01*
X013995Y015472D01*
X013993Y015500D01*
X020100Y015500D02*
X020900Y015500D01*
X020500Y015100D02*
X020500Y015900D01*
X020110Y015500D02*
X020112Y015539D01*
X020118Y015577D01*
X020127Y015615D01*
X020141Y015651D01*
X020157Y015687D01*
X020178Y015720D01*
X020201Y015751D01*
X020228Y015779D01*
X020257Y015805D01*
X020288Y015828D01*
X020322Y015847D01*
X020358Y015863D01*
X020394Y015875D01*
X020432Y015884D01*
X020471Y015889D01*
X020510Y015890D01*
X020548Y015887D01*
X020587Y015880D01*
X020624Y015870D01*
X020660Y015855D01*
X020695Y015838D01*
X020728Y015817D01*
X020758Y015792D01*
X020786Y015765D01*
X020811Y015735D01*
X020833Y015703D01*
X020851Y015669D01*
X020866Y015633D01*
X020878Y015596D01*
X020886Y015558D01*
X020890Y015519D01*
X020890Y015481D01*
X020886Y015442D01*
X020878Y015404D01*
X020866Y015367D01*
X020851Y015331D01*
X020833Y015297D01*
X020811Y015265D01*
X020786Y015235D01*
X020758Y015208D01*
X020728Y015183D01*
X020695Y015162D01*
X020660Y015145D01*
X020624Y015130D01*
X020587Y015120D01*
X020548Y015113D01*
X020510Y015110D01*
X020471Y015111D01*
X020432Y015116D01*
X020394Y015125D01*
X020358Y015137D01*
X020322Y015153D01*
X020288Y015172D01*
X020257Y015195D01*
X020228Y015221D01*
X020201Y015249D01*
X020178Y015280D01*
X020157Y015313D01*
X020141Y015349D01*
X020127Y015385D01*
X020118Y015423D01*
X020112Y015461D01*
X020110Y015500D01*
X020305Y015500D02*
X020307Y015528D01*
X020313Y015555D01*
X020323Y015581D01*
X020336Y015605D01*
X020353Y015628D01*
X020372Y015647D01*
X020395Y015664D01*
X020419Y015677D01*
X020445Y015687D01*
X020472Y015693D01*
X020500Y015695D01*
X020528Y015693D01*
X020555Y015687D01*
X020581Y015677D01*
X020605Y015664D01*
X020628Y015647D01*
X020647Y015628D01*
X020664Y015605D01*
X020677Y015581D01*
X020687Y015555D01*
X020693Y015528D01*
X020695Y015500D01*
X020693Y015472D01*
X020687Y015445D01*
X020677Y015419D01*
X020664Y015395D01*
X020647Y015372D01*
X020628Y015353D01*
X020605Y015336D01*
X020581Y015323D01*
X020555Y015313D01*
X020528Y015307D01*
X020500Y015305D01*
X020472Y015307D01*
X020445Y015313D01*
X020419Y015323D01*
X020395Y015336D01*
X020372Y015353D01*
X020353Y015372D01*
X020336Y015395D01*
X020323Y015419D01*
X020313Y015445D01*
X020307Y015472D01*
X020305Y015500D01*
X020163Y010750D02*
X020963Y010750D01*
X020563Y010350D02*
X020563Y011150D01*
X020173Y010750D02*
X020175Y010789D01*
X020181Y010827D01*
X020190Y010865D01*
X020204Y010901D01*
X020220Y010937D01*
X020241Y010970D01*
X020264Y011001D01*
X020291Y011029D01*
X020320Y011055D01*
X020351Y011078D01*
X020385Y011097D01*
X020421Y011113D01*
X020457Y011125D01*
X020495Y011134D01*
X020534Y011139D01*
X020573Y011140D01*
X020611Y011137D01*
X020650Y011130D01*
X020687Y011120D01*
X020723Y011105D01*
X020758Y011088D01*
X020791Y011067D01*
X020821Y011042D01*
X020849Y011015D01*
X020874Y010985D01*
X020896Y010953D01*
X020914Y010919D01*
X020929Y010883D01*
X020941Y010846D01*
X020949Y010808D01*
X020953Y010769D01*
X020953Y010731D01*
X020949Y010692D01*
X020941Y010654D01*
X020929Y010617D01*
X020914Y010581D01*
X020896Y010547D01*
X020874Y010515D01*
X020849Y010485D01*
X020821Y010458D01*
X020791Y010433D01*
X020758Y010412D01*
X020723Y010395D01*
X020687Y010380D01*
X020650Y010370D01*
X020611Y010363D01*
X020573Y010360D01*
X020534Y010361D01*
X020495Y010366D01*
X020457Y010375D01*
X020421Y010387D01*
X020385Y010403D01*
X020351Y010422D01*
X020320Y010445D01*
X020291Y010471D01*
X020264Y010499D01*
X020241Y010530D01*
X020220Y010563D01*
X020204Y010599D01*
X020190Y010635D01*
X020181Y010673D01*
X020175Y010711D01*
X020173Y010750D01*
X020368Y010750D02*
X020370Y010778D01*
X020376Y010805D01*
X020386Y010831D01*
X020399Y010855D01*
X020416Y010878D01*
X020435Y010897D01*
X020458Y010914D01*
X020482Y010927D01*
X020508Y010937D01*
X020535Y010943D01*
X020563Y010945D01*
X020591Y010943D01*
X020618Y010937D01*
X020644Y010927D01*
X020668Y010914D01*
X020691Y010897D01*
X020710Y010878D01*
X020727Y010855D01*
X020740Y010831D01*
X020750Y010805D01*
X020756Y010778D01*
X020758Y010750D01*
X020756Y010722D01*
X020750Y010695D01*
X020740Y010669D01*
X020727Y010645D01*
X020710Y010622D01*
X020691Y010603D01*
X020668Y010586D01*
X020644Y010573D01*
X020618Y010563D01*
X020591Y010557D01*
X020563Y010555D01*
X020535Y010557D01*
X020508Y010563D01*
X020482Y010573D01*
X020458Y010586D01*
X020435Y010603D01*
X020416Y010622D01*
X020399Y010645D01*
X020386Y010669D01*
X020376Y010695D01*
X020370Y010722D01*
X020368Y010750D01*
X006235Y025250D02*
X006237Y025289D01*
X006243Y025327D01*
X006252Y025365D01*
X006266Y025401D01*
X006282Y025437D01*
X006303Y025470D01*
X006326Y025501D01*
X006353Y025529D01*
X006382Y025555D01*
X006413Y025578D01*
X006447Y025597D01*
X006483Y025613D01*
X006519Y025625D01*
X006557Y025634D01*
X006596Y025639D01*
X006635Y025640D01*
X006673Y025637D01*
X006712Y025630D01*
X006749Y025620D01*
X006785Y025605D01*
X006820Y025588D01*
X006853Y025567D01*
X006883Y025542D01*
X006911Y025515D01*
X006936Y025485D01*
X006958Y025453D01*
X006976Y025419D01*
X006991Y025383D01*
X007003Y025346D01*
X007011Y025308D01*
X007015Y025269D01*
X007015Y025231D01*
X007011Y025192D01*
X007003Y025154D01*
X006991Y025117D01*
X006976Y025081D01*
X006958Y025047D01*
X006936Y025015D01*
X006911Y024985D01*
X006883Y024958D01*
X006853Y024933D01*
X006820Y024912D01*
X006785Y024895D01*
X006749Y024880D01*
X006712Y024870D01*
X006673Y024863D01*
X006635Y024860D01*
X006596Y024861D01*
X006557Y024866D01*
X006519Y024875D01*
X006483Y024887D01*
X006447Y024903D01*
X006413Y024922D01*
X006382Y024945D01*
X006353Y024971D01*
X006326Y024999D01*
X006303Y025030D01*
X006282Y025063D01*
X006266Y025099D01*
X006252Y025135D01*
X006243Y025173D01*
X006237Y025211D01*
X006235Y025250D01*
X006225Y024850D02*
X007025Y025650D01*
X006235Y024250D02*
X006237Y024289D01*
X006243Y024327D01*
X006252Y024365D01*
X006266Y024401D01*
X006282Y024437D01*
X006303Y024470D01*
X006326Y024501D01*
X006353Y024529D01*
X006382Y024555D01*
X006413Y024578D01*
X006447Y024597D01*
X006483Y024613D01*
X006519Y024625D01*
X006557Y024634D01*
X006596Y024639D01*
X006635Y024640D01*
X006673Y024637D01*
X006712Y024630D01*
X006749Y024620D01*
X006785Y024605D01*
X006820Y024588D01*
X006853Y024567D01*
X006883Y024542D01*
X006911Y024515D01*
X006936Y024485D01*
X006958Y024453D01*
X006976Y024419D01*
X006991Y024383D01*
X007003Y024346D01*
X007011Y024308D01*
X007015Y024269D01*
X007015Y024231D01*
X007011Y024192D01*
X007003Y024154D01*
X006991Y024117D01*
X006976Y024081D01*
X006958Y024047D01*
X006936Y024015D01*
X006911Y023985D01*
X006883Y023958D01*
X006853Y023933D01*
X006820Y023912D01*
X006785Y023895D01*
X006749Y023880D01*
X006712Y023870D01*
X006673Y023863D01*
X006635Y023860D01*
X006596Y023861D01*
X006557Y023866D01*
X006519Y023875D01*
X006483Y023887D01*
X006447Y023903D01*
X006413Y023922D01*
X006382Y023945D01*
X006353Y023971D01*
X006326Y023999D01*
X006303Y024030D01*
X006282Y024063D01*
X006266Y024099D01*
X006252Y024135D01*
X006243Y024173D01*
X006237Y024211D01*
X006235Y024250D01*
X006225Y023850D02*
X007025Y024650D01*
X006235Y023250D02*
X006237Y023289D01*
X006243Y023327D01*
X006252Y023365D01*
X006266Y023401D01*
X006282Y023437D01*
X006303Y023470D01*
X006326Y023501D01*
X006353Y023529D01*
X006382Y023555D01*
X006413Y023578D01*
X006447Y023597D01*
X006483Y023613D01*
X006519Y023625D01*
X006557Y023634D01*
X006596Y023639D01*
X006635Y023640D01*
X006673Y023637D01*
X006712Y023630D01*
X006749Y023620D01*
X006785Y023605D01*
X006820Y023588D01*
X006853Y023567D01*
X006883Y023542D01*
X006911Y023515D01*
X006936Y023485D01*
X006958Y023453D01*
X006976Y023419D01*
X006991Y023383D01*
X007003Y023346D01*
X007011Y023308D01*
X007015Y023269D01*
X007015Y023231D01*
X007011Y023192D01*
X007003Y023154D01*
X006991Y023117D01*
X006976Y023081D01*
X006958Y023047D01*
X006936Y023015D01*
X006911Y022985D01*
X006883Y022958D01*
X006853Y022933D01*
X006820Y022912D01*
X006785Y022895D01*
X006749Y022880D01*
X006712Y022870D01*
X006673Y022863D01*
X006635Y022860D01*
X006596Y022861D01*
X006557Y022866D01*
X006519Y022875D01*
X006483Y022887D01*
X006447Y022903D01*
X006413Y022922D01*
X006382Y022945D01*
X006353Y022971D01*
X006326Y022999D01*
X006303Y023030D01*
X006282Y023063D01*
X006266Y023099D01*
X006252Y023135D01*
X006243Y023173D01*
X006237Y023211D01*
X006235Y023250D01*
X006225Y022850D02*
X007025Y023650D01*
X006235Y022250D02*
X006237Y022289D01*
X006243Y022327D01*
X006252Y022365D01*
X006266Y022401D01*
X006282Y022437D01*
X006303Y022470D01*
X006326Y022501D01*
X006353Y022529D01*
X006382Y022555D01*
X006413Y022578D01*
X006447Y022597D01*
X006483Y022613D01*
X006519Y022625D01*
X006557Y022634D01*
X006596Y022639D01*
X006635Y022640D01*
X006673Y022637D01*
X006712Y022630D01*
X006749Y022620D01*
X006785Y022605D01*
X006820Y022588D01*
X006853Y022567D01*
X006883Y022542D01*
X006911Y022515D01*
X006936Y022485D01*
X006958Y022453D01*
X006976Y022419D01*
X006991Y022383D01*
X007003Y022346D01*
X007011Y022308D01*
X007015Y022269D01*
X007015Y022231D01*
X007011Y022192D01*
X007003Y022154D01*
X006991Y022117D01*
X006976Y022081D01*
X006958Y022047D01*
X006936Y022015D01*
X006911Y021985D01*
X006883Y021958D01*
X006853Y021933D01*
X006820Y021912D01*
X006785Y021895D01*
X006749Y021880D01*
X006712Y021870D01*
X006673Y021863D01*
X006635Y021860D01*
X006596Y021861D01*
X006557Y021866D01*
X006519Y021875D01*
X006483Y021887D01*
X006447Y021903D01*
X006413Y021922D01*
X006382Y021945D01*
X006353Y021971D01*
X006326Y021999D01*
X006303Y022030D01*
X006282Y022063D01*
X006266Y022099D01*
X006252Y022135D01*
X006243Y022173D01*
X006237Y022211D01*
X006235Y022250D01*
X006225Y021850D02*
X007025Y022650D01*
X006235Y021250D02*
X006237Y021289D01*
X006243Y021327D01*
X006252Y021365D01*
X006266Y021401D01*
X006282Y021437D01*
X006303Y021470D01*
X006326Y021501D01*
X006353Y021529D01*
X006382Y021555D01*
X006413Y021578D01*
X006447Y021597D01*
X006483Y021613D01*
X006519Y021625D01*
X006557Y021634D01*
X006596Y021639D01*
X006635Y021640D01*
X006673Y021637D01*
X006712Y021630D01*
X006749Y021620D01*
X006785Y021605D01*
X006820Y021588D01*
X006853Y021567D01*
X006883Y021542D01*
X006911Y021515D01*
X006936Y021485D01*
X006958Y021453D01*
X006976Y021419D01*
X006991Y021383D01*
X007003Y021346D01*
X007011Y021308D01*
X007015Y021269D01*
X007015Y021231D01*
X007011Y021192D01*
X007003Y021154D01*
X006991Y021117D01*
X006976Y021081D01*
X006958Y021047D01*
X006936Y021015D01*
X006911Y020985D01*
X006883Y020958D01*
X006853Y020933D01*
X006820Y020912D01*
X006785Y020895D01*
X006749Y020880D01*
X006712Y020870D01*
X006673Y020863D01*
X006635Y020860D01*
X006596Y020861D01*
X006557Y020866D01*
X006519Y020875D01*
X006483Y020887D01*
X006447Y020903D01*
X006413Y020922D01*
X006382Y020945D01*
X006353Y020971D01*
X006326Y020999D01*
X006303Y021030D01*
X006282Y021063D01*
X006266Y021099D01*
X006252Y021135D01*
X006243Y021173D01*
X006237Y021211D01*
X006235Y021250D01*
X006225Y020850D02*
X007025Y021650D01*
X006235Y020250D02*
X006237Y020289D01*
X006243Y020327D01*
X006252Y020365D01*
X006266Y020401D01*
X006282Y020437D01*
X006303Y020470D01*
X006326Y020501D01*
X006353Y020529D01*
X006382Y020555D01*
X006413Y020578D01*
X006447Y020597D01*
X006483Y020613D01*
X006519Y020625D01*
X006557Y020634D01*
X006596Y020639D01*
X006635Y020640D01*
X006673Y020637D01*
X006712Y020630D01*
X006749Y020620D01*
X006785Y020605D01*
X006820Y020588D01*
X006853Y020567D01*
X006883Y020542D01*
X006911Y020515D01*
X006936Y020485D01*
X006958Y020453D01*
X006976Y020419D01*
X006991Y020383D01*
X007003Y020346D01*
X007011Y020308D01*
X007015Y020269D01*
X007015Y020231D01*
X007011Y020192D01*
X007003Y020154D01*
X006991Y020117D01*
X006976Y020081D01*
X006958Y020047D01*
X006936Y020015D01*
X006911Y019985D01*
X006883Y019958D01*
X006853Y019933D01*
X006820Y019912D01*
X006785Y019895D01*
X006749Y019880D01*
X006712Y019870D01*
X006673Y019863D01*
X006635Y019860D01*
X006596Y019861D01*
X006557Y019866D01*
X006519Y019875D01*
X006483Y019887D01*
X006447Y019903D01*
X006413Y019922D01*
X006382Y019945D01*
X006353Y019971D01*
X006326Y019999D01*
X006303Y020030D01*
X006282Y020063D01*
X006266Y020099D01*
X006252Y020135D01*
X006243Y020173D01*
X006237Y020211D01*
X006235Y020250D01*
X006225Y019850D02*
X007025Y020650D01*
X006235Y019250D02*
X006237Y019289D01*
X006243Y019327D01*
X006252Y019365D01*
X006266Y019401D01*
X006282Y019437D01*
X006303Y019470D01*
X006326Y019501D01*
X006353Y019529D01*
X006382Y019555D01*
X006413Y019578D01*
X006447Y019597D01*
X006483Y019613D01*
X006519Y019625D01*
X006557Y019634D01*
X006596Y019639D01*
X006635Y019640D01*
X006673Y019637D01*
X006712Y019630D01*
X006749Y019620D01*
X006785Y019605D01*
X006820Y019588D01*
X006853Y019567D01*
X006883Y019542D01*
X006911Y019515D01*
X006936Y019485D01*
X006958Y019453D01*
X006976Y019419D01*
X006991Y019383D01*
X007003Y019346D01*
X007011Y019308D01*
X007015Y019269D01*
X007015Y019231D01*
X007011Y019192D01*
X007003Y019154D01*
X006991Y019117D01*
X006976Y019081D01*
X006958Y019047D01*
X006936Y019015D01*
X006911Y018985D01*
X006883Y018958D01*
X006853Y018933D01*
X006820Y018912D01*
X006785Y018895D01*
X006749Y018880D01*
X006712Y018870D01*
X006673Y018863D01*
X006635Y018860D01*
X006596Y018861D01*
X006557Y018866D01*
X006519Y018875D01*
X006483Y018887D01*
X006447Y018903D01*
X006413Y018922D01*
X006382Y018945D01*
X006353Y018971D01*
X006326Y018999D01*
X006303Y019030D01*
X006282Y019063D01*
X006266Y019099D01*
X006252Y019135D01*
X006243Y019173D01*
X006237Y019211D01*
X006235Y019250D01*
X006225Y018850D02*
X007025Y019650D01*
X006235Y018250D02*
X006237Y018289D01*
X006243Y018327D01*
X006252Y018365D01*
X006266Y018401D01*
X006282Y018437D01*
X006303Y018470D01*
X006326Y018501D01*
X006353Y018529D01*
X006382Y018555D01*
X006413Y018578D01*
X006447Y018597D01*
X006483Y018613D01*
X006519Y018625D01*
X006557Y018634D01*
X006596Y018639D01*
X006635Y018640D01*
X006673Y018637D01*
X006712Y018630D01*
X006749Y018620D01*
X006785Y018605D01*
X006820Y018588D01*
X006853Y018567D01*
X006883Y018542D01*
X006911Y018515D01*
X006936Y018485D01*
X006958Y018453D01*
X006976Y018419D01*
X006991Y018383D01*
X007003Y018346D01*
X007011Y018308D01*
X007015Y018269D01*
X007015Y018231D01*
X007011Y018192D01*
X007003Y018154D01*
X006991Y018117D01*
X006976Y018081D01*
X006958Y018047D01*
X006936Y018015D01*
X006911Y017985D01*
X006883Y017958D01*
X006853Y017933D01*
X006820Y017912D01*
X006785Y017895D01*
X006749Y017880D01*
X006712Y017870D01*
X006673Y017863D01*
X006635Y017860D01*
X006596Y017861D01*
X006557Y017866D01*
X006519Y017875D01*
X006483Y017887D01*
X006447Y017903D01*
X006413Y017922D01*
X006382Y017945D01*
X006353Y017971D01*
X006326Y017999D01*
X006303Y018030D01*
X006282Y018063D01*
X006266Y018099D01*
X006252Y018135D01*
X006243Y018173D01*
X006237Y018211D01*
X006235Y018250D01*
X006225Y017850D02*
X007025Y018650D01*
X006235Y017250D02*
X006237Y017289D01*
X006243Y017327D01*
X006252Y017365D01*
X006266Y017401D01*
X006282Y017437D01*
X006303Y017470D01*
X006326Y017501D01*
X006353Y017529D01*
X006382Y017555D01*
X006413Y017578D01*
X006447Y017597D01*
X006483Y017613D01*
X006519Y017625D01*
X006557Y017634D01*
X006596Y017639D01*
X006635Y017640D01*
X006673Y017637D01*
X006712Y017630D01*
X006749Y017620D01*
X006785Y017605D01*
X006820Y017588D01*
X006853Y017567D01*
X006883Y017542D01*
X006911Y017515D01*
X006936Y017485D01*
X006958Y017453D01*
X006976Y017419D01*
X006991Y017383D01*
X007003Y017346D01*
X007011Y017308D01*
X007015Y017269D01*
X007015Y017231D01*
X007011Y017192D01*
X007003Y017154D01*
X006991Y017117D01*
X006976Y017081D01*
X006958Y017047D01*
X006936Y017015D01*
X006911Y016985D01*
X006883Y016958D01*
X006853Y016933D01*
X006820Y016912D01*
X006785Y016895D01*
X006749Y016880D01*
X006712Y016870D01*
X006673Y016863D01*
X006635Y016860D01*
X006596Y016861D01*
X006557Y016866D01*
X006519Y016875D01*
X006483Y016887D01*
X006447Y016903D01*
X006413Y016922D01*
X006382Y016945D01*
X006353Y016971D01*
X006326Y016999D01*
X006303Y017030D01*
X006282Y017063D01*
X006266Y017099D01*
X006252Y017135D01*
X006243Y017173D01*
X006237Y017211D01*
X006235Y017250D01*
X006225Y016850D02*
X007025Y017650D01*
X006235Y016250D02*
X006237Y016289D01*
X006243Y016327D01*
X006252Y016365D01*
X006266Y016401D01*
X006282Y016437D01*
X006303Y016470D01*
X006326Y016501D01*
X006353Y016529D01*
X006382Y016555D01*
X006413Y016578D01*
X006447Y016597D01*
X006483Y016613D01*
X006519Y016625D01*
X006557Y016634D01*
X006596Y016639D01*
X006635Y016640D01*
X006673Y016637D01*
X006712Y016630D01*
X006749Y016620D01*
X006785Y016605D01*
X006820Y016588D01*
X006853Y016567D01*
X006883Y016542D01*
X006911Y016515D01*
X006936Y016485D01*
X006958Y016453D01*
X006976Y016419D01*
X006991Y016383D01*
X007003Y016346D01*
X007011Y016308D01*
X007015Y016269D01*
X007015Y016231D01*
X007011Y016192D01*
X007003Y016154D01*
X006991Y016117D01*
X006976Y016081D01*
X006958Y016047D01*
X006936Y016015D01*
X006911Y015985D01*
X006883Y015958D01*
X006853Y015933D01*
X006820Y015912D01*
X006785Y015895D01*
X006749Y015880D01*
X006712Y015870D01*
X006673Y015863D01*
X006635Y015860D01*
X006596Y015861D01*
X006557Y015866D01*
X006519Y015875D01*
X006483Y015887D01*
X006447Y015903D01*
X006413Y015922D01*
X006382Y015945D01*
X006353Y015971D01*
X006326Y015999D01*
X006303Y016030D01*
X006282Y016063D01*
X006266Y016099D01*
X006252Y016135D01*
X006243Y016173D01*
X006237Y016211D01*
X006235Y016250D01*
X006225Y015850D02*
X007025Y016650D01*
X006235Y015250D02*
X006237Y015289D01*
X006243Y015327D01*
X006252Y015365D01*
X006266Y015401D01*
X006282Y015437D01*
X006303Y015470D01*
X006326Y015501D01*
X006353Y015529D01*
X006382Y015555D01*
X006413Y015578D01*
X006447Y015597D01*
X006483Y015613D01*
X006519Y015625D01*
X006557Y015634D01*
X006596Y015639D01*
X006635Y015640D01*
X006673Y015637D01*
X006712Y015630D01*
X006749Y015620D01*
X006785Y015605D01*
X006820Y015588D01*
X006853Y015567D01*
X006883Y015542D01*
X006911Y015515D01*
X006936Y015485D01*
X006958Y015453D01*
X006976Y015419D01*
X006991Y015383D01*
X007003Y015346D01*
X007011Y015308D01*
X007015Y015269D01*
X007015Y015231D01*
X007011Y015192D01*
X007003Y015154D01*
X006991Y015117D01*
X006976Y015081D01*
X006958Y015047D01*
X006936Y015015D01*
X006911Y014985D01*
X006883Y014958D01*
X006853Y014933D01*
X006820Y014912D01*
X006785Y014895D01*
X006749Y014880D01*
X006712Y014870D01*
X006673Y014863D01*
X006635Y014860D01*
X006596Y014861D01*
X006557Y014866D01*
X006519Y014875D01*
X006483Y014887D01*
X006447Y014903D01*
X006413Y014922D01*
X006382Y014945D01*
X006353Y014971D01*
X006326Y014999D01*
X006303Y015030D01*
X006282Y015063D01*
X006266Y015099D01*
X006252Y015135D01*
X006243Y015173D01*
X006237Y015211D01*
X006235Y015250D01*
X006225Y014850D02*
X007025Y015650D01*
X006235Y014250D02*
X006237Y014289D01*
X006243Y014327D01*
X006252Y014365D01*
X006266Y014401D01*
X006282Y014437D01*
X006303Y014470D01*
X006326Y014501D01*
X006353Y014529D01*
X006382Y014555D01*
X006413Y014578D01*
X006447Y014597D01*
X006483Y014613D01*
X006519Y014625D01*
X006557Y014634D01*
X006596Y014639D01*
X006635Y014640D01*
X006673Y014637D01*
X006712Y014630D01*
X006749Y014620D01*
X006785Y014605D01*
X006820Y014588D01*
X006853Y014567D01*
X006883Y014542D01*
X006911Y014515D01*
X006936Y014485D01*
X006958Y014453D01*
X006976Y014419D01*
X006991Y014383D01*
X007003Y014346D01*
X007011Y014308D01*
X007015Y014269D01*
X007015Y014231D01*
X007011Y014192D01*
X007003Y014154D01*
X006991Y014117D01*
X006976Y014081D01*
X006958Y014047D01*
X006936Y014015D01*
X006911Y013985D01*
X006883Y013958D01*
X006853Y013933D01*
X006820Y013912D01*
X006785Y013895D01*
X006749Y013880D01*
X006712Y013870D01*
X006673Y013863D01*
X006635Y013860D01*
X006596Y013861D01*
X006557Y013866D01*
X006519Y013875D01*
X006483Y013887D01*
X006447Y013903D01*
X006413Y013922D01*
X006382Y013945D01*
X006353Y013971D01*
X006326Y013999D01*
X006303Y014030D01*
X006282Y014063D01*
X006266Y014099D01*
X006252Y014135D01*
X006243Y014173D01*
X006237Y014211D01*
X006235Y014250D01*
X006225Y013850D02*
X007025Y014650D01*
X006235Y013250D02*
X006237Y013289D01*
X006243Y013327D01*
X006252Y013365D01*
X006266Y013401D01*
X006282Y013437D01*
X006303Y013470D01*
X006326Y013501D01*
X006353Y013529D01*
X006382Y013555D01*
X006413Y013578D01*
X006447Y013597D01*
X006483Y013613D01*
X006519Y013625D01*
X006557Y013634D01*
X006596Y013639D01*
X006635Y013640D01*
X006673Y013637D01*
X006712Y013630D01*
X006749Y013620D01*
X006785Y013605D01*
X006820Y013588D01*
X006853Y013567D01*
X006883Y013542D01*
X006911Y013515D01*
X006936Y013485D01*
X006958Y013453D01*
X006976Y013419D01*
X006991Y013383D01*
X007003Y013346D01*
X007011Y013308D01*
X007015Y013269D01*
X007015Y013231D01*
X007011Y013192D01*
X007003Y013154D01*
X006991Y013117D01*
X006976Y013081D01*
X006958Y013047D01*
X006936Y013015D01*
X006911Y012985D01*
X006883Y012958D01*
X006853Y012933D01*
X006820Y012912D01*
X006785Y012895D01*
X006749Y012880D01*
X006712Y012870D01*
X006673Y012863D01*
X006635Y012860D01*
X006596Y012861D01*
X006557Y012866D01*
X006519Y012875D01*
X006483Y012887D01*
X006447Y012903D01*
X006413Y012922D01*
X006382Y012945D01*
X006353Y012971D01*
X006326Y012999D01*
X006303Y013030D01*
X006282Y013063D01*
X006266Y013099D01*
X006252Y013135D01*
X006243Y013173D01*
X006237Y013211D01*
X006235Y013250D01*
X006225Y012850D02*
X007025Y013650D01*
X006235Y012250D02*
X006237Y012289D01*
X006243Y012327D01*
X006252Y012365D01*
X006266Y012401D01*
X006282Y012437D01*
X006303Y012470D01*
X006326Y012501D01*
X006353Y012529D01*
X006382Y012555D01*
X006413Y012578D01*
X006447Y012597D01*
X006483Y012613D01*
X006519Y012625D01*
X006557Y012634D01*
X006596Y012639D01*
X006635Y012640D01*
X006673Y012637D01*
X006712Y012630D01*
X006749Y012620D01*
X006785Y012605D01*
X006820Y012588D01*
X006853Y012567D01*
X006883Y012542D01*
X006911Y012515D01*
X006936Y012485D01*
X006958Y012453D01*
X006976Y012419D01*
X006991Y012383D01*
X007003Y012346D01*
X007011Y012308D01*
X007015Y012269D01*
X007015Y012231D01*
X007011Y012192D01*
X007003Y012154D01*
X006991Y012117D01*
X006976Y012081D01*
X006958Y012047D01*
X006936Y012015D01*
X006911Y011985D01*
X006883Y011958D01*
X006853Y011933D01*
X006820Y011912D01*
X006785Y011895D01*
X006749Y011880D01*
X006712Y011870D01*
X006673Y011863D01*
X006635Y011860D01*
X006596Y011861D01*
X006557Y011866D01*
X006519Y011875D01*
X006483Y011887D01*
X006447Y011903D01*
X006413Y011922D01*
X006382Y011945D01*
X006353Y011971D01*
X006326Y011999D01*
X006303Y012030D01*
X006282Y012063D01*
X006266Y012099D01*
X006252Y012135D01*
X006243Y012173D01*
X006237Y012211D01*
X006235Y012250D01*
X006225Y011850D02*
X007025Y012650D01*
X009235Y012250D02*
X009237Y012289D01*
X009243Y012327D01*
X009252Y012365D01*
X009266Y012401D01*
X009282Y012437D01*
X009303Y012470D01*
X009326Y012501D01*
X009353Y012529D01*
X009382Y012555D01*
X009413Y012578D01*
X009447Y012597D01*
X009483Y012613D01*
X009519Y012625D01*
X009557Y012634D01*
X009596Y012639D01*
X009635Y012640D01*
X009673Y012637D01*
X009712Y012630D01*
X009749Y012620D01*
X009785Y012605D01*
X009820Y012588D01*
X009853Y012567D01*
X009883Y012542D01*
X009911Y012515D01*
X009936Y012485D01*
X009958Y012453D01*
X009976Y012419D01*
X009991Y012383D01*
X010003Y012346D01*
X010011Y012308D01*
X010015Y012269D01*
X010015Y012231D01*
X010011Y012192D01*
X010003Y012154D01*
X009991Y012117D01*
X009976Y012081D01*
X009958Y012047D01*
X009936Y012015D01*
X009911Y011985D01*
X009883Y011958D01*
X009853Y011933D01*
X009820Y011912D01*
X009785Y011895D01*
X009749Y011880D01*
X009712Y011870D01*
X009673Y011863D01*
X009635Y011860D01*
X009596Y011861D01*
X009557Y011866D01*
X009519Y011875D01*
X009483Y011887D01*
X009447Y011903D01*
X009413Y011922D01*
X009382Y011945D01*
X009353Y011971D01*
X009326Y011999D01*
X009303Y012030D01*
X009282Y012063D01*
X009266Y012099D01*
X009252Y012135D01*
X009243Y012173D01*
X009237Y012211D01*
X009235Y012250D01*
X009225Y011850D02*
X010025Y012650D01*
X009235Y013250D02*
X009237Y013289D01*
X009243Y013327D01*
X009252Y013365D01*
X009266Y013401D01*
X009282Y013437D01*
X009303Y013470D01*
X009326Y013501D01*
X009353Y013529D01*
X009382Y013555D01*
X009413Y013578D01*
X009447Y013597D01*
X009483Y013613D01*
X009519Y013625D01*
X009557Y013634D01*
X009596Y013639D01*
X009635Y013640D01*
X009673Y013637D01*
X009712Y013630D01*
X009749Y013620D01*
X009785Y013605D01*
X009820Y013588D01*
X009853Y013567D01*
X009883Y013542D01*
X009911Y013515D01*
X009936Y013485D01*
X009958Y013453D01*
X009976Y013419D01*
X009991Y013383D01*
X010003Y013346D01*
X010011Y013308D01*
X010015Y013269D01*
X010015Y013231D01*
X010011Y013192D01*
X010003Y013154D01*
X009991Y013117D01*
X009976Y013081D01*
X009958Y013047D01*
X009936Y013015D01*
X009911Y012985D01*
X009883Y012958D01*
X009853Y012933D01*
X009820Y012912D01*
X009785Y012895D01*
X009749Y012880D01*
X009712Y012870D01*
X009673Y012863D01*
X009635Y012860D01*
X009596Y012861D01*
X009557Y012866D01*
X009519Y012875D01*
X009483Y012887D01*
X009447Y012903D01*
X009413Y012922D01*
X009382Y012945D01*
X009353Y012971D01*
X009326Y012999D01*
X009303Y013030D01*
X009282Y013063D01*
X009266Y013099D01*
X009252Y013135D01*
X009243Y013173D01*
X009237Y013211D01*
X009235Y013250D01*
X009225Y012850D02*
X010025Y013650D01*
X009235Y014250D02*
X009237Y014289D01*
X009243Y014327D01*
X009252Y014365D01*
X009266Y014401D01*
X009282Y014437D01*
X009303Y014470D01*
X009326Y014501D01*
X009353Y014529D01*
X009382Y014555D01*
X009413Y014578D01*
X009447Y014597D01*
X009483Y014613D01*
X009519Y014625D01*
X009557Y014634D01*
X009596Y014639D01*
X009635Y014640D01*
X009673Y014637D01*
X009712Y014630D01*
X009749Y014620D01*
X009785Y014605D01*
X009820Y014588D01*
X009853Y014567D01*
X009883Y014542D01*
X009911Y014515D01*
X009936Y014485D01*
X009958Y014453D01*
X009976Y014419D01*
X009991Y014383D01*
X010003Y014346D01*
X010011Y014308D01*
X010015Y014269D01*
X010015Y014231D01*
X010011Y014192D01*
X010003Y014154D01*
X009991Y014117D01*
X009976Y014081D01*
X009958Y014047D01*
X009936Y014015D01*
X009911Y013985D01*
X009883Y013958D01*
X009853Y013933D01*
X009820Y013912D01*
X009785Y013895D01*
X009749Y013880D01*
X009712Y013870D01*
X009673Y013863D01*
X009635Y013860D01*
X009596Y013861D01*
X009557Y013866D01*
X009519Y013875D01*
X009483Y013887D01*
X009447Y013903D01*
X009413Y013922D01*
X009382Y013945D01*
X009353Y013971D01*
X009326Y013999D01*
X009303Y014030D01*
X009282Y014063D01*
X009266Y014099D01*
X009252Y014135D01*
X009243Y014173D01*
X009237Y014211D01*
X009235Y014250D01*
X009225Y013850D02*
X010025Y014650D01*
X009235Y015250D02*
X009237Y015289D01*
X009243Y015327D01*
X009252Y015365D01*
X009266Y015401D01*
X009282Y015437D01*
X009303Y015470D01*
X009326Y015501D01*
X009353Y015529D01*
X009382Y015555D01*
X009413Y015578D01*
X009447Y015597D01*
X009483Y015613D01*
X009519Y015625D01*
X009557Y015634D01*
X009596Y015639D01*
X009635Y015640D01*
X009673Y015637D01*
X009712Y015630D01*
X009749Y015620D01*
X009785Y015605D01*
X009820Y015588D01*
X009853Y015567D01*
X009883Y015542D01*
X009911Y015515D01*
X009936Y015485D01*
X009958Y015453D01*
X009976Y015419D01*
X009991Y015383D01*
X010003Y015346D01*
X010011Y015308D01*
X010015Y015269D01*
X010015Y015231D01*
X010011Y015192D01*
X010003Y015154D01*
X009991Y015117D01*
X009976Y015081D01*
X009958Y015047D01*
X009936Y015015D01*
X009911Y014985D01*
X009883Y014958D01*
X009853Y014933D01*
X009820Y014912D01*
X009785Y014895D01*
X009749Y014880D01*
X009712Y014870D01*
X009673Y014863D01*
X009635Y014860D01*
X009596Y014861D01*
X009557Y014866D01*
X009519Y014875D01*
X009483Y014887D01*
X009447Y014903D01*
X009413Y014922D01*
X009382Y014945D01*
X009353Y014971D01*
X009326Y014999D01*
X009303Y015030D01*
X009282Y015063D01*
X009266Y015099D01*
X009252Y015135D01*
X009243Y015173D01*
X009237Y015211D01*
X009235Y015250D01*
X009225Y014850D02*
X010025Y015650D01*
X009235Y016250D02*
X009237Y016289D01*
X009243Y016327D01*
X009252Y016365D01*
X009266Y016401D01*
X009282Y016437D01*
X009303Y016470D01*
X009326Y016501D01*
X009353Y016529D01*
X009382Y016555D01*
X009413Y016578D01*
X009447Y016597D01*
X009483Y016613D01*
X009519Y016625D01*
X009557Y016634D01*
X009596Y016639D01*
X009635Y016640D01*
X009673Y016637D01*
X009712Y016630D01*
X009749Y016620D01*
X009785Y016605D01*
X009820Y016588D01*
X009853Y016567D01*
X009883Y016542D01*
X009911Y016515D01*
X009936Y016485D01*
X009958Y016453D01*
X009976Y016419D01*
X009991Y016383D01*
X010003Y016346D01*
X010011Y016308D01*
X010015Y016269D01*
X010015Y016231D01*
X010011Y016192D01*
X010003Y016154D01*
X009991Y016117D01*
X009976Y016081D01*
X009958Y016047D01*
X009936Y016015D01*
X009911Y015985D01*
X009883Y015958D01*
X009853Y015933D01*
X009820Y015912D01*
X009785Y015895D01*
X009749Y015880D01*
X009712Y015870D01*
X009673Y015863D01*
X009635Y015860D01*
X009596Y015861D01*
X009557Y015866D01*
X009519Y015875D01*
X009483Y015887D01*
X009447Y015903D01*
X009413Y015922D01*
X009382Y015945D01*
X009353Y015971D01*
X009326Y015999D01*
X009303Y016030D01*
X009282Y016063D01*
X009266Y016099D01*
X009252Y016135D01*
X009243Y016173D01*
X009237Y016211D01*
X009235Y016250D01*
X009225Y015850D02*
X010025Y016650D01*
X009235Y017250D02*
X009237Y017289D01*
X009243Y017327D01*
X009252Y017365D01*
X009266Y017401D01*
X009282Y017437D01*
X009303Y017470D01*
X009326Y017501D01*
X009353Y017529D01*
X009382Y017555D01*
X009413Y017578D01*
X009447Y017597D01*
X009483Y017613D01*
X009519Y017625D01*
X009557Y017634D01*
X009596Y017639D01*
X009635Y017640D01*
X009673Y017637D01*
X009712Y017630D01*
X009749Y017620D01*
X009785Y017605D01*
X009820Y017588D01*
X009853Y017567D01*
X009883Y017542D01*
X009911Y017515D01*
X009936Y017485D01*
X009958Y017453D01*
X009976Y017419D01*
X009991Y017383D01*
X010003Y017346D01*
X010011Y017308D01*
X010015Y017269D01*
X010015Y017231D01*
X010011Y017192D01*
X010003Y017154D01*
X009991Y017117D01*
X009976Y017081D01*
X009958Y017047D01*
X009936Y017015D01*
X009911Y016985D01*
X009883Y016958D01*
X009853Y016933D01*
X009820Y016912D01*
X009785Y016895D01*
X009749Y016880D01*
X009712Y016870D01*
X009673Y016863D01*
X009635Y016860D01*
X009596Y016861D01*
X009557Y016866D01*
X009519Y016875D01*
X009483Y016887D01*
X009447Y016903D01*
X009413Y016922D01*
X009382Y016945D01*
X009353Y016971D01*
X009326Y016999D01*
X009303Y017030D01*
X009282Y017063D01*
X009266Y017099D01*
X009252Y017135D01*
X009243Y017173D01*
X009237Y017211D01*
X009235Y017250D01*
X009225Y016850D02*
X010025Y017650D01*
X009235Y018250D02*
X009237Y018289D01*
X009243Y018327D01*
X009252Y018365D01*
X009266Y018401D01*
X009282Y018437D01*
X009303Y018470D01*
X009326Y018501D01*
X009353Y018529D01*
X009382Y018555D01*
X009413Y018578D01*
X009447Y018597D01*
X009483Y018613D01*
X009519Y018625D01*
X009557Y018634D01*
X009596Y018639D01*
X009635Y018640D01*
X009673Y018637D01*
X009712Y018630D01*
X009749Y018620D01*
X009785Y018605D01*
X009820Y018588D01*
X009853Y018567D01*
X009883Y018542D01*
X009911Y018515D01*
X009936Y018485D01*
X009958Y018453D01*
X009976Y018419D01*
X009991Y018383D01*
X010003Y018346D01*
X010011Y018308D01*
X010015Y018269D01*
X010015Y018231D01*
X010011Y018192D01*
X010003Y018154D01*
X009991Y018117D01*
X009976Y018081D01*
X009958Y018047D01*
X009936Y018015D01*
X009911Y017985D01*
X009883Y017958D01*
X009853Y017933D01*
X009820Y017912D01*
X009785Y017895D01*
X009749Y017880D01*
X009712Y017870D01*
X009673Y017863D01*
X009635Y017860D01*
X009596Y017861D01*
X009557Y017866D01*
X009519Y017875D01*
X009483Y017887D01*
X009447Y017903D01*
X009413Y017922D01*
X009382Y017945D01*
X009353Y017971D01*
X009326Y017999D01*
X009303Y018030D01*
X009282Y018063D01*
X009266Y018099D01*
X009252Y018135D01*
X009243Y018173D01*
X009237Y018211D01*
X009235Y018250D01*
X009225Y017850D02*
X010025Y018650D01*
X009235Y019250D02*
X009237Y019289D01*
X009243Y019327D01*
X009252Y019365D01*
X009266Y019401D01*
X009282Y019437D01*
X009303Y019470D01*
X009326Y019501D01*
X009353Y019529D01*
X009382Y019555D01*
X009413Y019578D01*
X009447Y019597D01*
X009483Y019613D01*
X009519Y019625D01*
X009557Y019634D01*
X009596Y019639D01*
X009635Y019640D01*
X009673Y019637D01*
X009712Y019630D01*
X009749Y019620D01*
X009785Y019605D01*
X009820Y019588D01*
X009853Y019567D01*
X009883Y019542D01*
X009911Y019515D01*
X009936Y019485D01*
X009958Y019453D01*
X009976Y019419D01*
X009991Y019383D01*
X010003Y019346D01*
X010011Y019308D01*
X010015Y019269D01*
X010015Y019231D01*
X010011Y019192D01*
X010003Y019154D01*
X009991Y019117D01*
X009976Y019081D01*
X009958Y019047D01*
X009936Y019015D01*
X009911Y018985D01*
X009883Y018958D01*
X009853Y018933D01*
X009820Y018912D01*
X009785Y018895D01*
X009749Y018880D01*
X009712Y018870D01*
X009673Y018863D01*
X009635Y018860D01*
X009596Y018861D01*
X009557Y018866D01*
X009519Y018875D01*
X009483Y018887D01*
X009447Y018903D01*
X009413Y018922D01*
X009382Y018945D01*
X009353Y018971D01*
X009326Y018999D01*
X009303Y019030D01*
X009282Y019063D01*
X009266Y019099D01*
X009252Y019135D01*
X009243Y019173D01*
X009237Y019211D01*
X009235Y019250D01*
X009225Y018850D02*
X010025Y019650D01*
X009235Y020250D02*
X009237Y020289D01*
X009243Y020327D01*
X009252Y020365D01*
X009266Y020401D01*
X009282Y020437D01*
X009303Y020470D01*
X009326Y020501D01*
X009353Y020529D01*
X009382Y020555D01*
X009413Y020578D01*
X009447Y020597D01*
X009483Y020613D01*
X009519Y020625D01*
X009557Y020634D01*
X009596Y020639D01*
X009635Y020640D01*
X009673Y020637D01*
X009712Y020630D01*
X009749Y020620D01*
X009785Y020605D01*
X009820Y020588D01*
X009853Y020567D01*
X009883Y020542D01*
X009911Y020515D01*
X009936Y020485D01*
X009958Y020453D01*
X009976Y020419D01*
X009991Y020383D01*
X010003Y020346D01*
X010011Y020308D01*
X010015Y020269D01*
X010015Y020231D01*
X010011Y020192D01*
X010003Y020154D01*
X009991Y020117D01*
X009976Y020081D01*
X009958Y020047D01*
X009936Y020015D01*
X009911Y019985D01*
X009883Y019958D01*
X009853Y019933D01*
X009820Y019912D01*
X009785Y019895D01*
X009749Y019880D01*
X009712Y019870D01*
X009673Y019863D01*
X009635Y019860D01*
X009596Y019861D01*
X009557Y019866D01*
X009519Y019875D01*
X009483Y019887D01*
X009447Y019903D01*
X009413Y019922D01*
X009382Y019945D01*
X009353Y019971D01*
X009326Y019999D01*
X009303Y020030D01*
X009282Y020063D01*
X009266Y020099D01*
X009252Y020135D01*
X009243Y020173D01*
X009237Y020211D01*
X009235Y020250D01*
X009225Y019850D02*
X010025Y020650D01*
X009235Y021250D02*
X009237Y021289D01*
X009243Y021327D01*
X009252Y021365D01*
X009266Y021401D01*
X009282Y021437D01*
X009303Y021470D01*
X009326Y021501D01*
X009353Y021529D01*
X009382Y021555D01*
X009413Y021578D01*
X009447Y021597D01*
X009483Y021613D01*
X009519Y021625D01*
X009557Y021634D01*
X009596Y021639D01*
X009635Y021640D01*
X009673Y021637D01*
X009712Y021630D01*
X009749Y021620D01*
X009785Y021605D01*
X009820Y021588D01*
X009853Y021567D01*
X009883Y021542D01*
X009911Y021515D01*
X009936Y021485D01*
X009958Y021453D01*
X009976Y021419D01*
X009991Y021383D01*
X010003Y021346D01*
X010011Y021308D01*
X010015Y021269D01*
X010015Y021231D01*
X010011Y021192D01*
X010003Y021154D01*
X009991Y021117D01*
X009976Y021081D01*
X009958Y021047D01*
X009936Y021015D01*
X009911Y020985D01*
X009883Y020958D01*
X009853Y020933D01*
X009820Y020912D01*
X009785Y020895D01*
X009749Y020880D01*
X009712Y020870D01*
X009673Y020863D01*
X009635Y020860D01*
X009596Y020861D01*
X009557Y020866D01*
X009519Y020875D01*
X009483Y020887D01*
X009447Y020903D01*
X009413Y020922D01*
X009382Y020945D01*
X009353Y020971D01*
X009326Y020999D01*
X009303Y021030D01*
X009282Y021063D01*
X009266Y021099D01*
X009252Y021135D01*
X009243Y021173D01*
X009237Y021211D01*
X009235Y021250D01*
X009225Y020850D02*
X010025Y021650D01*
X009235Y022250D02*
X009237Y022289D01*
X009243Y022327D01*
X009252Y022365D01*
X009266Y022401D01*
X009282Y022437D01*
X009303Y022470D01*
X009326Y022501D01*
X009353Y022529D01*
X009382Y022555D01*
X009413Y022578D01*
X009447Y022597D01*
X009483Y022613D01*
X009519Y022625D01*
X009557Y022634D01*
X009596Y022639D01*
X009635Y022640D01*
X009673Y022637D01*
X009712Y022630D01*
X009749Y022620D01*
X009785Y022605D01*
X009820Y022588D01*
X009853Y022567D01*
X009883Y022542D01*
X009911Y022515D01*
X009936Y022485D01*
X009958Y022453D01*
X009976Y022419D01*
X009991Y022383D01*
X010003Y022346D01*
X010011Y022308D01*
X010015Y022269D01*
X010015Y022231D01*
X010011Y022192D01*
X010003Y022154D01*
X009991Y022117D01*
X009976Y022081D01*
X009958Y022047D01*
X009936Y022015D01*
X009911Y021985D01*
X009883Y021958D01*
X009853Y021933D01*
X009820Y021912D01*
X009785Y021895D01*
X009749Y021880D01*
X009712Y021870D01*
X009673Y021863D01*
X009635Y021860D01*
X009596Y021861D01*
X009557Y021866D01*
X009519Y021875D01*
X009483Y021887D01*
X009447Y021903D01*
X009413Y021922D01*
X009382Y021945D01*
X009353Y021971D01*
X009326Y021999D01*
X009303Y022030D01*
X009282Y022063D01*
X009266Y022099D01*
X009252Y022135D01*
X009243Y022173D01*
X009237Y022211D01*
X009235Y022250D01*
X009225Y021850D02*
X010025Y022650D01*
X009235Y023250D02*
X009237Y023289D01*
X009243Y023327D01*
X009252Y023365D01*
X009266Y023401D01*
X009282Y023437D01*
X009303Y023470D01*
X009326Y023501D01*
X009353Y023529D01*
X009382Y023555D01*
X009413Y023578D01*
X009447Y023597D01*
X009483Y023613D01*
X009519Y023625D01*
X009557Y023634D01*
X009596Y023639D01*
X009635Y023640D01*
X009673Y023637D01*
X009712Y023630D01*
X009749Y023620D01*
X009785Y023605D01*
X009820Y023588D01*
X009853Y023567D01*
X009883Y023542D01*
X009911Y023515D01*
X009936Y023485D01*
X009958Y023453D01*
X009976Y023419D01*
X009991Y023383D01*
X010003Y023346D01*
X010011Y023308D01*
X010015Y023269D01*
X010015Y023231D01*
X010011Y023192D01*
X010003Y023154D01*
X009991Y023117D01*
X009976Y023081D01*
X009958Y023047D01*
X009936Y023015D01*
X009911Y022985D01*
X009883Y022958D01*
X009853Y022933D01*
X009820Y022912D01*
X009785Y022895D01*
X009749Y022880D01*
X009712Y022870D01*
X009673Y022863D01*
X009635Y022860D01*
X009596Y022861D01*
X009557Y022866D01*
X009519Y022875D01*
X009483Y022887D01*
X009447Y022903D01*
X009413Y022922D01*
X009382Y022945D01*
X009353Y022971D01*
X009326Y022999D01*
X009303Y023030D01*
X009282Y023063D01*
X009266Y023099D01*
X009252Y023135D01*
X009243Y023173D01*
X009237Y023211D01*
X009235Y023250D01*
X009225Y022850D02*
X010025Y023650D01*
X009235Y024250D02*
X009237Y024289D01*
X009243Y024327D01*
X009252Y024365D01*
X009266Y024401D01*
X009282Y024437D01*
X009303Y024470D01*
X009326Y024501D01*
X009353Y024529D01*
X009382Y024555D01*
X009413Y024578D01*
X009447Y024597D01*
X009483Y024613D01*
X009519Y024625D01*
X009557Y024634D01*
X009596Y024639D01*
X009635Y024640D01*
X009673Y024637D01*
X009712Y024630D01*
X009749Y024620D01*
X009785Y024605D01*
X009820Y024588D01*
X009853Y024567D01*
X009883Y024542D01*
X009911Y024515D01*
X009936Y024485D01*
X009958Y024453D01*
X009976Y024419D01*
X009991Y024383D01*
X010003Y024346D01*
X010011Y024308D01*
X010015Y024269D01*
X010015Y024231D01*
X010011Y024192D01*
X010003Y024154D01*
X009991Y024117D01*
X009976Y024081D01*
X009958Y024047D01*
X009936Y024015D01*
X009911Y023985D01*
X009883Y023958D01*
X009853Y023933D01*
X009820Y023912D01*
X009785Y023895D01*
X009749Y023880D01*
X009712Y023870D01*
X009673Y023863D01*
X009635Y023860D01*
X009596Y023861D01*
X009557Y023866D01*
X009519Y023875D01*
X009483Y023887D01*
X009447Y023903D01*
X009413Y023922D01*
X009382Y023945D01*
X009353Y023971D01*
X009326Y023999D01*
X009303Y024030D01*
X009282Y024063D01*
X009266Y024099D01*
X009252Y024135D01*
X009243Y024173D01*
X009237Y024211D01*
X009235Y024250D01*
X009225Y023850D02*
X010025Y024650D01*
X009235Y025250D02*
X009237Y025289D01*
X009243Y025327D01*
X009252Y025365D01*
X009266Y025401D01*
X009282Y025437D01*
X009303Y025470D01*
X009326Y025501D01*
X009353Y025529D01*
X009382Y025555D01*
X009413Y025578D01*
X009447Y025597D01*
X009483Y025613D01*
X009519Y025625D01*
X009557Y025634D01*
X009596Y025639D01*
X009635Y025640D01*
X009673Y025637D01*
X009712Y025630D01*
X009749Y025620D01*
X009785Y025605D01*
X009820Y025588D01*
X009853Y025567D01*
X009883Y025542D01*
X009911Y025515D01*
X009936Y025485D01*
X009958Y025453D01*
X009976Y025419D01*
X009991Y025383D01*
X010003Y025346D01*
X010011Y025308D01*
X010015Y025269D01*
X010015Y025231D01*
X010011Y025192D01*
X010003Y025154D01*
X009991Y025117D01*
X009976Y025081D01*
X009958Y025047D01*
X009936Y025015D01*
X009911Y024985D01*
X009883Y024958D01*
X009853Y024933D01*
X009820Y024912D01*
X009785Y024895D01*
X009749Y024880D01*
X009712Y024870D01*
X009673Y024863D01*
X009635Y024860D01*
X009596Y024861D01*
X009557Y024866D01*
X009519Y024875D01*
X009483Y024887D01*
X009447Y024903D01*
X009413Y024922D01*
X009382Y024945D01*
X009353Y024971D01*
X009326Y024999D01*
X009303Y025030D01*
X009282Y025063D01*
X009266Y025099D01*
X009252Y025135D01*
X009243Y025173D01*
X009237Y025211D01*
X009235Y025250D01*
X009225Y024850D02*
X010025Y025650D01*
X004485Y012125D02*
X004487Y012164D01*
X004493Y012202D01*
X004502Y012240D01*
X004516Y012276D01*
X004532Y012312D01*
X004553Y012345D01*
X004576Y012376D01*
X004603Y012404D01*
X004632Y012430D01*
X004663Y012453D01*
X004697Y012472D01*
X004733Y012488D01*
X004769Y012500D01*
X004807Y012509D01*
X004846Y012514D01*
X004885Y012515D01*
X004923Y012512D01*
X004962Y012505D01*
X004999Y012495D01*
X005035Y012480D01*
X005070Y012463D01*
X005103Y012442D01*
X005133Y012417D01*
X005161Y012390D01*
X005186Y012360D01*
X005208Y012328D01*
X005226Y012294D01*
X005241Y012258D01*
X005253Y012221D01*
X005261Y012183D01*
X005265Y012144D01*
X005265Y012106D01*
X005261Y012067D01*
X005253Y012029D01*
X005241Y011992D01*
X005226Y011956D01*
X005208Y011922D01*
X005186Y011890D01*
X005161Y011860D01*
X005133Y011833D01*
X005103Y011808D01*
X005070Y011787D01*
X005035Y011770D01*
X004999Y011755D01*
X004962Y011745D01*
X004923Y011738D01*
X004885Y011735D01*
X004846Y011736D01*
X004807Y011741D01*
X004769Y011750D01*
X004733Y011762D01*
X004697Y011778D01*
X004663Y011797D01*
X004632Y011820D01*
X004603Y011846D01*
X004576Y011874D01*
X004553Y011905D01*
X004532Y011938D01*
X004516Y011974D01*
X004502Y012010D01*
X004493Y012048D01*
X004487Y012086D01*
X004485Y012125D01*
X004475Y011725D02*
X005275Y012525D01*
X004485Y013125D02*
X004487Y013164D01*
X004493Y013202D01*
X004502Y013240D01*
X004516Y013276D01*
X004532Y013312D01*
X004553Y013345D01*
X004576Y013376D01*
X004603Y013404D01*
X004632Y013430D01*
X004663Y013453D01*
X004697Y013472D01*
X004733Y013488D01*
X004769Y013500D01*
X004807Y013509D01*
X004846Y013514D01*
X004885Y013515D01*
X004923Y013512D01*
X004962Y013505D01*
X004999Y013495D01*
X005035Y013480D01*
X005070Y013463D01*
X005103Y013442D01*
X005133Y013417D01*
X005161Y013390D01*
X005186Y013360D01*
X005208Y013328D01*
X005226Y013294D01*
X005241Y013258D01*
X005253Y013221D01*
X005261Y013183D01*
X005265Y013144D01*
X005265Y013106D01*
X005261Y013067D01*
X005253Y013029D01*
X005241Y012992D01*
X005226Y012956D01*
X005208Y012922D01*
X005186Y012890D01*
X005161Y012860D01*
X005133Y012833D01*
X005103Y012808D01*
X005070Y012787D01*
X005035Y012770D01*
X004999Y012755D01*
X004962Y012745D01*
X004923Y012738D01*
X004885Y012735D01*
X004846Y012736D01*
X004807Y012741D01*
X004769Y012750D01*
X004733Y012762D01*
X004697Y012778D01*
X004663Y012797D01*
X004632Y012820D01*
X004603Y012846D01*
X004576Y012874D01*
X004553Y012905D01*
X004532Y012938D01*
X004516Y012974D01*
X004502Y013010D01*
X004493Y013048D01*
X004487Y013086D01*
X004485Y013125D01*
X004475Y012725D02*
X005275Y013525D01*
X004485Y014125D02*
X004487Y014164D01*
X004493Y014202D01*
X004502Y014240D01*
X004516Y014276D01*
X004532Y014312D01*
X004553Y014345D01*
X004576Y014376D01*
X004603Y014404D01*
X004632Y014430D01*
X004663Y014453D01*
X004697Y014472D01*
X004733Y014488D01*
X004769Y014500D01*
X004807Y014509D01*
X004846Y014514D01*
X004885Y014515D01*
X004923Y014512D01*
X004962Y014505D01*
X004999Y014495D01*
X005035Y014480D01*
X005070Y014463D01*
X005103Y014442D01*
X005133Y014417D01*
X005161Y014390D01*
X005186Y014360D01*
X005208Y014328D01*
X005226Y014294D01*
X005241Y014258D01*
X005253Y014221D01*
X005261Y014183D01*
X005265Y014144D01*
X005265Y014106D01*
X005261Y014067D01*
X005253Y014029D01*
X005241Y013992D01*
X005226Y013956D01*
X005208Y013922D01*
X005186Y013890D01*
X005161Y013860D01*
X005133Y013833D01*
X005103Y013808D01*
X005070Y013787D01*
X005035Y013770D01*
X004999Y013755D01*
X004962Y013745D01*
X004923Y013738D01*
X004885Y013735D01*
X004846Y013736D01*
X004807Y013741D01*
X004769Y013750D01*
X004733Y013762D01*
X004697Y013778D01*
X004663Y013797D01*
X004632Y013820D01*
X004603Y013846D01*
X004576Y013874D01*
X004553Y013905D01*
X004532Y013938D01*
X004516Y013974D01*
X004502Y014010D01*
X004493Y014048D01*
X004487Y014086D01*
X004485Y014125D01*
X004475Y013725D02*
X005275Y014525D01*
X002235Y010000D02*
X002237Y010039D01*
X002243Y010077D01*
X002252Y010115D01*
X002266Y010151D01*
X002282Y010187D01*
X002303Y010220D01*
X002326Y010251D01*
X002353Y010279D01*
X002382Y010305D01*
X002413Y010328D01*
X002447Y010347D01*
X002483Y010363D01*
X002519Y010375D01*
X002557Y010384D01*
X002596Y010389D01*
X002635Y010390D01*
X002673Y010387D01*
X002712Y010380D01*
X002749Y010370D01*
X002785Y010355D01*
X002820Y010338D01*
X002853Y010317D01*
X002883Y010292D01*
X002911Y010265D01*
X002936Y010235D01*
X002958Y010203D01*
X002976Y010169D01*
X002991Y010133D01*
X003003Y010096D01*
X003011Y010058D01*
X003015Y010019D01*
X003015Y009981D01*
X003011Y009942D01*
X003003Y009904D01*
X002991Y009867D01*
X002976Y009831D01*
X002958Y009797D01*
X002936Y009765D01*
X002911Y009735D01*
X002883Y009708D01*
X002853Y009683D01*
X002820Y009662D01*
X002785Y009645D01*
X002749Y009630D01*
X002712Y009620D01*
X002673Y009613D01*
X002635Y009610D01*
X002596Y009611D01*
X002557Y009616D01*
X002519Y009625D01*
X002483Y009637D01*
X002447Y009653D01*
X002413Y009672D01*
X002382Y009695D01*
X002353Y009721D01*
X002326Y009749D01*
X002303Y009780D01*
X002282Y009813D01*
X002266Y009849D01*
X002252Y009885D01*
X002243Y009923D01*
X002237Y009961D01*
X002235Y010000D01*
X002225Y009600D02*
X003025Y010400D01*
X002235Y009000D02*
X002237Y009039D01*
X002243Y009077D01*
X002252Y009115D01*
X002266Y009151D01*
X002282Y009187D01*
X002303Y009220D01*
X002326Y009251D01*
X002353Y009279D01*
X002382Y009305D01*
X002413Y009328D01*
X002447Y009347D01*
X002483Y009363D01*
X002519Y009375D01*
X002557Y009384D01*
X002596Y009389D01*
X002635Y009390D01*
X002673Y009387D01*
X002712Y009380D01*
X002749Y009370D01*
X002785Y009355D01*
X002820Y009338D01*
X002853Y009317D01*
X002883Y009292D01*
X002911Y009265D01*
X002936Y009235D01*
X002958Y009203D01*
X002976Y009169D01*
X002991Y009133D01*
X003003Y009096D01*
X003011Y009058D01*
X003015Y009019D01*
X003015Y008981D01*
X003011Y008942D01*
X003003Y008904D01*
X002991Y008867D01*
X002976Y008831D01*
X002958Y008797D01*
X002936Y008765D01*
X002911Y008735D01*
X002883Y008708D01*
X002853Y008683D01*
X002820Y008662D01*
X002785Y008645D01*
X002749Y008630D01*
X002712Y008620D01*
X002673Y008613D01*
X002635Y008610D01*
X002596Y008611D01*
X002557Y008616D01*
X002519Y008625D01*
X002483Y008637D01*
X002447Y008653D01*
X002413Y008672D01*
X002382Y008695D01*
X002353Y008721D01*
X002326Y008749D01*
X002303Y008780D01*
X002282Y008813D01*
X002266Y008849D01*
X002252Y008885D01*
X002243Y008923D01*
X002237Y008961D01*
X002235Y009000D01*
X002225Y008600D02*
X003025Y009400D01*
X005235Y009000D02*
X005237Y009039D01*
X005243Y009077D01*
X005252Y009115D01*
X005266Y009151D01*
X005282Y009187D01*
X005303Y009220D01*
X005326Y009251D01*
X005353Y009279D01*
X005382Y009305D01*
X005413Y009328D01*
X005447Y009347D01*
X005483Y009363D01*
X005519Y009375D01*
X005557Y009384D01*
X005596Y009389D01*
X005635Y009390D01*
X005673Y009387D01*
X005712Y009380D01*
X005749Y009370D01*
X005785Y009355D01*
X005820Y009338D01*
X005853Y009317D01*
X005883Y009292D01*
X005911Y009265D01*
X005936Y009235D01*
X005958Y009203D01*
X005976Y009169D01*
X005991Y009133D01*
X006003Y009096D01*
X006011Y009058D01*
X006015Y009019D01*
X006015Y008981D01*
X006011Y008942D01*
X006003Y008904D01*
X005991Y008867D01*
X005976Y008831D01*
X005958Y008797D01*
X005936Y008765D01*
X005911Y008735D01*
X005883Y008708D01*
X005853Y008683D01*
X005820Y008662D01*
X005785Y008645D01*
X005749Y008630D01*
X005712Y008620D01*
X005673Y008613D01*
X005635Y008610D01*
X005596Y008611D01*
X005557Y008616D01*
X005519Y008625D01*
X005483Y008637D01*
X005447Y008653D01*
X005413Y008672D01*
X005382Y008695D01*
X005353Y008721D01*
X005326Y008749D01*
X005303Y008780D01*
X005282Y008813D01*
X005266Y008849D01*
X005252Y008885D01*
X005243Y008923D01*
X005237Y008961D01*
X005235Y009000D01*
X005225Y008600D02*
X006025Y009400D01*
X005235Y010000D02*
X005237Y010039D01*
X005243Y010077D01*
X005252Y010115D01*
X005266Y010151D01*
X005282Y010187D01*
X005303Y010220D01*
X005326Y010251D01*
X005353Y010279D01*
X005382Y010305D01*
X005413Y010328D01*
X005447Y010347D01*
X005483Y010363D01*
X005519Y010375D01*
X005557Y010384D01*
X005596Y010389D01*
X005635Y010390D01*
X005673Y010387D01*
X005712Y010380D01*
X005749Y010370D01*
X005785Y010355D01*
X005820Y010338D01*
X005853Y010317D01*
X005883Y010292D01*
X005911Y010265D01*
X005936Y010235D01*
X005958Y010203D01*
X005976Y010169D01*
X005991Y010133D01*
X006003Y010096D01*
X006011Y010058D01*
X006015Y010019D01*
X006015Y009981D01*
X006011Y009942D01*
X006003Y009904D01*
X005991Y009867D01*
X005976Y009831D01*
X005958Y009797D01*
X005936Y009765D01*
X005911Y009735D01*
X005883Y009708D01*
X005853Y009683D01*
X005820Y009662D01*
X005785Y009645D01*
X005749Y009630D01*
X005712Y009620D01*
X005673Y009613D01*
X005635Y009610D01*
X005596Y009611D01*
X005557Y009616D01*
X005519Y009625D01*
X005483Y009637D01*
X005447Y009653D01*
X005413Y009672D01*
X005382Y009695D01*
X005353Y009721D01*
X005326Y009749D01*
X005303Y009780D01*
X005282Y009813D01*
X005266Y009849D01*
X005252Y009885D01*
X005243Y009923D01*
X005237Y009961D01*
X005235Y010000D01*
X005225Y009600D02*
X006025Y010400D01*
X002235Y008000D02*
X002237Y008039D01*
X002243Y008077D01*
X002252Y008115D01*
X002266Y008151D01*
X002282Y008187D01*
X002303Y008220D01*
X002326Y008251D01*
X002353Y008279D01*
X002382Y008305D01*
X002413Y008328D01*
X002447Y008347D01*
X002483Y008363D01*
X002519Y008375D01*
X002557Y008384D01*
X002596Y008389D01*
X002635Y008390D01*
X002673Y008387D01*
X002712Y008380D01*
X002749Y008370D01*
X002785Y008355D01*
X002820Y008338D01*
X002853Y008317D01*
X002883Y008292D01*
X002911Y008265D01*
X002936Y008235D01*
X002958Y008203D01*
X002976Y008169D01*
X002991Y008133D01*
X003003Y008096D01*
X003011Y008058D01*
X003015Y008019D01*
X003015Y007981D01*
X003011Y007942D01*
X003003Y007904D01*
X002991Y007867D01*
X002976Y007831D01*
X002958Y007797D01*
X002936Y007765D01*
X002911Y007735D01*
X002883Y007708D01*
X002853Y007683D01*
X002820Y007662D01*
X002785Y007645D01*
X002749Y007630D01*
X002712Y007620D01*
X002673Y007613D01*
X002635Y007610D01*
X002596Y007611D01*
X002557Y007616D01*
X002519Y007625D01*
X002483Y007637D01*
X002447Y007653D01*
X002413Y007672D01*
X002382Y007695D01*
X002353Y007721D01*
X002326Y007749D01*
X002303Y007780D01*
X002282Y007813D01*
X002266Y007849D01*
X002252Y007885D01*
X002243Y007923D01*
X002237Y007961D01*
X002235Y008000D01*
X002225Y007600D02*
X003025Y008400D01*
X002235Y007000D02*
X002237Y007039D01*
X002243Y007077D01*
X002252Y007115D01*
X002266Y007151D01*
X002282Y007187D01*
X002303Y007220D01*
X002326Y007251D01*
X002353Y007279D01*
X002382Y007305D01*
X002413Y007328D01*
X002447Y007347D01*
X002483Y007363D01*
X002519Y007375D01*
X002557Y007384D01*
X002596Y007389D01*
X002635Y007390D01*
X002673Y007387D01*
X002712Y007380D01*
X002749Y007370D01*
X002785Y007355D01*
X002820Y007338D01*
X002853Y007317D01*
X002883Y007292D01*
X002911Y007265D01*
X002936Y007235D01*
X002958Y007203D01*
X002976Y007169D01*
X002991Y007133D01*
X003003Y007096D01*
X003011Y007058D01*
X003015Y007019D01*
X003015Y006981D01*
X003011Y006942D01*
X003003Y006904D01*
X002991Y006867D01*
X002976Y006831D01*
X002958Y006797D01*
X002936Y006765D01*
X002911Y006735D01*
X002883Y006708D01*
X002853Y006683D01*
X002820Y006662D01*
X002785Y006645D01*
X002749Y006630D01*
X002712Y006620D01*
X002673Y006613D01*
X002635Y006610D01*
X002596Y006611D01*
X002557Y006616D01*
X002519Y006625D01*
X002483Y006637D01*
X002447Y006653D01*
X002413Y006672D01*
X002382Y006695D01*
X002353Y006721D01*
X002326Y006749D01*
X002303Y006780D01*
X002282Y006813D01*
X002266Y006849D01*
X002252Y006885D01*
X002243Y006923D01*
X002237Y006961D01*
X002235Y007000D01*
X002225Y006600D02*
X003025Y007400D01*
X005235Y008000D02*
X005237Y008039D01*
X005243Y008077D01*
X005252Y008115D01*
X005266Y008151D01*
X005282Y008187D01*
X005303Y008220D01*
X005326Y008251D01*
X005353Y008279D01*
X005382Y008305D01*
X005413Y008328D01*
X005447Y008347D01*
X005483Y008363D01*
X005519Y008375D01*
X005557Y008384D01*
X005596Y008389D01*
X005635Y008390D01*
X005673Y008387D01*
X005712Y008380D01*
X005749Y008370D01*
X005785Y008355D01*
X005820Y008338D01*
X005853Y008317D01*
X005883Y008292D01*
X005911Y008265D01*
X005936Y008235D01*
X005958Y008203D01*
X005976Y008169D01*
X005991Y008133D01*
X006003Y008096D01*
X006011Y008058D01*
X006015Y008019D01*
X006015Y007981D01*
X006011Y007942D01*
X006003Y007904D01*
X005991Y007867D01*
X005976Y007831D01*
X005958Y007797D01*
X005936Y007765D01*
X005911Y007735D01*
X005883Y007708D01*
X005853Y007683D01*
X005820Y007662D01*
X005785Y007645D01*
X005749Y007630D01*
X005712Y007620D01*
X005673Y007613D01*
X005635Y007610D01*
X005596Y007611D01*
X005557Y007616D01*
X005519Y007625D01*
X005483Y007637D01*
X005447Y007653D01*
X005413Y007672D01*
X005382Y007695D01*
X005353Y007721D01*
X005326Y007749D01*
X005303Y007780D01*
X005282Y007813D01*
X005266Y007849D01*
X005252Y007885D01*
X005243Y007923D01*
X005237Y007961D01*
X005235Y008000D01*
X005225Y007600D02*
X006025Y008400D01*
X005235Y007000D02*
X005237Y007039D01*
X005243Y007077D01*
X005252Y007115D01*
X005266Y007151D01*
X005282Y007187D01*
X005303Y007220D01*
X005326Y007251D01*
X005353Y007279D01*
X005382Y007305D01*
X005413Y007328D01*
X005447Y007347D01*
X005483Y007363D01*
X005519Y007375D01*
X005557Y007384D01*
X005596Y007389D01*
X005635Y007390D01*
X005673Y007387D01*
X005712Y007380D01*
X005749Y007370D01*
X005785Y007355D01*
X005820Y007338D01*
X005853Y007317D01*
X005883Y007292D01*
X005911Y007265D01*
X005936Y007235D01*
X005958Y007203D01*
X005976Y007169D01*
X005991Y007133D01*
X006003Y007096D01*
X006011Y007058D01*
X006015Y007019D01*
X006015Y006981D01*
X006011Y006942D01*
X006003Y006904D01*
X005991Y006867D01*
X005976Y006831D01*
X005958Y006797D01*
X005936Y006765D01*
X005911Y006735D01*
X005883Y006708D01*
X005853Y006683D01*
X005820Y006662D01*
X005785Y006645D01*
X005749Y006630D01*
X005712Y006620D01*
X005673Y006613D01*
X005635Y006610D01*
X005596Y006611D01*
X005557Y006616D01*
X005519Y006625D01*
X005483Y006637D01*
X005447Y006653D01*
X005413Y006672D01*
X005382Y006695D01*
X005353Y006721D01*
X005326Y006749D01*
X005303Y006780D01*
X005282Y006813D01*
X005266Y006849D01*
X005252Y006885D01*
X005243Y006923D01*
X005237Y006961D01*
X005235Y007000D01*
X005225Y006600D02*
X006025Y007400D01*
X009860Y006875D02*
X009862Y006914D01*
X009868Y006952D01*
X009877Y006990D01*
X009891Y007026D01*
X009907Y007062D01*
X009928Y007095D01*
X009951Y007126D01*
X009978Y007154D01*
X010007Y007180D01*
X010038Y007203D01*
X010072Y007222D01*
X010108Y007238D01*
X010144Y007250D01*
X010182Y007259D01*
X010221Y007264D01*
X010260Y007265D01*
X010298Y007262D01*
X010337Y007255D01*
X010374Y007245D01*
X010410Y007230D01*
X010445Y007213D01*
X010478Y007192D01*
X010508Y007167D01*
X010536Y007140D01*
X010561Y007110D01*
X010583Y007078D01*
X010601Y007044D01*
X010616Y007008D01*
X010628Y006971D01*
X010636Y006933D01*
X010640Y006894D01*
X010640Y006856D01*
X010636Y006817D01*
X010628Y006779D01*
X010616Y006742D01*
X010601Y006706D01*
X010583Y006672D01*
X010561Y006640D01*
X010536Y006610D01*
X010508Y006583D01*
X010478Y006558D01*
X010445Y006537D01*
X010410Y006520D01*
X010374Y006505D01*
X010337Y006495D01*
X010298Y006488D01*
X010260Y006485D01*
X010221Y006486D01*
X010182Y006491D01*
X010144Y006500D01*
X010108Y006512D01*
X010072Y006528D01*
X010038Y006547D01*
X010007Y006570D01*
X009978Y006596D01*
X009951Y006624D01*
X009928Y006655D01*
X009907Y006688D01*
X009891Y006724D01*
X009877Y006760D01*
X009868Y006798D01*
X009862Y006836D01*
X009860Y006875D01*
X009850Y006475D02*
X010650Y007275D01*
X008860Y006875D02*
X008862Y006914D01*
X008868Y006952D01*
X008877Y006990D01*
X008891Y007026D01*
X008907Y007062D01*
X008928Y007095D01*
X008951Y007126D01*
X008978Y007154D01*
X009007Y007180D01*
X009038Y007203D01*
X009072Y007222D01*
X009108Y007238D01*
X009144Y007250D01*
X009182Y007259D01*
X009221Y007264D01*
X009260Y007265D01*
X009298Y007262D01*
X009337Y007255D01*
X009374Y007245D01*
X009410Y007230D01*
X009445Y007213D01*
X009478Y007192D01*
X009508Y007167D01*
X009536Y007140D01*
X009561Y007110D01*
X009583Y007078D01*
X009601Y007044D01*
X009616Y007008D01*
X009628Y006971D01*
X009636Y006933D01*
X009640Y006894D01*
X009640Y006856D01*
X009636Y006817D01*
X009628Y006779D01*
X009616Y006742D01*
X009601Y006706D01*
X009583Y006672D01*
X009561Y006640D01*
X009536Y006610D01*
X009508Y006583D01*
X009478Y006558D01*
X009445Y006537D01*
X009410Y006520D01*
X009374Y006505D01*
X009337Y006495D01*
X009298Y006488D01*
X009260Y006485D01*
X009221Y006486D01*
X009182Y006491D01*
X009144Y006500D01*
X009108Y006512D01*
X009072Y006528D01*
X009038Y006547D01*
X009007Y006570D01*
X008978Y006596D01*
X008951Y006624D01*
X008928Y006655D01*
X008907Y006688D01*
X008891Y006724D01*
X008877Y006760D01*
X008868Y006798D01*
X008862Y006836D01*
X008860Y006875D01*
X008850Y006475D02*
X009650Y007275D01*
X007860Y006875D02*
X007862Y006914D01*
X007868Y006952D01*
X007877Y006990D01*
X007891Y007026D01*
X007907Y007062D01*
X007928Y007095D01*
X007951Y007126D01*
X007978Y007154D01*
X008007Y007180D01*
X008038Y007203D01*
X008072Y007222D01*
X008108Y007238D01*
X008144Y007250D01*
X008182Y007259D01*
X008221Y007264D01*
X008260Y007265D01*
X008298Y007262D01*
X008337Y007255D01*
X008374Y007245D01*
X008410Y007230D01*
X008445Y007213D01*
X008478Y007192D01*
X008508Y007167D01*
X008536Y007140D01*
X008561Y007110D01*
X008583Y007078D01*
X008601Y007044D01*
X008616Y007008D01*
X008628Y006971D01*
X008636Y006933D01*
X008640Y006894D01*
X008640Y006856D01*
X008636Y006817D01*
X008628Y006779D01*
X008616Y006742D01*
X008601Y006706D01*
X008583Y006672D01*
X008561Y006640D01*
X008536Y006610D01*
X008508Y006583D01*
X008478Y006558D01*
X008445Y006537D01*
X008410Y006520D01*
X008374Y006505D01*
X008337Y006495D01*
X008298Y006488D01*
X008260Y006485D01*
X008221Y006486D01*
X008182Y006491D01*
X008144Y006500D01*
X008108Y006512D01*
X008072Y006528D01*
X008038Y006547D01*
X008007Y006570D01*
X007978Y006596D01*
X007951Y006624D01*
X007928Y006655D01*
X007907Y006688D01*
X007891Y006724D01*
X007877Y006760D01*
X007868Y006798D01*
X007862Y006836D01*
X007860Y006875D01*
X007850Y006475D02*
X008650Y007275D01*
X006860Y006875D02*
X006862Y006914D01*
X006868Y006952D01*
X006877Y006990D01*
X006891Y007026D01*
X006907Y007062D01*
X006928Y007095D01*
X006951Y007126D01*
X006978Y007154D01*
X007007Y007180D01*
X007038Y007203D01*
X007072Y007222D01*
X007108Y007238D01*
X007144Y007250D01*
X007182Y007259D01*
X007221Y007264D01*
X007260Y007265D01*
X007298Y007262D01*
X007337Y007255D01*
X007374Y007245D01*
X007410Y007230D01*
X007445Y007213D01*
X007478Y007192D01*
X007508Y007167D01*
X007536Y007140D01*
X007561Y007110D01*
X007583Y007078D01*
X007601Y007044D01*
X007616Y007008D01*
X007628Y006971D01*
X007636Y006933D01*
X007640Y006894D01*
X007640Y006856D01*
X007636Y006817D01*
X007628Y006779D01*
X007616Y006742D01*
X007601Y006706D01*
X007583Y006672D01*
X007561Y006640D01*
X007536Y006610D01*
X007508Y006583D01*
X007478Y006558D01*
X007445Y006537D01*
X007410Y006520D01*
X007374Y006505D01*
X007337Y006495D01*
X007298Y006488D01*
X007260Y006485D01*
X007221Y006486D01*
X007182Y006491D01*
X007144Y006500D01*
X007108Y006512D01*
X007072Y006528D01*
X007038Y006547D01*
X007007Y006570D01*
X006978Y006596D01*
X006951Y006624D01*
X006928Y006655D01*
X006907Y006688D01*
X006891Y006724D01*
X006877Y006760D01*
X006868Y006798D01*
X006862Y006836D01*
X006860Y006875D01*
X006850Y006475D02*
X007650Y007275D01*
X004110Y023875D02*
X004112Y023914D01*
X004118Y023952D01*
X004127Y023990D01*
X004141Y024026D01*
X004157Y024062D01*
X004178Y024095D01*
X004201Y024126D01*
X004228Y024154D01*
X004257Y024180D01*
X004288Y024203D01*
X004322Y024222D01*
X004358Y024238D01*
X004394Y024250D01*
X004432Y024259D01*
X004471Y024264D01*
X004510Y024265D01*
X004548Y024262D01*
X004587Y024255D01*
X004624Y024245D01*
X004660Y024230D01*
X004695Y024213D01*
X004728Y024192D01*
X004758Y024167D01*
X004786Y024140D01*
X004811Y024110D01*
X004833Y024078D01*
X004851Y024044D01*
X004866Y024008D01*
X004878Y023971D01*
X004886Y023933D01*
X004890Y023894D01*
X004890Y023856D01*
X004886Y023817D01*
X004878Y023779D01*
X004866Y023742D01*
X004851Y023706D01*
X004833Y023672D01*
X004811Y023640D01*
X004786Y023610D01*
X004758Y023583D01*
X004728Y023558D01*
X004695Y023537D01*
X004660Y023520D01*
X004624Y023505D01*
X004587Y023495D01*
X004548Y023488D01*
X004510Y023485D01*
X004471Y023486D01*
X004432Y023491D01*
X004394Y023500D01*
X004358Y023512D01*
X004322Y023528D01*
X004288Y023547D01*
X004257Y023570D01*
X004228Y023596D01*
X004201Y023624D01*
X004178Y023655D01*
X004157Y023688D01*
X004141Y023724D01*
X004127Y023760D01*
X004118Y023798D01*
X004112Y023836D01*
X004110Y023875D01*
X004100Y023475D02*
X004900Y024275D01*
X004110Y022875D02*
X004112Y022914D01*
X004118Y022952D01*
X004127Y022990D01*
X004141Y023026D01*
X004157Y023062D01*
X004178Y023095D01*
X004201Y023126D01*
X004228Y023154D01*
X004257Y023180D01*
X004288Y023203D01*
X004322Y023222D01*
X004358Y023238D01*
X004394Y023250D01*
X004432Y023259D01*
X004471Y023264D01*
X004510Y023265D01*
X004548Y023262D01*
X004587Y023255D01*
X004624Y023245D01*
X004660Y023230D01*
X004695Y023213D01*
X004728Y023192D01*
X004758Y023167D01*
X004786Y023140D01*
X004811Y023110D01*
X004833Y023078D01*
X004851Y023044D01*
X004866Y023008D01*
X004878Y022971D01*
X004886Y022933D01*
X004890Y022894D01*
X004890Y022856D01*
X004886Y022817D01*
X004878Y022779D01*
X004866Y022742D01*
X004851Y022706D01*
X004833Y022672D01*
X004811Y022640D01*
X004786Y022610D01*
X004758Y022583D01*
X004728Y022558D01*
X004695Y022537D01*
X004660Y022520D01*
X004624Y022505D01*
X004587Y022495D01*
X004548Y022488D01*
X004510Y022485D01*
X004471Y022486D01*
X004432Y022491D01*
X004394Y022500D01*
X004358Y022512D01*
X004322Y022528D01*
X004288Y022547D01*
X004257Y022570D01*
X004228Y022596D01*
X004201Y022624D01*
X004178Y022655D01*
X004157Y022688D01*
X004141Y022724D01*
X004127Y022760D01*
X004118Y022798D01*
X004112Y022836D01*
X004110Y022875D01*
X004100Y022475D02*
X004900Y023275D01*
X004110Y021875D02*
X004112Y021914D01*
X004118Y021952D01*
X004127Y021990D01*
X004141Y022026D01*
X004157Y022062D01*
X004178Y022095D01*
X004201Y022126D01*
X004228Y022154D01*
X004257Y022180D01*
X004288Y022203D01*
X004322Y022222D01*
X004358Y022238D01*
X004394Y022250D01*
X004432Y022259D01*
X004471Y022264D01*
X004510Y022265D01*
X004548Y022262D01*
X004587Y022255D01*
X004624Y022245D01*
X004660Y022230D01*
X004695Y022213D01*
X004728Y022192D01*
X004758Y022167D01*
X004786Y022140D01*
X004811Y022110D01*
X004833Y022078D01*
X004851Y022044D01*
X004866Y022008D01*
X004878Y021971D01*
X004886Y021933D01*
X004890Y021894D01*
X004890Y021856D01*
X004886Y021817D01*
X004878Y021779D01*
X004866Y021742D01*
X004851Y021706D01*
X004833Y021672D01*
X004811Y021640D01*
X004786Y021610D01*
X004758Y021583D01*
X004728Y021558D01*
X004695Y021537D01*
X004660Y021520D01*
X004624Y021505D01*
X004587Y021495D01*
X004548Y021488D01*
X004510Y021485D01*
X004471Y021486D01*
X004432Y021491D01*
X004394Y021500D01*
X004358Y021512D01*
X004322Y021528D01*
X004288Y021547D01*
X004257Y021570D01*
X004228Y021596D01*
X004201Y021624D01*
X004178Y021655D01*
X004157Y021688D01*
X004141Y021724D01*
X004127Y021760D01*
X004118Y021798D01*
X004112Y021836D01*
X004110Y021875D01*
X004100Y021475D02*
X004900Y022275D01*
X004110Y020875D02*
X004112Y020914D01*
X004118Y020952D01*
X004127Y020990D01*
X004141Y021026D01*
X004157Y021062D01*
X004178Y021095D01*
X004201Y021126D01*
X004228Y021154D01*
X004257Y021180D01*
X004288Y021203D01*
X004322Y021222D01*
X004358Y021238D01*
X004394Y021250D01*
X004432Y021259D01*
X004471Y021264D01*
X004510Y021265D01*
X004548Y021262D01*
X004587Y021255D01*
X004624Y021245D01*
X004660Y021230D01*
X004695Y021213D01*
X004728Y021192D01*
X004758Y021167D01*
X004786Y021140D01*
X004811Y021110D01*
X004833Y021078D01*
X004851Y021044D01*
X004866Y021008D01*
X004878Y020971D01*
X004886Y020933D01*
X004890Y020894D01*
X004890Y020856D01*
X004886Y020817D01*
X004878Y020779D01*
X004866Y020742D01*
X004851Y020706D01*
X004833Y020672D01*
X004811Y020640D01*
X004786Y020610D01*
X004758Y020583D01*
X004728Y020558D01*
X004695Y020537D01*
X004660Y020520D01*
X004624Y020505D01*
X004587Y020495D01*
X004548Y020488D01*
X004510Y020485D01*
X004471Y020486D01*
X004432Y020491D01*
X004394Y020500D01*
X004358Y020512D01*
X004322Y020528D01*
X004288Y020547D01*
X004257Y020570D01*
X004228Y020596D01*
X004201Y020624D01*
X004178Y020655D01*
X004157Y020688D01*
X004141Y020724D01*
X004127Y020760D01*
X004118Y020798D01*
X004112Y020836D01*
X004110Y020875D01*
X004100Y020475D02*
X004900Y021275D01*
X004750Y018825D02*
X004750Y019225D01*
X005150Y019225D01*
X005150Y018425D01*
X004350Y018425D01*
X004350Y019225D01*
X004750Y019225D01*
X004750Y017886D02*
X004750Y018286D01*
X005150Y018286D01*
X005150Y017486D01*
X004350Y017486D01*
X004350Y018286D01*
X004750Y018286D01*
X004750Y016925D02*
X004750Y017325D01*
X005150Y017325D01*
X005150Y016525D01*
X004350Y016525D01*
X004350Y017325D01*
X004750Y017325D01*
X010345Y022595D02*
X010347Y022634D01*
X010353Y022672D01*
X010362Y022710D01*
X010376Y022746D01*
X010392Y022782D01*
X010413Y022815D01*
X010436Y022846D01*
X010463Y022874D01*
X010492Y022900D01*
X010523Y022923D01*
X010557Y022942D01*
X010593Y022958D01*
X010629Y022970D01*
X010667Y022979D01*
X010706Y022984D01*
X010745Y022985D01*
X010783Y022982D01*
X010822Y022975D01*
X010859Y022965D01*
X010895Y022950D01*
X010930Y022933D01*
X010963Y022912D01*
X010993Y022887D01*
X011021Y022860D01*
X011046Y022830D01*
X011068Y022798D01*
X011086Y022764D01*
X011101Y022728D01*
X011113Y022691D01*
X011121Y022653D01*
X011125Y022614D01*
X011125Y022576D01*
X011121Y022537D01*
X011113Y022499D01*
X011101Y022462D01*
X011086Y022426D01*
X011068Y022392D01*
X011046Y022360D01*
X011021Y022330D01*
X010993Y022303D01*
X010963Y022278D01*
X010930Y022257D01*
X010895Y022240D01*
X010859Y022225D01*
X010822Y022215D01*
X010783Y022208D01*
X010745Y022205D01*
X010706Y022206D01*
X010667Y022211D01*
X010629Y022220D01*
X010593Y022232D01*
X010557Y022248D01*
X010523Y022267D01*
X010492Y022290D01*
X010463Y022316D01*
X010436Y022344D01*
X010413Y022375D01*
X010392Y022408D01*
X010376Y022444D01*
X010362Y022480D01*
X010353Y022518D01*
X010347Y022556D01*
X010345Y022595D01*
X010335Y022195D02*
X011135Y022995D01*
X010345Y025155D02*
X010347Y025194D01*
X010353Y025232D01*
X010362Y025270D01*
X010376Y025306D01*
X010392Y025342D01*
X010413Y025375D01*
X010436Y025406D01*
X010463Y025434D01*
X010492Y025460D01*
X010523Y025483D01*
X010557Y025502D01*
X010593Y025518D01*
X010629Y025530D01*
X010667Y025539D01*
X010706Y025544D01*
X010745Y025545D01*
X010783Y025542D01*
X010822Y025535D01*
X010859Y025525D01*
X010895Y025510D01*
X010930Y025493D01*
X010963Y025472D01*
X010993Y025447D01*
X011021Y025420D01*
X011046Y025390D01*
X011068Y025358D01*
X011086Y025324D01*
X011101Y025288D01*
X011113Y025251D01*
X011121Y025213D01*
X011125Y025174D01*
X011125Y025136D01*
X011121Y025097D01*
X011113Y025059D01*
X011101Y025022D01*
X011086Y024986D01*
X011068Y024952D01*
X011046Y024920D01*
X011021Y024890D01*
X010993Y024863D01*
X010963Y024838D01*
X010930Y024817D01*
X010895Y024800D01*
X010859Y024785D01*
X010822Y024775D01*
X010783Y024768D01*
X010745Y024765D01*
X010706Y024766D01*
X010667Y024771D01*
X010629Y024780D01*
X010593Y024792D01*
X010557Y024808D01*
X010523Y024827D01*
X010492Y024850D01*
X010463Y024876D01*
X010436Y024904D01*
X010413Y024935D01*
X010392Y024968D01*
X010376Y025004D01*
X010362Y025040D01*
X010353Y025078D01*
X010347Y025116D01*
X010345Y025155D01*
X010335Y024755D02*
X011135Y025555D01*
X012125Y022595D02*
X012127Y022634D01*
X012133Y022672D01*
X012142Y022710D01*
X012156Y022746D01*
X012172Y022782D01*
X012193Y022815D01*
X012216Y022846D01*
X012243Y022874D01*
X012272Y022900D01*
X012303Y022923D01*
X012337Y022942D01*
X012373Y022958D01*
X012409Y022970D01*
X012447Y022979D01*
X012486Y022984D01*
X012525Y022985D01*
X012563Y022982D01*
X012602Y022975D01*
X012639Y022965D01*
X012675Y022950D01*
X012710Y022933D01*
X012743Y022912D01*
X012773Y022887D01*
X012801Y022860D01*
X012826Y022830D01*
X012848Y022798D01*
X012866Y022764D01*
X012881Y022728D01*
X012893Y022691D01*
X012901Y022653D01*
X012905Y022614D01*
X012905Y022576D01*
X012901Y022537D01*
X012893Y022499D01*
X012881Y022462D01*
X012866Y022426D01*
X012848Y022392D01*
X012826Y022360D01*
X012801Y022330D01*
X012773Y022303D01*
X012743Y022278D01*
X012710Y022257D01*
X012675Y022240D01*
X012639Y022225D01*
X012602Y022215D01*
X012563Y022208D01*
X012525Y022205D01*
X012486Y022206D01*
X012447Y022211D01*
X012409Y022220D01*
X012373Y022232D01*
X012337Y022248D01*
X012303Y022267D01*
X012272Y022290D01*
X012243Y022316D01*
X012216Y022344D01*
X012193Y022375D01*
X012172Y022408D01*
X012156Y022444D01*
X012142Y022480D01*
X012133Y022518D01*
X012127Y022556D01*
X012125Y022595D01*
X012115Y022195D02*
X012915Y022995D01*
X012125Y025155D02*
X012127Y025194D01*
X012133Y025232D01*
X012142Y025270D01*
X012156Y025306D01*
X012172Y025342D01*
X012193Y025375D01*
X012216Y025406D01*
X012243Y025434D01*
X012272Y025460D01*
X012303Y025483D01*
X012337Y025502D01*
X012373Y025518D01*
X012409Y025530D01*
X012447Y025539D01*
X012486Y025544D01*
X012525Y025545D01*
X012563Y025542D01*
X012602Y025535D01*
X012639Y025525D01*
X012675Y025510D01*
X012710Y025493D01*
X012743Y025472D01*
X012773Y025447D01*
X012801Y025420D01*
X012826Y025390D01*
X012848Y025358D01*
X012866Y025324D01*
X012881Y025288D01*
X012893Y025251D01*
X012901Y025213D01*
X012905Y025174D01*
X012905Y025136D01*
X012901Y025097D01*
X012893Y025059D01*
X012881Y025022D01*
X012866Y024986D01*
X012848Y024952D01*
X012826Y024920D01*
X012801Y024890D01*
X012773Y024863D01*
X012743Y024838D01*
X012710Y024817D01*
X012675Y024800D01*
X012639Y024785D01*
X012602Y024775D01*
X012563Y024768D01*
X012525Y024765D01*
X012486Y024766D01*
X012447Y024771D01*
X012409Y024780D01*
X012373Y024792D01*
X012337Y024808D01*
X012303Y024827D01*
X012272Y024850D01*
X012243Y024876D01*
X012216Y024904D01*
X012193Y024935D01*
X012172Y024968D01*
X012156Y025004D01*
X012142Y025040D01*
X012133Y025078D01*
X012127Y025116D01*
X012125Y025155D01*
X012115Y024755D02*
X012915Y025555D01*
X010735Y016000D02*
X010737Y016039D01*
X010743Y016077D01*
X010752Y016115D01*
X010766Y016151D01*
X010782Y016187D01*
X010803Y016220D01*
X010826Y016251D01*
X010853Y016279D01*
X010882Y016305D01*
X010913Y016328D01*
X010947Y016347D01*
X010983Y016363D01*
X011019Y016375D01*
X011057Y016384D01*
X011096Y016389D01*
X011135Y016390D01*
X011173Y016387D01*
X011212Y016380D01*
X011249Y016370D01*
X011285Y016355D01*
X011320Y016338D01*
X011353Y016317D01*
X011383Y016292D01*
X011411Y016265D01*
X011436Y016235D01*
X011458Y016203D01*
X011476Y016169D01*
X011491Y016133D01*
X011503Y016096D01*
X011511Y016058D01*
X011515Y016019D01*
X011515Y015981D01*
X011511Y015942D01*
X011503Y015904D01*
X011491Y015867D01*
X011476Y015831D01*
X011458Y015797D01*
X011436Y015765D01*
X011411Y015735D01*
X011383Y015708D01*
X011353Y015683D01*
X011320Y015662D01*
X011285Y015645D01*
X011249Y015630D01*
X011212Y015620D01*
X011173Y015613D01*
X011135Y015610D01*
X011096Y015611D01*
X011057Y015616D01*
X011019Y015625D01*
X010983Y015637D01*
X010947Y015653D01*
X010913Y015672D01*
X010882Y015695D01*
X010853Y015721D01*
X010826Y015749D01*
X010803Y015780D01*
X010782Y015813D01*
X010766Y015849D01*
X010752Y015885D01*
X010743Y015923D01*
X010737Y015961D01*
X010735Y016000D01*
X010725Y015600D02*
X011525Y016400D01*
X011735Y016000D02*
X011737Y016039D01*
X011743Y016077D01*
X011752Y016115D01*
X011766Y016151D01*
X011782Y016187D01*
X011803Y016220D01*
X011826Y016251D01*
X011853Y016279D01*
X011882Y016305D01*
X011913Y016328D01*
X011947Y016347D01*
X011983Y016363D01*
X012019Y016375D01*
X012057Y016384D01*
X012096Y016389D01*
X012135Y016390D01*
X012173Y016387D01*
X012212Y016380D01*
X012249Y016370D01*
X012285Y016355D01*
X012320Y016338D01*
X012353Y016317D01*
X012383Y016292D01*
X012411Y016265D01*
X012436Y016235D01*
X012458Y016203D01*
X012476Y016169D01*
X012491Y016133D01*
X012503Y016096D01*
X012511Y016058D01*
X012515Y016019D01*
X012515Y015981D01*
X012511Y015942D01*
X012503Y015904D01*
X012491Y015867D01*
X012476Y015831D01*
X012458Y015797D01*
X012436Y015765D01*
X012411Y015735D01*
X012383Y015708D01*
X012353Y015683D01*
X012320Y015662D01*
X012285Y015645D01*
X012249Y015630D01*
X012212Y015620D01*
X012173Y015613D01*
X012135Y015610D01*
X012096Y015611D01*
X012057Y015616D01*
X012019Y015625D01*
X011983Y015637D01*
X011947Y015653D01*
X011913Y015672D01*
X011882Y015695D01*
X011853Y015721D01*
X011826Y015749D01*
X011803Y015780D01*
X011782Y015813D01*
X011766Y015849D01*
X011752Y015885D01*
X011743Y015923D01*
X011737Y015961D01*
X011735Y016000D01*
X011725Y015600D02*
X012525Y016400D01*
X010735Y015000D02*
X010737Y015039D01*
X010743Y015077D01*
X010752Y015115D01*
X010766Y015151D01*
X010782Y015187D01*
X010803Y015220D01*
X010826Y015251D01*
X010853Y015279D01*
X010882Y015305D01*
X010913Y015328D01*
X010947Y015347D01*
X010983Y015363D01*
X011019Y015375D01*
X011057Y015384D01*
X011096Y015389D01*
X011135Y015390D01*
X011173Y015387D01*
X011212Y015380D01*
X011249Y015370D01*
X011285Y015355D01*
X011320Y015338D01*
X011353Y015317D01*
X011383Y015292D01*
X011411Y015265D01*
X011436Y015235D01*
X011458Y015203D01*
X011476Y015169D01*
X011491Y015133D01*
X011503Y015096D01*
X011511Y015058D01*
X011515Y015019D01*
X011515Y014981D01*
X011511Y014942D01*
X011503Y014904D01*
X011491Y014867D01*
X011476Y014831D01*
X011458Y014797D01*
X011436Y014765D01*
X011411Y014735D01*
X011383Y014708D01*
X011353Y014683D01*
X011320Y014662D01*
X011285Y014645D01*
X011249Y014630D01*
X011212Y014620D01*
X011173Y014613D01*
X011135Y014610D01*
X011096Y014611D01*
X011057Y014616D01*
X011019Y014625D01*
X010983Y014637D01*
X010947Y014653D01*
X010913Y014672D01*
X010882Y014695D01*
X010853Y014721D01*
X010826Y014749D01*
X010803Y014780D01*
X010782Y014813D01*
X010766Y014849D01*
X010752Y014885D01*
X010743Y014923D01*
X010737Y014961D01*
X010735Y015000D01*
X010725Y014600D02*
X011525Y015400D01*
X011735Y015000D02*
X011737Y015039D01*
X011743Y015077D01*
X011752Y015115D01*
X011766Y015151D01*
X011782Y015187D01*
X011803Y015220D01*
X011826Y015251D01*
X011853Y015279D01*
X011882Y015305D01*
X011913Y015328D01*
X011947Y015347D01*
X011983Y015363D01*
X012019Y015375D01*
X012057Y015384D01*
X012096Y015389D01*
X012135Y015390D01*
X012173Y015387D01*
X012212Y015380D01*
X012249Y015370D01*
X012285Y015355D01*
X012320Y015338D01*
X012353Y015317D01*
X012383Y015292D01*
X012411Y015265D01*
X012436Y015235D01*
X012458Y015203D01*
X012476Y015169D01*
X012491Y015133D01*
X012503Y015096D01*
X012511Y015058D01*
X012515Y015019D01*
X012515Y014981D01*
X012511Y014942D01*
X012503Y014904D01*
X012491Y014867D01*
X012476Y014831D01*
X012458Y014797D01*
X012436Y014765D01*
X012411Y014735D01*
X012383Y014708D01*
X012353Y014683D01*
X012320Y014662D01*
X012285Y014645D01*
X012249Y014630D01*
X012212Y014620D01*
X012173Y014613D01*
X012135Y014610D01*
X012096Y014611D01*
X012057Y014616D01*
X012019Y014625D01*
X011983Y014637D01*
X011947Y014653D01*
X011913Y014672D01*
X011882Y014695D01*
X011853Y014721D01*
X011826Y014749D01*
X011803Y014780D01*
X011782Y014813D01*
X011766Y014849D01*
X011752Y014885D01*
X011743Y014923D01*
X011737Y014961D01*
X011735Y015000D01*
X011725Y014600D02*
X012525Y015400D01*
X010735Y014000D02*
X010737Y014039D01*
X010743Y014077D01*
X010752Y014115D01*
X010766Y014151D01*
X010782Y014187D01*
X010803Y014220D01*
X010826Y014251D01*
X010853Y014279D01*
X010882Y014305D01*
X010913Y014328D01*
X010947Y014347D01*
X010983Y014363D01*
X011019Y014375D01*
X011057Y014384D01*
X011096Y014389D01*
X011135Y014390D01*
X011173Y014387D01*
X011212Y014380D01*
X011249Y014370D01*
X011285Y014355D01*
X011320Y014338D01*
X011353Y014317D01*
X011383Y014292D01*
X011411Y014265D01*
X011436Y014235D01*
X011458Y014203D01*
X011476Y014169D01*
X011491Y014133D01*
X011503Y014096D01*
X011511Y014058D01*
X011515Y014019D01*
X011515Y013981D01*
X011511Y013942D01*
X011503Y013904D01*
X011491Y013867D01*
X011476Y013831D01*
X011458Y013797D01*
X011436Y013765D01*
X011411Y013735D01*
X011383Y013708D01*
X011353Y013683D01*
X011320Y013662D01*
X011285Y013645D01*
X011249Y013630D01*
X011212Y013620D01*
X011173Y013613D01*
X011135Y013610D01*
X011096Y013611D01*
X011057Y013616D01*
X011019Y013625D01*
X010983Y013637D01*
X010947Y013653D01*
X010913Y013672D01*
X010882Y013695D01*
X010853Y013721D01*
X010826Y013749D01*
X010803Y013780D01*
X010782Y013813D01*
X010766Y013849D01*
X010752Y013885D01*
X010743Y013923D01*
X010737Y013961D01*
X010735Y014000D01*
X010725Y013600D02*
X011525Y014400D01*
X011735Y014000D02*
X011737Y014039D01*
X011743Y014077D01*
X011752Y014115D01*
X011766Y014151D01*
X011782Y014187D01*
X011803Y014220D01*
X011826Y014251D01*
X011853Y014279D01*
X011882Y014305D01*
X011913Y014328D01*
X011947Y014347D01*
X011983Y014363D01*
X012019Y014375D01*
X012057Y014384D01*
X012096Y014389D01*
X012135Y014390D01*
X012173Y014387D01*
X012212Y014380D01*
X012249Y014370D01*
X012285Y014355D01*
X012320Y014338D01*
X012353Y014317D01*
X012383Y014292D01*
X012411Y014265D01*
X012436Y014235D01*
X012458Y014203D01*
X012476Y014169D01*
X012491Y014133D01*
X012503Y014096D01*
X012511Y014058D01*
X012515Y014019D01*
X012515Y013981D01*
X012511Y013942D01*
X012503Y013904D01*
X012491Y013867D01*
X012476Y013831D01*
X012458Y013797D01*
X012436Y013765D01*
X012411Y013735D01*
X012383Y013708D01*
X012353Y013683D01*
X012320Y013662D01*
X012285Y013645D01*
X012249Y013630D01*
X012212Y013620D01*
X012173Y013613D01*
X012135Y013610D01*
X012096Y013611D01*
X012057Y013616D01*
X012019Y013625D01*
X011983Y013637D01*
X011947Y013653D01*
X011913Y013672D01*
X011882Y013695D01*
X011853Y013721D01*
X011826Y013749D01*
X011803Y013780D01*
X011782Y013813D01*
X011766Y013849D01*
X011752Y013885D01*
X011743Y013923D01*
X011737Y013961D01*
X011735Y014000D01*
X011725Y013600D02*
X012525Y014400D01*
X004110Y025000D02*
X004112Y025039D01*
X004118Y025077D01*
X004127Y025115D01*
X004141Y025151D01*
X004157Y025187D01*
X004178Y025220D01*
X004201Y025251D01*
X004228Y025279D01*
X004257Y025305D01*
X004288Y025328D01*
X004322Y025347D01*
X004358Y025363D01*
X004394Y025375D01*
X004432Y025384D01*
X004471Y025389D01*
X004510Y025390D01*
X004548Y025387D01*
X004587Y025380D01*
X004624Y025370D01*
X004660Y025355D01*
X004695Y025338D01*
X004728Y025317D01*
X004758Y025292D01*
X004786Y025265D01*
X004811Y025235D01*
X004833Y025203D01*
X004851Y025169D01*
X004866Y025133D01*
X004878Y025096D01*
X004886Y025058D01*
X004890Y025019D01*
X004890Y024981D01*
X004886Y024942D01*
X004878Y024904D01*
X004866Y024867D01*
X004851Y024831D01*
X004833Y024797D01*
X004811Y024765D01*
X004786Y024735D01*
X004758Y024708D01*
X004728Y024683D01*
X004695Y024662D01*
X004660Y024645D01*
X004624Y024630D01*
X004587Y024620D01*
X004548Y024613D01*
X004510Y024610D01*
X004471Y024611D01*
X004432Y024616D01*
X004394Y024625D01*
X004358Y024637D01*
X004322Y024653D01*
X004288Y024672D01*
X004257Y024695D01*
X004228Y024721D01*
X004201Y024749D01*
X004178Y024780D01*
X004157Y024813D01*
X004141Y024849D01*
X004127Y024885D01*
X004118Y024923D01*
X004112Y024961D01*
X004110Y025000D01*
X004100Y024600D02*
X004900Y025400D01*
X005110Y025000D02*
X005112Y025039D01*
X005118Y025077D01*
X005127Y025115D01*
X005141Y025151D01*
X005157Y025187D01*
X005178Y025220D01*
X005201Y025251D01*
X005228Y025279D01*
X005257Y025305D01*
X005288Y025328D01*
X005322Y025347D01*
X005358Y025363D01*
X005394Y025375D01*
X005432Y025384D01*
X005471Y025389D01*
X005510Y025390D01*
X005548Y025387D01*
X005587Y025380D01*
X005624Y025370D01*
X005660Y025355D01*
X005695Y025338D01*
X005728Y025317D01*
X005758Y025292D01*
X005786Y025265D01*
X005811Y025235D01*
X005833Y025203D01*
X005851Y025169D01*
X005866Y025133D01*
X005878Y025096D01*
X005886Y025058D01*
X005890Y025019D01*
X005890Y024981D01*
X005886Y024942D01*
X005878Y024904D01*
X005866Y024867D01*
X005851Y024831D01*
X005833Y024797D01*
X005811Y024765D01*
X005786Y024735D01*
X005758Y024708D01*
X005728Y024683D01*
X005695Y024662D01*
X005660Y024645D01*
X005624Y024630D01*
X005587Y024620D01*
X005548Y024613D01*
X005510Y024610D01*
X005471Y024611D01*
X005432Y024616D01*
X005394Y024625D01*
X005358Y024637D01*
X005322Y024653D01*
X005288Y024672D01*
X005257Y024695D01*
X005228Y024721D01*
X005201Y024749D01*
X005178Y024780D01*
X005157Y024813D01*
X005141Y024849D01*
X005127Y024885D01*
X005118Y024923D01*
X005112Y024961D01*
X005110Y025000D01*
X005100Y024600D02*
X005900Y025400D01*
X006360Y011000D02*
X006362Y011039D01*
X006368Y011077D01*
X006377Y011115D01*
X006391Y011151D01*
X006407Y011187D01*
X006428Y011220D01*
X006451Y011251D01*
X006478Y011279D01*
X006507Y011305D01*
X006538Y011328D01*
X006572Y011347D01*
X006608Y011363D01*
X006644Y011375D01*
X006682Y011384D01*
X006721Y011389D01*
X006760Y011390D01*
X006798Y011387D01*
X006837Y011380D01*
X006874Y011370D01*
X006910Y011355D01*
X006945Y011338D01*
X006978Y011317D01*
X007008Y011292D01*
X007036Y011265D01*
X007061Y011235D01*
X007083Y011203D01*
X007101Y011169D01*
X007116Y011133D01*
X007128Y011096D01*
X007136Y011058D01*
X007140Y011019D01*
X007140Y010981D01*
X007136Y010942D01*
X007128Y010904D01*
X007116Y010867D01*
X007101Y010831D01*
X007083Y010797D01*
X007061Y010765D01*
X007036Y010735D01*
X007008Y010708D01*
X006978Y010683D01*
X006945Y010662D01*
X006910Y010645D01*
X006874Y010630D01*
X006837Y010620D01*
X006798Y010613D01*
X006760Y010610D01*
X006721Y010611D01*
X006682Y010616D01*
X006644Y010625D01*
X006608Y010637D01*
X006572Y010653D01*
X006538Y010672D01*
X006507Y010695D01*
X006478Y010721D01*
X006451Y010749D01*
X006428Y010780D01*
X006407Y010813D01*
X006391Y010849D01*
X006377Y010885D01*
X006368Y010923D01*
X006362Y010961D01*
X006360Y011000D01*
X006350Y010600D02*
X007150Y011400D01*
X006360Y010000D02*
X006362Y010039D01*
X006368Y010077D01*
X006377Y010115D01*
X006391Y010151D01*
X006407Y010187D01*
X006428Y010220D01*
X006451Y010251D01*
X006478Y010279D01*
X006507Y010305D01*
X006538Y010328D01*
X006572Y010347D01*
X006608Y010363D01*
X006644Y010375D01*
X006682Y010384D01*
X006721Y010389D01*
X006760Y010390D01*
X006798Y010387D01*
X006837Y010380D01*
X006874Y010370D01*
X006910Y010355D01*
X006945Y010338D01*
X006978Y010317D01*
X007008Y010292D01*
X007036Y010265D01*
X007061Y010235D01*
X007083Y010203D01*
X007101Y010169D01*
X007116Y010133D01*
X007128Y010096D01*
X007136Y010058D01*
X007140Y010019D01*
X007140Y009981D01*
X007136Y009942D01*
X007128Y009904D01*
X007116Y009867D01*
X007101Y009831D01*
X007083Y009797D01*
X007061Y009765D01*
X007036Y009735D01*
X007008Y009708D01*
X006978Y009683D01*
X006945Y009662D01*
X006910Y009645D01*
X006874Y009630D01*
X006837Y009620D01*
X006798Y009613D01*
X006760Y009610D01*
X006721Y009611D01*
X006682Y009616D01*
X006644Y009625D01*
X006608Y009637D01*
X006572Y009653D01*
X006538Y009672D01*
X006507Y009695D01*
X006478Y009721D01*
X006451Y009749D01*
X006428Y009780D01*
X006407Y009813D01*
X006391Y009849D01*
X006377Y009885D01*
X006368Y009923D01*
X006362Y009961D01*
X006360Y010000D01*
X006350Y009600D02*
X007150Y010400D01*
X009360Y010000D02*
X009362Y010039D01*
X009368Y010077D01*
X009377Y010115D01*
X009391Y010151D01*
X009407Y010187D01*
X009428Y010220D01*
X009451Y010251D01*
X009478Y010279D01*
X009507Y010305D01*
X009538Y010328D01*
X009572Y010347D01*
X009608Y010363D01*
X009644Y010375D01*
X009682Y010384D01*
X009721Y010389D01*
X009760Y010390D01*
X009798Y010387D01*
X009837Y010380D01*
X009874Y010370D01*
X009910Y010355D01*
X009945Y010338D01*
X009978Y010317D01*
X010008Y010292D01*
X010036Y010265D01*
X010061Y010235D01*
X010083Y010203D01*
X010101Y010169D01*
X010116Y010133D01*
X010128Y010096D01*
X010136Y010058D01*
X010140Y010019D01*
X010140Y009981D01*
X010136Y009942D01*
X010128Y009904D01*
X010116Y009867D01*
X010101Y009831D01*
X010083Y009797D01*
X010061Y009765D01*
X010036Y009735D01*
X010008Y009708D01*
X009978Y009683D01*
X009945Y009662D01*
X009910Y009645D01*
X009874Y009630D01*
X009837Y009620D01*
X009798Y009613D01*
X009760Y009610D01*
X009721Y009611D01*
X009682Y009616D01*
X009644Y009625D01*
X009608Y009637D01*
X009572Y009653D01*
X009538Y009672D01*
X009507Y009695D01*
X009478Y009721D01*
X009451Y009749D01*
X009428Y009780D01*
X009407Y009813D01*
X009391Y009849D01*
X009377Y009885D01*
X009368Y009923D01*
X009362Y009961D01*
X009360Y010000D01*
X009350Y009600D02*
X010150Y010400D01*
X009360Y011000D02*
X009362Y011039D01*
X009368Y011077D01*
X009377Y011115D01*
X009391Y011151D01*
X009407Y011187D01*
X009428Y011220D01*
X009451Y011251D01*
X009478Y011279D01*
X009507Y011305D01*
X009538Y011328D01*
X009572Y011347D01*
X009608Y011363D01*
X009644Y011375D01*
X009682Y011384D01*
X009721Y011389D01*
X009760Y011390D01*
X009798Y011387D01*
X009837Y011380D01*
X009874Y011370D01*
X009910Y011355D01*
X009945Y011338D01*
X009978Y011317D01*
X010008Y011292D01*
X010036Y011265D01*
X010061Y011235D01*
X010083Y011203D01*
X010101Y011169D01*
X010116Y011133D01*
X010128Y011096D01*
X010136Y011058D01*
X010140Y011019D01*
X010140Y010981D01*
X010136Y010942D01*
X010128Y010904D01*
X010116Y010867D01*
X010101Y010831D01*
X010083Y010797D01*
X010061Y010765D01*
X010036Y010735D01*
X010008Y010708D01*
X009978Y010683D01*
X009945Y010662D01*
X009910Y010645D01*
X009874Y010630D01*
X009837Y010620D01*
X009798Y010613D01*
X009760Y010610D01*
X009721Y010611D01*
X009682Y010616D01*
X009644Y010625D01*
X009608Y010637D01*
X009572Y010653D01*
X009538Y010672D01*
X009507Y010695D01*
X009478Y010721D01*
X009451Y010749D01*
X009428Y010780D01*
X009407Y010813D01*
X009391Y010849D01*
X009377Y010885D01*
X009368Y010923D01*
X009362Y010961D01*
X009360Y011000D01*
X009350Y010600D02*
X010150Y011400D01*
X006360Y009000D02*
X006362Y009039D01*
X006368Y009077D01*
X006377Y009115D01*
X006391Y009151D01*
X006407Y009187D01*
X006428Y009220D01*
X006451Y009251D01*
X006478Y009279D01*
X006507Y009305D01*
X006538Y009328D01*
X006572Y009347D01*
X006608Y009363D01*
X006644Y009375D01*
X006682Y009384D01*
X006721Y009389D01*
X006760Y009390D01*
X006798Y009387D01*
X006837Y009380D01*
X006874Y009370D01*
X006910Y009355D01*
X006945Y009338D01*
X006978Y009317D01*
X007008Y009292D01*
X007036Y009265D01*
X007061Y009235D01*
X007083Y009203D01*
X007101Y009169D01*
X007116Y009133D01*
X007128Y009096D01*
X007136Y009058D01*
X007140Y009019D01*
X007140Y008981D01*
X007136Y008942D01*
X007128Y008904D01*
X007116Y008867D01*
X007101Y008831D01*
X007083Y008797D01*
X007061Y008765D01*
X007036Y008735D01*
X007008Y008708D01*
X006978Y008683D01*
X006945Y008662D01*
X006910Y008645D01*
X006874Y008630D01*
X006837Y008620D01*
X006798Y008613D01*
X006760Y008610D01*
X006721Y008611D01*
X006682Y008616D01*
X006644Y008625D01*
X006608Y008637D01*
X006572Y008653D01*
X006538Y008672D01*
X006507Y008695D01*
X006478Y008721D01*
X006451Y008749D01*
X006428Y008780D01*
X006407Y008813D01*
X006391Y008849D01*
X006377Y008885D01*
X006368Y008923D01*
X006362Y008961D01*
X006360Y009000D01*
X006350Y008600D02*
X007150Y009400D01*
X009360Y009000D02*
X009362Y009039D01*
X009368Y009077D01*
X009377Y009115D01*
X009391Y009151D01*
X009407Y009187D01*
X009428Y009220D01*
X009451Y009251D01*
X009478Y009279D01*
X009507Y009305D01*
X009538Y009328D01*
X009572Y009347D01*
X009608Y009363D01*
X009644Y009375D01*
X009682Y009384D01*
X009721Y009389D01*
X009760Y009390D01*
X009798Y009387D01*
X009837Y009380D01*
X009874Y009370D01*
X009910Y009355D01*
X009945Y009338D01*
X009978Y009317D01*
X010008Y009292D01*
X010036Y009265D01*
X010061Y009235D01*
X010083Y009203D01*
X010101Y009169D01*
X010116Y009133D01*
X010128Y009096D01*
X010136Y009058D01*
X010140Y009019D01*
X010140Y008981D01*
X010136Y008942D01*
X010128Y008904D01*
X010116Y008867D01*
X010101Y008831D01*
X010083Y008797D01*
X010061Y008765D01*
X010036Y008735D01*
X010008Y008708D01*
X009978Y008683D01*
X009945Y008662D01*
X009910Y008645D01*
X009874Y008630D01*
X009837Y008620D01*
X009798Y008613D01*
X009760Y008610D01*
X009721Y008611D01*
X009682Y008616D01*
X009644Y008625D01*
X009608Y008637D01*
X009572Y008653D01*
X009538Y008672D01*
X009507Y008695D01*
X009478Y008721D01*
X009451Y008749D01*
X009428Y008780D01*
X009407Y008813D01*
X009391Y008849D01*
X009377Y008885D01*
X009368Y008923D01*
X009362Y008961D01*
X009360Y009000D01*
X009350Y008600D02*
X010150Y009400D01*
X015485Y020125D02*
X015487Y020164D01*
X015493Y020202D01*
X015502Y020240D01*
X015516Y020276D01*
X015532Y020312D01*
X015553Y020345D01*
X015576Y020376D01*
X015603Y020404D01*
X015632Y020430D01*
X015663Y020453D01*
X015697Y020472D01*
X015733Y020488D01*
X015769Y020500D01*
X015807Y020509D01*
X015846Y020514D01*
X015885Y020515D01*
X015923Y020512D01*
X015962Y020505D01*
X015999Y020495D01*
X016035Y020480D01*
X016070Y020463D01*
X016103Y020442D01*
X016133Y020417D01*
X016161Y020390D01*
X016186Y020360D01*
X016208Y020328D01*
X016226Y020294D01*
X016241Y020258D01*
X016253Y020221D01*
X016261Y020183D01*
X016265Y020144D01*
X016265Y020106D01*
X016261Y020067D01*
X016253Y020029D01*
X016241Y019992D01*
X016226Y019956D01*
X016208Y019922D01*
X016186Y019890D01*
X016161Y019860D01*
X016133Y019833D01*
X016103Y019808D01*
X016070Y019787D01*
X016035Y019770D01*
X015999Y019755D01*
X015962Y019745D01*
X015923Y019738D01*
X015885Y019735D01*
X015846Y019736D01*
X015807Y019741D01*
X015769Y019750D01*
X015733Y019762D01*
X015697Y019778D01*
X015663Y019797D01*
X015632Y019820D01*
X015603Y019846D01*
X015576Y019874D01*
X015553Y019905D01*
X015532Y019938D01*
X015516Y019974D01*
X015502Y020010D01*
X015493Y020048D01*
X015487Y020086D01*
X015485Y020125D01*
X015475Y019725D02*
X016275Y020525D01*
X015485Y019125D02*
X015487Y019164D01*
X015493Y019202D01*
X015502Y019240D01*
X015516Y019276D01*
X015532Y019312D01*
X015553Y019345D01*
X015576Y019376D01*
X015603Y019404D01*
X015632Y019430D01*
X015663Y019453D01*
X015697Y019472D01*
X015733Y019488D01*
X015769Y019500D01*
X015807Y019509D01*
X015846Y019514D01*
X015885Y019515D01*
X015923Y019512D01*
X015962Y019505D01*
X015999Y019495D01*
X016035Y019480D01*
X016070Y019463D01*
X016103Y019442D01*
X016133Y019417D01*
X016161Y019390D01*
X016186Y019360D01*
X016208Y019328D01*
X016226Y019294D01*
X016241Y019258D01*
X016253Y019221D01*
X016261Y019183D01*
X016265Y019144D01*
X016265Y019106D01*
X016261Y019067D01*
X016253Y019029D01*
X016241Y018992D01*
X016226Y018956D01*
X016208Y018922D01*
X016186Y018890D01*
X016161Y018860D01*
X016133Y018833D01*
X016103Y018808D01*
X016070Y018787D01*
X016035Y018770D01*
X015999Y018755D01*
X015962Y018745D01*
X015923Y018738D01*
X015885Y018735D01*
X015846Y018736D01*
X015807Y018741D01*
X015769Y018750D01*
X015733Y018762D01*
X015697Y018778D01*
X015663Y018797D01*
X015632Y018820D01*
X015603Y018846D01*
X015576Y018874D01*
X015553Y018905D01*
X015532Y018938D01*
X015516Y018974D01*
X015502Y019010D01*
X015493Y019048D01*
X015487Y019086D01*
X015485Y019125D01*
X015475Y018725D02*
X016275Y019525D01*
X018485Y019125D02*
X018487Y019164D01*
X018493Y019202D01*
X018502Y019240D01*
X018516Y019276D01*
X018532Y019312D01*
X018553Y019345D01*
X018576Y019376D01*
X018603Y019404D01*
X018632Y019430D01*
X018663Y019453D01*
X018697Y019472D01*
X018733Y019488D01*
X018769Y019500D01*
X018807Y019509D01*
X018846Y019514D01*
X018885Y019515D01*
X018923Y019512D01*
X018962Y019505D01*
X018999Y019495D01*
X019035Y019480D01*
X019070Y019463D01*
X019103Y019442D01*
X019133Y019417D01*
X019161Y019390D01*
X019186Y019360D01*
X019208Y019328D01*
X019226Y019294D01*
X019241Y019258D01*
X019253Y019221D01*
X019261Y019183D01*
X019265Y019144D01*
X019265Y019106D01*
X019261Y019067D01*
X019253Y019029D01*
X019241Y018992D01*
X019226Y018956D01*
X019208Y018922D01*
X019186Y018890D01*
X019161Y018860D01*
X019133Y018833D01*
X019103Y018808D01*
X019070Y018787D01*
X019035Y018770D01*
X018999Y018755D01*
X018962Y018745D01*
X018923Y018738D01*
X018885Y018735D01*
X018846Y018736D01*
X018807Y018741D01*
X018769Y018750D01*
X018733Y018762D01*
X018697Y018778D01*
X018663Y018797D01*
X018632Y018820D01*
X018603Y018846D01*
X018576Y018874D01*
X018553Y018905D01*
X018532Y018938D01*
X018516Y018974D01*
X018502Y019010D01*
X018493Y019048D01*
X018487Y019086D01*
X018485Y019125D01*
X018475Y018725D02*
X019275Y019525D01*
X018485Y020125D02*
X018487Y020164D01*
X018493Y020202D01*
X018502Y020240D01*
X018516Y020276D01*
X018532Y020312D01*
X018553Y020345D01*
X018576Y020376D01*
X018603Y020404D01*
X018632Y020430D01*
X018663Y020453D01*
X018697Y020472D01*
X018733Y020488D01*
X018769Y020500D01*
X018807Y020509D01*
X018846Y020514D01*
X018885Y020515D01*
X018923Y020512D01*
X018962Y020505D01*
X018999Y020495D01*
X019035Y020480D01*
X019070Y020463D01*
X019103Y020442D01*
X019133Y020417D01*
X019161Y020390D01*
X019186Y020360D01*
X019208Y020328D01*
X019226Y020294D01*
X019241Y020258D01*
X019253Y020221D01*
X019261Y020183D01*
X019265Y020144D01*
X019265Y020106D01*
X019261Y020067D01*
X019253Y020029D01*
X019241Y019992D01*
X019226Y019956D01*
X019208Y019922D01*
X019186Y019890D01*
X019161Y019860D01*
X019133Y019833D01*
X019103Y019808D01*
X019070Y019787D01*
X019035Y019770D01*
X018999Y019755D01*
X018962Y019745D01*
X018923Y019738D01*
X018885Y019735D01*
X018846Y019736D01*
X018807Y019741D01*
X018769Y019750D01*
X018733Y019762D01*
X018697Y019778D01*
X018663Y019797D01*
X018632Y019820D01*
X018603Y019846D01*
X018576Y019874D01*
X018553Y019905D01*
X018532Y019938D01*
X018516Y019974D01*
X018502Y020010D01*
X018493Y020048D01*
X018487Y020086D01*
X018485Y020125D01*
X018475Y019725D02*
X019275Y020525D01*
X015485Y018125D02*
X015487Y018164D01*
X015493Y018202D01*
X015502Y018240D01*
X015516Y018276D01*
X015532Y018312D01*
X015553Y018345D01*
X015576Y018376D01*
X015603Y018404D01*
X015632Y018430D01*
X015663Y018453D01*
X015697Y018472D01*
X015733Y018488D01*
X015769Y018500D01*
X015807Y018509D01*
X015846Y018514D01*
X015885Y018515D01*
X015923Y018512D01*
X015962Y018505D01*
X015999Y018495D01*
X016035Y018480D01*
X016070Y018463D01*
X016103Y018442D01*
X016133Y018417D01*
X016161Y018390D01*
X016186Y018360D01*
X016208Y018328D01*
X016226Y018294D01*
X016241Y018258D01*
X016253Y018221D01*
X016261Y018183D01*
X016265Y018144D01*
X016265Y018106D01*
X016261Y018067D01*
X016253Y018029D01*
X016241Y017992D01*
X016226Y017956D01*
X016208Y017922D01*
X016186Y017890D01*
X016161Y017860D01*
X016133Y017833D01*
X016103Y017808D01*
X016070Y017787D01*
X016035Y017770D01*
X015999Y017755D01*
X015962Y017745D01*
X015923Y017738D01*
X015885Y017735D01*
X015846Y017736D01*
X015807Y017741D01*
X015769Y017750D01*
X015733Y017762D01*
X015697Y017778D01*
X015663Y017797D01*
X015632Y017820D01*
X015603Y017846D01*
X015576Y017874D01*
X015553Y017905D01*
X015532Y017938D01*
X015516Y017974D01*
X015502Y018010D01*
X015493Y018048D01*
X015487Y018086D01*
X015485Y018125D01*
X015475Y017725D02*
X016275Y018525D01*
X018485Y018125D02*
X018487Y018164D01*
X018493Y018202D01*
X018502Y018240D01*
X018516Y018276D01*
X018532Y018312D01*
X018553Y018345D01*
X018576Y018376D01*
X018603Y018404D01*
X018632Y018430D01*
X018663Y018453D01*
X018697Y018472D01*
X018733Y018488D01*
X018769Y018500D01*
X018807Y018509D01*
X018846Y018514D01*
X018885Y018515D01*
X018923Y018512D01*
X018962Y018505D01*
X018999Y018495D01*
X019035Y018480D01*
X019070Y018463D01*
X019103Y018442D01*
X019133Y018417D01*
X019161Y018390D01*
X019186Y018360D01*
X019208Y018328D01*
X019226Y018294D01*
X019241Y018258D01*
X019253Y018221D01*
X019261Y018183D01*
X019265Y018144D01*
X019265Y018106D01*
X019261Y018067D01*
X019253Y018029D01*
X019241Y017992D01*
X019226Y017956D01*
X019208Y017922D01*
X019186Y017890D01*
X019161Y017860D01*
X019133Y017833D01*
X019103Y017808D01*
X019070Y017787D01*
X019035Y017770D01*
X018999Y017755D01*
X018962Y017745D01*
X018923Y017738D01*
X018885Y017735D01*
X018846Y017736D01*
X018807Y017741D01*
X018769Y017750D01*
X018733Y017762D01*
X018697Y017778D01*
X018663Y017797D01*
X018632Y017820D01*
X018603Y017846D01*
X018576Y017874D01*
X018553Y017905D01*
X018532Y017938D01*
X018516Y017974D01*
X018502Y018010D01*
X018493Y018048D01*
X018487Y018086D01*
X018485Y018125D01*
X018475Y017725D02*
X019275Y018525D01*
X015235Y015125D02*
X015237Y015164D01*
X015243Y015202D01*
X015252Y015240D01*
X015266Y015276D01*
X015282Y015312D01*
X015303Y015345D01*
X015326Y015376D01*
X015353Y015404D01*
X015382Y015430D01*
X015413Y015453D01*
X015447Y015472D01*
X015483Y015488D01*
X015519Y015500D01*
X015557Y015509D01*
X015596Y015514D01*
X015635Y015515D01*
X015673Y015512D01*
X015712Y015505D01*
X015749Y015495D01*
X015785Y015480D01*
X015820Y015463D01*
X015853Y015442D01*
X015883Y015417D01*
X015911Y015390D01*
X015936Y015360D01*
X015958Y015328D01*
X015976Y015294D01*
X015991Y015258D01*
X016003Y015221D01*
X016011Y015183D01*
X016015Y015144D01*
X016015Y015106D01*
X016011Y015067D01*
X016003Y015029D01*
X015991Y014992D01*
X015976Y014956D01*
X015958Y014922D01*
X015936Y014890D01*
X015911Y014860D01*
X015883Y014833D01*
X015853Y014808D01*
X015820Y014787D01*
X015785Y014770D01*
X015749Y014755D01*
X015712Y014745D01*
X015673Y014738D01*
X015635Y014735D01*
X015596Y014736D01*
X015557Y014741D01*
X015519Y014750D01*
X015483Y014762D01*
X015447Y014778D01*
X015413Y014797D01*
X015382Y014820D01*
X015353Y014846D01*
X015326Y014874D01*
X015303Y014905D01*
X015282Y014938D01*
X015266Y014974D01*
X015252Y015010D01*
X015243Y015048D01*
X015237Y015086D01*
X015235Y015125D01*
X015225Y014725D02*
X016025Y015525D01*
X016235Y015125D02*
X016237Y015164D01*
X016243Y015202D01*
X016252Y015240D01*
X016266Y015276D01*
X016282Y015312D01*
X016303Y015345D01*
X016326Y015376D01*
X016353Y015404D01*
X016382Y015430D01*
X016413Y015453D01*
X016447Y015472D01*
X016483Y015488D01*
X016519Y015500D01*
X016557Y015509D01*
X016596Y015514D01*
X016635Y015515D01*
X016673Y015512D01*
X016712Y015505D01*
X016749Y015495D01*
X016785Y015480D01*
X016820Y015463D01*
X016853Y015442D01*
X016883Y015417D01*
X016911Y015390D01*
X016936Y015360D01*
X016958Y015328D01*
X016976Y015294D01*
X016991Y015258D01*
X017003Y015221D01*
X017011Y015183D01*
X017015Y015144D01*
X017015Y015106D01*
X017011Y015067D01*
X017003Y015029D01*
X016991Y014992D01*
X016976Y014956D01*
X016958Y014922D01*
X016936Y014890D01*
X016911Y014860D01*
X016883Y014833D01*
X016853Y014808D01*
X016820Y014787D01*
X016785Y014770D01*
X016749Y014755D01*
X016712Y014745D01*
X016673Y014738D01*
X016635Y014735D01*
X016596Y014736D01*
X016557Y014741D01*
X016519Y014750D01*
X016483Y014762D01*
X016447Y014778D01*
X016413Y014797D01*
X016382Y014820D01*
X016353Y014846D01*
X016326Y014874D01*
X016303Y014905D01*
X016282Y014938D01*
X016266Y014974D01*
X016252Y015010D01*
X016243Y015048D01*
X016237Y015086D01*
X016235Y015125D01*
X016225Y014725D02*
X017025Y015525D01*
X017235Y015125D02*
X017237Y015164D01*
X017243Y015202D01*
X017252Y015240D01*
X017266Y015276D01*
X017282Y015312D01*
X017303Y015345D01*
X017326Y015376D01*
X017353Y015404D01*
X017382Y015430D01*
X017413Y015453D01*
X017447Y015472D01*
X017483Y015488D01*
X017519Y015500D01*
X017557Y015509D01*
X017596Y015514D01*
X017635Y015515D01*
X017673Y015512D01*
X017712Y015505D01*
X017749Y015495D01*
X017785Y015480D01*
X017820Y015463D01*
X017853Y015442D01*
X017883Y015417D01*
X017911Y015390D01*
X017936Y015360D01*
X017958Y015328D01*
X017976Y015294D01*
X017991Y015258D01*
X018003Y015221D01*
X018011Y015183D01*
X018015Y015144D01*
X018015Y015106D01*
X018011Y015067D01*
X018003Y015029D01*
X017991Y014992D01*
X017976Y014956D01*
X017958Y014922D01*
X017936Y014890D01*
X017911Y014860D01*
X017883Y014833D01*
X017853Y014808D01*
X017820Y014787D01*
X017785Y014770D01*
X017749Y014755D01*
X017712Y014745D01*
X017673Y014738D01*
X017635Y014735D01*
X017596Y014736D01*
X017557Y014741D01*
X017519Y014750D01*
X017483Y014762D01*
X017447Y014778D01*
X017413Y014797D01*
X017382Y014820D01*
X017353Y014846D01*
X017326Y014874D01*
X017303Y014905D01*
X017282Y014938D01*
X017266Y014974D01*
X017252Y015010D01*
X017243Y015048D01*
X017237Y015086D01*
X017235Y015125D01*
X017225Y014725D02*
X018025Y015525D01*
X018235Y015125D02*
X018237Y015164D01*
X018243Y015202D01*
X018252Y015240D01*
X018266Y015276D01*
X018282Y015312D01*
X018303Y015345D01*
X018326Y015376D01*
X018353Y015404D01*
X018382Y015430D01*
X018413Y015453D01*
X018447Y015472D01*
X018483Y015488D01*
X018519Y015500D01*
X018557Y015509D01*
X018596Y015514D01*
X018635Y015515D01*
X018673Y015512D01*
X018712Y015505D01*
X018749Y015495D01*
X018785Y015480D01*
X018820Y015463D01*
X018853Y015442D01*
X018883Y015417D01*
X018911Y015390D01*
X018936Y015360D01*
X018958Y015328D01*
X018976Y015294D01*
X018991Y015258D01*
X019003Y015221D01*
X019011Y015183D01*
X019015Y015144D01*
X019015Y015106D01*
X019011Y015067D01*
X019003Y015029D01*
X018991Y014992D01*
X018976Y014956D01*
X018958Y014922D01*
X018936Y014890D01*
X018911Y014860D01*
X018883Y014833D01*
X018853Y014808D01*
X018820Y014787D01*
X018785Y014770D01*
X018749Y014755D01*
X018712Y014745D01*
X018673Y014738D01*
X018635Y014735D01*
X018596Y014736D01*
X018557Y014741D01*
X018519Y014750D01*
X018483Y014762D01*
X018447Y014778D01*
X018413Y014797D01*
X018382Y014820D01*
X018353Y014846D01*
X018326Y014874D01*
X018303Y014905D01*
X018282Y014938D01*
X018266Y014974D01*
X018252Y015010D01*
X018243Y015048D01*
X018237Y015086D01*
X018235Y015125D01*
X018225Y014725D02*
X019025Y015525D01*
X014860Y007500D02*
X014862Y007539D01*
X014868Y007577D01*
X014877Y007615D01*
X014891Y007651D01*
X014907Y007687D01*
X014928Y007720D01*
X014951Y007751D01*
X014978Y007779D01*
X015007Y007805D01*
X015038Y007828D01*
X015072Y007847D01*
X015108Y007863D01*
X015144Y007875D01*
X015182Y007884D01*
X015221Y007889D01*
X015260Y007890D01*
X015298Y007887D01*
X015337Y007880D01*
X015374Y007870D01*
X015410Y007855D01*
X015445Y007838D01*
X015478Y007817D01*
X015508Y007792D01*
X015536Y007765D01*
X015561Y007735D01*
X015583Y007703D01*
X015601Y007669D01*
X015616Y007633D01*
X015628Y007596D01*
X015636Y007558D01*
X015640Y007519D01*
X015640Y007481D01*
X015636Y007442D01*
X015628Y007404D01*
X015616Y007367D01*
X015601Y007331D01*
X015583Y007297D01*
X015561Y007265D01*
X015536Y007235D01*
X015508Y007208D01*
X015478Y007183D01*
X015445Y007162D01*
X015410Y007145D01*
X015374Y007130D01*
X015337Y007120D01*
X015298Y007113D01*
X015260Y007110D01*
X015221Y007111D01*
X015182Y007116D01*
X015144Y007125D01*
X015108Y007137D01*
X015072Y007153D01*
X015038Y007172D01*
X015007Y007195D01*
X014978Y007221D01*
X014951Y007249D01*
X014928Y007280D01*
X014907Y007313D01*
X014891Y007349D01*
X014877Y007385D01*
X014868Y007423D01*
X014862Y007461D01*
X014860Y007500D01*
X014850Y007100D02*
X015650Y007900D01*
X014860Y008500D02*
X014862Y008539D01*
X014868Y008577D01*
X014877Y008615D01*
X014891Y008651D01*
X014907Y008687D01*
X014928Y008720D01*
X014951Y008751D01*
X014978Y008779D01*
X015007Y008805D01*
X015038Y008828D01*
X015072Y008847D01*
X015108Y008863D01*
X015144Y008875D01*
X015182Y008884D01*
X015221Y008889D01*
X015260Y008890D01*
X015298Y008887D01*
X015337Y008880D01*
X015374Y008870D01*
X015410Y008855D01*
X015445Y008838D01*
X015478Y008817D01*
X015508Y008792D01*
X015536Y008765D01*
X015561Y008735D01*
X015583Y008703D01*
X015601Y008669D01*
X015616Y008633D01*
X015628Y008596D01*
X015636Y008558D01*
X015640Y008519D01*
X015640Y008481D01*
X015636Y008442D01*
X015628Y008404D01*
X015616Y008367D01*
X015601Y008331D01*
X015583Y008297D01*
X015561Y008265D01*
X015536Y008235D01*
X015508Y008208D01*
X015478Y008183D01*
X015445Y008162D01*
X015410Y008145D01*
X015374Y008130D01*
X015337Y008120D01*
X015298Y008113D01*
X015260Y008110D01*
X015221Y008111D01*
X015182Y008116D01*
X015144Y008125D01*
X015108Y008137D01*
X015072Y008153D01*
X015038Y008172D01*
X015007Y008195D01*
X014978Y008221D01*
X014951Y008249D01*
X014928Y008280D01*
X014907Y008313D01*
X014891Y008349D01*
X014877Y008385D01*
X014868Y008423D01*
X014862Y008461D01*
X014860Y008500D01*
X014850Y008100D02*
X015650Y008900D01*
X015860Y007500D02*
X015862Y007539D01*
X015868Y007577D01*
X015877Y007615D01*
X015891Y007651D01*
X015907Y007687D01*
X015928Y007720D01*
X015951Y007751D01*
X015978Y007779D01*
X016007Y007805D01*
X016038Y007828D01*
X016072Y007847D01*
X016108Y007863D01*
X016144Y007875D01*
X016182Y007884D01*
X016221Y007889D01*
X016260Y007890D01*
X016298Y007887D01*
X016337Y007880D01*
X016374Y007870D01*
X016410Y007855D01*
X016445Y007838D01*
X016478Y007817D01*
X016508Y007792D01*
X016536Y007765D01*
X016561Y007735D01*
X016583Y007703D01*
X016601Y007669D01*
X016616Y007633D01*
X016628Y007596D01*
X016636Y007558D01*
X016640Y007519D01*
X016640Y007481D01*
X016636Y007442D01*
X016628Y007404D01*
X016616Y007367D01*
X016601Y007331D01*
X016583Y007297D01*
X016561Y007265D01*
X016536Y007235D01*
X016508Y007208D01*
X016478Y007183D01*
X016445Y007162D01*
X016410Y007145D01*
X016374Y007130D01*
X016337Y007120D01*
X016298Y007113D01*
X016260Y007110D01*
X016221Y007111D01*
X016182Y007116D01*
X016144Y007125D01*
X016108Y007137D01*
X016072Y007153D01*
X016038Y007172D01*
X016007Y007195D01*
X015978Y007221D01*
X015951Y007249D01*
X015928Y007280D01*
X015907Y007313D01*
X015891Y007349D01*
X015877Y007385D01*
X015868Y007423D01*
X015862Y007461D01*
X015860Y007500D01*
X015850Y007100D02*
X016650Y007900D01*
X015860Y008500D02*
X015862Y008539D01*
X015868Y008577D01*
X015877Y008615D01*
X015891Y008651D01*
X015907Y008687D01*
X015928Y008720D01*
X015951Y008751D01*
X015978Y008779D01*
X016007Y008805D01*
X016038Y008828D01*
X016072Y008847D01*
X016108Y008863D01*
X016144Y008875D01*
X016182Y008884D01*
X016221Y008889D01*
X016260Y008890D01*
X016298Y008887D01*
X016337Y008880D01*
X016374Y008870D01*
X016410Y008855D01*
X016445Y008838D01*
X016478Y008817D01*
X016508Y008792D01*
X016536Y008765D01*
X016561Y008735D01*
X016583Y008703D01*
X016601Y008669D01*
X016616Y008633D01*
X016628Y008596D01*
X016636Y008558D01*
X016640Y008519D01*
X016640Y008481D01*
X016636Y008442D01*
X016628Y008404D01*
X016616Y008367D01*
X016601Y008331D01*
X016583Y008297D01*
X016561Y008265D01*
X016536Y008235D01*
X016508Y008208D01*
X016478Y008183D01*
X016445Y008162D01*
X016410Y008145D01*
X016374Y008130D01*
X016337Y008120D01*
X016298Y008113D01*
X016260Y008110D01*
X016221Y008111D01*
X016182Y008116D01*
X016144Y008125D01*
X016108Y008137D01*
X016072Y008153D01*
X016038Y008172D01*
X016007Y008195D01*
X015978Y008221D01*
X015951Y008249D01*
X015928Y008280D01*
X015907Y008313D01*
X015891Y008349D01*
X015877Y008385D01*
X015868Y008423D01*
X015862Y008461D01*
X015860Y008500D01*
X015850Y008100D02*
X016650Y008900D01*
X016860Y007500D02*
X016862Y007539D01*
X016868Y007577D01*
X016877Y007615D01*
X016891Y007651D01*
X016907Y007687D01*
X016928Y007720D01*
X016951Y007751D01*
X016978Y007779D01*
X017007Y007805D01*
X017038Y007828D01*
X017072Y007847D01*
X017108Y007863D01*
X017144Y007875D01*
X017182Y007884D01*
X017221Y007889D01*
X017260Y007890D01*
X017298Y007887D01*
X017337Y007880D01*
X017374Y007870D01*
X017410Y007855D01*
X017445Y007838D01*
X017478Y007817D01*
X017508Y007792D01*
X017536Y007765D01*
X017561Y007735D01*
X017583Y007703D01*
X017601Y007669D01*
X017616Y007633D01*
X017628Y007596D01*
X017636Y007558D01*
X017640Y007519D01*
X017640Y007481D01*
X017636Y007442D01*
X017628Y007404D01*
X017616Y007367D01*
X017601Y007331D01*
X017583Y007297D01*
X017561Y007265D01*
X017536Y007235D01*
X017508Y007208D01*
X017478Y007183D01*
X017445Y007162D01*
X017410Y007145D01*
X017374Y007130D01*
X017337Y007120D01*
X017298Y007113D01*
X017260Y007110D01*
X017221Y007111D01*
X017182Y007116D01*
X017144Y007125D01*
X017108Y007137D01*
X017072Y007153D01*
X017038Y007172D01*
X017007Y007195D01*
X016978Y007221D01*
X016951Y007249D01*
X016928Y007280D01*
X016907Y007313D01*
X016891Y007349D01*
X016877Y007385D01*
X016868Y007423D01*
X016862Y007461D01*
X016860Y007500D01*
X016850Y007100D02*
X017650Y007900D01*
X016860Y008500D02*
X016862Y008539D01*
X016868Y008577D01*
X016877Y008615D01*
X016891Y008651D01*
X016907Y008687D01*
X016928Y008720D01*
X016951Y008751D01*
X016978Y008779D01*
X017007Y008805D01*
X017038Y008828D01*
X017072Y008847D01*
X017108Y008863D01*
X017144Y008875D01*
X017182Y008884D01*
X017221Y008889D01*
X017260Y008890D01*
X017298Y008887D01*
X017337Y008880D01*
X017374Y008870D01*
X017410Y008855D01*
X017445Y008838D01*
X017478Y008817D01*
X017508Y008792D01*
X017536Y008765D01*
X017561Y008735D01*
X017583Y008703D01*
X017601Y008669D01*
X017616Y008633D01*
X017628Y008596D01*
X017636Y008558D01*
X017640Y008519D01*
X017640Y008481D01*
X017636Y008442D01*
X017628Y008404D01*
X017616Y008367D01*
X017601Y008331D01*
X017583Y008297D01*
X017561Y008265D01*
X017536Y008235D01*
X017508Y008208D01*
X017478Y008183D01*
X017445Y008162D01*
X017410Y008145D01*
X017374Y008130D01*
X017337Y008120D01*
X017298Y008113D01*
X017260Y008110D01*
X017221Y008111D01*
X017182Y008116D01*
X017144Y008125D01*
X017108Y008137D01*
X017072Y008153D01*
X017038Y008172D01*
X017007Y008195D01*
X016978Y008221D01*
X016951Y008249D01*
X016928Y008280D01*
X016907Y008313D01*
X016891Y008349D01*
X016877Y008385D01*
X016868Y008423D01*
X016862Y008461D01*
X016860Y008500D01*
X016850Y008100D02*
X017650Y008900D01*
X017860Y007500D02*
X017862Y007539D01*
X017868Y007577D01*
X017877Y007615D01*
X017891Y007651D01*
X017907Y007687D01*
X017928Y007720D01*
X017951Y007751D01*
X017978Y007779D01*
X018007Y007805D01*
X018038Y007828D01*
X018072Y007847D01*
X018108Y007863D01*
X018144Y007875D01*
X018182Y007884D01*
X018221Y007889D01*
X018260Y007890D01*
X018298Y007887D01*
X018337Y007880D01*
X018374Y007870D01*
X018410Y007855D01*
X018445Y007838D01*
X018478Y007817D01*
X018508Y007792D01*
X018536Y007765D01*
X018561Y007735D01*
X018583Y007703D01*
X018601Y007669D01*
X018616Y007633D01*
X018628Y007596D01*
X018636Y007558D01*
X018640Y007519D01*
X018640Y007481D01*
X018636Y007442D01*
X018628Y007404D01*
X018616Y007367D01*
X018601Y007331D01*
X018583Y007297D01*
X018561Y007265D01*
X018536Y007235D01*
X018508Y007208D01*
X018478Y007183D01*
X018445Y007162D01*
X018410Y007145D01*
X018374Y007130D01*
X018337Y007120D01*
X018298Y007113D01*
X018260Y007110D01*
X018221Y007111D01*
X018182Y007116D01*
X018144Y007125D01*
X018108Y007137D01*
X018072Y007153D01*
X018038Y007172D01*
X018007Y007195D01*
X017978Y007221D01*
X017951Y007249D01*
X017928Y007280D01*
X017907Y007313D01*
X017891Y007349D01*
X017877Y007385D01*
X017868Y007423D01*
X017862Y007461D01*
X017860Y007500D01*
X017850Y007100D02*
X018650Y007900D01*
X017860Y008500D02*
X017862Y008539D01*
X017868Y008577D01*
X017877Y008615D01*
X017891Y008651D01*
X017907Y008687D01*
X017928Y008720D01*
X017951Y008751D01*
X017978Y008779D01*
X018007Y008805D01*
X018038Y008828D01*
X018072Y008847D01*
X018108Y008863D01*
X018144Y008875D01*
X018182Y008884D01*
X018221Y008889D01*
X018260Y008890D01*
X018298Y008887D01*
X018337Y008880D01*
X018374Y008870D01*
X018410Y008855D01*
X018445Y008838D01*
X018478Y008817D01*
X018508Y008792D01*
X018536Y008765D01*
X018561Y008735D01*
X018583Y008703D01*
X018601Y008669D01*
X018616Y008633D01*
X018628Y008596D01*
X018636Y008558D01*
X018640Y008519D01*
X018640Y008481D01*
X018636Y008442D01*
X018628Y008404D01*
X018616Y008367D01*
X018601Y008331D01*
X018583Y008297D01*
X018561Y008265D01*
X018536Y008235D01*
X018508Y008208D01*
X018478Y008183D01*
X018445Y008162D01*
X018410Y008145D01*
X018374Y008130D01*
X018337Y008120D01*
X018298Y008113D01*
X018260Y008110D01*
X018221Y008111D01*
X018182Y008116D01*
X018144Y008125D01*
X018108Y008137D01*
X018072Y008153D01*
X018038Y008172D01*
X018007Y008195D01*
X017978Y008221D01*
X017951Y008249D01*
X017928Y008280D01*
X017907Y008313D01*
X017891Y008349D01*
X017877Y008385D01*
X017868Y008423D01*
X017862Y008461D01*
X017860Y008500D01*
X017850Y008100D02*
X018650Y008900D01*
X018860Y007500D02*
X018862Y007539D01*
X018868Y007577D01*
X018877Y007615D01*
X018891Y007651D01*
X018907Y007687D01*
X018928Y007720D01*
X018951Y007751D01*
X018978Y007779D01*
X019007Y007805D01*
X019038Y007828D01*
X019072Y007847D01*
X019108Y007863D01*
X019144Y007875D01*
X019182Y007884D01*
X019221Y007889D01*
X019260Y007890D01*
X019298Y007887D01*
X019337Y007880D01*
X019374Y007870D01*
X019410Y007855D01*
X019445Y007838D01*
X019478Y007817D01*
X019508Y007792D01*
X019536Y007765D01*
X019561Y007735D01*
X019583Y007703D01*
X019601Y007669D01*
X019616Y007633D01*
X019628Y007596D01*
X019636Y007558D01*
X019640Y007519D01*
X019640Y007481D01*
X019636Y007442D01*
X019628Y007404D01*
X019616Y007367D01*
X019601Y007331D01*
X019583Y007297D01*
X019561Y007265D01*
X019536Y007235D01*
X019508Y007208D01*
X019478Y007183D01*
X019445Y007162D01*
X019410Y007145D01*
X019374Y007130D01*
X019337Y007120D01*
X019298Y007113D01*
X019260Y007110D01*
X019221Y007111D01*
X019182Y007116D01*
X019144Y007125D01*
X019108Y007137D01*
X019072Y007153D01*
X019038Y007172D01*
X019007Y007195D01*
X018978Y007221D01*
X018951Y007249D01*
X018928Y007280D01*
X018907Y007313D01*
X018891Y007349D01*
X018877Y007385D01*
X018868Y007423D01*
X018862Y007461D01*
X018860Y007500D01*
X018850Y007100D02*
X019650Y007900D01*
X018860Y008500D02*
X018862Y008539D01*
X018868Y008577D01*
X018877Y008615D01*
X018891Y008651D01*
X018907Y008687D01*
X018928Y008720D01*
X018951Y008751D01*
X018978Y008779D01*
X019007Y008805D01*
X019038Y008828D01*
X019072Y008847D01*
X019108Y008863D01*
X019144Y008875D01*
X019182Y008884D01*
X019221Y008889D01*
X019260Y008890D01*
X019298Y008887D01*
X019337Y008880D01*
X019374Y008870D01*
X019410Y008855D01*
X019445Y008838D01*
X019478Y008817D01*
X019508Y008792D01*
X019536Y008765D01*
X019561Y008735D01*
X019583Y008703D01*
X019601Y008669D01*
X019616Y008633D01*
X019628Y008596D01*
X019636Y008558D01*
X019640Y008519D01*
X019640Y008481D01*
X019636Y008442D01*
X019628Y008404D01*
X019616Y008367D01*
X019601Y008331D01*
X019583Y008297D01*
X019561Y008265D01*
X019536Y008235D01*
X019508Y008208D01*
X019478Y008183D01*
X019445Y008162D01*
X019410Y008145D01*
X019374Y008130D01*
X019337Y008120D01*
X019298Y008113D01*
X019260Y008110D01*
X019221Y008111D01*
X019182Y008116D01*
X019144Y008125D01*
X019108Y008137D01*
X019072Y008153D01*
X019038Y008172D01*
X019007Y008195D01*
X018978Y008221D01*
X018951Y008249D01*
X018928Y008280D01*
X018907Y008313D01*
X018891Y008349D01*
X018877Y008385D01*
X018868Y008423D01*
X018862Y008461D01*
X018860Y008500D01*
X018850Y008100D02*
X019650Y008900D01*
X015235Y010375D02*
X015237Y010414D01*
X015243Y010452D01*
X015252Y010490D01*
X015266Y010526D01*
X015282Y010562D01*
X015303Y010595D01*
X015326Y010626D01*
X015353Y010654D01*
X015382Y010680D01*
X015413Y010703D01*
X015447Y010722D01*
X015483Y010738D01*
X015519Y010750D01*
X015557Y010759D01*
X015596Y010764D01*
X015635Y010765D01*
X015673Y010762D01*
X015712Y010755D01*
X015749Y010745D01*
X015785Y010730D01*
X015820Y010713D01*
X015853Y010692D01*
X015883Y010667D01*
X015911Y010640D01*
X015936Y010610D01*
X015958Y010578D01*
X015976Y010544D01*
X015991Y010508D01*
X016003Y010471D01*
X016011Y010433D01*
X016015Y010394D01*
X016015Y010356D01*
X016011Y010317D01*
X016003Y010279D01*
X015991Y010242D01*
X015976Y010206D01*
X015958Y010172D01*
X015936Y010140D01*
X015911Y010110D01*
X015883Y010083D01*
X015853Y010058D01*
X015820Y010037D01*
X015785Y010020D01*
X015749Y010005D01*
X015712Y009995D01*
X015673Y009988D01*
X015635Y009985D01*
X015596Y009986D01*
X015557Y009991D01*
X015519Y010000D01*
X015483Y010012D01*
X015447Y010028D01*
X015413Y010047D01*
X015382Y010070D01*
X015353Y010096D01*
X015326Y010124D01*
X015303Y010155D01*
X015282Y010188D01*
X015266Y010224D01*
X015252Y010260D01*
X015243Y010298D01*
X015237Y010336D01*
X015235Y010375D01*
X015225Y009975D02*
X016025Y010775D01*
X016235Y010375D02*
X016237Y010414D01*
X016243Y010452D01*
X016252Y010490D01*
X016266Y010526D01*
X016282Y010562D01*
X016303Y010595D01*
X016326Y010626D01*
X016353Y010654D01*
X016382Y010680D01*
X016413Y010703D01*
X016447Y010722D01*
X016483Y010738D01*
X016519Y010750D01*
X016557Y010759D01*
X016596Y010764D01*
X016635Y010765D01*
X016673Y010762D01*
X016712Y010755D01*
X016749Y010745D01*
X016785Y010730D01*
X016820Y010713D01*
X016853Y010692D01*
X016883Y010667D01*
X016911Y010640D01*
X016936Y010610D01*
X016958Y010578D01*
X016976Y010544D01*
X016991Y010508D01*
X017003Y010471D01*
X017011Y010433D01*
X017015Y010394D01*
X017015Y010356D01*
X017011Y010317D01*
X017003Y010279D01*
X016991Y010242D01*
X016976Y010206D01*
X016958Y010172D01*
X016936Y010140D01*
X016911Y010110D01*
X016883Y010083D01*
X016853Y010058D01*
X016820Y010037D01*
X016785Y010020D01*
X016749Y010005D01*
X016712Y009995D01*
X016673Y009988D01*
X016635Y009985D01*
X016596Y009986D01*
X016557Y009991D01*
X016519Y010000D01*
X016483Y010012D01*
X016447Y010028D01*
X016413Y010047D01*
X016382Y010070D01*
X016353Y010096D01*
X016326Y010124D01*
X016303Y010155D01*
X016282Y010188D01*
X016266Y010224D01*
X016252Y010260D01*
X016243Y010298D01*
X016237Y010336D01*
X016235Y010375D01*
X016225Y009975D02*
X017025Y010775D01*
X016235Y013375D02*
X016237Y013414D01*
X016243Y013452D01*
X016252Y013490D01*
X016266Y013526D01*
X016282Y013562D01*
X016303Y013595D01*
X016326Y013626D01*
X016353Y013654D01*
X016382Y013680D01*
X016413Y013703D01*
X016447Y013722D01*
X016483Y013738D01*
X016519Y013750D01*
X016557Y013759D01*
X016596Y013764D01*
X016635Y013765D01*
X016673Y013762D01*
X016712Y013755D01*
X016749Y013745D01*
X016785Y013730D01*
X016820Y013713D01*
X016853Y013692D01*
X016883Y013667D01*
X016911Y013640D01*
X016936Y013610D01*
X016958Y013578D01*
X016976Y013544D01*
X016991Y013508D01*
X017003Y013471D01*
X017011Y013433D01*
X017015Y013394D01*
X017015Y013356D01*
X017011Y013317D01*
X017003Y013279D01*
X016991Y013242D01*
X016976Y013206D01*
X016958Y013172D01*
X016936Y013140D01*
X016911Y013110D01*
X016883Y013083D01*
X016853Y013058D01*
X016820Y013037D01*
X016785Y013020D01*
X016749Y013005D01*
X016712Y012995D01*
X016673Y012988D01*
X016635Y012985D01*
X016596Y012986D01*
X016557Y012991D01*
X016519Y013000D01*
X016483Y013012D01*
X016447Y013028D01*
X016413Y013047D01*
X016382Y013070D01*
X016353Y013096D01*
X016326Y013124D01*
X016303Y013155D01*
X016282Y013188D01*
X016266Y013224D01*
X016252Y013260D01*
X016243Y013298D01*
X016237Y013336D01*
X016235Y013375D01*
X016225Y012975D02*
X017025Y013775D01*
X015235Y013375D02*
X015237Y013414D01*
X015243Y013452D01*
X015252Y013490D01*
X015266Y013526D01*
X015282Y013562D01*
X015303Y013595D01*
X015326Y013626D01*
X015353Y013654D01*
X015382Y013680D01*
X015413Y013703D01*
X015447Y013722D01*
X015483Y013738D01*
X015519Y013750D01*
X015557Y013759D01*
X015596Y013764D01*
X015635Y013765D01*
X015673Y013762D01*
X015712Y013755D01*
X015749Y013745D01*
X015785Y013730D01*
X015820Y013713D01*
X015853Y013692D01*
X015883Y013667D01*
X015911Y013640D01*
X015936Y013610D01*
X015958Y013578D01*
X015976Y013544D01*
X015991Y013508D01*
X016003Y013471D01*
X016011Y013433D01*
X016015Y013394D01*
X016015Y013356D01*
X016011Y013317D01*
X016003Y013279D01*
X015991Y013242D01*
X015976Y013206D01*
X015958Y013172D01*
X015936Y013140D01*
X015911Y013110D01*
X015883Y013083D01*
X015853Y013058D01*
X015820Y013037D01*
X015785Y013020D01*
X015749Y013005D01*
X015712Y012995D01*
X015673Y012988D01*
X015635Y012985D01*
X015596Y012986D01*
X015557Y012991D01*
X015519Y013000D01*
X015483Y013012D01*
X015447Y013028D01*
X015413Y013047D01*
X015382Y013070D01*
X015353Y013096D01*
X015326Y013124D01*
X015303Y013155D01*
X015282Y013188D01*
X015266Y013224D01*
X015252Y013260D01*
X015243Y013298D01*
X015237Y013336D01*
X015235Y013375D01*
X015225Y012975D02*
X016025Y013775D01*
X017235Y010375D02*
X017237Y010414D01*
X017243Y010452D01*
X017252Y010490D01*
X017266Y010526D01*
X017282Y010562D01*
X017303Y010595D01*
X017326Y010626D01*
X017353Y010654D01*
X017382Y010680D01*
X017413Y010703D01*
X017447Y010722D01*
X017483Y010738D01*
X017519Y010750D01*
X017557Y010759D01*
X017596Y010764D01*
X017635Y010765D01*
X017673Y010762D01*
X017712Y010755D01*
X017749Y010745D01*
X017785Y010730D01*
X017820Y010713D01*
X017853Y010692D01*
X017883Y010667D01*
X017911Y010640D01*
X017936Y010610D01*
X017958Y010578D01*
X017976Y010544D01*
X017991Y010508D01*
X018003Y010471D01*
X018011Y010433D01*
X018015Y010394D01*
X018015Y010356D01*
X018011Y010317D01*
X018003Y010279D01*
X017991Y010242D01*
X017976Y010206D01*
X017958Y010172D01*
X017936Y010140D01*
X017911Y010110D01*
X017883Y010083D01*
X017853Y010058D01*
X017820Y010037D01*
X017785Y010020D01*
X017749Y010005D01*
X017712Y009995D01*
X017673Y009988D01*
X017635Y009985D01*
X017596Y009986D01*
X017557Y009991D01*
X017519Y010000D01*
X017483Y010012D01*
X017447Y010028D01*
X017413Y010047D01*
X017382Y010070D01*
X017353Y010096D01*
X017326Y010124D01*
X017303Y010155D01*
X017282Y010188D01*
X017266Y010224D01*
X017252Y010260D01*
X017243Y010298D01*
X017237Y010336D01*
X017235Y010375D01*
X017225Y009975D02*
X018025Y010775D01*
X018235Y010375D02*
X018237Y010414D01*
X018243Y010452D01*
X018252Y010490D01*
X018266Y010526D01*
X018282Y010562D01*
X018303Y010595D01*
X018326Y010626D01*
X018353Y010654D01*
X018382Y010680D01*
X018413Y010703D01*
X018447Y010722D01*
X018483Y010738D01*
X018519Y010750D01*
X018557Y010759D01*
X018596Y010764D01*
X018635Y010765D01*
X018673Y010762D01*
X018712Y010755D01*
X018749Y010745D01*
X018785Y010730D01*
X018820Y010713D01*
X018853Y010692D01*
X018883Y010667D01*
X018911Y010640D01*
X018936Y010610D01*
X018958Y010578D01*
X018976Y010544D01*
X018991Y010508D01*
X019003Y010471D01*
X019011Y010433D01*
X019015Y010394D01*
X019015Y010356D01*
X019011Y010317D01*
X019003Y010279D01*
X018991Y010242D01*
X018976Y010206D01*
X018958Y010172D01*
X018936Y010140D01*
X018911Y010110D01*
X018883Y010083D01*
X018853Y010058D01*
X018820Y010037D01*
X018785Y010020D01*
X018749Y010005D01*
X018712Y009995D01*
X018673Y009988D01*
X018635Y009985D01*
X018596Y009986D01*
X018557Y009991D01*
X018519Y010000D01*
X018483Y010012D01*
X018447Y010028D01*
X018413Y010047D01*
X018382Y010070D01*
X018353Y010096D01*
X018326Y010124D01*
X018303Y010155D01*
X018282Y010188D01*
X018266Y010224D01*
X018252Y010260D01*
X018243Y010298D01*
X018237Y010336D01*
X018235Y010375D01*
X018225Y009975D02*
X019025Y010775D01*
X017235Y013375D02*
X017237Y013414D01*
X017243Y013452D01*
X017252Y013490D01*
X017266Y013526D01*
X017282Y013562D01*
X017303Y013595D01*
X017326Y013626D01*
X017353Y013654D01*
X017382Y013680D01*
X017413Y013703D01*
X017447Y013722D01*
X017483Y013738D01*
X017519Y013750D01*
X017557Y013759D01*
X017596Y013764D01*
X017635Y013765D01*
X017673Y013762D01*
X017712Y013755D01*
X017749Y013745D01*
X017785Y013730D01*
X017820Y013713D01*
X017853Y013692D01*
X017883Y013667D01*
X017911Y013640D01*
X017936Y013610D01*
X017958Y013578D01*
X017976Y013544D01*
X017991Y013508D01*
X018003Y013471D01*
X018011Y013433D01*
X018015Y013394D01*
X018015Y013356D01*
X018011Y013317D01*
X018003Y013279D01*
X017991Y013242D01*
X017976Y013206D01*
X017958Y013172D01*
X017936Y013140D01*
X017911Y013110D01*
X017883Y013083D01*
X017853Y013058D01*
X017820Y013037D01*
X017785Y013020D01*
X017749Y013005D01*
X017712Y012995D01*
X017673Y012988D01*
X017635Y012985D01*
X017596Y012986D01*
X017557Y012991D01*
X017519Y013000D01*
X017483Y013012D01*
X017447Y013028D01*
X017413Y013047D01*
X017382Y013070D01*
X017353Y013096D01*
X017326Y013124D01*
X017303Y013155D01*
X017282Y013188D01*
X017266Y013224D01*
X017252Y013260D01*
X017243Y013298D01*
X017237Y013336D01*
X017235Y013375D01*
X017225Y012975D02*
X018025Y013775D01*
X018235Y013375D02*
X018237Y013414D01*
X018243Y013452D01*
X018252Y013490D01*
X018266Y013526D01*
X018282Y013562D01*
X018303Y013595D01*
X018326Y013626D01*
X018353Y013654D01*
X018382Y013680D01*
X018413Y013703D01*
X018447Y013722D01*
X018483Y013738D01*
X018519Y013750D01*
X018557Y013759D01*
X018596Y013764D01*
X018635Y013765D01*
X018673Y013762D01*
X018712Y013755D01*
X018749Y013745D01*
X018785Y013730D01*
X018820Y013713D01*
X018853Y013692D01*
X018883Y013667D01*
X018911Y013640D01*
X018936Y013610D01*
X018958Y013578D01*
X018976Y013544D01*
X018991Y013508D01*
X019003Y013471D01*
X019011Y013433D01*
X019015Y013394D01*
X019015Y013356D01*
X019011Y013317D01*
X019003Y013279D01*
X018991Y013242D01*
X018976Y013206D01*
X018958Y013172D01*
X018936Y013140D01*
X018911Y013110D01*
X018883Y013083D01*
X018853Y013058D01*
X018820Y013037D01*
X018785Y013020D01*
X018749Y013005D01*
X018712Y012995D01*
X018673Y012988D01*
X018635Y012985D01*
X018596Y012986D01*
X018557Y012991D01*
X018519Y013000D01*
X018483Y013012D01*
X018447Y013028D01*
X018413Y013047D01*
X018382Y013070D01*
X018353Y013096D01*
X018326Y013124D01*
X018303Y013155D01*
X018282Y013188D01*
X018266Y013224D01*
X018252Y013260D01*
X018243Y013298D01*
X018237Y013336D01*
X018235Y013375D01*
X018225Y012975D02*
X019025Y013775D01*
X013735Y012300D02*
X013737Y012339D01*
X013743Y012377D01*
X013752Y012415D01*
X013766Y012451D01*
X013782Y012487D01*
X013803Y012520D01*
X013826Y012551D01*
X013853Y012579D01*
X013882Y012605D01*
X013913Y012628D01*
X013947Y012647D01*
X013983Y012663D01*
X014019Y012675D01*
X014057Y012684D01*
X014096Y012689D01*
X014135Y012690D01*
X014173Y012687D01*
X014212Y012680D01*
X014249Y012670D01*
X014285Y012655D01*
X014320Y012638D01*
X014353Y012617D01*
X014383Y012592D01*
X014411Y012565D01*
X014436Y012535D01*
X014458Y012503D01*
X014476Y012469D01*
X014491Y012433D01*
X014503Y012396D01*
X014511Y012358D01*
X014515Y012319D01*
X014515Y012281D01*
X014511Y012242D01*
X014503Y012204D01*
X014491Y012167D01*
X014476Y012131D01*
X014458Y012097D01*
X014436Y012065D01*
X014411Y012035D01*
X014383Y012008D01*
X014353Y011983D01*
X014320Y011962D01*
X014285Y011945D01*
X014249Y011930D01*
X014212Y011920D01*
X014173Y011913D01*
X014135Y011910D01*
X014096Y011911D01*
X014057Y011916D01*
X014019Y011925D01*
X013983Y011937D01*
X013947Y011953D01*
X013913Y011972D01*
X013882Y011995D01*
X013853Y012021D01*
X013826Y012049D01*
X013803Y012080D01*
X013782Y012113D01*
X013766Y012149D01*
X013752Y012185D01*
X013743Y012223D01*
X013737Y012261D01*
X013735Y012300D01*
X013725Y011900D02*
X014525Y012700D01*
X013735Y011200D02*
X013737Y011239D01*
X013743Y011277D01*
X013752Y011315D01*
X013766Y011351D01*
X013782Y011387D01*
X013803Y011420D01*
X013826Y011451D01*
X013853Y011479D01*
X013882Y011505D01*
X013913Y011528D01*
X013947Y011547D01*
X013983Y011563D01*
X014019Y011575D01*
X014057Y011584D01*
X014096Y011589D01*
X014135Y011590D01*
X014173Y011587D01*
X014212Y011580D01*
X014249Y011570D01*
X014285Y011555D01*
X014320Y011538D01*
X014353Y011517D01*
X014383Y011492D01*
X014411Y011465D01*
X014436Y011435D01*
X014458Y011403D01*
X014476Y011369D01*
X014491Y011333D01*
X014503Y011296D01*
X014511Y011258D01*
X014515Y011219D01*
X014515Y011181D01*
X014511Y011142D01*
X014503Y011104D01*
X014491Y011067D01*
X014476Y011031D01*
X014458Y010997D01*
X014436Y010965D01*
X014411Y010935D01*
X014383Y010908D01*
X014353Y010883D01*
X014320Y010862D01*
X014285Y010845D01*
X014249Y010830D01*
X014212Y010820D01*
X014173Y010813D01*
X014135Y010810D01*
X014096Y010811D01*
X014057Y010816D01*
X014019Y010825D01*
X013983Y010837D01*
X013947Y010853D01*
X013913Y010872D01*
X013882Y010895D01*
X013853Y010921D01*
X013826Y010949D01*
X013803Y010980D01*
X013782Y011013D01*
X013766Y011049D01*
X013752Y011085D01*
X013743Y011123D01*
X013737Y011161D01*
X013735Y011200D01*
X013725Y010800D02*
X014525Y011600D01*
X008400Y012600D02*
X007600Y013400D01*
X007600Y012600D02*
X008400Y013400D01*
X012350Y013400D02*
X013150Y012600D01*
X012350Y012600D02*
X013150Y013400D01*
X011600Y011275D02*
X012400Y010475D01*
X011600Y010475D02*
X012400Y011275D01*
X008900Y007600D02*
X008100Y008400D01*
X008100Y007600D02*
X008900Y008400D01*
X009525Y010100D02*
X008725Y010900D01*
X008725Y010100D02*
X009525Y010900D01*
X007600Y009400D02*
X008400Y008600D01*
X007600Y008600D02*
X008400Y009400D01*
X019150Y021850D02*
X018350Y022650D01*
X018350Y021850D02*
X019150Y022650D01*
M02*
