G75*
G70*
%OFA0B0*%
%FSLAX24Y24*%
%IPPOS*%
%LPD*%
%AMOC8*
5,1,8,0,0,1.08239X$1,22.5*
%
%ADD10C,0.0000*%
%ADD11C,0.0080*%
%ADD12C,0.0020*%
%ADD13C,0.0060*%
%ADD14C,0.0010*%
%ADD15C,0.0050*%
%ADD16C,0.0160*%
%ADD17C,0.0040*%
D10*
X001041Y000425D02*
X018944Y000425D01*
X018943Y000425D02*
X019001Y000428D01*
X019058Y000436D01*
X019114Y000448D01*
X019170Y000463D01*
X019224Y000481D01*
X019277Y000503D01*
X019329Y000529D01*
X019379Y000558D01*
X019427Y000590D01*
X019472Y000625D01*
X019515Y000663D01*
X019556Y000704D01*
X019594Y000748D01*
X019629Y000793D01*
X019661Y000841D01*
X019689Y000891D01*
X019715Y000943D01*
X019736Y000996D01*
X019755Y001051D01*
X019770Y001107D01*
X019781Y001163D01*
X019788Y001220D01*
X019792Y001278D01*
X019791Y001335D01*
X019792Y001335D02*
X019792Y019447D01*
X019790Y019499D01*
X019785Y019550D01*
X019775Y019601D01*
X019763Y019651D01*
X019746Y019700D01*
X019726Y019748D01*
X019703Y019794D01*
X019677Y019839D01*
X019647Y019881D01*
X019615Y019922D01*
X019580Y019960D01*
X019542Y019995D01*
X019501Y020027D01*
X019459Y020057D01*
X019414Y020083D01*
X019368Y020106D01*
X019320Y020126D01*
X019271Y020143D01*
X019221Y020155D01*
X019170Y020165D01*
X019119Y020170D01*
X019067Y020172D01*
X000841Y020172D01*
X000796Y020170D01*
X000751Y020165D01*
X000707Y020155D01*
X000664Y020143D01*
X000622Y020126D01*
X000582Y020106D01*
X000543Y020083D01*
X000507Y020057D01*
X000473Y020028D01*
X000441Y019996D01*
X000412Y019962D01*
X000386Y019926D01*
X000363Y019887D01*
X000343Y019847D01*
X000326Y019805D01*
X000314Y019762D01*
X000304Y019718D01*
X000299Y019673D01*
X000297Y019628D01*
X000297Y001232D01*
X000296Y001177D01*
X000300Y001121D01*
X000308Y001066D01*
X000319Y001012D01*
X000335Y000959D01*
X000354Y000907D01*
X000377Y000856D01*
X000403Y000808D01*
X000433Y000761D01*
X000466Y000716D01*
X000502Y000674D01*
X000541Y000635D01*
X000583Y000598D01*
X000627Y000565D01*
X000673Y000535D01*
X000722Y000508D01*
X000772Y000485D01*
X000824Y000465D01*
X000877Y000449D01*
X000932Y000437D01*
X000986Y000429D01*
X001042Y000425D01*
X000403Y006017D02*
X000405Y006056D01*
X000411Y006095D01*
X000421Y006133D01*
X000434Y006170D01*
X000451Y006205D01*
X000471Y006239D01*
X000495Y006270D01*
X000522Y006299D01*
X000551Y006325D01*
X000583Y006348D01*
X000617Y006368D01*
X000653Y006384D01*
X000690Y006396D01*
X000729Y006405D01*
X000768Y006410D01*
X000807Y006411D01*
X000846Y006408D01*
X000885Y006401D01*
X000922Y006390D01*
X000959Y006376D01*
X000994Y006358D01*
X001027Y006337D01*
X001058Y006312D01*
X001086Y006285D01*
X001111Y006255D01*
X001133Y006222D01*
X001152Y006188D01*
X001167Y006152D01*
X001179Y006114D01*
X001187Y006076D01*
X001191Y006037D01*
X001191Y005997D01*
X001187Y005958D01*
X001179Y005920D01*
X001167Y005882D01*
X001152Y005846D01*
X001133Y005812D01*
X001111Y005779D01*
X001086Y005749D01*
X001058Y005722D01*
X001027Y005697D01*
X000994Y005676D01*
X000959Y005658D01*
X000922Y005644D01*
X000885Y005633D01*
X000846Y005626D01*
X000807Y005623D01*
X000768Y005624D01*
X000729Y005629D01*
X000690Y005638D01*
X000653Y005650D01*
X000617Y005666D01*
X000583Y005686D01*
X000551Y005709D01*
X000522Y005735D01*
X000495Y005764D01*
X000471Y005795D01*
X000451Y005829D01*
X000434Y005864D01*
X000421Y005901D01*
X000411Y005939D01*
X000405Y005978D01*
X000403Y006017D01*
X009528Y016392D02*
X009530Y016431D01*
X009536Y016470D01*
X009546Y016508D01*
X009559Y016545D01*
X009576Y016580D01*
X009596Y016614D01*
X009620Y016645D01*
X009647Y016674D01*
X009676Y016700D01*
X009708Y016723D01*
X009742Y016743D01*
X009778Y016759D01*
X009815Y016771D01*
X009854Y016780D01*
X009893Y016785D01*
X009932Y016786D01*
X009971Y016783D01*
X010010Y016776D01*
X010047Y016765D01*
X010084Y016751D01*
X010119Y016733D01*
X010152Y016712D01*
X010183Y016687D01*
X010211Y016660D01*
X010236Y016630D01*
X010258Y016597D01*
X010277Y016563D01*
X010292Y016527D01*
X010304Y016489D01*
X010312Y016451D01*
X010316Y016412D01*
X010316Y016372D01*
X010312Y016333D01*
X010304Y016295D01*
X010292Y016257D01*
X010277Y016221D01*
X010258Y016187D01*
X010236Y016154D01*
X010211Y016124D01*
X010183Y016097D01*
X010152Y016072D01*
X010119Y016051D01*
X010084Y016033D01*
X010047Y016019D01*
X010010Y016008D01*
X009971Y016001D01*
X009932Y015998D01*
X009893Y015999D01*
X009854Y016004D01*
X009815Y016013D01*
X009778Y016025D01*
X009742Y016041D01*
X009708Y016061D01*
X009676Y016084D01*
X009647Y016110D01*
X009620Y016139D01*
X009596Y016170D01*
X009576Y016204D01*
X009559Y016239D01*
X009546Y016276D01*
X009536Y016314D01*
X009530Y016353D01*
X009528Y016392D01*
X013340Y018080D02*
X013342Y018119D01*
X013348Y018158D01*
X013358Y018196D01*
X013371Y018233D01*
X013388Y018268D01*
X013408Y018302D01*
X013432Y018333D01*
X013459Y018362D01*
X013488Y018388D01*
X013520Y018411D01*
X013554Y018431D01*
X013590Y018447D01*
X013627Y018459D01*
X013666Y018468D01*
X013705Y018473D01*
X013744Y018474D01*
X013783Y018471D01*
X013822Y018464D01*
X013859Y018453D01*
X013896Y018439D01*
X013931Y018421D01*
X013964Y018400D01*
X013995Y018375D01*
X014023Y018348D01*
X014048Y018318D01*
X014070Y018285D01*
X014089Y018251D01*
X014104Y018215D01*
X014116Y018177D01*
X014124Y018139D01*
X014128Y018100D01*
X014128Y018060D01*
X014124Y018021D01*
X014116Y017983D01*
X014104Y017945D01*
X014089Y017909D01*
X014070Y017875D01*
X014048Y017842D01*
X014023Y017812D01*
X013995Y017785D01*
X013964Y017760D01*
X013931Y017739D01*
X013896Y017721D01*
X013859Y017707D01*
X013822Y017696D01*
X013783Y017689D01*
X013744Y017686D01*
X013705Y017687D01*
X013666Y017692D01*
X013627Y017701D01*
X013590Y017713D01*
X013554Y017729D01*
X013520Y017749D01*
X013488Y017772D01*
X013459Y017798D01*
X013432Y017827D01*
X013408Y017858D01*
X013388Y017892D01*
X013371Y017927D01*
X013358Y017964D01*
X013348Y018002D01*
X013342Y018041D01*
X013340Y018080D01*
X016840Y015580D02*
X016842Y015619D01*
X016848Y015658D01*
X016858Y015696D01*
X016871Y015733D01*
X016888Y015768D01*
X016908Y015802D01*
X016932Y015833D01*
X016959Y015862D01*
X016988Y015888D01*
X017020Y015911D01*
X017054Y015931D01*
X017090Y015947D01*
X017127Y015959D01*
X017166Y015968D01*
X017205Y015973D01*
X017244Y015974D01*
X017283Y015971D01*
X017322Y015964D01*
X017359Y015953D01*
X017396Y015939D01*
X017431Y015921D01*
X017464Y015900D01*
X017495Y015875D01*
X017523Y015848D01*
X017548Y015818D01*
X017570Y015785D01*
X017589Y015751D01*
X017604Y015715D01*
X017616Y015677D01*
X017624Y015639D01*
X017628Y015600D01*
X017628Y015560D01*
X017624Y015521D01*
X017616Y015483D01*
X017604Y015445D01*
X017589Y015409D01*
X017570Y015375D01*
X017548Y015342D01*
X017523Y015312D01*
X017495Y015285D01*
X017464Y015260D01*
X017431Y015239D01*
X017396Y015221D01*
X017359Y015207D01*
X017322Y015196D01*
X017283Y015189D01*
X017244Y015186D01*
X017205Y015187D01*
X017166Y015192D01*
X017127Y015201D01*
X017090Y015213D01*
X017054Y015229D01*
X017020Y015249D01*
X016988Y015272D01*
X016959Y015298D01*
X016932Y015327D01*
X016908Y015358D01*
X016888Y015392D01*
X016871Y015427D01*
X016858Y015464D01*
X016848Y015502D01*
X016842Y015541D01*
X016840Y015580D01*
X016903Y011580D02*
X016905Y011619D01*
X016911Y011658D01*
X016921Y011696D01*
X016934Y011733D01*
X016951Y011768D01*
X016971Y011802D01*
X016995Y011833D01*
X017022Y011862D01*
X017051Y011888D01*
X017083Y011911D01*
X017117Y011931D01*
X017153Y011947D01*
X017190Y011959D01*
X017229Y011968D01*
X017268Y011973D01*
X017307Y011974D01*
X017346Y011971D01*
X017385Y011964D01*
X017422Y011953D01*
X017459Y011939D01*
X017494Y011921D01*
X017527Y011900D01*
X017558Y011875D01*
X017586Y011848D01*
X017611Y011818D01*
X017633Y011785D01*
X017652Y011751D01*
X017667Y011715D01*
X017679Y011677D01*
X017687Y011639D01*
X017691Y011600D01*
X017691Y011560D01*
X017687Y011521D01*
X017679Y011483D01*
X017667Y011445D01*
X017652Y011409D01*
X017633Y011375D01*
X017611Y011342D01*
X017586Y011312D01*
X017558Y011285D01*
X017527Y011260D01*
X017494Y011239D01*
X017459Y011221D01*
X017422Y011207D01*
X017385Y011196D01*
X017346Y011189D01*
X017307Y011186D01*
X017268Y011187D01*
X017229Y011192D01*
X017190Y011201D01*
X017153Y011213D01*
X017117Y011229D01*
X017083Y011249D01*
X017051Y011272D01*
X017022Y011298D01*
X016995Y011327D01*
X016971Y011358D01*
X016951Y011392D01*
X016934Y011427D01*
X016921Y011464D01*
X016911Y011502D01*
X016905Y011541D01*
X016903Y011580D01*
X018167Y010017D02*
X018169Y010067D01*
X018175Y010117D01*
X018185Y010166D01*
X018199Y010214D01*
X018216Y010261D01*
X018237Y010306D01*
X018262Y010350D01*
X018290Y010391D01*
X018322Y010430D01*
X018356Y010467D01*
X018393Y010501D01*
X018433Y010531D01*
X018475Y010558D01*
X018519Y010582D01*
X018565Y010603D01*
X018612Y010619D01*
X018660Y010632D01*
X018710Y010641D01*
X018759Y010646D01*
X018810Y010647D01*
X018860Y010644D01*
X018909Y010637D01*
X018958Y010626D01*
X019006Y010611D01*
X019052Y010593D01*
X019097Y010571D01*
X019140Y010545D01*
X019181Y010516D01*
X019220Y010484D01*
X019256Y010449D01*
X019288Y010411D01*
X019318Y010371D01*
X019345Y010328D01*
X019368Y010284D01*
X019387Y010238D01*
X019403Y010190D01*
X019415Y010141D01*
X019423Y010092D01*
X019427Y010042D01*
X019427Y009992D01*
X019423Y009942D01*
X019415Y009893D01*
X019403Y009844D01*
X019387Y009796D01*
X019368Y009750D01*
X019345Y009706D01*
X019318Y009663D01*
X019288Y009623D01*
X019256Y009585D01*
X019220Y009550D01*
X019181Y009518D01*
X019140Y009489D01*
X019097Y009463D01*
X019052Y009441D01*
X019006Y009423D01*
X018958Y009408D01*
X018909Y009397D01*
X018860Y009390D01*
X018810Y009387D01*
X018759Y009388D01*
X018710Y009393D01*
X018660Y009402D01*
X018612Y009415D01*
X018565Y009431D01*
X018519Y009452D01*
X018475Y009476D01*
X018433Y009503D01*
X018393Y009533D01*
X018356Y009567D01*
X018322Y009604D01*
X018290Y009643D01*
X018262Y009684D01*
X018237Y009728D01*
X018216Y009773D01*
X018199Y009820D01*
X018185Y009868D01*
X018175Y009917D01*
X018169Y009967D01*
X018167Y010017D01*
X013528Y011580D02*
X013530Y011619D01*
X013536Y011658D01*
X013546Y011696D01*
X013559Y011733D01*
X013576Y011768D01*
X013596Y011802D01*
X013620Y011833D01*
X013647Y011862D01*
X013676Y011888D01*
X013708Y011911D01*
X013742Y011931D01*
X013778Y011947D01*
X013815Y011959D01*
X013854Y011968D01*
X013893Y011973D01*
X013932Y011974D01*
X013971Y011971D01*
X014010Y011964D01*
X014047Y011953D01*
X014084Y011939D01*
X014119Y011921D01*
X014152Y011900D01*
X014183Y011875D01*
X014211Y011848D01*
X014236Y011818D01*
X014258Y011785D01*
X014277Y011751D01*
X014292Y011715D01*
X014304Y011677D01*
X014312Y011639D01*
X014316Y011600D01*
X014316Y011560D01*
X014312Y011521D01*
X014304Y011483D01*
X014292Y011445D01*
X014277Y011409D01*
X014258Y011375D01*
X014236Y011342D01*
X014211Y011312D01*
X014183Y011285D01*
X014152Y011260D01*
X014119Y011239D01*
X014084Y011221D01*
X014047Y011207D01*
X014010Y011196D01*
X013971Y011189D01*
X013932Y011186D01*
X013893Y011187D01*
X013854Y011192D01*
X013815Y011201D01*
X013778Y011213D01*
X013742Y011229D01*
X013708Y011249D01*
X013676Y011272D01*
X013647Y011298D01*
X013620Y011327D01*
X013596Y011358D01*
X013576Y011392D01*
X013559Y011427D01*
X013546Y011464D01*
X013536Y011502D01*
X013530Y011541D01*
X013528Y011580D01*
X011854Y010017D02*
X011856Y010067D01*
X011862Y010117D01*
X011872Y010166D01*
X011886Y010214D01*
X011903Y010261D01*
X011924Y010306D01*
X011949Y010350D01*
X011977Y010391D01*
X012009Y010430D01*
X012043Y010467D01*
X012080Y010501D01*
X012120Y010531D01*
X012162Y010558D01*
X012206Y010582D01*
X012252Y010603D01*
X012299Y010619D01*
X012347Y010632D01*
X012397Y010641D01*
X012446Y010646D01*
X012497Y010647D01*
X012547Y010644D01*
X012596Y010637D01*
X012645Y010626D01*
X012693Y010611D01*
X012739Y010593D01*
X012784Y010571D01*
X012827Y010545D01*
X012868Y010516D01*
X012907Y010484D01*
X012943Y010449D01*
X012975Y010411D01*
X013005Y010371D01*
X013032Y010328D01*
X013055Y010284D01*
X013074Y010238D01*
X013090Y010190D01*
X013102Y010141D01*
X013110Y010092D01*
X013114Y010042D01*
X013114Y009992D01*
X013110Y009942D01*
X013102Y009893D01*
X013090Y009844D01*
X013074Y009796D01*
X013055Y009750D01*
X013032Y009706D01*
X013005Y009663D01*
X012975Y009623D01*
X012943Y009585D01*
X012907Y009550D01*
X012868Y009518D01*
X012827Y009489D01*
X012784Y009463D01*
X012739Y009441D01*
X012693Y009423D01*
X012645Y009408D01*
X012596Y009397D01*
X012547Y009390D01*
X012497Y009387D01*
X012446Y009388D01*
X012397Y009393D01*
X012347Y009402D01*
X012299Y009415D01*
X012252Y009431D01*
X012206Y009452D01*
X012162Y009476D01*
X012120Y009503D01*
X012080Y009533D01*
X012043Y009567D01*
X012009Y009604D01*
X011977Y009643D01*
X011949Y009684D01*
X011924Y009728D01*
X011903Y009773D01*
X011886Y009820D01*
X011872Y009868D01*
X011862Y009917D01*
X011856Y009967D01*
X011854Y010017D01*
X018229Y005267D02*
X018231Y005317D01*
X018237Y005367D01*
X018247Y005416D01*
X018261Y005464D01*
X018278Y005511D01*
X018299Y005556D01*
X018324Y005600D01*
X018352Y005641D01*
X018384Y005680D01*
X018418Y005717D01*
X018455Y005751D01*
X018495Y005781D01*
X018537Y005808D01*
X018581Y005832D01*
X018627Y005853D01*
X018674Y005869D01*
X018722Y005882D01*
X018772Y005891D01*
X018821Y005896D01*
X018872Y005897D01*
X018922Y005894D01*
X018971Y005887D01*
X019020Y005876D01*
X019068Y005861D01*
X019114Y005843D01*
X019159Y005821D01*
X019202Y005795D01*
X019243Y005766D01*
X019282Y005734D01*
X019318Y005699D01*
X019350Y005661D01*
X019380Y005621D01*
X019407Y005578D01*
X019430Y005534D01*
X019449Y005488D01*
X019465Y005440D01*
X019477Y005391D01*
X019485Y005342D01*
X019489Y005292D01*
X019489Y005242D01*
X019485Y005192D01*
X019477Y005143D01*
X019465Y005094D01*
X019449Y005046D01*
X019430Y005000D01*
X019407Y004956D01*
X019380Y004913D01*
X019350Y004873D01*
X019318Y004835D01*
X019282Y004800D01*
X019243Y004768D01*
X019202Y004739D01*
X019159Y004713D01*
X019114Y004691D01*
X019068Y004673D01*
X019020Y004658D01*
X018971Y004647D01*
X018922Y004640D01*
X018872Y004637D01*
X018821Y004638D01*
X018772Y004643D01*
X018722Y004652D01*
X018674Y004665D01*
X018627Y004681D01*
X018581Y004702D01*
X018537Y004726D01*
X018495Y004753D01*
X018455Y004783D01*
X018418Y004817D01*
X018384Y004854D01*
X018352Y004893D01*
X018324Y004934D01*
X018299Y004978D01*
X018278Y005023D01*
X018261Y005070D01*
X018247Y005118D01*
X018237Y005167D01*
X018231Y005217D01*
X018229Y005267D01*
X010437Y001010D02*
X010439Y001049D01*
X010445Y001088D01*
X010455Y001126D01*
X010468Y001163D01*
X010485Y001198D01*
X010505Y001232D01*
X010529Y001263D01*
X010556Y001292D01*
X010585Y001318D01*
X010617Y001341D01*
X010651Y001361D01*
X010687Y001377D01*
X010724Y001389D01*
X010763Y001398D01*
X010802Y001403D01*
X010841Y001404D01*
X010880Y001401D01*
X010919Y001394D01*
X010956Y001383D01*
X010993Y001369D01*
X011028Y001351D01*
X011061Y001330D01*
X011092Y001305D01*
X011120Y001278D01*
X011145Y001248D01*
X011167Y001215D01*
X011186Y001181D01*
X011201Y001145D01*
X011213Y001107D01*
X011221Y001069D01*
X011225Y001030D01*
X011225Y000990D01*
X011221Y000951D01*
X011213Y000913D01*
X011201Y000875D01*
X011186Y000839D01*
X011167Y000805D01*
X011145Y000772D01*
X011120Y000742D01*
X011092Y000715D01*
X011061Y000690D01*
X011028Y000669D01*
X010993Y000651D01*
X010956Y000637D01*
X010919Y000626D01*
X010880Y000619D01*
X010841Y000616D01*
X010802Y000617D01*
X010763Y000622D01*
X010724Y000631D01*
X010687Y000643D01*
X010651Y000659D01*
X010617Y000679D01*
X010585Y000702D01*
X010556Y000728D01*
X010529Y000757D01*
X010505Y000788D01*
X010485Y000822D01*
X010468Y000857D01*
X010455Y000894D01*
X010445Y000932D01*
X010439Y000971D01*
X010437Y001010D01*
X000778Y019392D02*
X000780Y019431D01*
X000786Y019470D01*
X000796Y019508D01*
X000809Y019545D01*
X000826Y019580D01*
X000846Y019614D01*
X000870Y019645D01*
X000897Y019674D01*
X000926Y019700D01*
X000958Y019723D01*
X000992Y019743D01*
X001028Y019759D01*
X001065Y019771D01*
X001104Y019780D01*
X001143Y019785D01*
X001182Y019786D01*
X001221Y019783D01*
X001260Y019776D01*
X001297Y019765D01*
X001334Y019751D01*
X001369Y019733D01*
X001402Y019712D01*
X001433Y019687D01*
X001461Y019660D01*
X001486Y019630D01*
X001508Y019597D01*
X001527Y019563D01*
X001542Y019527D01*
X001554Y019489D01*
X001562Y019451D01*
X001566Y019412D01*
X001566Y019372D01*
X001562Y019333D01*
X001554Y019295D01*
X001542Y019257D01*
X001527Y019221D01*
X001508Y019187D01*
X001486Y019154D01*
X001461Y019124D01*
X001433Y019097D01*
X001402Y019072D01*
X001369Y019051D01*
X001334Y019033D01*
X001297Y019019D01*
X001260Y019008D01*
X001221Y019001D01*
X001182Y018998D01*
X001143Y018999D01*
X001104Y019004D01*
X001065Y019013D01*
X001028Y019025D01*
X000992Y019041D01*
X000958Y019061D01*
X000926Y019084D01*
X000897Y019110D01*
X000870Y019139D01*
X000846Y019170D01*
X000826Y019204D01*
X000809Y019239D01*
X000796Y019276D01*
X000786Y019314D01*
X000780Y019353D01*
X000778Y019392D01*
D11*
X002297Y019267D02*
X002547Y019017D01*
X003047Y019017D01*
X003297Y019267D01*
X003547Y019017D01*
X004047Y019017D01*
X004297Y019267D01*
X004297Y019767D01*
X004047Y020017D01*
X003547Y020017D01*
X003297Y019767D01*
X003047Y020017D01*
X002547Y020017D01*
X002297Y019767D01*
X002297Y019267D01*
X005222Y020167D02*
X005222Y020267D01*
X005922Y020267D01*
X005924Y020223D01*
X005930Y020180D01*
X005939Y020138D01*
X005952Y020096D01*
X005969Y020056D01*
X005989Y020017D01*
X006012Y019980D01*
X006039Y019946D01*
X006068Y019913D01*
X006101Y019884D01*
X006135Y019857D01*
X006172Y019834D01*
X006211Y019814D01*
X006251Y019797D01*
X006293Y019784D01*
X006335Y019775D01*
X006378Y019769D01*
X006422Y019767D01*
X006466Y019769D01*
X006509Y019775D01*
X006551Y019784D01*
X006593Y019797D01*
X006633Y019814D01*
X006672Y019834D01*
X006709Y019857D01*
X006743Y019884D01*
X006776Y019913D01*
X006805Y019946D01*
X006832Y019980D01*
X006855Y020017D01*
X006875Y020056D01*
X006892Y020096D01*
X006905Y020138D01*
X006914Y020180D01*
X006920Y020223D01*
X006922Y020267D01*
X007622Y020267D01*
X007622Y020167D01*
X008722Y019242D02*
X008722Y017542D01*
X009517Y017192D02*
X010322Y017192D01*
X011122Y017542D02*
X011122Y019242D01*
X010322Y019592D02*
X009529Y019592D01*
X009222Y018392D02*
X009224Y018444D01*
X009230Y018496D01*
X009240Y018548D01*
X009253Y018598D01*
X009270Y018648D01*
X009291Y018696D01*
X009316Y018742D01*
X009344Y018786D01*
X009375Y018828D01*
X009409Y018868D01*
X009446Y018905D01*
X009486Y018939D01*
X009528Y018970D01*
X009572Y018998D01*
X009618Y019023D01*
X009666Y019044D01*
X009716Y019061D01*
X009766Y019074D01*
X009818Y019084D01*
X009870Y019090D01*
X009922Y019092D01*
X009974Y019090D01*
X010026Y019084D01*
X010078Y019074D01*
X010128Y019061D01*
X010178Y019044D01*
X010226Y019023D01*
X010272Y018998D01*
X010316Y018970D01*
X010358Y018939D01*
X010398Y018905D01*
X010435Y018868D01*
X010469Y018828D01*
X010500Y018786D01*
X010528Y018742D01*
X010553Y018696D01*
X010574Y018648D01*
X010591Y018598D01*
X010604Y018548D01*
X010614Y018496D01*
X010620Y018444D01*
X010622Y018392D01*
X010620Y018340D01*
X010614Y018288D01*
X010604Y018236D01*
X010591Y018186D01*
X010574Y018136D01*
X010553Y018088D01*
X010528Y018042D01*
X010500Y017998D01*
X010469Y017956D01*
X010435Y017916D01*
X010398Y017879D01*
X010358Y017845D01*
X010316Y017814D01*
X010272Y017786D01*
X010226Y017761D01*
X010178Y017740D01*
X010128Y017723D01*
X010078Y017710D01*
X010026Y017700D01*
X009974Y017694D01*
X009922Y017692D01*
X009870Y017694D01*
X009818Y017700D01*
X009766Y017710D01*
X009716Y017723D01*
X009666Y017740D01*
X009618Y017761D01*
X009572Y017786D01*
X009528Y017814D01*
X009486Y017845D01*
X009446Y017879D01*
X009409Y017916D01*
X009375Y017956D01*
X009344Y017998D01*
X009316Y018042D01*
X009291Y018088D01*
X009270Y018136D01*
X009253Y018186D01*
X009240Y018236D01*
X009230Y018288D01*
X009224Y018340D01*
X009222Y018392D01*
X015287Y019227D02*
X015289Y019242D01*
X015295Y019255D01*
X015304Y019267D01*
X015315Y019276D01*
X015329Y019282D01*
X015344Y019284D01*
X015359Y019282D01*
X015372Y019276D01*
X015384Y019267D01*
X015393Y019256D01*
X015399Y019242D01*
X015401Y019227D01*
X015399Y019212D01*
X015393Y019199D01*
X015384Y019187D01*
X015373Y019178D01*
X015359Y019172D01*
X015344Y019170D01*
X015329Y019172D01*
X015316Y019178D01*
X015304Y019187D01*
X015295Y019198D01*
X015289Y019212D01*
X015287Y019227D01*
X012812Y007267D02*
X012422Y007267D01*
X012032Y007267D01*
X011922Y007157D01*
X012422Y007167D02*
X012422Y007267D01*
X012812Y007267D02*
X012922Y007157D01*
X012422Y006417D02*
X012422Y006117D01*
X012422Y005367D02*
X012422Y005267D01*
X012812Y005267D01*
X012922Y005377D01*
X012422Y005267D02*
X012032Y005267D01*
X011922Y005377D01*
X011570Y004289D02*
X019523Y004289D01*
X019523Y000746D01*
X016413Y000746D01*
X016413Y001336D01*
X014681Y001336D01*
X014681Y000746D01*
X011570Y000746D01*
X011570Y004249D01*
X013297Y001425D02*
X013797Y001425D01*
X014681Y000746D02*
X016413Y000746D01*
X007622Y006267D02*
X007622Y006367D01*
X007622Y006267D02*
X005222Y006267D01*
X005222Y006367D01*
D12*
X006432Y018688D02*
X006432Y018761D01*
X006432Y018725D02*
X006652Y018725D01*
X006652Y018761D02*
X006652Y018688D01*
X006615Y018835D02*
X006652Y018872D01*
X006652Y018945D01*
X006615Y018982D01*
X006615Y019056D02*
X006652Y019093D01*
X006652Y019166D01*
X006615Y019203D01*
X006578Y019203D01*
X006542Y019166D01*
X006542Y019130D01*
X006542Y019166D02*
X006505Y019203D01*
X006468Y019203D01*
X006432Y019166D01*
X006432Y019093D01*
X006468Y019056D01*
X006468Y018982D02*
X006432Y018945D01*
X006432Y018872D01*
X006468Y018835D01*
X006615Y018835D01*
D13*
X003747Y013542D02*
X003747Y011242D01*
X003745Y011191D01*
X003740Y011140D01*
X003730Y011090D01*
X003717Y011040D01*
X003701Y010992D01*
X003681Y010945D01*
X003657Y010899D01*
X003631Y010856D01*
X003601Y010814D01*
X003568Y010775D01*
X003533Y010738D01*
X003495Y010704D01*
X003454Y010673D01*
X003412Y010644D01*
X003367Y010619D01*
X003321Y010598D01*
X003273Y010579D01*
X003224Y010565D01*
X003174Y010554D01*
X003124Y010546D01*
X003073Y010542D01*
X003021Y010542D01*
X002970Y010546D01*
X002920Y010554D01*
X002870Y010565D01*
X002821Y010579D01*
X002773Y010598D01*
X002727Y010619D01*
X002682Y010644D01*
X002640Y010673D01*
X002599Y010704D01*
X002561Y010738D01*
X002526Y010775D01*
X002493Y010814D01*
X002463Y010856D01*
X002437Y010899D01*
X002413Y010945D01*
X002393Y010992D01*
X002377Y011040D01*
X002364Y011090D01*
X002354Y011140D01*
X002349Y011191D01*
X002347Y011242D01*
X002347Y013542D01*
X002349Y013593D01*
X002354Y013644D01*
X002364Y013694D01*
X002377Y013744D01*
X002393Y013792D01*
X002413Y013839D01*
X002437Y013885D01*
X002463Y013928D01*
X002493Y013970D01*
X002526Y014009D01*
X002561Y014046D01*
X002599Y014080D01*
X002640Y014111D01*
X002682Y014140D01*
X002727Y014165D01*
X002773Y014186D01*
X002821Y014205D01*
X002870Y014219D01*
X002920Y014230D01*
X002970Y014238D01*
X003021Y014242D01*
X003073Y014242D01*
X003124Y014238D01*
X003174Y014230D01*
X003224Y014219D01*
X003273Y014205D01*
X003321Y014186D01*
X003367Y014165D01*
X003412Y014140D01*
X003454Y014111D01*
X003495Y014080D01*
X003533Y014046D01*
X003568Y014009D01*
X003601Y013970D01*
X003631Y013928D01*
X003657Y013885D01*
X003681Y013839D01*
X003701Y013792D01*
X003717Y013744D01*
X003730Y013694D01*
X003740Y013644D01*
X003745Y013593D01*
X003747Y013542D01*
X009054Y013003D02*
X009290Y013003D01*
X009290Y012531D02*
X009054Y012531D01*
X009054Y012003D02*
X009290Y012003D01*
X009290Y011531D02*
X009054Y011531D01*
X013422Y007542D02*
X013422Y006792D01*
X013461Y006790D01*
X013500Y006784D01*
X013538Y006775D01*
X013575Y006762D01*
X013611Y006745D01*
X013644Y006725D01*
X013676Y006701D01*
X013705Y006675D01*
X013731Y006646D01*
X013755Y006614D01*
X013775Y006581D01*
X013792Y006545D01*
X013805Y006508D01*
X013814Y006470D01*
X013820Y006431D01*
X013822Y006392D01*
X013820Y006353D01*
X013814Y006314D01*
X013805Y006276D01*
X013792Y006239D01*
X013775Y006203D01*
X013755Y006170D01*
X013731Y006138D01*
X013705Y006109D01*
X013676Y006083D01*
X013644Y006059D01*
X013611Y006039D01*
X013575Y006022D01*
X013538Y006009D01*
X013500Y006000D01*
X013461Y005994D01*
X013422Y005992D01*
X013422Y005242D01*
X017422Y005242D01*
X017422Y007542D01*
X013422Y007542D01*
X014522Y012142D02*
X016822Y012142D01*
X016822Y015142D01*
X016072Y015142D01*
X016070Y015103D01*
X016064Y015064D01*
X016055Y015026D01*
X016042Y014989D01*
X016025Y014953D01*
X016005Y014920D01*
X015981Y014888D01*
X015955Y014859D01*
X015926Y014833D01*
X015894Y014809D01*
X015861Y014789D01*
X015825Y014772D01*
X015788Y014759D01*
X015750Y014750D01*
X015711Y014744D01*
X015672Y014742D01*
X015633Y014744D01*
X015594Y014750D01*
X015556Y014759D01*
X015519Y014772D01*
X015483Y014789D01*
X015450Y014809D01*
X015418Y014833D01*
X015389Y014859D01*
X015363Y014888D01*
X015339Y014920D01*
X015319Y014953D01*
X015302Y014989D01*
X015289Y015026D01*
X015280Y015064D01*
X015274Y015103D01*
X015272Y015142D01*
X014522Y015142D01*
X014522Y012142D01*
X014929Y016531D02*
X015165Y016531D01*
X015165Y017003D02*
X014929Y017003D01*
X015024Y017587D02*
X016444Y017587D01*
X016290Y017003D02*
X016054Y017003D01*
X016054Y016531D02*
X016290Y016531D01*
X014033Y019024D02*
X014033Y019260D01*
X013560Y019260D02*
X013560Y019024D01*
X015024Y019447D02*
X016444Y019447D01*
X007697Y006017D02*
X006947Y006017D01*
X006945Y005978D01*
X006939Y005939D01*
X006930Y005901D01*
X006917Y005864D01*
X006900Y005828D01*
X006880Y005795D01*
X006856Y005763D01*
X006830Y005734D01*
X006801Y005708D01*
X006769Y005684D01*
X006736Y005664D01*
X006700Y005647D01*
X006663Y005634D01*
X006625Y005625D01*
X006586Y005619D01*
X006547Y005617D01*
X006508Y005619D01*
X006469Y005625D01*
X006431Y005634D01*
X006394Y005647D01*
X006358Y005664D01*
X006325Y005684D01*
X006293Y005708D01*
X006264Y005734D01*
X006238Y005763D01*
X006214Y005795D01*
X006194Y005828D01*
X006177Y005864D01*
X006164Y005901D01*
X006155Y005939D01*
X006149Y005978D01*
X006147Y006017D01*
X005397Y006017D01*
X005397Y003017D01*
X007697Y003017D01*
X007697Y006017D01*
X003572Y005017D02*
X002822Y005017D01*
X002915Y005070D02*
X002679Y005070D01*
X002822Y005017D02*
X002820Y004978D01*
X002814Y004939D01*
X002805Y004901D01*
X002792Y004864D01*
X002775Y004828D01*
X002755Y004795D01*
X002731Y004763D01*
X002705Y004734D01*
X002676Y004708D01*
X002644Y004684D01*
X002611Y004664D01*
X002575Y004647D01*
X002538Y004634D01*
X002500Y004625D01*
X002461Y004619D01*
X002422Y004617D01*
X002383Y004619D01*
X002344Y004625D01*
X002306Y004634D01*
X002269Y004647D01*
X002233Y004664D01*
X002200Y004684D01*
X002168Y004708D01*
X002139Y004734D01*
X002113Y004763D01*
X002089Y004795D01*
X002069Y004828D01*
X002052Y004864D01*
X002039Y004901D01*
X002030Y004939D01*
X002024Y004978D01*
X002022Y005017D01*
X001272Y005017D01*
X001272Y001017D01*
X003572Y001017D01*
X003572Y005017D01*
X002915Y005543D02*
X002679Y005543D01*
X002681Y005617D02*
X002917Y005617D01*
X002917Y006090D02*
X002681Y006090D01*
D14*
X002702Y006184D02*
X002702Y006334D01*
X002652Y006284D01*
X002604Y006309D02*
X002579Y006334D01*
X002529Y006334D01*
X002504Y006309D01*
X002504Y006209D01*
X002529Y006184D01*
X002579Y006184D01*
X002604Y006209D01*
X002652Y006184D02*
X002752Y006184D01*
X002799Y006209D02*
X002824Y006184D01*
X002874Y006184D01*
X002899Y006209D01*
X002899Y006234D01*
X002874Y006259D01*
X002799Y006259D01*
X002799Y006209D01*
X002799Y006259D02*
X002849Y006309D01*
X002899Y006334D01*
X002896Y005786D02*
X002796Y005786D01*
X002699Y005786D02*
X002699Y005636D01*
X002649Y005636D02*
X002749Y005636D01*
X002796Y005636D02*
X002796Y005661D01*
X002896Y005761D01*
X002896Y005786D01*
X002699Y005786D02*
X002649Y005736D01*
X002602Y005761D02*
X002577Y005786D01*
X002527Y005786D01*
X002502Y005761D01*
X002502Y005661D01*
X002527Y005636D01*
X002577Y005636D01*
X002602Y005661D01*
X008902Y012097D02*
X008952Y012097D01*
X008977Y012122D01*
X009024Y012097D02*
X009124Y012097D01*
X009074Y012097D02*
X009074Y012247D01*
X009024Y012197D01*
X008977Y012222D02*
X008952Y012247D01*
X008902Y012247D01*
X008877Y012222D01*
X008877Y012122D01*
X008902Y012097D01*
X009171Y012172D02*
X009246Y012247D01*
X009246Y012097D01*
X009271Y012172D02*
X009171Y012172D01*
X009196Y013097D02*
X009171Y013122D01*
X009196Y013097D02*
X009246Y013097D01*
X009271Y013122D01*
X009271Y013147D01*
X009246Y013172D01*
X009221Y013172D01*
X009246Y013172D02*
X009271Y013197D01*
X009271Y013222D01*
X009246Y013247D01*
X009196Y013247D01*
X009171Y013222D01*
X009074Y013247D02*
X009074Y013097D01*
X009024Y013097D02*
X009124Y013097D01*
X009024Y013197D02*
X009074Y013247D01*
X008977Y013222D02*
X008952Y013247D01*
X008902Y013247D01*
X008877Y013222D01*
X008877Y013122D01*
X008902Y013097D01*
X008952Y013097D01*
X008977Y013122D01*
X013342Y018847D02*
X013442Y018847D01*
X013467Y018872D01*
X013467Y018922D01*
X013442Y018947D01*
X013442Y018994D02*
X013467Y019019D01*
X013467Y019070D01*
X013442Y019095D01*
X013417Y019095D01*
X013392Y019070D01*
X013392Y019045D01*
X013392Y019070D02*
X013367Y019095D01*
X013342Y019095D01*
X013317Y019070D01*
X013317Y019019D01*
X013342Y018994D01*
X013342Y018947D02*
X013317Y018922D01*
X013317Y018872D01*
X013342Y018847D01*
X014777Y017247D02*
X014752Y017222D01*
X014752Y017122D01*
X014777Y017097D01*
X014827Y017097D01*
X014852Y017122D01*
X014899Y017097D02*
X014999Y017097D01*
X014949Y017097D02*
X014949Y017247D01*
X014899Y017197D01*
X014852Y017222D02*
X014827Y017247D01*
X014777Y017247D01*
X015739Y018580D02*
X015864Y018580D01*
X015889Y018605D01*
X015889Y018655D01*
X015864Y018680D01*
X015739Y018680D01*
X015764Y018728D02*
X015739Y018753D01*
X015739Y018803D01*
X015764Y018828D01*
X015764Y018875D02*
X015739Y018900D01*
X015739Y018950D01*
X015764Y018975D01*
X015789Y018975D01*
X015889Y018875D01*
X015889Y018975D01*
X015864Y018828D02*
X015839Y018828D01*
X015814Y018803D01*
X015814Y018753D01*
X015789Y018728D01*
X015764Y018728D01*
X015714Y018778D02*
X015914Y018778D01*
X015889Y018803D02*
X015864Y018828D01*
X015889Y018803D02*
X015889Y018753D01*
X015864Y018728D01*
X016207Y016437D02*
X016182Y016412D01*
X016182Y016312D01*
X016207Y016287D01*
X016257Y016287D01*
X016282Y016312D01*
X016329Y016287D02*
X016429Y016387D01*
X016429Y016412D01*
X016404Y016437D01*
X016354Y016437D01*
X016329Y016412D01*
X016282Y016412D02*
X016257Y016437D01*
X016207Y016437D01*
X016329Y016287D02*
X016429Y016287D01*
D15*
X015614Y015642D02*
X015539Y015718D01*
X015389Y015718D01*
X015314Y015642D01*
X015154Y015642D02*
X015079Y015718D01*
X014929Y015718D01*
X014854Y015642D01*
X014854Y015342D01*
X014929Y015267D01*
X015079Y015267D01*
X015154Y015342D01*
X015314Y015267D02*
X015614Y015567D01*
X015614Y015642D01*
X015614Y015267D02*
X015314Y015267D01*
X014697Y015267D02*
X014547Y015267D01*
X014622Y015267D02*
X014622Y015718D01*
X014547Y015718D02*
X014697Y015718D01*
X013422Y010842D02*
X017422Y010842D01*
X017422Y008642D01*
X016922Y008642D01*
X016922Y009142D01*
X013922Y009142D01*
X013922Y008642D01*
X013422Y008642D01*
X013422Y010842D01*
X011647Y010882D02*
X011647Y010582D01*
X011647Y010732D02*
X011196Y010732D01*
X011346Y010582D01*
X011196Y010422D02*
X011196Y010272D01*
X011196Y010347D02*
X011572Y010347D01*
X011647Y010272D01*
X011647Y010196D01*
X011572Y010121D01*
X013922Y008642D02*
X016922Y008642D01*
X013297Y006260D02*
X013222Y006335D01*
X013147Y006335D01*
X013072Y006260D01*
X013072Y006034D01*
X013222Y006034D01*
X013297Y006109D01*
X013297Y006260D01*
X013072Y006034D02*
X012921Y006185D01*
X012846Y006335D01*
X012921Y005874D02*
X012846Y005799D01*
X012846Y005649D01*
X012921Y005574D01*
X013222Y005574D01*
X013297Y005649D01*
X013297Y005799D01*
X013222Y005874D01*
X013297Y005417D02*
X013297Y005267D01*
X013297Y005342D02*
X012846Y005342D01*
X012846Y005267D02*
X012846Y005417D01*
X009047Y002392D02*
X008547Y002392D01*
X008547Y001892D01*
X005547Y001892D01*
X005547Y002392D01*
X008547Y002392D01*
X009047Y002392D02*
X009047Y000192D01*
X005047Y000192D01*
X005047Y002392D01*
X005547Y002392D01*
X002289Y005142D02*
X002289Y005593D01*
X002064Y005367D01*
X002364Y005367D01*
X001904Y005217D02*
X001829Y005142D01*
X001679Y005142D01*
X001604Y005217D01*
X001604Y005517D01*
X001679Y005593D01*
X001829Y005593D01*
X001904Y005517D01*
X001447Y005593D02*
X001297Y005593D01*
X001372Y005593D02*
X001372Y005142D01*
X001297Y005142D02*
X001447Y005142D01*
X001972Y006142D02*
X001972Y009142D01*
X004172Y009142D01*
X004172Y008642D01*
X003672Y008642D01*
X003672Y006642D01*
X004172Y006642D01*
X004172Y006142D01*
X001972Y006142D01*
X004172Y006642D02*
X004172Y008642D01*
X005422Y006593D02*
X005572Y006593D01*
X005497Y006593D02*
X005497Y006142D01*
X005422Y006142D02*
X005572Y006142D01*
X005729Y006217D02*
X005804Y006142D01*
X005954Y006142D01*
X006029Y006217D01*
X006189Y006142D02*
X006489Y006142D01*
X006339Y006142D02*
X006339Y006593D01*
X006189Y006442D01*
X006029Y006517D02*
X005954Y006593D01*
X005804Y006593D01*
X005729Y006517D01*
X005729Y006217D01*
X004597Y013036D02*
X004296Y013036D01*
X004221Y013111D01*
X004221Y013261D01*
X004296Y013336D01*
X004597Y013336D01*
X004672Y013261D01*
X004672Y013111D01*
X004597Y013036D01*
X004522Y013186D02*
X004672Y013336D01*
X004672Y013496D02*
X004221Y013496D01*
X004221Y013797D01*
X004296Y013957D02*
X004221Y014032D01*
X004221Y014182D01*
X004296Y014257D01*
X004371Y014257D01*
X004447Y014182D01*
X004522Y014257D01*
X004597Y014257D01*
X004672Y014182D01*
X004672Y014032D01*
X004597Y013957D01*
X004447Y014107D02*
X004447Y014182D01*
X004447Y013646D02*
X004447Y013496D01*
X003997Y014892D02*
X003997Y018892D01*
X001797Y018892D01*
X001797Y018392D01*
X002297Y018392D01*
X002297Y015392D01*
X001797Y015392D01*
X001797Y018392D01*
X002367Y020262D02*
X002442Y020262D01*
X002517Y020337D01*
X002517Y020713D01*
X002442Y020713D02*
X002592Y020713D01*
X002752Y020713D02*
X002977Y020713D01*
X003052Y020637D01*
X003052Y020487D01*
X002977Y020412D01*
X002752Y020412D01*
X002752Y020262D02*
X002752Y020713D01*
X003212Y020562D02*
X003363Y020713D01*
X003363Y020262D01*
X003513Y020262D02*
X003212Y020262D01*
X002367Y020262D02*
X002292Y020337D01*
X001797Y015392D02*
X001797Y014892D01*
X003997Y014892D01*
X007946Y017492D02*
X008021Y017417D01*
X008096Y017417D01*
X008172Y017492D01*
X008172Y017642D01*
X008247Y017717D01*
X008322Y017717D01*
X008397Y017642D01*
X008397Y017492D01*
X008322Y017417D01*
X007946Y017492D02*
X007946Y017642D01*
X008021Y017717D01*
X008096Y017878D02*
X007946Y018028D01*
X008397Y018028D01*
X008397Y017878D02*
X008397Y018178D01*
D16*
X003947Y013542D02*
X003947Y011242D01*
X003945Y011183D01*
X003939Y011125D01*
X003930Y011066D01*
X003916Y011009D01*
X003899Y010953D01*
X003878Y010898D01*
X003854Y010844D01*
X003826Y010792D01*
X003795Y010742D01*
X003761Y010694D01*
X003724Y010649D01*
X003683Y010606D01*
X003640Y010565D01*
X003595Y010528D01*
X003547Y010494D01*
X003497Y010463D01*
X003445Y010435D01*
X003391Y010411D01*
X003336Y010390D01*
X003280Y010373D01*
X003223Y010359D01*
X003164Y010350D01*
X003106Y010344D01*
X003047Y010342D01*
X002988Y010344D01*
X002930Y010350D01*
X002871Y010359D01*
X002814Y010373D01*
X002758Y010390D01*
X002703Y010411D01*
X002649Y010435D01*
X002597Y010463D01*
X002547Y010494D01*
X002499Y010528D01*
X002454Y010565D01*
X002411Y010606D01*
X002370Y010649D01*
X002333Y010694D01*
X002299Y010742D01*
X002268Y010792D01*
X002240Y010844D01*
X002216Y010898D01*
X002195Y010953D01*
X002178Y011009D01*
X002164Y011066D01*
X002155Y011125D01*
X002149Y011183D01*
X002147Y011242D01*
X002147Y013542D01*
X002149Y013601D01*
X002155Y013659D01*
X002164Y013718D01*
X002178Y013775D01*
X002195Y013831D01*
X002216Y013886D01*
X002240Y013940D01*
X002268Y013992D01*
X002299Y014042D01*
X002333Y014090D01*
X002370Y014135D01*
X002411Y014178D01*
X002454Y014219D01*
X002499Y014256D01*
X002547Y014290D01*
X002597Y014321D01*
X002649Y014349D01*
X002703Y014373D01*
X002758Y014394D01*
X002814Y014411D01*
X002871Y014425D01*
X002930Y014434D01*
X002988Y014440D01*
X003047Y014442D01*
X003106Y014440D01*
X003164Y014434D01*
X003223Y014425D01*
X003280Y014411D01*
X003336Y014394D01*
X003391Y014373D01*
X003445Y014349D01*
X003497Y014321D01*
X003547Y014290D01*
X003595Y014256D01*
X003640Y014219D01*
X003683Y014178D01*
X003724Y014135D01*
X003761Y014090D01*
X003795Y014042D01*
X003826Y013992D01*
X003854Y013940D01*
X003878Y013886D01*
X003899Y013831D01*
X003916Y013775D01*
X003930Y013718D01*
X003939Y013659D01*
X003945Y013601D01*
X003947Y013542D01*
D17*
X013141Y007057D02*
X013372Y006827D01*
X013372Y007134D01*
X013602Y007057D02*
X013141Y007057D01*
X013218Y006673D02*
X013372Y006673D01*
X013448Y006597D01*
X013448Y006366D01*
X013602Y006366D02*
X013141Y006366D01*
X013141Y006597D01*
X013218Y006673D01*
X013141Y006213D02*
X013141Y006059D01*
X013141Y006136D02*
X013525Y006136D01*
X013602Y006059D01*
X013602Y005983D01*
X013525Y005906D01*
M02*
